<?xml version="1.0" standalone="no"?>
<!DOCTYPE svg PUBLIC "-//W3C//DTD SVG 1.1//EN" "http://www.w3.org/Graphics/SVG/1.1/DTD/svg11.dtd" >
<svg xmlns="http://www.w3.org/2000/svg" xmlns:xlink="http://www.w3.org/1999/xlink" version="1.1">
<metadata>
Created by FontForge 20150824 at Tue Feb  9 03:22:46 2016
 By Everything Fonts
Copyright (c) 2012 by Brittney Murphy. All rights reserved.
</metadata>
<defs>
<font id="whateverittakesbold" horiz-adv-x="413" >
  <font-face 
    font-family="whateverittakesbold"
    font-weight="700"
    font-stretch="normal"
    units-per-em="1000"
    panose-1="0 0 0 0 0 0 0 0 0 0"
    ascent="800"
    descent="-200"
    x-height="359"
    cap-height="627"
    bbox="-128 -259 829 911"
    underline-thickness="50"
    underline-position="-150"
    unicode-range="U+0020-FB02"
  />
<missing-glyph horiz-adv-x="218" 
 />
    <glyph glyph-name=".notdef" horiz-adv-x="218" 
 />
    <glyph glyph-name=".null" horiz-adv-x="0" 
 />
    <glyph glyph-name="nonmarkingreturn" horiz-adv-x="333" 
 />
    <glyph glyph-name="space" unicode=" " horiz-adv-x="218" 
 />
    <glyph glyph-name="exclam" unicode="!" horiz-adv-x="114" 
d="M18 211q0 7 3 12.5t5 9.5v2q-3 2 -5.5 6.5t-2.5 9.5v350q0 8 5.5 13.5t13.5 5.5q19 0 37 -13t18 -33v-141q0 -2 -1.5 -6t-2.5 -6q2 -11 3 -20.5t1.5 -20t0.5 -23.5v-30v-32q0 -15 -0.5 -29t-0.5 -25v-16q8 -11 8 -19q0 -1 -1 -2.5t-2 -3.5q1 -2 2 -5.5t1 -5.5v-8q0 1 2 1
q3 -5 5.5 -10.5t0.5 -14.5q-2 -5 -7 -9.5t-11 -4.5q-8 0 -20 3t-23.5 10.5t-20 20.5t-8.5 34zM67 102q11 0 23 -13t12 -35q0 -8 -5.5 -13.5t-13.5 -5.5q-4 0 -10 -4q-12 -7 -23 -7q-8 0 -13.5 5.5t-5.5 13.5t6 21.5t13 26.5z" />
    <glyph glyph-name="quotedbl" unicode="&#x22;" horiz-adv-x="217" 
d="M5 579q0 22 8 30.5t28 8.5q15 0 22 -4.5t14 -13.5l2 -9q1 -15 -1 -19.5t-4 -9.5q-2 -2 -2.5 -4t-0.5 -8q0 -11 2 -13q2 -5 4 -9.5t2 -10.5v-7q0 -4 -0.5 -9.5t-0.5 -9.5q0 -8 4 -14q3 -7 5 -15t2 -21q0 -8 -5.5 -13.5t-13.5 -5.5q-5 0 -17 1.5t-17 3.5q-6 5 -10.5 15.5
t-7.5 21t-5 19t-2 10.5v18q0 7 0.5 13t0.5 11t-1.5 16t-5.5 20v8zM122 481q-2 1 -3 2l-3 3q-7 19 -9 52.5t-2 63.5q0 8 5 13.5t13 5.5q18 0 33 -7.5t27 -25.5q-2 -9 -2 -20v-22q0 -27 1 -39t6 -29q3 -14 -1 -22.5t-13 -13t-20.5 -5.5t-21.5 -1q-8 0 -13.5 5.5t-5.5 13.5
t2.5 13t4.5 10z" />
    <glyph glyph-name="numbersign" unicode="#" horiz-adv-x="436" 
d="M288 65q0 5 0.5 10t0.5 12q0 19 -2 26t-5 12q-4 8 -7 18.5t-3 34.5v7q-7 -2 -15 -5t-22 -8q-6 -5 -13 -7t-17 -6q4 0 -2 -1.5t-9 -3.5v-54q0 -8 -5.5 -13.5t-13.5 -5.5q-6 0 -15.5 5t-18.5 11.5t-15.5 14t-6.5 12.5v2h-2q-2 0 -7.5 -3t-10.5 -5q-5 -3 -9.5 -5.5
t-11.5 -2.5q-8 0 -13.5 5.5t-5.5 13.5q0 3 2.5 11t6 17t7 17.5t5.5 11.5q8 9 12.5 10t9.5 3q3 1 6 1t4 -2v53h-14q-8 1 -21.5 5t-23.5 10h-10q-3 0 -8.5 1t-11.5 2.5t-11 3t-7 2.5q-4 2 -7 7t-3 10q0 16 6 26t15.5 16t21.5 9t24 5q9 1 15 -4.5t6 -14.5q0 -7 -1 -11q7 1 8 5
t1 13q0 11 -2.5 26t-4.5 26q-3 12 -3 21q0 8 5.5 13.5t13.5 5.5h29q8 0 13 -5.5t5 -13.5q0 -2 0.5 -6t0.5 -9q1 -6 1 -13v-9q0 1 3 -5q2 -5 3.5 -9t1.5 -8l2 -11v3l3 -9q13 8 32 14t32 11l11 4q3 1 6.5 -0.5t7.5 -3.5l5 4l1 1q2 1 4 2.5t5 3.5q2 7 3 12t3 14q-1 0 -1 1
q-2 2 -4 7t-2 8l7 51q-6 5 -10 11.5t-4 20.5t4 23q2 5 4 11t2 15q0 8 5.5 13t13.5 5q1 0 6.5 -2.5t13 -7t15 -9.5t12.5 -11q-2 -14 -2 -31.5v-35.5v-17v-44t2 -24q13 5 26.5 6t28.5 1q19 0 19 -19q0 -3 -1.5 -9.5t-2.5 -8.5q-11 -21 -24 -25.5t-26 -6.5q-6 -1 -10 -4.5
t-4 -24.5v-15q1 0 9 4q3 2 7 5q12 0 22 -8q2 -1 6.5 -2.5t9.5 -1.5q19 0 19 -19v-11q0 -5 -4 -10.5t-8 -7.5q-21 -8 -32.5 -13t-16.5 -9.5t-5.5 -11t-0.5 -18.5v-20v-5.5t-2 -6.5q11 -18 15.5 -42.5t4.5 -47.5q0 -8 -5.5 -13.5t-13.5 -5.5q-13 0 -20.5 2t-17.5 6l3 -1
q-1 0 -2 1q-1 0 -1 1q-19 0 -19 19v8zM273 284q0 1 -0.5 3.5t-0.5 5.5q-5 -1 -8.5 -3t-7.5 -4q-11 -5 -21.5 -9.5t-19.5 -4.5q-2 0 -4 0.5t-4 0.5q-10 -2 -14 -3t-7 -1v-38l15 5q7 3 16 5t14 4q2 0 8 -0.5t10 -0.5l1 1q2 2 3 4q2 3 7 8t13 8l5 2q-2 4 -3.5 9t-1.5 8z" />
    <glyph glyph-name="dollar" unicode="$" horiz-adv-x="342" 
d="M245 422l11 10q26 0 36.5 -17.5t10.5 -37.5q0 -8 -5.5 -13.5t-13.5 -5.5h-29q-6 0 -9 1q-4 -2 -8 -2t-5 1q-3 -2 -9 -2q-8 0 -13 2.5t-10 6.5h5l-7 3v-4q0 -6 1 -9.5t3 -6.5q3 -9 3 -22v-10q0 -8 0.5 -18t8.5 -26q0 -15 4.5 -18.5t12.5 -5.5l23 -8q1 -2 6 -4
q17 -8 30.5 -14.5t22.5 -16.5t14 -24.5t5 -36.5q0 -26 -14 -48.5t-29 -33.5q-5 -8 -12.5 -11.5t-17.5 -8.5q-7 -2 -14.5 -5.5t-16.5 -12.5v-5q0 -5 -0.5 -9.5t-0.5 -6.5q0 -19 2 -30.5t5 -25.5l2 -10q0 -2 -2 -6.5t-4 -6.5q-6 -6 -20 -11.5t-27 -2.5q-5 2 -9.5 6t-8.5 8
t-9 10l-2 38v34q-34 0 -61 4t-46 14t-29.5 27.5t-10.5 46.5q0 8 5.5 13.5t13.5 5.5h7q3 0 8 -2.5t7 -5.5q10 -14 23 -25t21 -11h36q12 1 13.5 1.5t6.5 0.5q-1 9 -1.5 18t-0.5 16q0 6 0.5 14.5t0.5 18.5v19t-1 16q-2 13 -4.5 16.5t-5.5 3.5q-1 -1 -7 -1.5t-11 -1.5l-20 -4
t-8 0l-39 7q-2 0 -3.5 -0.5t-3.5 -0.5q-14 0 -24 16h-6q-8 0 -13.5 5.5t-5.5 13.5q0 21 5 47.5t22 39.5q4 3 9 4q5 13 13.5 25t19.5 12h10q-1 1 4 7.5t10 11.5l7 7q8 4 15 8t7 6q1 4 -0.5 10.5t-3.5 14.5q-2 6 -3 12t-1 14q0 5 -1.5 13t-3 15.5t-3 13t-2.5 5.5
q-11 0 -16.5 8.5t-0.5 19.5l15 29q3 5 9.5 8t13.5 1q14 -5 26.5 -26.5t23.5 -45.5q0 -2 2 -11.5t5 -21t6.5 -22.5t5.5 -15q0 1 13 1h21q2 0 4 -1q6 4 10 4h1zM272 162q0 9 -17 16.5t-34 10.5q1 -21 1 -40.5t3 -45.5q1 5 5.5 3.5t7.5 0.5q23 13 28.5 27.5t5.5 27.5zM92 280
q-2 -5 -4.5 -9t-4.5 -6q5 -1 15 -1h27q5 0 8.5 -2t7.5 -4v9q0 10 -1 14t-3 8q-2 5 -3.5 10t-1.5 15v4q-5 -5 -11.5 -12.5t-11.5 -13.5q-7 -8 -16 -8q0 -1 -0.5 -1.5t-0.5 -2.5z" />
    <glyph glyph-name="percent" unicode="%" horiz-adv-x="617" 
d="M280 366q1 5 5 9.5t8 5.5h2v7l7 44q8 23 11 39.5t5 30.5t4.5 29t10.5 37l-1 -2q2 9 5 15t6 11q2 3 4 7.5t2 15.5q0 10 8 16q2 1 11.5 -4.5t19.5 -13.5t18 -15.5t8 -9.5q0 -7 -2 -10l-4 -6q0 -1 -1 -1q8 -8 5.5 -18.5t-12.5 -12.5q0 -1 -0.5 -4t-0.5 -5l-1 -1
q-2 -7 -6 -11v-2q0 -1 -0.5 -2.5t-0.5 -3.5q-1 -6 -2 -14t-5 -19v-13q0 -13 -7 -20q-1 -5 -2.5 -10t-2.5 -10q-2 -5 -2.5 -9t-0.5 -13l-3.5 -7l-5 -10t-4.5 -9.5t-2 -5.5v-16q0 -16 -8 -23q-3 -19 -8.5 -37t-11.5 -35q-6 -19 -11 -35t-5 -30q0 -7 -4.5 -18.5t-9.5 -24.5
q-3 -8 -5.5 -13t-2.5 -6v-18q-1 -6 -3 -10q-2 -5 -3.5 -9t-3.5 -6l-2 -5q-4 -12 -7 -23t-3 -12q0 -3 0.5 -6t0.5 -5v-10q-8 -21 -18 -29t-31 -8h-10t-13 2q-7 4 -9.5 11.5t2.5 15.5q2 5 6.5 13.5t4.5 9.5v21q3 8 7 15q3 6 5.5 11.5t4.5 9.5l2 17q2 13 4 29t7 30q2 11 10 21
q1 2 2.5 4t1.5 1v25q4 15 8 28t15 27zM349 147q0 13 2 18.5t6 8.5v2v31q4 9 10 19t12 17q4 5 9 12.5t9 15.5q8 8 13.5 13t11.5 8.5t13.5 5.5t19.5 3q23 2 30 -7t7 -29q0 -34 -22 -44q-8 -4 -18 3l-6 -7q-6 -10 -11.5 -21.5t-7.5 -19.5q-1 -2 -1 -5q0 -1 -1 -1v-21
q0 -9 -3 -16h28q4 0 10 -4l24 24q2 4 5.5 14t7 21.5t6 20.5t2.5 11q0 5 -2.5 18.5t-4.5 24.5q-2 7 1 14t11 9l8 4l-3 -1q6 3 12 5t16 2q9 0 23.5 -7t18.5 -23q2 -10 -4 -16q2 -4 4 -7t2 -8q0 -7 -3 -11q2 -4 2 -7t-3 -13t-7.5 -22t-10 -24t-9.5 -19v-10q0 -11 -10 -21.5
t-24 -18.5h-3q2 -2 -1 -5l-5 -5q-8 -8 -16 -14.5t-14 -6.5q-2 0 -6 2t-9 4q-5 -5 -12.5 -9.5t-20.5 -4.5q-12 0 -17.5 2.5t-10.5 5.5q-17 2 -23 13t-7 25q-9 -1 -14.5 5t-5.5 15v4q-8 6 -8 27zM91 294q-7 2 -14 8q-7 -2 -14 -3t-13 -1q-8 0 -13.5 5t-5.5 13v10
q-6 5 -13 15.5t-9 19.5q-11 5 -11 17q0 8 1 15t4 13q-3 10 -3 23q0 11 4.5 24.5t8.5 24.5q0 4 1 5q0 1 1 2v13q8 24 14.5 39.5t13.5 26t15 17t18 11.5q4 5 12.5 11.5t18.5 11.5q5 2 11.5 1t9.5 -5q4 -3 11 -9.5t8 -6.5h10q8 0 12 -2.5t7 -6.5h3q8 0 13.5 -5.5t5.5 -13.5
q0 -3 3 -6q4 -3 5.5 -6.5t1.5 -11.5q0 -1 -0.5 -4t-0.5 -5l12 -31l4 -12v-9t-2 -7q7 -15 -6 -25q-1 -3 -2.5 -7t-3.5 -7q-1 0 -2 1v-16l-8 -21q0 -15 -1.5 -23t-3.5 -11.5t-3 -4l-1 -0.5q-5 -6 -12 -9v-6q0 -10 -3 -15.5t-11 -11.5q-8 -5 -20 -3q-6 -14 -21 -18t-32 -4z
M75 414q0 -2 1 -9.5t3 -15.5t5.5 -14.5t9.5 -6.5l8 4l8 4q-1 0 -2 -1h-1q1 5 3 11t7 13l13 8l4 12q-6 7 -6 17q0 16 12 22v2q0 3 0.5 7t0.5 8v3l-7 31v-2q-2 6 -2 9q-4 -7 -12.5 -8.5t-14.5 2.5q-4 -2 -5 -3t-2 -1h-7q8 -1 6 -6q0 -11 -2 -11.5t-6 -2.5q1 -3 1 -8
q-1 -9 -4 -18t-6 -17q-2 -8 -3.5 -14.5t-1.5 -14.5z" />
    <glyph glyph-name="ampersand" unicode="&#x26;" horiz-adv-x="389" 
d="M7 66q0 2 0.5 3.5t0.5 2.5q5 22 11.5 36t14.5 25l-1 -1l13 27q11 15 12.5 22t5.5 14l3 6v6q0 8 2.5 11.5t6.5 7.5q5 5 5 6q0 2 2 6.5t4 6.5q0 1 4 4.5t8.5 8t8 8.5l3.5 4v11q0 13 4 14.5t9 6.5l1 1q7 10 8 14.5t1 20.5q0 14 -3.5 24t-10.5 22q-5 8 -14 21.5t-9 23.5
q-1 7 -2.5 18.5l-3 23t-2.5 20t-1 10.5v4t1 6q0 4 1 8l56 56q8 8 20 8t32 5q26 -3 40 -9t20 -16.5t7 -26t1 -37.5v-11q0 -11 -1.5 -20t-3.5 -17t-2 -7q0 -2 -2 -7t-4 -7q-2 -1 -4.5 -8.5t-5 -16.5t-4.5 -17t-2 -10q0 -17 -4.5 -24t-11.5 -12q0 -11 2 -26t15 -28q11 -9 4 -21
q4 -5 6.5 -10.5t6.5 -10.5q5 -9 9 -17t5 -8q10 0 15.5 -7t3.5 -15h3q3 0 17.5 7t24.5 13q11 5 20 0t9 -17v-2q0 -1 0.5 -2.5t0.5 -2.5v-4q0 -10 -4.5 -21.5t-10.5 -16.5q-8 -10 -19 -15l-2 -2q2 -4 6.5 -8.5t7.5 -6.5q17 -18 19.5 -40.5t2.5 -48.5q0 -10 -8 -16
q-5 -3 -13.5 -2t-17 6t-15 14.5t-7.5 23.5q-10 17 -17.5 24.5t-22.5 18.5q-10 -9 -19 -15t-17 -11l-8 -2l6 1q-16 -5 -26 -9t-17 -8.5t-12 -9t-12 -11.5q-8 -9 -18 -6l-9 -9q-8 -8 -16 -7q-11 -11 -24 -4q-2 -2 -4 -2q-18 0 -26 1t-13 3q-9 -8 -20 -3.5t-11 17.5v4
q0 2 0.5 4t0.5 4h1q-5 4 -8 9.5t-3 15.5v3zM129 169q-6 -11 -13.5 -24t-14.5 -26t-12 -23.5t-6 -16.5q0 2 3 2q4 0 6 2q5 5 8.5 8t8.5 5q5 3 10.5 5t13.5 5t16 7t21 10l25 18q11 8 21.5 16t12.5 13q-1 0 -2 2l-2.5 2.5t-2.5 3.5q-5 7 -10 13.5t-6 17.5l-22 21q2 -1 3.5 4
t-7.5 28l-18 -30q-3 -8 -10 -23t-16 -24l3 1zM184 434q12 25 14 41.5t2 44.5q-10 2 -13 2q-6 0 -12.5 -3.5t-12 -8.5t-9.5 -10t-4 -8q0 -10 7 -17q5 -6 8 -12t5 -14q5 -5 7.5 -12.5t3.5 -15.5l4 3v10zM42 15l1 -1q0 1 -1 1z" />
    <glyph glyph-name="quotesingle" unicode=""" horiz-adv-x="109" 
d="M13 581q0 20 8 29.5t28 9.5q14 0 20 -4t17 -15q2 -20 0 -27t-6 -13q-1 -1 -1 -9q0 -11 2 -13q6 -11 6 -20v-5q0 -4 -0.5 -10t-0.5 -11q0 -3 1 -7t2 -6q2 -6 5 -14t3 -23q0 -8 -5.5 -13.5t-13.5 -5.5q-5 0 -17 1.5t-17 3.5q-6 6 -10.5 16.5t-7.5 21t-4.5 19.5t-1.5 12v42
q0 2 -1.5 14t-5.5 20v7v0z" />
    <glyph glyph-name="parenleft" unicode="(" horiz-adv-x="186" 
d="M6 121q0 4 -0.5 14t-0.5 21v35v48.5t1 36.5t2.5 30.5t4.5 31.5q0 5 1.5 8l3.5 7l2 4v21q0 15 11 32v-1q2 3 3.5 5.5t1.5 0.5v7q0 5 -0.5 11.5t-0.5 12.5q0 22 5.5 36t11.5 24q1 2 2 2.5t2 2.5q1 1 1 3v21q0 14 10 23q8 35 17 58t27 43l5 12v-1q8 17 17.5 30.5t31.5 13.5
q8 0 13.5 -5.5t5.5 -13.5t-2.5 -20.5t-6.5 -25t-9.5 -24t-11.5 -18.5q1 1 1.5 0.5t-0.5 -2.5q-2 -11 -6 -24t-11 -23l-6 -26l-10 -38l-5 -11q-3 -4 -5.5 -8t-2.5 -3v-28q0 -5 -2.5 -11t-6.5 -14h1q-2 -5 -5 -8t-6 -1q2 -2 3.5 -6.5t0.5 -6.5l-7 -37q-3 -13 -5 -22t-2 -11
v-38v-11.5t-7 -16.5v-149q5 -9 10 -22t5 -17v-26l15 -24l14 -22q7 -3 11.5 -8.5t8.5 -12.5l3 -6q10 -10 5.5 -21t-18.5 -11h-49q-8 0 -13 5t-6 12q-5 2 -6 5q-14 22 -20 41t-6 22q0 4 0.5 8t0.5 7v7q0 -2 -4 6q-1 3 -2.5 8.5t-1.5 7.5q0 10 -3.5 22t-8.5 18z" />
    <glyph glyph-name="parenright" unicode=")" horiz-adv-x="226" 
d="M48 699q5 2 9.5 3t9.5 1q8 0 13.5 -5.5t5.5 -13.5q0 -2 2 -4h-2q5 -2 9 -3t9 -6q5 -6 12 -20t9 -22q0 1 2 -1v1q5 -8 11 -17.5t8 -20.5l3 -6q0 -2 -2 -3t-4 -1q11 -2 15.5 -11t-0.5 -17q8 -11 19.5 -25.5t13.5 -21.5q0 -4 3 -16q0 -4 0.5 -6.5t0.5 -4.5q0 -3 1 -4l2 -7
q3 -5 5 -10t2 -16v-23q3 -13 5 -29t2 -25v-31q0 -5 4 -16q2 -5 3 -11.5t1 -26.5q0 -27 -8 -46v-17q0 -6 -3 -14.5t-6 -17.5q-2 -4 -4 -10q-1 -3 -2 -5v-22q0 -8 -4 -14t-9 -11l-4 -3q-1 -2 -1 -5q-1 -2 -1 -4.5t-1 -4.5l1 1q-2 -9 -5 -16.5t-10 -12.5q-15 -30 -29.5 -51
t-22.5 -29l-3 -3q-11 -10 -14 -19q-2 -5 -7.5 -9t-10.5 -4h-37q-5 0 -10.5 4t-7.5 9l-6 15l18 25q1 0 10.5 7.5t19.5 16.5q3 5 11.5 18t14.5 27l-1 -2q5 14 8 20.5t6 13.5h-1q2 4 5 9.5t7.5 15.5t10.5 25t14 38v2q0 5 -0.5 10.5t-0.5 10.5q0 9 2.5 18.5t6.5 19.5q0 1 -0.5 2
t-0.5 3t1.5 7t4.5 10l-1 2q-2 5 -3.5 9t-1.5 12q0 3 0.5 6.5t0.5 7.5q-3 27 -7.5 57.5t-7.5 50.5q0 11 -6 25.5t-12 29.5q-8 17 -13.5 31.5t-5.5 25.5q0 4 0.5 7.5t0.5 6.5v3l-6 4l-5 4q-5 5 -5 12l-3 3q-8 7 -13.5 16.5t-5.5 12.5v6q0 -1 -14 6.5t-26 13.5q-7 3 -10 10
t0 14q-2 4 -2 11v4q0 10 8 21.5t20 11.5z" />
    <glyph glyph-name="asterisk" unicode="*" horiz-adv-x="381" 
d="M121 108q5 8 12.5 19.5t15.5 28.5q-5 -2 -10 0h-4q-1 0 -2 1q-2 1 -8 -1.5t-12 -5.5h-86q-11 0 -19 12t-8 21q0 13 6.5 20.5t17 10.5t23 3h25.5h11l1 2q4 2 8.5 3.5t7.5 1.5q1 0 2 -0.5t3 -0.5q-27 17 -48 37t-21 34q4 17 13.5 21.5t25.5 4.5q20 0 25.5 -6.5t10.5 -22.5
q0 -1 -1 0.5t-1 0.5q4 -4 7 -0.5t14 0.5l16 -4l16 -11q0 -1 1 -1v3q0 26 -3.5 50t-11.5 50q0 5 6.5 9t16 7t21 4.5t21.5 1.5q0 -4 2 -18t1 -20l-2 -8l2 -2q5 -9 9 -20.5t4 -16.5v-9l24 41l3 4q3 6 7.5 15.5t10 18.5t12.5 15.5t16 6.5t15 -5t9.5 -12.5t5 -15.5t1.5 -14
q0 -8 -5 -13.5t-13 -5.5l-5 -20q-4 -17 -9.5 -33t-22.5 -35l-5 -9q1 0 1.5 0.5t1.5 0.5q2 0 4 -0.5t5 -0.5q-2 0 -0.5 2.5t3.5 4.5q3 0 10 1t15 1.5t15 1t9 0.5q8 0 13.5 -5.5t5.5 -13.5q0 -11 -8 -29t-18 -22l4 1l-29 -10q3 -5 6 -9t8 -9q9 -9 5 -20.5t-18 -11.5
q-2 0 -4.5 -0.5t-5.5 -0.5h-8q-17 0 -33 6q6 -56 6 -111q0 -8 -5.5 -13.5t-13.5 -5.5q-11 0 -17 1t-15 5q-4 1 -7.5 3.5t-5.5 4.5q-1 2 -3 6.5t-2 6.5v15v34t1 28q-5 -9 -10 -18.5t-5 -14.5q0 -2 -2 -6.5t-4 -6.5q-8 -6 -8 -19q-2 -8 -5 -15t-8.5 -12.5t-15.5 -8.5t-27 -3
q-2 0 -5.5 0.5t-6.5 0.5h-11q-11 0 -16 8t-1 18q5 11 11 19t12 13q8 17 15 27t15 21v-1zM125 217l1 1z" />
    <glyph glyph-name="plus" unicode="+" horiz-adv-x="329" 
d="M137 71q-8 0 -13.5 5t-5.5 13v130q-8 0 -17 0.5t-17 1.5l-29 3q1 -1 -3.5 -2t-6.5 -2q-4 -1 -7.5 -2.5t-8.5 -1.5t-11 4q-11 -9 -22.5 -2.5t-8.5 20.5l10 45l7 9q2 3 7.5 5.5t8.5 2.5h5q2 0 4.5 0.5t4.5 0.5q1 0 2.5 -0.5t3.5 -0.5h5q11 0 23 -7.5t23 -9.5l13 6
q2 0 6 -0.5t6 -0.5l1 -1q0 -1 1 -2v92l-5 9q-7 10 -1.5 19t17.5 9h47q5 0 15.5 -9.5t10.5 -16.5q0 -10 -8 -16q-5 -3 -7 -3q5 0 7 2q0 -5 0.5 -9t0.5 -8v-5q0 -9 -2.5 -12.5t-5.5 -7.5q-2 -4 -2 -9v-8q-2 -9 -6 -9q1 -1 5 -1h40q-1 0 1.5 2t3.5 3q10 7 19 2q10 2 20 3t20 1
q8 0 13.5 -5.5t5.5 -13.5q0 -2 -0.5 -10t-2.5 -17l-13 -22q-3 -1 -13.5 -4t-24 -6t-29 -5.5t-29.5 -2.5l-17 -6q-1 -2 -1 -3l6 -128q1 -8 -4.5 -13.5t-13.5 -5.5h-28v0z" />
    <glyph glyph-name="comma" unicode="," horiz-adv-x="101" 
d="M24 19q-5 2 -8.5 7.5t-3.5 10.5v36q0 3 5 7.5t12 9t12.5 7.5t7.5 3t8 -2q3 -1 6 -1q10 -8 16 -14t9.5 -12t4.5 -13.5t1 -18.5q0 -3 -0.5 -9.5t-0.5 -10.5v-7l-4 -20q-3 -18 -6.5 -38t-10.5 -37.5t-17.5 -29t-26.5 -11.5q-8 0 -13.5 5.5t-5.5 13.5q0 5 0.5 20.5t2.5 22.5
q0 8 2 19.5t4 24.5q3 14 5.5 21t1.5 15z" />
    <glyph glyph-name="hyphen" unicode="-" horiz-adv-x="295" 
d="M-1 314q0 23 14.5 36.5t34.5 13.5q22 0 42 -6l-1 1q2 0 3 -1q2 3 6.5 5t8.5 2h49q4 4 9 4h5q4 0 10 -0.5t11 -0.5h3l1 1q5 4 12 6.5t24 2.5q2 0 5.5 -0.5t6.5 -0.5h11q8 0 13 -5.5t5 -13.5t-4 -18t-11 -18.5t-15.5 -14.5t-17.5 -6q-2 0 -10 -1t-17.5 -2t-18 -2t-11.5 -1
h-4q-6 0 -9 1q-5 -5 -11.5 -7.5t-15.5 -2.5q-14 0 -28 2t-25 4q-10 2 -19.5 3t-14.5 1t-8.5 -0.5t-7.5 -0.5h-6z" />
    <glyph glyph-name="period" unicode="." horiz-adv-x="125" 
d="M23 82q5 5 14 9.5t14 4.5q4 0 12 -5t16 -11.5t13.5 -13t5.5 -8.5q0 -20 -6 -25.5t-13 -9.5h1q-4 -2 -4 -3q-2 -2 -5.5 -4.5t-7.5 -3.5h2q-6 -3 -13 -3q-8 0 -15 5.5t-11.5 12.5t-7 13.5t-2.5 9.5q0 5 1 13t4 14q0 3 1 4l3 4zM69 14q-2 -2 -4 -2z" />
    <glyph glyph-name="slash" unicode="/" horiz-adv-x="295" 
d="M74 1q0 -2 0.5 -3t0.5 -3v-8q0 -7 -4.5 -18t-9.5 -20t-10 -12.5t-6 3.5q0 -18 -1 -22t-2 -2t-1.5 6.5t0.5 4.5l-6 -16q-4 -8 -12.5 -10t-15.5 4q-7 5 -11 12t-4 22q0 17 1.5 21.5t3.5 15.5q1 8 1.5 14t0.5 7l8 29l8 31q2 6 5 14t7 13.5t7 7.5t5 -3q-2 10 1.5 13.5
t3.5 5.5v14l5 13q-1 5 1.5 9.5t5.5 9.5h-1q1 0 1.5 4.5t1.5 2.5q1 14 5 21t12 15l5 8q0 2 0.5 4.5t1.5 6.5q2 10 4 22t2 16q2 5 4 10.5t3 8.5q0 5 0.5 9t0.5 7l7 14l15 33q0 2 1 7t2 14q2 8 3.5 16t2.5 10q1 3 3.5 6.5t4.5 5.5q1 1 2 3t2 1v9v14l16 36q6 14 12 27.5t6 22.5
q0 6 3 12v13q0 9 3.5 14.5t8.5 10.5q1 1 3 0v24q1 3 2.5 10.5t4.5 14.5q2 15 5 28.5t10 24.5t18.5 17.5t31.5 6.5q8 0 13.5 -5.5t5.5 -13.5q0 -5 -1.5 -18t-4.5 -19q-1 0 -1 -1q-1 -1 -1 -2q-1 -1 -1 -2v-2q-1 -4 -2 -17t-1 -16q0 -8 -5.5 -13.5t-13.5 -5.5h-4
q6 -2 4.5 -14.5t-4.5 -24.5q-4 -14 -7 -26t-6 -18l-10 -28l-64 -194q0 1 -0.5 -6t-2.5 -14v1q-1 -2 -1 -4.5v-4.5q0 -3 -1 -4q-11 -24 -17 -42t-11 -35q-5 -21 -11.5 -41t-20.5 -44q0 -10 -5 -28t-16 -40v-1v1q-2 -2 -2 -4z" />
    <glyph glyph-name="zero" unicode="0" horiz-adv-x="336" 
d="M-9 262q0 11 1.5 19.5t3.5 16.5q2 6 2 9v45l15 71q2 2 6 7t8.5 9.5l7.5 7.5t4 3l4 21q0 1 1 1q2 7 6 11q1 1 4 10t4 14q4 3 9.5 9t11 12.5t9.5 13t4 9.5q3 5 7.5 11t4.5 4q0 10 8 16q5 3 9 7l9 9q8 8 14.5 15.5t17.5 7.5q6 0 9 -3q10 3 29 3q17 0 31 -5t19 -20
q1 -16 -4 -21q0 -4 2 -6l1 -2q-1 -2 1 -4t0 -3q12 -12 20 -30l3 -7q5 -4 8 -10l7 -14l-1 1l12 -20v-10q0 1 1.5 -7t3.5 -16v1q4 -12 6 -22.5t2 -12.5v-17q5 -26 6 -61.5t1 -68.5q0 -11 -1.5 -15.5t-2.5 -10.5q-1 -4 -2 -7t-1 -2q0 -7 2 -9q8 -9 4.5 -20t-16.5 -12l-3 -23
q-1 -4 -1.5 -2l-0.5 2l-1 -5t-4 -23q-2 -10 -4.5 -18t-9.5 -19t-21 -28t-38 -45q-1 -2 -6 -4t-8 -2h-4q-12 -14 -30 -14q-9 0 -13 -0.5t-7 1.5q-2 -1 -6 -1q-17 0 -24 2t-11 4h-6l4 5q-5 -2 -10.5 -2t-12.5 6q-4 2 -8.5 6t-2.5 6q-9 -2 -15 3.5t-6 15.5q0 5 -3.5 10t-8.5 8
q-7 7 -12.5 15t-5.5 17q0 4 0.5 8t0.5 8v3q-1 -1 -2 1l-11 21q-2 7 -3 13q-2 5 -2.5 11t-1.5 10q-1 3 -2 7.5t-2 8.5l-2 10q-1 7 -2 12.5t-3 12.5t-2 13.5v17.5zM61 273q0 -21 2.5 -39.5t6.5 -20.5q8 -20 11.5 -33t5.5 -24t3 -15.5t3 -9.5q2 -8 10.5 -19.5t10.5 -13.5
q1 -2 3 -5.5t3 -6.5q0 2 7 -1l-2 1l6 -4q8 1 11.5 1.5t7.5 2.5h-1q5 2 9 2.5t10 0.5l7 8l23 17l14 32l-1 -6l4 8t7 10q3 3 6 5.5t4 6.5q2 2 3 7.5t1.5 12t0.5 11.5v5q0 10 4 17.5t8 13.5q0 1 1 2v1q-3 6 -5.5 12t-2.5 8q0 3 1.5 15t3 25.5t3 26t1.5 16.5q1 8 8.5 24t12.5 27
q-5 -3 -12 2t-14 14.5t-12.5 22t-8.5 25.5h3q-8 2 -11 5q-8 8 -11 13t-8 16v9q-11 9 -16 22h1q1 0 3 1q-10 2 -12 8l-3 -2q-6 -4 -12 -9.5t-6 -10.5q0 -17 -16 -19q3 -1 1 -3q-2 -7 -4.5 -11.5t-9.5 -9.5q-1 -11 -3 -13.5t-7 -10.5h-1q-4 -6 -11.5 -19t-21.5 -48
q-1 -14 -8 -34q-4 -14 -7.5 -31t-3.5 -38zM242 571l2 2z" />
    <glyph glyph-name="one" unicode="1" horiz-adv-x="152" 
d="M49 37q0 10 4 15l-4 10q-1 4 -1.5 9t-6.5 13q0 7 0.5 21t0.5 32v38.5v40.5v74t-1 49q0 2 -0.5 10.5t-2.5 19.5q-5 4 -5 12v52q0 2 0.5 5.5t2.5 5.5l4 3l-3 19q-2 14 -3 31t-1 29q0 38 14 54t23 18q4 1 9.5 -0.5t8.5 -4.5l11 -9q4 -16 4.5 -29.5t0.5 -25.5v-20
q0 -4 -0.5 -8t-0.5 -7v-22q0 -2 0.5 -4t0.5 -4t1 -14t3 -26q1 -7 1.5 -15t1.5 -14.5t1.5 -10.5t0.5 -3v-41q0 -23 0.5 -53t0.5 -60q0 -31 -0.5 -60.5t-0.5 -52.5v-36q7 -16 11 -35.5t4 -34.5q0 -8 -5.5 -13.5t-13.5 -5.5q-1 0 -3 0.5t-3 0.5q-8 2 -17 6t-17.5 9.5t-14 13
t-5.5 18.5z" />
    <glyph glyph-name="two" unicode="2" horiz-adv-x="323" 
d="M89 25q-11 3 -19.5 13.5t-14.5 23t-9.5 25t-4.5 21.5q-16 -10 -13.5 4.5t30.5 57.5l2 3l5 5q7 7 14 4q0 5 -1 9.5t-2 6.5q13 18 29.5 48.5t29.5 63.5v-2q6 23 15 42.5t17 36.5l11 26q6 20 10.5 36.5t4.5 21.5v31q0 2 2 6.5t4 6.5h1q-2 5 -8.5 5.5t-14.5 0.5h-6
q-14 0 -24.5 -1t-19.5 -4t-18 -8t-21 -13q-5 -3 -9.5 -9t-8.5 -12q-8 -11 -14.5 -19t-16.5 -8q-2 0 -3.5 0.5t-3.5 0.5l-14 -6q-12 -5 -20.5 3.5t-4.5 20.5q2 5 3.5 12.5t3.5 15.5q3 14 7 27t13 17l61 44h139q4 0 11.5 -6.5t15.5 -16.5t15.5 -22.5t10.5 -24.5
q1 -11 -2 -16.5t-7 -10.5v-20q-1 -13 -6 -30t-11.5 -35.5t-15 -38t-17.5 -37.5l-3 -9q-5 -14 -13 -37t-19 -43l-11 16q2 -10 1.5 -24t-5.5 -25q-3 -14 -10 -28q-2 -4 -7 -7.5t-10 -3.5q1 -1 0 -6.5t-4 -13.5t-6.5 -17.5t-6.5 -16.5q-5 -10 -5 -12.5t-1 -4.5v-2q6 6 11 7
q5 0 19 -5t28 -13q2 4 7 6.5t8 2.5h59q3 0 8.5 -3t7.5 -7v-1l1 1q2 4 7 7t9 3q12 0 18 -6.5t9 -15.5t3.5 -19.5t0.5 -17.5q0 -8 -5.5 -13.5t-13.5 -5.5q-2 0 -4 -0.5t-7 -0.5q-4 -1 -9.5 -1h-7.5t-3 -1q-5 -3 -12.5 -6t-17.5 -3q-17 0 -24.5 3.5t-9.5 6.5q-33 1 -62 5
t-48 13l3 -1v0z" />
    <glyph glyph-name="three" unicode="3" horiz-adv-x="340" 
d="M102 80q2 0 3.5 0.5t2.5 0.5q12 0 20 -4.5t16 -9.5q2 -2 4 -3t6 -1q1 0 13.5 1.5t23.5 4.5l33 52q2 2 3.5 4.5t2.5 4.5l12 11l5 5q3 8 4 17.5t1 28.5q0 29 -4 37t-13 8q-12 0 -25.5 -5t-24.5 -16q-2 -2 -7 -4t-7 -2q-6 0 -13 -1.5t-12 -3.5q-6 -2 -10 -2.5t-7 -0.5
q-8 0 -13.5 5t-5.5 13v42q0 4 3.5 9.5t7.5 7.5q10 5 18.5 12.5t18.5 17.5q17 25 27.5 45t16.5 38.5t8 36.5t2 38q0 3 -0.5 10t-0.5 15v15q-8 8 -12 17q-5 8 -10.5 14.5t-13.5 10.5q-4 7 -22.5 7t-31.5 -1h-5q-5 -3 -13.5 -9.5t-17.5 -14t-17.5 -15t-13.5 -11.5
q-4 -14 -10 -27t-20 -16q-24 0 -28 13t-4 36v6q0 25 13.5 44t33.5 31.5t43.5 19t43.5 6.5q5 0 13.5 -0.5t15.5 -0.5h8q2 0 15 -5t28.5 -12.5t29 -17t18.5 -19.5q11 -26 15 -42.5t7 -39.5q2 -8 3 -18t3 -21q2 -22 -1.5 -32t-8.5 -20q-2 -4 -4 -9t-4 -18l-2 -4q-2 -6 -2 -9
l-7 -22l1 2q-4 -7 -12 -14q-2 -2 -2 2l-3 -6t-2 -5v-1q0 -1 -0.5 -1.5t-0.5 -1.5q5 2 9 3t7 1q14 -5 26 -11.5t21.5 -18t15.5 -29t9 -43.5q1 -33 -5 -53t-12 -31q-2 -3 -4 -7.5t-4 -7.5q-5 -6 -10 -14.5t-9 -18.5q-5 -3 -11.5 -10.5t-12.5 -15t-10.5 -14t-5.5 -7.5
q-2 -2 -6 -5.5t-7 -4.5l-24 -7q-14 -4 -26 -7t-25 -3q-2 0 -7.5 0.5t-9.5 0.5h-4q-14 0 -20 9t-13 20q-4 6 -6 10.5t-3 4.5q-7 3 -9.5 9t-1 12t6 10.5t12.5 4.5h7z" />
    <glyph glyph-name="four" unicode="4" horiz-adv-x="340" 
d="M88 442q-1 -2 -1 -4v-1q0 -3 0.5 -6t0.5 -6v-11l-2 -8q-1 -3 -2 -7t-2 -7q-3 -8 -3 -11v-33q0 -8 -2 -12.5t-4 -8.5q-1 -1 -1 -2t-1 -1v-13q1 -5 2.5 -16.5t3.5 -14.5h3q5 2 8 3t6 3l-7 -12q5 6 13 14.5t10 8.5h6q4 0 8.5 -0.5t9.5 -0.5q0 1 1 1l2 1q6 3 16.5 6.5
t27.5 3.5q3 0 9 -2l29 2q4 0 7.5 0.5t6.5 0.5q4 1 10 -1q-3 10 -4.5 22.5t-1.5 15.5v7q0 3 2.5 7.5t5.5 8.5v61q-5 5 -7 14t-2 17q0 4 0.5 8.5t0.5 8.5v1q-3 9 -7 21.5t-4 15.5v55q0 2 2 6.5t4 6.5q11 11 21.5 18t33.5 7q8 0 13 -5t5 -13v-40t1 -40q0 -18 0.5 -35.5
t0.5 -34.5q0 -21 -0.5 -43.5t-0.5 -41.5v-33q13 -11 24.5 -26.5t11.5 -22.5q0 -17 -8.5 -23.5t-19.5 -10.5v-226q0 -9 -6.5 -15t-15.5 -4h-2q-1 0 -2 0.5t0 0.5q-2 0 -7 2t-7 4t-6.5 10t-9.5 18t-9 19t-4 14v170l-74 2q-14 -6 -25 -8l2 1l-58 -15l4 3q-8 -5 -16 -8.5
t-9 -3.5h-1q-5 -9 -16 -9h-8q-5 0 -10 3.5t-7 6.5l-11 21q0 1 -2 7t-4 11l-1 1q-5 5 -11.5 15t-6.5 18q0 2 2 6.5t3 6.5l9 8l-9 13l11 27q-1 3 0 14t2.5 26.5t3.5 33t3 32.5v15q-3 2 -3 12q0 -1 0.5 3t1.5 9q-2 4 -2 21v15q0 7 3.5 11.5t8.5 9.5q-4 6 -4 19q0 8 1 12
q-7 1 -12 6t-5 13q0 11 6.5 17t16.5 9t21.5 3.5t20.5 0.5h4q8 0 13.5 -5.5t5.5 -13.5v-117v-1q2 -2 4 -9q5 -7 5 -13q0 -1 -0.5 -2.5t-0.5 -3.5q-1 -2 -1 -4zM73 209q-2 0 -2 1q0 -1 -1 -2z" />
    <glyph glyph-name="five" unicode="5" horiz-adv-x="330" 
d="M43 537q1 7 6 11.5t11 4.5q6 11 21 8q5 8 14 8.5t14 -6.5q7 5 14 8.5t17 3.5q8 0 12 1t8 3q5 2 10.5 3.5t15.5 1.5h31q2 0 5 1q2 1 5 1.5t7 2.5q10 3 17 3q40 0 55.5 -5t15.5 -33q0 -14 -8.5 -26.5t-28.5 -12.5q-5 0 -9 2t-9 4q-2 -2 -8 -4q-3 -1 -5 -2q-3 0 -7 1
q-3 1 -7 1.5t-6 2.5q-3 1 -6.5 2t-4.5 1l-3 -3q-1 -1 -2 -1.5t-2 -1.5q-2 -1 -3 -2h-18q-2 0 -5 -2l-6 -4q-6 -5 -11.5 -7.5t-14.5 -2.5q-4 0 -8.5 0.5t-9.5 0.5q-23 -6 -36.5 -13t-20.5 -17t-9 -25.5t-2 -38.5v-27q13 -5 29.5 -12t27.5 -16q3 6 6 9q9 9 17.5 11.5
t8.5 -11.5l3 -3q17 -3 34.5 -11t25.5 -13q0 -1 2 -1q1 0 1 -1v-1h-2q1 -2 6 -4.5t10 -7.5q10 -8 19.5 -17t9.5 -18q5 -10 7 -17.5t2 -26.5q0 -30 -1.5 -49.5t-6 -34t-11.5 -28t-19 -31.5q-20 -20 -30 -36q-8 -11 -17 -21.5t-24 -15.5q-5 -9 -13.5 -13t-19.5 -8t-10 -3
q-2 -2 -6.5 -4t-6.5 -2q-30 0 -48 5.5t-27.5 17t-12 29t-2.5 41.5l18 19q21 0 27 -9.5t9 -22.5h-1q1 -3 2 -7.5t5 -8.5q1 -1 4 -1t7 -1t10 -1q2 0 14 7.5t23 18.5q19 13 24.5 21.5t9.5 17.5v-1l5 9q1 2 4 6.5t5 4.5q9 4 13.5 29t9.5 51l2 5q0 10 -1 17.5t-4.5 14.5t-10.5 14
t-19 16q-4 2 -9 2.5t-10 1.5q-10 1 -19 2t-14 6l-7 -8q-27 -1 -41.5 4.5t-22.5 10.5h-1q-11 0 -16.5 7t-8.5 15h-1l-6 2t-5 2l-6 2l-5 13q-5 9 -8 15.5t-5 14.5t-3 18.5t-1 27.5v11.5t1 13.5t1 11.5v6.5q0 10 8 15v12q5 13 13 25t24 20q1 0 2 0.5t3 0.5l-1 -6q0 1 0.5 1.5
t0.5 1.5v3zM272 274l-2 3v6zM58 305l5 -2q-1 0 -1 0.5t-1 0.5t-1 1h-2z" />
    <glyph glyph-name="six" unicode="6" horiz-adv-x="388" 
d="M97 175q-7 -1 -9 -3v30q0 35 21 50v8q0 20 5 28.5t11 13.5q1 2 1 15q3 3 11 12t18.5 19.5t20 19.5t15.5 13q16 8 35 14.5t36 12.5l16 5q7 0 16 -3.5t16.5 -8.5t12.5 -9.5t5 -6.5v-8q1 5 4 5t5 -1q2 0 6 -3.5t6 -5.5q1 -6 3 -10l2 -8t2 -7q0 -3 1 -5l3 -4q2 -2 4 -6.5
t2 -6.5q0 -18 -1 -30t-2.5 -21.5t-5 -18.5t-7.5 -21v1l-3 -11q-3 -10 -5.5 -19.5t-6.5 -17.5q6 -8 6 -17q0 -8 -6.5 -16.5t-18.5 -8.5h-6q-4 -10 -8.5 -17.5t-6.5 -12.5q-13 -20 -20 -24.5t-17 -8.5q-10 -3 -24 -11l-8 -9q-8 -8 -15.5 -15t-22.5 -9q-8 -10 -27 -13
q-5 -1 -9.5 -2t-4.5 -6q0 -8 -5.5 -13.5t-13.5 -5.5h-13q-3 0 -8 3t-7 5l-42 42q-5 2 -12.5 6t-9.5 8l-5 7q-3 4 -5.5 7t-5.5 8.5t-8 15.5l-14 28v26v5t1 3q-3 2 -6 7t-3 9v116q0 2 2 6.5t4 6.5t6 24t9 46l9 45q1 3 2.5 7t3.5 8v-1q4 8 8.5 20.5t7.5 28.5q7 11 6.5 11.5
t0.5 3.5q2 8 5.5 18t12.5 22q1 8 4 19.5t6 15.5l10 12v-1q0 -1 0.5 -2t0.5 -2q0 4 3 9q2 3 3.5 7t6.5 9q7 7 15 6.5t14 -7.5q4 -6 7.5 -13.5t5.5 -15t3.5 -13.5t1.5 -8q0 -4 -2 -15.5t-12 -20.5q-3 -5 -9 -6q-2 -5 -4.5 -10t-4.5 -10t-4 -9.5t-2 -6.5q0 -4 0.5 -9t0.5 -8v-5
l-27 -17q14 -7 16 -9q-1 -5 -2 -12.5t-5 -15.5l-14 -11q3 1 3 -7t-2 -16v-13q0 -9 -2.5 -13t-4.5 -8q-1 -1 -1 -2v-38q0 -8 -3 -14.5t-6 -13.5q-5 -10 -5 -13q-2 -5 0.5 -12.5t5.5 -15.5q2 -9 5 -18.5t3 -20.5q0 -2 -1.5 -5.5t-3.5 -6.5l5 -9q0 -2 -0.5 -4.5t-0.5 -4.5
q3 -3 6 -7t3 -11v18q0 12 8 15v1zM156 101q6 3 14 7.5t15.5 9t13 8t7.5 5.5q3 3 9 5q-2 1 0 2t4 3l9 11q3 4 7.5 7.5t9.5 6.5v10q0 17 10 27.5t21 15.5q1 2 1.5 5t2.5 6v-1q1 2 2 3.5t1 0.5v3q0 3 -0.5 6.5t-0.5 7.5q0 8 0.5 12t5.5 9q-2 9 -3.5 18.5t-1.5 12.5v23
q0 4 -12 11l-3 -3q-5 -2 -10.5 -6.5t-10.5 -6.5l1 1q-18 -11 -27.5 -17t-15 -11.5t-8 -11.5t-5.5 -16q-23 -40 -29.5 -74t-6.5 -70v-20z" />
    <glyph glyph-name="seven" unicode="7" horiz-adv-x="338" 
d="M-12 556q0 8 17 15.5t43.5 13t57.5 8.5t59 3q4 0 9 -3q7 11 17 11q42 0 69 -16t47 -54q6 -20 9 -40.5t3 -37.5q0 -10 -3.5 -17.5t-7.5 -15.5t-4 -13q-2 -5 -4 -20q-2 -9 -3 -18t-4 -15l-21 -10q10 -4 11 -4q0 -3 -1 -7t-1 -6t-1.5 -7t-3.5 -7l-9 -13q-8 -8 -10.5 -20
t-4.5 -26q-1 -5 -0.5 -7.5t-2.5 -14.5q-2 -21 -12 -39t-16 -27l1 1l-2 -4q-2 -4 -2.5 -8t-0.5 -8q-1 -11 -3.5 -19.5t-10.5 -12.5q-4 -17 -11.5 -41t-13.5 -36l8 7l-3 -20q-5 -20 -12 -34t-24 -14q-7 0 -13.5 5t-11.5 12t-8 15t-3 14q0 1 1.5 11.5t3.5 21.5q-3 7 -2 14
q2 8 4.5 14.5t6.5 14.5v-1q4 8 7 16.5t3 19.5q0 8 9 19l2 2l7 28q2 18 6.5 38.5t15.5 37.5q4 6 14 8q-6 1 -4 12q1 9 1.5 17.5t7.5 17.5l1 1l7 16q0 11 4 19q3 6 7.5 8.5t9.5 2.5q-6 9 -6 23q2 4 7.5 17t11 28t10 29.5t6.5 21.5q0 2 0.5 7t2.5 10q-1 6 -4 12t-10 11.5
t-20 9.5t-33 7q-3 0 -7 -1.5t-8 -3.5t-7 -3t-4 2q-14 -8 -30.5 -6.5t-27.5 -1.5l1 1l-7 -2l-23 -10q-33 0 -60 8.5t-27 32.5z" />
    <glyph glyph-name="eight" unicode="8" horiz-adv-x="373" 
d="M42 87q0 -7 -2 -4.5t-4 4.5q-7 7 -13.5 14.5t-6.5 16.5q0 6 0.5 27t0.5 36v14q0 10 7.5 28t18 36t22 31t18.5 13h3l10 13l2 2q2 4 8 12q2 2 3 4t3 3l-5 3h-16l-13 8q-8 5 -17 12t-11 16q-5 5 -11 14q-6 8 -13 15.5t-11 7.5q-6 0 -11.5 4.5t-7.5 11.5l-9 41q-2 9 4 16
t15 7v10q1 -1 2 -1h2q-14 5 -14 18t14 18q5 2 8 5l5 5q5 7 8 11t16 4v-1q3 6 7.5 11.5t15.5 7.5q3 0 8.5 -0.5t9.5 -0.5q2 0 2.5 0.5t2.5 0.5q6 1 18 5t25 8.5t23.5 8l13.5 4.5q13 1 17.5 -2t9.5 -7h56q5 0 10.5 -4t7.5 -8q-1 2 4 -1t11 -7l-1 1q16 -8 30.5 -19t14.5 -27
q0 -8 -5.5 -13.5t-13.5 -5.5q-4 0 -13.5 0.5t-19.5 1.5q-8 1 -15.5 1h-9.5q-8 0 -19 9h-29q-14 0 -26.5 -2.5t-29.5 -7.5l-26 -6h2q-24 -8 -41.5 -16.5t-17.5 -15.5h2q5 -5 6.5 -8t1.5 -11q0 -2 -0.5 -5.5t-0.5 -5.5v-1l6 -2q10 -5 20.5 -13t21.5 -16t22.5 -16t19.5 -12l4 6
l6 10q5 5 17 11t26 11t27 8.5t21 3.5t13 -5.5t5 -13.5q0 -2 -0.5 -10.5t-2.5 -15.5q-1 -13 -13.5 -21t-26.5 -15h1l-9 -5q19 -9 36.5 -22t31.5 -24l11 -9q2 -2 3.5 -7t1.5 -7q0 -4 7 -18l-1 1q5 -11 8.5 -20.5t3.5 -20.5q0 -2 1 -5q0 -2 2 -12q1 -4 1.5 -8.5t1.5 -8.5t1 -9
q-6 -49 -16.5 -73t-24.5 -36q-3 -3 -7 -5.5t-8 -4.5q-10 -5 -21.5 -14t-18.5 -19q-3 -1 -8.5 -3.5t-7.5 -3.5q-16 -17 -31.5 -20.5t-47.5 -3.5q-15 0 -24.5 0.5t-16.5 3t-14 7.5t-17 14l-1 2l-4 3q-9 6 -12.5 13t-4.5 15l1 -2q-1 3 -3 7.5t-9 9.5zM121 80q6 -6 12 -11t11 -5
q7 -2 21.5 3t32 14.5t34 23t27.5 28.5q2 2 4 13t4 25t3.5 29t1.5 24q0 12 -2.5 16.5t-7.5 6.5q-10 5 -21 16q-5 7 -9.5 9t-8.5 3q-6 2 -12.5 4t-14.5 10q-3 3 -4.5 6t-3.5 4q-7 -2 -11 -6l-2 -1q-2 -13 -10.5 -20t-18.5 -12q-5 -2 -13 -9q0 -1 -1 -1q-1 -1 -2 -1t-2 -1
q-4 -3 -10 -6t-5 -1v1l-7 -19q-5 -11 -10.5 -25t-5.5 -20v-72q0 2 5 0q3 -3 6.5 -7t6.5 -7.5t5 -5.5t1 1z" />
    <glyph glyph-name="nine" unicode="9" horiz-adv-x="384" 
d="M313 -22q-7 0 -19.5 9t-12.5 20l3 366q-3 -2 -3 -5q-5 -7 -14.5 -19.5t-34.5 -29.5q-11 -14 -22.5 -20.5t-21.5 -10.5h-1q-4 -2 -5 -2q-5 -5 -14.5 -14t-11.5 -11l-17 -2q4 -2 5 -2t2 1q-2 -5 -4.5 -9t-7.5 -9q-6 -6 -14 -5.5t-13 5.5q-7 -3 -16 -5t-28 -2
q-5 0 -11.5 0.5t-11.5 1.5q-7 4 -12 5t-10 3.5t-10 10t-12 24.5q-2 6 -5 13.5t6 9.5q-6 1 -11 7t-4 14l5 31q1 2 1.5 5t2.5 5q-7 8 -2.5 19.5t17.5 11.5h8q3 0 6 1v21q0 3 6.5 14t15 24t17 24t13.5 13q3 2 15.5 8.5t17.5 9.5l6 10q0 3 1 4l2 2q5 6 12 12t14 11t12 8t6 3h10
q2 5 6.5 9.5t14.5 5.5q14 13 31 19t34 6q1 0 2 1l6 2q4 1 8.5 1.5t8.5 1.5t9 2q5 0 16 -6t22.5 -14t20 -16t8.5 -12l-8 -40q-3 -15 -19 -15q-14 0 -19 7t-10 15q-2 4 -4 7.5t-3 3.5q-5 0 -12.5 -1.5t-12.5 -3.5h-1l-10 -3q-10 -11 -23.5 -18t-25.5 -12l-15 -6q-1 -2 -6 -4
t-7 -2t-3 -3.5t-3 -6.5q-7 -13 -14 -18l-13 -18q-5 -11 -11.5 -14.5t-12.5 -5.5q-14 -3 -15 -8q-6 -12 -14 -26t-18 -24q0 -2 0.5 -4.5t0.5 -4.5q0 -5 -2.5 -9t-4.5 -8q-3 -3 -3 -1q0 -12 2 -17.5t15 -5.5l12 5l35 16l3 1l18 14q2 2 3 3.5t3 2.5q7 16 19 25.5t28 20.5v-1
q5 4 10.5 7.5t10.5 8.5q3 9 12.5 17.5t19.5 15.5q8 7 17.5 14t14.5 14q4 5 11 7t13 -2q11 -6 20 -25.5t14 -45.5v-273q0 -9 -4 -35.5t-10 -54t-11.5 -49t-8.5 -21.5z" />
    <glyph glyph-name="colon" unicode=":" horiz-adv-x="125" 
d="M23 328q6 5 14.5 10t13.5 5q4 0 12 -5.5t16 -12t13.5 -13t5.5 -8.5q0 -20 -14.5 -34.5t-31.5 -14.5q-8 0 -14.5 5.5t-11 13t-7.5 14t-3 9.5q0 8 2 18.5t7 15.5zM23 82q5 5 14 9.5t14 4.5q4 0 12 -5t16 -11.5t13.5 -13t5.5 -8.5q0 -20 -6 -25.5t-13 -9.5h1q-4 -2 -4 -3
q-2 -2 -5.5 -4.5t-7.5 -3.5h2q-6 -3 -13 -3q-8 0 -15 5.5t-11.5 12.5t-7 13.5t-2.5 9.5q0 5 1 13t4 14q0 3 1 4l3 4zM69 14q-2 -2 -4 -2z" />
    <glyph glyph-name="semicolon" unicode=";" horiz-adv-x="101" 
d="M24 19q-4 2 -8 7.5t-4 10.5v36q0 3 5 7.5t12 9t12.5 7.5t7.5 3t8 -2q3 -1 6 -1q10 -8 16 -14t9.5 -12t4.5 -13.5t1 -18.5q0 -3 -0.5 -9.5t-0.5 -10.5v-7l-4 -20q-3 -18 -6.5 -38t-10.5 -37.5t-17.5 -29t-26.5 -11.5q-8 0 -13.5 5.5t-5.5 13.5q0 5 0.5 20.5t2.5 22.5
q0 8 2 19.5t5 24.5q2 14 4.5 21t1.5 15zM23 328q6 5 14.5 10t13.5 5q4 0 12 -5.5t16 -12t13.5 -13t5.5 -8.5q0 -20 -14.5 -34.5t-31.5 -14.5q-8 0 -14.5 5.5t-11 13t-7.5 14t-3 9.5q0 8 2 18.5t7 15.5z" />
    <glyph glyph-name="less" unicode="&#x3c;" horiz-adv-x="335" 
d="M57 110q-10 2 -18 10.5t-13 17.5q-16 12 -25 31.5t-9 29.5q0 12 5 19t10 12v-1q0 1 1 2q6 8 13 22l14 28q4 5 12.5 12t16.5 12l1 2q3 6 5.5 12.5t7.5 11.5q5 6 13.5 14t17.5 17t18.5 16.5t15.5 12.5v15q0 8 5.5 13.5t13.5 5.5q7 0 17 8q17 3 26 -0.5t12.5 -10.5t4 -16
t-0.5 -17v-8q-1 -1 -6.5 -7t-12.5 -12.5t-13.5 -11.5t-9.5 -5h-5q-1 0 -7 -13.5t-11 -21.5l-3 -6q-5 -12 -18 -10q0 -2 -0.5 -4.5t-2.5 -7.5q-2 -4 -7.5 -7.5t-9.5 -3.5h-3l4 -2q-5 -6 -7 -11.5t-12 -7.5q-8 -19 -22 -33v-44q1 5 8 3.5t15 -4.5q17 -6 33.5 -14.5t16.5 -21.5
q0 -4 3.5 -6t7 -3t5.5 -1t-1 -1q20 -4 46 -17.5t54 -27.5q2 -2 5.5 -6t4.5 -9v3l1 1l-3 3l10 -8q17 -11 23.5 -18t6.5 -23q0 -8 -5.5 -13.5t-13.5 -5.5q-6 0 -14 2h1q-5 1 -8.5 1.5t-5.5 0.5q-8 2 -20.5 7t-26.5 11.5t-27 14t-20 13.5z" />
    <glyph glyph-name="equal" unicode="=" horiz-adv-x="366" 
d="M24 186q-11 0 -16 9l-11 20q-2 3 -2 9.5t2 10.5l5 8q2 3 7.5 5.5t8.5 2.5h208q5 1 12 3t14.5 3.5t13.5 2.5t9 1q10 0 19 -9q-1 -1 -2 -1h9q4 0 7.5 0.5t6.5 0.5q13 0 26 -8t13 -29q0 -3 -2.5 -10.5t-6.5 -16t-10 -14.5t-12 -6h-65l-18 12q0 -1 1 -2l-8 4t-6 4h-203z
M14 309q0 25 14 37.5t35 12.5q13 0 22.5 -1.5t20.5 -4.5q6 8 17 8l103 -9q4 4 8 4h5q4 0 10 -0.5t11 -0.5h3l1 1q5 4 11.5 6t24.5 2h5q14 0 26.5 -3.5t12.5 -25.5q0 -16 -15 -26.5t-34.5 -16.5t-37 -8t-22.5 -2q-9 0 -13 6q-15 -3 -36 -3q-5 -1 -10 -1h-9h-8q-3 -1 -7 -1
h-11q-17 0 -29 1t-25 3q-11 2 -19.5 3t-13.5 1h-16z" />
    <glyph glyph-name="greater" unicode="&#x3e;" horiz-adv-x="381" 
d="M218 202h4t6 2q2 5 6.5 11.5t18.5 14.5h1q-1 0 -0.5 -0.5t1.5 -0.5l1 1h-2q1 0 1 0.5t1 0.5q2 3 5.5 7t6.5 6q8 5 19.5 10.5t18.5 9.5q0 1 0.5 0.5t0.5 0.5l-78 39q-3 0 -7 1t-6 2q-3 1 -5.5 2t-5.5 3q-4 2 -10.5 4.5t-11.5 5.5l1 -1q-10 5 -7 5l-12 5q-3 -2 -8 -0.5
t-9 3t-5 2t5 -2.5q-8 3 -18 7t-16 9q-11 2 -24.5 4.5t-25.5 4.5q-14 3 -29 5q-5 0 -10 3t-7 7q-5 11 -7.5 27.5t-2.5 17.5q0 8 5 13.5t13 5.5q5 0 19 -12t25 -24q0 8 3.5 14.5t12.5 6.5q7 0 19 -5t26 -10q6 -3 12 -5.5t5 -2.5q2 0 7.5 0.5t8.5 0.5q15 -8 38 -13
q9 -2 19.5 -5t24.5 -9l5 -5q9 -2 21.5 -7.5t25.5 -12.5t24.5 -13.5t16.5 -11.5q20 -15 25.5 -26t5.5 -37q0 -2 -1 -14t-2 -16q-1 -3 -4.5 -7t-6.5 -6l-7 -3.5t-10 -6t-10 -6.5t-6 -4v-3q0 -2 -1 -3t-2 -3l-9 -14l-6 -2q-6 -2 -7 -2q-7 0 -7 -1q-3 -2 -10 -7t-14.5 -11.5
t-14 -12t-7.5 -7.5l-21 -12l-5 -4q2 1 -0.5 -2.5t-4.5 -5.5q-9 -11 -22.5 -23.5t-25.5 -15.5l-60 -60q-1 -1 -6 -3t-7 -2h-20q-8 0 -13 5.5t-5 13.5q0 20 7.5 30t18.5 21l4 4q0 1 1 2t1 2l5 9q2 3 12.5 12t17.5 14l-1 -2l3 2q5 4 16.5 15.5t24.5 24t24 24t16 16.5z" />
    <glyph glyph-name="question" unicode="?" horiz-adv-x="269" 
d="M19 180q0 1 3.5 4t3.5 5t-0.5 4.5t-0.5 4.5q0 12 4 17t12 7q-1 2 -1 6v4q0 11 8 16.5t18 1.5l21 -11q-5 9 -0.5 14t9.5 9l11 8l-1 -1q15 11 27.5 20.5t23.5 23t21.5 35t23.5 56.5v2q-1 9 -2 19t-4 20l-23 11h1l-4 2q-10 -10 -23.5 -12.5t-34.5 -4.5q-11 0 -18.5 -6
t-17.5 -15l-9 -9q-14 -1 -25 1.5t-21 4.5l-8 2t-5 1q-8 0 -13.5 5.5t-5.5 13.5v25q0 19 19 19q6 0 10.5 1.5l10.5 3.5l11 4q28 5 55 12t52 24q14 2 20 -0.5t11 -7.5q-4 2 -5 2q2 -2 5 -2q1 -2 2 -2.5t2 -1.5l-3 4q3 -1 9 -1q9 -2 21 -5t16 -5h1q6 -6 12.5 -16.5t12 -23
t8.5 -27t3 -27.5q0 -2 -3 -8t-6 -11q-2 -31 -15 -64.5t-40 -61.5l-9.5 -9.5l-13.5 -13.5l-13 -13t-8 -9q-2 -2 -7 -4t-7 -2q-3 0 -8.5 -4t-12 -9.5t-12.5 -12t-8 -11.5q0 -6 1.5 -12t3.5 -8q4 -5 7.5 -8t3.5 -14q0 -8 -6 -19t-20 -11q-18 0 -28.5 1.5t-15.5 5t-7 9t-3 13.5
v7q-7 8 -11.5 18.5t-4.5 15.5zM99 83q2 0 4.5 -0.5t6.5 -0.5q13 0 18 -10t-3 -20q-12 -17 -27.5 -28t-32.5 -11q-8 0 -13.5 5.5t-5.5 13.5q0 29 17.5 40t35.5 11z" />
    <glyph glyph-name="at" unicode="@" horiz-adv-x="652" 
d="M80 -58l-5 9q-1 0 -6.5 8.5t-12.5 19.5q-8 12 -19 27l-8 28q-15 15 -20.5 24.5t-5.5 14t2.5 5t1.5 -2.5q-3 13 -3 29v25q0 -1 -2 5q-5 8 -5 21q0 3 1 13.5t2 21.5q1 7 1.5 14.5t1.5 14t1 10t0 1.5v3q0 4 1 7q1 11 3.5 29t2.5 23q5 8 6.5 15.5t3.5 13.5q4 17 11.5 41.5
t26.5 62.5l14 8l2 1l3 5l2 2q6 14 16.5 26.5t21.5 22.5l6 6l10 14l-1 -1l6 9q8 8 13.5 9.5t10.5 3.5q2 0 2 -2q0 11 9.5 16t17.5 0q4 8 10 13t18 5q1 0 3 1l6 3q8 4 17.5 7t17.5 3q2 0 5 -1t5 -2l3 1l-1 -1q8 4 17.5 8t11.5 4q8 0 16 -4.5t14 -9.5q2 -2 1 -2q4 0 7 0.5
t6 0.5h4q7 0 20.5 -7.5t24.5 -15.5h3l36 -10q7 -8 12.5 -10t13.5 -5q5 -2 8.5 -7t3.5 -10q0 -1 -0.5 -2t-0.5 -2h3l-1 1q11 -5 17.5 -10.5t12.5 -12.5q4 -6 6 -6q5 -2 9 -6.5t5 -9.5q0 3 -1 4l15 -13l1 -2q1 -2 1.5 -5t-0.5 -2q9 -11 22 -28t21 -40q1 -3 -1 -7q5 -2 10 -7.5
t5 -13.5q7 -13 7 -27v-15q0 -10 7 -27q2 -8 5 -16.5t3 -11.5q0 -2 -3 -7t-7 -8q3 -9 3 -21q0 -15 -3.5 -22t-8.5 -16q-4 -5 -10 -14.5t-11 -19.5q-2 -3 -6 -6t-9 -4q2 -2 0.5 -3.5t-2.5 -3.5l-4 -5q-4 -7 -11 -10l5 -12l-10 7q5 -9 4.5 -23.5t-5.5 -25.5q-1 0 -10 -7.5
t-20 -17t-21.5 -19t-15.5 -14.5l-8 -3h2q-5 -3 -9 -5.5t-7 -5.5q-3 -2 -11 -8t-17 -13t-17.5 -13.5t-12.5 -7.5l-5 -6q-4 -2 -12 -7.5t-17.5 -11t-19.5 -9.5t-18 -4h-16q-2 0 -7 -3t-8 -5q-2 -2 -6.5 -4t-6.5 -2q-3 0 -9 -0.5t-12 -0.5h-20q-30 0 -45 4t-31 12
q-9 5 -24.5 12t-48.5 18zM204 472q-20 -20 -38.5 -40t-28.5 -34v-1q-5 -2 -9 -4l-9 -4.5t-10 -4.5q6 -6 6 -11l1 -8q-3 -5 -5 -9l-3.5 -7l-2.5 -5l-3 -5.5t-6.5 -11.5t-6.5 -11l-3 -5v-23q0 -4 -3.5 -13t-6.5 -16q-4 -19 -5 -41t-1 -37v-21q1 -5 0 -10t-5 -9q1 -2 2.5 -4.5
t2.5 -5.5v1q5 -11 6.5 -21t1.5 -13v-12q0 -4 -0.5 -7.5t-0.5 -5.5q1 0 2 -1q2 -2 3 -2q6 -6 12 -13.5t6 -16.5v-7q5 -13 17.5 -27.5t26.5 -27.5q0 2 6 1l6 -3q13 -2 15.5 -4t7.5 -4q8 -4 16.5 -6t24.5 -2q4 0 20.5 0.5t35 2.5t34 5t16.5 8t5.5 9t9.5 5q4 1 13.5 6.5
t21.5 13.5t24.5 18t22.5 19q29 14 43 30.5t19 26.5l6 2h-4q-8 4 -16 7t-10 3q-12 0 -17 10q-1 5 -10 7t-15 10q-12 7 -12 23v5l-3 6q-4 7 -7.5 14.5t-2.5 10.5q-6 -11 -13 -18t-17 -15l-10 -10l-2 -5l-6 -9q-25 -25 -84 -39q-2 -1 -6 -1q-7 -9 -20 -5q-3 -5 -9 -7t-11 0
q-8 2 -16 9.5t-14 15.5h-19q-8 0 -13 5.5t-5 13.5q0 7 -1 7q-10 0 -15.5 6.5t-3.5 14.5q-8 9 -11.5 20t-3.5 17q0 5 3 15.5t7.5 22.5t11 23.5t12.5 19.5l-12 -3q0 10 4.5 17t12.5 15q5 5 10.5 12t8.5 19q2 6 7.5 9.5t11.5 3.5l-5 -4l9 4q6 3 7.5 3.5t2.5 1.5l2.5 2.5
l6.5 6.5q9 8 17 13t16 5h4q5 5 10 7.5t12 5.5l14 8q11 4 22 -4q11 5 24 5h25h9q10 0 13.5 -2t5 -4.5t2 -5t3.5 -3.5q5 -5 10 -10.5t7 -10.5l18 -11q9 -7 18 -13.5t15 -19.5q2 -12 -1.5 -21t-8.5 -16q-6 -8 -6 -10q0 -3 4 -17.5t9 -31.5q3 -3 5.5 -7t4.5 -8q1 -5 5 -8
q1 -2 5.5 -6.5l9.5 -9.5q5 -6 12 -13l3 -5l23 11q0 8 5 13t12 6q-1 1 -1 7v19q0 19 -0.5 31.5t-2.5 23.5t-6 22.5t-12 27.5l9 -6q-6 5 -14 15t-14 27q-7 2 -8 7t-1 13q-1 2 -6.5 8.5t-22.5 18.5q-1 1 -3 2t-6 5l-7 4l-2 2q-7 4 -17 16l-7.5 7.5t-3.5 4.5l-4 2t-4 3
q-10 6 -22.5 14t-14.5 8h-15q-8 4 -20.5 8t-18.5 6h-25q1 0 -4.5 1.5t-8.5 2.5q-1 0 -5 2q-3 -3 -6 -5.5t-6 -4.5q-4 -3 -6 -4h-4q-2 0 -3 0.5t-3 0.5l-6 -5q-6 -7 -13 -12.5t-21 -5.5q-1 0 -1 -1v1zM242 174q3 0 4 -1q5 5 12 5q3 0 15.5 7.5t24.5 16.5q-2 7 1 13
q2 5 14.5 14.5t23.5 10.5q-1 0 2 5q1 2 2 3.5t3 3.5t3 5q2 2 3 3.5t3 2.5q2 2 5 6.5t4 10.5l-1 2q-1 1 -3 6t-2 7v39h-35q-9 -4 -21.5 -8t-23.5 -6q-8 -5 -25 -10l-11 -5h-10l-2.5 -5l-6 -12t-7 -15t-6.5 -15q-2 -5 -5.5 -7t-6.5 -4q-1 -4 -1 -7.5v-6.5v-14t0.5 -15.5
t1.5 -12.5t2 -5q14 0 17 -12h26z" />
    <glyph glyph-name="A" unicode="A" 
d="M28 98q-5 0 -8 -2.5t-4 -4.5v10q0 6 2 8q1 2 2.5 4t2.5 2v60q0 8 5 13t13 6q-1 1 -1.5 4t-0.5 5h-1h-2q-1 1 -1.5 2.5t-1.5 3.5l-2 4q0 8 0.5 12t2.5 8q1 2 3.5 11.5t7.5 36.5v1q0 3 0.5 8.5t4 23t11 50.5t21.5 90q1 3 3.5 11t4.5 13q1 17 4 29.5t8 21.5q4 8 7 18.5
t3 29.5v22t-2 20q8 12 21 21t18 9q9 0 18 -9q4 1 12 2l16 2t15 2t9 1q15 0 24.5 -1.5t16.5 -4.5t12.5 -8.5l12.5 -12.5h-1l6 -7q9 -8 11 -16.5t6 -18.5l-1 1q2 -5 4 -8.5t-10 -11.5q9 4 17 -1t8 -16q0 -2 -1.5 -8t-3.5 -10q1 -2 3 -6.5t2 -6.5q0 -3 2 -9.5t4 -14.5
q3 -12 6 -23t3 -19v-4q0 -4 -0.5 -6.5t-0.5 -5.5q1 -4 3.5 -12t4.5 -17l4 -18t3 -15l-1 2q1 -7 2 -15q1 -7 1.5 -14.5t1.5 -14.5q1 -14 2 -25.5t2 -14.5v-4q2 -10 4.5 -18.5t2.5 -18.5v-46q0 1 0.5 -2t2.5 -6v1q1 -2 1.5 -5t1.5 -5l2 -6q0 -23 1.5 -41.5t3.5 -36.5
q2 -17 2.5 -32t0.5 -33q0 -8 -5 -13.5t-13 -5.5q-2 0 -11.5 1t-15.5 2q-5 3 -11.5 12.5t-12 21t-9.5 22.5t-4 17q0 2 1 11t3 19q1 5 1.5 9t0.5 3q0 5 4 10.5t9 7.5q-12 -5 -13 -5l-2 -1q-4 11 -4 22v24q-2 0 -2 3q-2 5 -4 9t-2 10q0 8 1.5 11t4.5 8q1 2 2 5.5t1 15.5t-4 24
q-11 -8 -28.5 -14.5t-36.5 -12.5q-29 -10 -55 -20.5t-35 -21.5q-4 -6 -10.5 -7.5t-11.5 1.5q-3 -5 -5.5 -11.5t-6.5 -18.5l1 1q-9 -50 -15 -89.5t-6 -56.5q-13 -38 -15 -67t-2 -57q0 -8 -5.5 -13.5t-13.5 -5.5q-3 0 -10.5 6t-15.5 13.5t-14 14.5t-6 10v153zM229 314
q12 4 26 8t33 6q-3 16 -7 39t-9 53q0 8 -1 16q-2 16 -6 26l-13 53q-4 11 -6.5 17.5t-2.5 14.5q-3 9 -8.5 23t-10.5 19q-8 -5 -18 -13t-15 -16q-5 -7 -15 -9q8 -1 10 -3t1 -6t-4 -8.5t-5 -10.5v1q-3 -14 -6 -22t-7 -22q4 -5 1.5 -11t-7.5 -14l1 3q-2 -4 -2.5 -8t-0.5 -5v-20
q0 -10 -3 -15.5t-6 -8.5q0 -3 0.5 -9.5t0.5 -10.5q-5 -8 -6 -14t-1 -11q-1 -7 -1.5 -13.5t-5.5 -16.5q0 -12 -1.5 -22.5t-3.5 -20.5q7 3 12.5 5t11.5 4q4 2 8 3t6 3t6.5 3.5t6.5 1.5q15 0 26 3t23 8h-1z" />
    <glyph glyph-name="B" unicode="B" horiz-adv-x="444" 
d="M121 -35q-23 4 -36.5 7.5t-22 7t-12 7.5t-6.5 9l-2 -2q-7 -2 -19.5 2t-20.5 21v36q0 18 0.5 42.5t0.5 49.5v37v67t-1 52t-2.5 47t-4.5 52q0 9 5 14q-1 3 -2.5 6l-2.5 5v152q0 9 4.5 17t11 13.5t14 9t12.5 3.5q21 0 27 -18t7 -47q4 8 9 16t13 17l22 36q1 1 10.5 6t21 11
t22 10.5t13.5 4.5h9q23 0 34.5 -1.5t19.5 -14.5q20 -6 25.5 -31.5t5.5 -60.5t-3.5 -55t-14.5 -43q-5 -5 -13 -14t-12 -14q32 -12 63.5 -35t54.5 -55l-1 1q-2 2 5 -6.5t11 -12.5q2 -4 3.5 -6t2.5 -3q2 -2 4 -6.5t2 -6.5q0 -17 5 -25q3 -10 6.5 -22t3.5 -33q0 -15 -2 -36.5
t-7.5 -43.5t-15 -40.5t-25.5 -27.5q-7 -13 -21.5 -27.5t-42.5 -25.5q-10 -7 -18 -9h1q-4 -2 -5 -2q-1 -1 -2 -1l-27 1q-2 -4 -7.5 -8t-13 -8t-16 -7t-15.5 -4h3l-34 -6q-3 -1 -9 -1q-3 0 -5 -1h-10zM76 225q0 -11 0.5 -33.5t0.5 -40.5v-28q0 -9 1 -21.5t1.5 -24.5t1.5 -21
t1 -11l14 -15h21q5 0 14.5 0.5t17.5 0.5h5l26 9q15 6 33.5 12.5t35.5 14.5l-3 -1q37 25 51 45t23 40l-1 -1l7 14q0 18 -1 31.5t-3 26t-5 25.5t-7 30q0 2 -5 11t-9 11q-3 2 -9 8t-13 12.5t-13 13t-8 9.5l-1 1q-10 4 -26.5 10t-27.5 8q-8 -6 -20.5 -14t-24.5 -8
q-17 0 -29.5 7.5t-12.5 25.5q0 11 12 24t27 24l-1 -1q6 5 12.5 10t11.5 10q2 6 7 13.5t10 13.5q4 5 8 9t6 9l-1 -1q7 15 10 36t3 29q0 17 -4.5 32t-17.5 23q-11 -3 -22 -17t-20 -26q-6 -8 -12 -14q-4 -14 -9 -27t-9 -24v1q-6 -17 -12 -33t-12 -34v-4q0 -5 0.5 -12t0.5 -14
q0 -20 -7 -30v-49q0 -2 -2 -6q5 -12 -4 -21l-9 -9v-1q0 -11 -0.5 -29t-0.5 -29z" />
    <glyph glyph-name="C" unicode="C" horiz-adv-x="402" 
d="M-3 269q0 12 2.5 32t5.5 36q0 12 3 27v-1q2 10 3 19.5t1 15.5q0 4 1 12t3.5 17.5t5.5 19t7 16.5q2 8 7 11t11 5v4q0 17 16 19q-3 21 3 33t13.5 18t14 8.5t6.5 4.5t3 7t7.5 10.5t9 10.5t7.5 7q5 0 7 -0.5t4 -0.5h2q1 5 2.5 9.5t5 7.5t10 5t17.5 2h4.5t5.5 -1
q4 7 10.5 11.5t23.5 4.5t23 -5t8 -12q3 0 4 0.5l3 1.5l8 4q9 5 17 0.5t10 -14.5v-4q0 -2 0.5 -3t0.5 -3v-5q10 -4 14 -11t6 -16q8 -5 11.5 -10t5.5 -10h1q8 -2 14 -8t6 -16v-7q2 -4 4.5 -9.5t2.5 -17.5q0 -26 -11 -33.5t-26 -7.5q-16 0 -20.5 7.5t-10.5 20.5q-4 7 -7.5 14.5
t-11.5 18.5q-5 5 -11 12.5t-6 15.5v4q0 2 0.5 3t0.5 3q0 -1 -8.5 1t-14.5 4q-4 0 -8 -0.5t-9 -0.5h-5.5t-6.5 1q-23 -24 -48 -33l-6 -11q-3 -8 -4.5 -10.5t-3 -2t-3.5 1.5t-5 0q-3 -2 -6 -5.5t-3 -17.5q0 -2 -2 -6.5t-4 -6.5l-5 -6q-7 -10 -16.5 -24t-9.5 -25
q-8 -22 -12.5 -39t-6.5 -31.5t-3 -28t-1 -28.5q0 -17 2 -37t12 -38q3 -10 5.5 -18t3.5 -13q2 -7 1.5 -7.5t1.5 -5.5q8 -4 9 -11t3 -16q0 -1 -1 -1l1 -1q12 -8 19.5 -20t11.5 -19q20 -12 41.5 -22t33.5 -10h14q17 0 28 0.5t21.5 3t22.5 8.5t31 17l11 8q8 7 15.5 12t19.5 5
q8 0 13 -5.5t5 -13.5q0 -14 -3 -28t-9.5 -25.5t-16.5 -18.5t-23 -7h-11q-5 -2 -9 -5q-4 -2 -8 -4.5t-6 -3.5q-2 0 -4.5 -0.5t-4.5 -0.5l-1 -2q-2 -2 -6.5 -4t-6.5 -2h-114q-2 1 -7 4.5t-7 5.5q-8 3 -21 8t-15 7l-13 13l-11 5l-24 13l-9 20l-8.5 17t-13.5 18l-9 17l-9 17
q0 8 -2.5 20.5t-6.5 28.5l1 -1q-6 21 -10 42t-4 35z" />
    <glyph glyph-name="D" unicode="D" horiz-adv-x="471" 
d="M27 627q17 0 20.5 -17t5.5 -40l2 -24t3 -21q0 1 0.5 2t0.5 3q0 7 3 10.5t7 6.5q5 14 12.5 30.5t12.5 21.5q15 18 27 30.5t24.5 20t29 11t40.5 3.5q4 0 16 -3.5t24.5 -7.5t22.5 -7.5t12 -4.5q3 -2 13 -9.5t16.5 -12.5t4 -3t-23.5 19l-1 1q7 -5 19.5 -14t25 -21.5t23.5 -27
t16 -30.5q0 -1 -0.5 -5t-0.5 -6q1 1 6 -2t7 -5q6 -16 9 -22t4.5 -8t3 -2.5t3.5 -4.5l12 -21q0 -6 -5 -14q5 -8 9 -16t4 -11v-29q6 -6 6.5 -15t-5.5 -15q6 -8 6 -17q-1 4 -3 4.5t-4 -6t-3.5 -22.5t-1.5 -45q0 -6 0.5 -17t1.5 -21t2 -17.5t1 -6.5v-11q0 -8 -4 -15t-8 -12
q-2 -4 -2 -1q-2 -5 -5 -9t-6 -6q2 1 2 -0.5t-1 -3.5q-2 -7 -3.5 -13.5t-5.5 -11.5q-7 -12 -17.5 -26t-22 -26.5t-24 -22.5t-24.5 -13q-23 -22 -45 -30.5t-33 -8.5q-12 0 -17.5 3t-8.5 6h-16q-15 2 -29.5 6t-25.5 15q-12 12 0 26l7 8q3 3 9.5 4t11.5 -1h17h13t9 2q4 0 14.5 3
t21.5 7.5t19.5 9t10.5 6.5q15 3 25.5 9t18.5 15.5t15 23.5l17 34q11 12 18 34.5t10 39.5q1 7 -1.5 29t-7.5 53v32l-1 2q-2 4 -3.5 9.5t-1.5 10.5v20v6t-2 5t-4 6.5t-2 6.5q0 5 -2 12t-4 12l-8 31l3 -1q-6 6 -9 10t-3 12q-10 12 -22.5 24t-24.5 22.5t-23.5 18t-18.5 10.5h1
l-20 6q-16 7 -26 8q-5 -5 -12.5 -12t-15.5 -14.5t-14 -14t-8 -9.5q-5 -7 -10.5 -19l-11 -24t-9 -21.5t-3.5 -12.5v-8q5 -5 6.5 -8t1.5 -11q0 -2 -0.5 -3t-0.5 -3q-1 -2 -1 -3q-1 -5 -6 -9t-10 -4q5 -1 5.5 -1.5t-0.5 -2.5q-3 -6 -2 -7.5t-3 -1.5q6 -6 8 -10q5 -8 3 -15.5
t-9 -10.5q1 -5 3.5 -11.5t5.5 -13.5q0 -14 -1 -22t-3 -14q-2 -7 -3.5 -16t-1.5 -20q0 -23 2 -34.5t4 -18.5q1 -5 2 -8t1 -14q-1 -2 -4.5 -10.5t-3.5 -10.5t0.5 -8.5t7.5 -19.5q0 -23 -1.5 -30.5t-6.5 -12.5q2 -8 3 -15.5t2 -15.5q2 -9 2.5 -19t0.5 -14q0 -8 -1 -23t-2 -28.5
t-2.5 -21.5t-2.5 -2q0 -3 -4.5 -5t-10.5 -3.5t-11 -2t-6 -0.5q-17 9 -25.5 15.5t-12.5 13.5t-4.5 15.5t-0.5 22.5q0 9 0.5 19.5t0.5 18.5v9q0 15 -1.5 45.5t-3.5 59.5q-2 19 -2.5 35.5t-0.5 21.5q0 11 -6 40l1 -1q-5 17 -9 39t-8 51v135q0 6 -2.5 20.5t-5.5 30.5
q-3 14 -5 27t-2 24q0 19 19 19h22zM433 397q-2 2 -7 3zM101 378q-1 -1 -2 -1q1 0 2 1z" />
    <glyph glyph-name="E" unicode="E" horiz-adv-x="384" 
d="M260 297q0 -11 -6 -22.5t-13.5 -21t-16 -15.5t-12.5 -6h-20q-2 0 -4 -0.5t-5 -1.5h1q-7 -3 -15 -5t-20 -2q-5 0 -7 1q-6 -5 -13.5 -6t-14.5 -1h-6q-5 -6 -11 -8l-8 -2v-86q0 -2 -2 -6q2 -8 2 -14v-12q2 -8 4 -20t2 -13q2 2 8 2.5t8 0.5h2l2 3q2 2 6.5 3.5t6.5 2.5t5 1
q6 0 10 1h-1q5 1 10.5 1t10.5 1q5 0 11 1l5 1q-1 0 1 2q3 2 7 4t10 2h9t5 1q2 2 7 4t8 2h9q6 0 9 -4q11 10 25 19.5t28 15.5q8 -2 11.5 -0.5t7.5 3.5q5 3 10 5t12 4q10 3 16.5 -2.5t6.5 -15.5q0 -14 -2.5 -27.5t-17.5 -28.5q-11 -1 -22.5 -6.5t-22.5 -11.5h1
q-8 -5 -16.5 -10t-19.5 -7q-2 0 -20 -4t-40.5 -9.5t-43 -10.5t-26.5 -7q-7 -2 -14.5 0.5t-16 5t-18 4t-21.5 -1.5q-10 0 -17.5 6t-12.5 14t-7.5 16t-2.5 13q0 4 0.5 7.5t0.5 7.5v7q0 1 -1 3.5t-2 6.5t-2 9l-1 6q0 7 1 10q-4 9 0 16q-4 17 -4 43q-1 8 -1.5 15.5t-2.5 14.5
q1 -1 3 -1q-1 0 -1.5 0.5t-1.5 0.5q0 5 -2 7q0 -3 2 -7q-6 5 -14.5 14t-8.5 31q0 8 5.5 13.5t13.5 5.5q2 0 4 3t4 5l3 5q0 2 -0.5 4.5t-0.5 4.5q0 10 2 15q-2 5 -2.5 10.5t-0.5 13.5q0 19 5 31l-1 13v45q-5 8 -1 19q0 1 -0.5 2.5t-0.5 2.5v57l-2 2q-11 8 -20 17t-9 20
q0 14 8 22v2q0 2 -0.5 4t-0.5 4q0 16 7 21t17 9v5q0 8 5 13.5t13 5.5q9 0 21.5 -11.5t20.5 -26.5h79q-3 0 1 2l16 6q1 0 3.5 -0.5t4.5 -0.5q3 3 8.5 5.5t14.5 2.5h21q6 0 18 3l13 3l-6 -4q4 2 16.5 7t26 9.5t24.5 8t13 3.5q16 -5 26 -20.5t10 -32.5q0 -8 -5.5 -13.5
t-13.5 -5.5q-5 0 -18 -1t-20 -2q3 0 1 -1q-6 -4 -15 -9t-19 -5q-4 0 -8.5 0.5t-7.5 0.5h-3q-11 -4 -25 -9.5t-16 -7.5q-8 -8 -14.5 -6.5t-16.5 6.5l1 -1q-1 0 -3 1l-17 -8h1q-9 -5 -19 -9t-18 -4q-3 0 -17 2t-23 4v-2q0 -9 -2.5 -14t-4.5 -7q2 -4 4.5 -10t2.5 -17v-25
q6 -6 6.5 -14.5t-6.5 -14.5q1 -4 1 -8v-9q0 -17 -3 -29q5 -8 8 -17.5t1 -20.5q-1 -3 -3 -10.5t-6 -15.5q1 -2 1.5 -3.5t0.5 -3.5q0 -9 -8 -15q4 3 8.5 7.5t3.5 4.5q1 0 3 1q4 2 7 4q8 3 12 5t11 4q4 1 10.5 1.5t8.5 0.5q4 0 8 -2q17 13 40 19t48 6z" />
    <glyph glyph-name="F" unicode="F" horiz-adv-x="374" 
d="M24 121l2 2q-2 6 -2 8v137q0 4 4 12q-11 4 -11 21q0 7 5.5 17.5t13.5 20.5l-6 25q-1 8 -2.5 14l-3.5 14q0 1 0.5 8.5t7.5 15.5v139q-3 0 -5 -2q-5 -2 -9.5 -4.5t-14.5 -2.5q-22 0 -30 8.5t-8 30.5q0 13 2 17t9 11l3 3q2 2 7 4t8 2q7 -1 25.5 -1h38.5q24 0 40 0.5
t28.5 1.5t24.5 2.5t29 3.5q18 0 36 1.5t34 3.5q14 2 29 3t29 1q8 0 13 -5.5t5 -13.5q0 -3 -4.5 -16.5t-7.5 -18.5q-8 -7 -20.5 -12t-19.5 -8l-2 -1q-2 -1 -7 -1.5t-7 0.5q-1 0 -3 1t-3 1t-2 1q-3 0 -5 1q-5 -5 -11 -5h-128q1 -4 1 -14q0 -16 -3 -25q4 -8 -1 -17
q3 -11 3.5 -25t0.5 -28v-11q0 -17 -2 -23t-6 -11q3 -5 5.5 -11.5t2.5 -20.5q0 -22 -5 -30h8q17 0 36 7q7 2 9 3.5t6 1.5q4 7 12 9.5t18 4.5l8 2t8 3q4 0 6.5 1t5.5 3q7 3 14.5 6.5t14.5 3.5h4q2 0 5.5 -0.5t6.5 -0.5l2 1q2 0 6 2l-1 -1q6 3 13 5.5t18 2.5q8 0 13.5 -5
t5.5 -13q0 -19 -8 -33.5t-18 -23.5q-8 -3 -26.5 -8l-37 -10t-33 -8.5l-14.5 -3.5h-25q-5 0 -7 -2q-7 -7 -13 -7l-21 -13q-6 -4 -10.5 -6t-5.5 0v-81l-3 -8v-23q0 -16 1.5 -27.5t3.5 -20.5q1 -5 1.5 -8t0.5 -14l-6 -28q6 -6 6 -15q-2 -18 -6 -33t-27 -15q-2 0 -6.5 2t-6.5 4
l-7 6q-5 5 -12 12.5t-9 12.5v18v-1v1v1q-8 5 -8 15v57z" />
    <glyph glyph-name="G" unicode="G" horiz-adv-x="471" 
d="M130 9q-8 0 -13 5q-11 -2 -19 0.5t-15 5.5q-10 4 -15 4q-8 0 -13.5 5t-5.5 13q0 2 -6 6q-6 3 -12 7t-11 10.5t-8.5 16.5t-3.5 27q-2 5 -3 8.5t-3 6.5q-7 13 -12 26t-5 21q0 4 0.5 7t0.5 7q-1 4 -2 11.5t-2.5 14.5t-2.5 13t-1 7q0 7 2 14l4 14q1 4 1.5 6.5t0.5 4.5v58
q0 1 0.5 8.5t1 18t2 22.5t3.5 23q2 2 4.5 8t2.5 8q15 45 27 78.5t24.5 57.5t27.5 40.5t35 29.5q11 5 22 -2q-1 2 -2 2.5t-1 1.5h3q1 0 9.5 3t19 6.5t19 7t10.5 4.5l86 -13q12 -1 23.5 -8.5t20.5 -18t14.5 -23t5.5 -23.5q0 -8 -5.5 -13t-13.5 -5q-3 0 -9.5 1t-10.5 1
q-11 1 -21.5 8t-20.5 15h1q-8 5 -13.5 9t-7.5 4t-9 -3t-9 -4h-19l-1 -1q-3 -4 -6 -5.5t-10 -1.5h-6q-5 -5 -10 -9.5t-15 -4.5h-10q1 -1 1 -3l-8 -15q-5 -13 -15 -24.5t-21 -22.5v1l-9 -8q-2 -5 -4 -15t-4 -21q-2 -12 -4 -22.5t-3 -12.5q-2 -6 -5.5 -9.5t-7.5 -8.5v-9
q0 -10 -2.5 -14.5t-6.5 -6.5q0 -6 0.5 -11.5t0.5 -9.5v-8q-2 -11 -4.5 -25t-4.5 -27t-3.5 -24t-1.5 -17q0 -14 3 -28.5t6.5 -27.5t8 -22t7.5 -12q1 -2 3.5 -7.5t6.5 -16.5l2 -8q8 -11 25 -20.5t31 -14.5q6 -5 14 -6t16 -1q20 0 26 2.5t9 6.5q5 5 10 7.5t12 5.5l-2 -2l18 8
l3 1l25 25q3 3 6 4.5t5 3.5q3 2 7.5 6.5t9.5 15.5q10 6 13 15t4 15q1 9 4.5 19.5t11.5 25.5q4 1 7 3t7 8.5t11 20t19 37.5q1 10 9 18q1 1 1.5 2.5t1.5 2.5l2 2q0 5 -8 8t-18 3h-7t-10 -1q-3 0 -6.5 -0.5t-4.5 -0.5q-3 0 -17 -2t-30 -4q-23 -4 -49.5 -8t-48.5 -6
q-8 -3 -15 -5.5t-9 -2.5l4 4q-11 -2 -24.5 5.5t-19.5 24.5q-2 6 0.5 13.5t9.5 9.5l10 7q12 11 37 18q2 0 7.5 -0.5t10.5 -0.5q-3 -2 -3 -8q1 5 4.5 9t8.5 6q42 14 84.5 16t83.5 2q13 0 16 -13q18 -3 28 -6t16 -7.5t9.5 -11t8.5 -17.5q0 -33 -7 -53.5t-18 -32.5
q-7 -22 -14.5 -45t-13.5 -45q-3 -11 -16 -13q5 -1 4.5 -4t-2.5 -5q-5 -8 -9.5 -16.5t-12.5 -14.5l7 13q-2 -3 -6.5 -9t-9.5 -10q2 2 2 10q-2 -3 -4 -7t-4 -5q-1 0 -4.5 -6t-7.5 -12.5l-8 -13t-5 -8.5l-14 -12v1q-7 -5 -17 -13t-23 -21q-9 -9 -19 -6q-8 -8 -16.5 -15
t-21.5 -7q-3 0 -7 2q-5 -2 -10 -2h-12q-1 0 -2 -1q-2 -2 -6 -2q-17 -5 -22 -5q-7 0 -11.5 2t-9.5 4q-5 3 -7 3z" />
    <glyph glyph-name="H" unicode="H" horiz-adv-x="420" 
d="M305 174v17q0 13 0.5 30t0.5 32l3 7h-8q-2 0 -10 -1t-17.5 -2.5t-17.5 -3t-10 -1.5h-11q-2 0 -8 0.5t-12 2.5q-3 0 -7.5 1t-4.5 2q-5 -5 -11.5 -9.5t-18.5 -4.5q-14 0 -28 2t-26 4q-8 1 -15 2t-13 1q-1 0 -1.5 -0.5t-1.5 -0.5q2 -10 4 -23.5t2 -15.5v-21q2 -9 5 -25.5
t3 -20.5v-20l7 -76q-1 -3 -5.5 -7.5t-9.5 -8.5t-9.5 -7t-6.5 -3q-5 2 -9 5q-4 2 -7.5 4t-5.5 4l-13 14l-8 33v15q-8 23 -8 54q0 10 0.5 21.5t0.5 19.5v8q-2 3 -4.5 8t-2.5 10v10l-8 21l-3 5q-2 5 0 6q-10 -3 -16.5 2.5t-6.5 15.5q0 5 1 16.5t2 15.5v-1q3 9 15 19l-2 -2
q1 1 2 1q2 2 4.5 7l5 10l4.5 9t2 5q0 -2 -1 10.5t-3 26.5q-1 8 -2 17.5t-1.5 17.5t-1 13t-0.5 4v131q0 15 13 27.5t32 12.5q8 0 13.5 -5.5t5.5 -13.5v-29q-1 -6 -1.5 -18.5t-1 -27.5t-1 -29.5t-0.5 -23.5q0 -17 2 -38t4 -40q3 -29 3 -47q0 -7 -0.5 -13t-0.5 -11l-1 -3
q3 1 4 0.5t3 -0.5h9q2 0 7 -0.5t10 -0.5h8l18 -4q2 2 7 4.5t8 2.5h80q5 4 10 4h5q4 0 10 -0.5t11 -0.5q8 0 5 -0.5t-1 1.5q4 3 10 5t21 3q1 4 1 8v7v5q-6 38 -7 69.5t-1 74.5v17q0 23 -0.5 40.5t0.5 25.5q-6 7 -6 11q0 19 10 34t30 15q14 0 18 -13l4 -8l11 -25v-3q0 -1 1 -1
q14 -12 4 -21l-1 -2q0 -11 -1 -24t-1 -22l-4 -8q6 -10 8 -22.5t2 -21.5q0 -7 -0.5 -13.5t-0.5 -11.5v-5q-1 2 -4.5 6t-5.5 4l18 -22q0 1 0 -3t-0.5 -11t-1 -14.5t-1.5 -14.5q-1 -11 -2.5 -22t-2.5 -22v-9q1 -4 2.5 -11.5t2.5 -15t2 -14t1 -8.5v-66q0 -2 -2.5 -14t-5.5 -19
q0 -4 0.5 -8.5t0.5 -8.5q0 -8 -2 -12t-4 -9l-2 -4q0 -10 2 -19.5t5 -19.5q4 -17 7 -34.5t3 -37.5q0 -8 -5.5 -13.5t-13.5 -5.5q-3 0 -17 1.5t-17 3.5l-15 17z" />
    <glyph glyph-name="I" unicode="I" horiz-adv-x="184" 
d="M45 283v293q-6 9 -8 16.5t-2 15.5t5.5 13.5t13.5 5.5q30 0 38 -21.5t10 -52.5q0 -3 0.5 -7t0.5 -6q0 -13 1 -53.5t3 -88.5q1 -28 1.5 -54.5t1 -49t1 -38.5t0.5 -23q9 -17 14 -40v-7q0 -5 -3 -12t-6 -15q5 -8 10.5 -18t6.5 -17q0 -20 -9 -35q5 -7 7 -12.5t2 -8.5
q0 -9 -9 -18t-20 -15.5t-21.5 -10.5t-14.5 -4q-8 0 -13 5.5t-5 13.5v206z" />
    <glyph glyph-name="J" unicode="J" horiz-adv-x="196" 
d="M51 79q21 11 32 33t25 60q0 5 0.5 13t0.5 17v31q0 9 -0.5 25.5t-0.5 27.5v9q0 11 -3 23t-5 23q-5 15 -9.5 32.5t-4.5 34.5q-1 3 -2 10t-2 14.5t-2 14.5t-1 9l2 8l3 15q0 2 1 3q-1 3 -2.5 6.5t-0.5 2.5q-4 2 -7.5 7t-3.5 10v51q0 5 3.5 9.5t8.5 6.5q-1 0 -1 6v11
q0 19 19 19q13 0 21.5 -6t14 -15.5t8 -20t2.5 -19.5q0 -10 -1.5 -16t-3 -11t-1.5 -11.5t2 -16.5q3 -4 2.5 -9t-2.5 -9q8 -11 16.5 -29t8.5 -43q0 -31 3 -56.5t8 -51.5l3 -23q2 -12 -0.5 -17.5t-7.5 -9.5q0 -3 0.5 -6.5t0.5 -5.5v-9l-7 -65q0 -4 -3 -8t-6 -6v-4
q0 -2 -0.5 -3.5t-0.5 -3.5q-2 -14 -7 -26q-7 -14 -20.5 -33.5t-32 -37.5t-42 -30.5t-50.5 -12.5q-8 0 -13.5 5.5t-5.5 13.5q0 29 17.5 43.5t46.5 20.5zM136 486v-1v1z" />
    <glyph glyph-name="K" unicode="K" horiz-adv-x="371" 
d="M4 99q0 16 11 22q-4 10 -4 14q0 23 2.5 32.5t4.5 14.5l-7 14q0 8 -0.5 17t-5.5 20v18q-5 5 -7 8t-2 11q0 2 1.5 6.5t3.5 6.5t6 7.5t4 9.5q0 2 -1.5 10t-4.5 19q-2 14 1 17.5t5 8.5h1q0 5 -1 8t-2 7q-1 8 -3 15.5t-2 24.5v12q0 5 0.5 8.5t0.5 5.5q0 8 5 13q-2 8 -4 16.5
t-2 18.5q0 17 2 22t4 9q1 1 1.5 2.5t0.5 9.5t-0.5 9t-1.5 2l-4 8t-2 21q0 9 1.5 19t5.5 18.5t10 14t14 5.5q12 0 20.5 -9.5t14 -22t7.5 -24.5t2 -16v-42q0 -2 2 -17.5t6 -30.5q0 -3 -1 -6.5t-2 -6.5l-3 -7q11 -9 4 -22q2 -6 2 -7v-40q13 18 35 31q8 5 14.5 9.5t8.5 6.5
q7 17 19.5 29t24.5 22q6 5 11 8.5t8 6.5q8 6 17 19t16 27q6 10 17 10q-1 1 0 3q5 11 11.5 18.5t21.5 8.5q7 11 17 19t18 10q5 2 10.5 -0.5t10.5 -4.5h-1q2 -2 1 -2q7 -1 12.5 -6t5.5 -13v-44q0 -8 -5.5 -13t-13 -8t-14 -4.5t-7.5 -1.5q-3 0 -3 0.5t-5 0.5l-19 -20l-7 -4v1
l-1 -1l-2 -1v-1q0 -1 1 -1l-3 -4q-7 -8 -12.5 -14t-10.5 -13q-10 -13 -21 -24.5t-24 -17.5l-7 -9q-4 -8 -8 -12q0 -19 -10 -22t-22 -7l-4 -2t-4 -5q-6 -3 -7.5 -7t-3.5 -8v1q-5 -17 -15 -24l1 1q-23 -18 -37.5 -29.5t-14.5 -14.5l1 -1q0 -1 2 -3q2 -3 4.5 -6.5t4.5 -8.5
l10 -10t15 -13.5t16.5 -12.5t14.5 -8q11 -4 14 -17q2 5 14 1l22 -10t18 -10q10 -1 15.5 -4.5t11.5 -9.5q4 -4 15.5 -13t46.5 -26q4 -2 7 -6.5t3 -8.5q2 -22 -7 -29t-30 -7q-11 0 -23.5 4.5t-26 11t-26.5 14.5t-23 14q-4 2 -6.5 4t-7.5 4q-2 0 -3 -0.5t-2 -0.5q-2 2 -5 4
q-6 4 -8 7l-2.5 2.5t3.5 1.5q-3 1 -7 2.5t-5 3.5q1 -1 -9.5 4t-21.5 11l-21 10h-1q-2 -25 -6 -43q5 -7 5 -13q0 -3 -0.5 -15.5t-3.5 -23.5l-7 -21q-5 -12 -5 -13q0 -2 2 -11t4 -12q5 -10 -1 -17.5t-17 -7.5h-3v2q-11 2 -22 12.5t-16 22.5q0 9 -4 27.5t-7 31.5q-2 8 -3 13
t-1 6z" />
    <glyph glyph-name="L" unicode="L" horiz-adv-x="355" 
d="M177 8q-6 0 -10 3q-6 0 -9 -1q-4 -1 -11 -1q-3 0 -6 -1q-5 -1 -9 -2t-6.5 -1h-4.5t-5 -0.5t-7 1.5q-2 0 -3 0.5t-2 0.5t-1 1l-17 1q-16 2 -30.5 4.5t-26 9.5t-18.5 18.5t-7 31.5v4q-5 6 -10 15t-5 21q0 2 0.5 4.5t2.5 4.5q-3 7 -3 13q0 2 2 6.5t4 6.5q0 2 -1 4
q-5 12 -5 19q0 1 2 7t4 11q0 1 0.5 1.5t0.5 1.5v1v8q0 7 0.5 16t0.5 14q0 2 -0.5 7t-0.5 11v21v6t-1 10q-1 8 -1.5 14.5t-0.5 14.5q0 6 0.5 11t2.5 9v218q0 3 5.5 8t13 9t14.5 7t9 3q5 0 16 -3.5t19 -10.5q5 -5 5 -13t-5 -13l-10 -10v-16t-1 -23q0 -17 -1 -36.5t-2 -38
t-1.5 -35t-0.5 -27.5l7 -49q0 -3 -1.5 -8t-3.5 -7q-1 -1 -1.5 -4t-0.5 -4v-146l6 -20q3 -10 7.5 -21.5t7.5 -21.5q0 2 3 4.5t7 0.5q9 -3 18.5 -6.5t16.5 -6.5l41 5q10 2 22 2.5t24 0.5h13q8 7 20 9t26 5q8 1 14.5 2t10.5 4q5 2 15.5 3t12.5 1q19 0 19 -19q0 -22 -5.5 -35
t-16 -20.5t-26 -11t-36.5 -6.5l-34 -6q-2 -1 -5 -1h-8q-12 0 -17.5 2.5t-10.5 7.5h-5v0z" />
    <glyph glyph-name="M" unicode="M" horiz-adv-x="724" 
d="M0 430q4 10 5 22.5t1 16.5q-2 14 -6 29t-7 29q0 2 -0.5 5.5t-0.5 4.5q7 23 18 32t23 9q5 0 12 -2.5t13.5 -7t11 -9.5t4.5 -10v-3q17 -3 31.5 -14t25.5 -22q1 -3 6 -11t10 -16.5t8.5 -15t2.5 -6.5q4 0 9 -3t7 -6q5 -7 11 -21.5t12 -28.5q2 -5 5.5 -13.5t11.5 -23.5
q-1 1 -1 2t-0.5 1t-0.5 1l4 -3q1 -2 3 -6.5t2 -6.5q0 -3 3 -16l1.5 -6t0.5 -5q7 -9 12.5 -22.5t10.5 -25.5q2 -9 6.5 -19t9.5 -18v-8q8 -2 12 -8t3 -13q3 -5 5.5 -9t2.5 -8l12 -25q1 8 2 13.5t2 12.5q2 16 3.5 31t1.5 38q0 9 -0.5 17t-0.5 15v18q2 3 4.5 10.5t4.5 18t3.5 22
t1.5 20.5q2 8 5 16l6 16l3 6q1 2 1 3l-1 1q-2 2 -2 4v-1q-4 7 -4 14q-1 11 1.5 15t5.5 9q0 4 -0.5 7.5t-0.5 7.5q0 11 3 16t6 8v42q11 16 15 25t8 16q8 21 20 33t45 12q3 0 13 -5.5t20 -13t18 -16.5t8 -15v-5q12 -14 23.5 -33.5t18.5 -31.5q3 -7 0 -16q0 -1 5 -3l9 -11l-3 5
q3 -3 7.5 -10t9.5 -16t10 -19t8 -17q0 -5 -0.5 -11t-1.5 -11q5 -8 9.5 -17t6.5 -15l4 -8q0 -2 -4 -2q8 -2 12.5 -9t1.5 -15q12 -15 14 -33t2 -28q0 -11 2.5 -18t5.5 -11q7 -12 7 -21q0 -4 -0.5 -6.5t-0.5 -5.5q6 -13 10 -33.5t6 -31.5q13 -34 20.5 -54t11 -33.5t4.5 -24
t1 -26.5q0 -8 -5.5 -13.5t-13.5 -5.5t-17.5 2.5t-18.5 7.5t-15 12t-6 17q0 2 0.5 3t0.5 3l-2 3q-2 2 -2.5 5t-1.5 5l-2 6v14q-1 4 -3 8q-3 7 -6 18v-1q-3 8 -6.5 18t-4.5 16q0 1 -1 4t-1 8v5q-8 10 -10 22.5t-4 23.5v18q-3 3 -6 12q-2 5 -5 11.5t-4 9.5v6q-3 8 -6.5 20.5
t-7 24.5t-5.5 21.5t-2 11.5t2 2q-11 7 -11 18q-1 2 -4.5 9.5t-10 22.5t-17 39.5t-26.5 60.5q0 1 0.5 3.5t0.5 4.5q-2 0 -2 3q-6 6 -7 16q-2 6 -10 19t-26 30q-6 -8 -10 -18t-4 -19q0 -1 2 -5q2 -5 4 -10.5t2 -6.5q-2 -3 -4 -7q-3 -6 -7 -12q-2 -2 -2.5 -2t-1.5 -1t-2 -1v1
q-2 -5 -3.5 -18t-3.5 -28t-4.5 -33t-8.5 -35l-5 -38q-4 -24 -6.5 -47t-2.5 -43v-6q0 -11 0.5 -29.5t5.5 -32.5q3 -11 -2.5 -25t-12.5 -26l1 1l-5 -10q5 -5 5 -11q0 -5 -3.5 -13t-9 -16t-11 -14t-9.5 -6q-19 0 -29.5 1.5t-16 4.5t-7.5 8.5t-4 13.5v-2l-3 8l-14 31l-5 11
q-12 7 -17 29l-5 12.5t-14 18.5q0 14 -4.5 22t-7.5 13q-4 4 -7 6t-3 13v11q-2 2 -4 3t-2 5q-10 13 -16 27t-11 29q-4 10 -7.5 19t-8.5 18q-5 3 -6 8q-2 2 -6.5 10.5t-9.5 21.5v-1q-9 18 -16 33t-10 20q-6 5 -11 10.5t-11 13.5q-4 -10 -4 -17q0 -2 1 -8.5t2 -13.5t2.5 -13.5
t1.5 -7.5q0 -3 0.5 -13t1.5 -23.5t2.5 -29t3.5 -28.5q0 -2 -1 -10.5t-2 -14.5q-2 -9 -3.5 -20.5t-1.5 -22.5q0 -4 4 -14v2q4 -8 4 -19v-18q3 -14 4.5 -30t1.5 -19v-47q0 -5 0.5 -7t1.5 -4h-1q3 -7 5.5 -16.5t2.5 -32.5q0 -3 -0.5 -8.5t-0.5 -11.5v-18q0 -13 -11 -17.5
t-20 3.5q0 -1 -4.5 1t-6.5 4q-19 10 -25.5 24.5t-6.5 22.5v12q-2 2 -5 7t-3 9q0 19 -1.5 45.5t-6.5 54.5v29v5.5t2 3.5l-5 7.5t-3 8.5v209zM532 497q2 2 2 3z" />
    <glyph glyph-name="N" unicode="N" horiz-adv-x="524" 
d="M-3 46q0 2 -0.5 7.5t-0.5 10.5v12q0 14 1 23t3 19q2 8 3 15.5t1 15.5v46q0 3 1.5 13.5t2.5 22.5t2 22.5t1 13.5l1 -4q-1 3 -1 7v11l2 12l-2 18v167q-1 2 -2 4.5t-1 4.5q-2 5 -3 11t-1 11q0 2 1.5 6.5t3.5 6.5q3 3 6.5 7.5t6.5 9.5q8 11 16 18.5t28 7.5q18 0 27 -3.5
t14 -18.5q7 -2 11.5 -3t4.5 -18v-2q5 -7 8.5 -11t6.5 -9l16 -22q1 0 7 -7t6 -16q0 -2 -0.5 -4t-0.5 -4q1 2 4.5 -1.5t7.5 -6.5l8 -8q6 -14 11 -20.5t10 -11.5q7 -8 12 -14.5t10 -17.5q8 -2 13 -7.5t5 -13.5l1 -8q-1 0 -1.5 -0.5t-1.5 -0.5q5 -1 10 -4.5t7 -8.5q2 -6 6 -10
t9 -8l11 -11t10 -14l7 -15l-1 1q2 -4 4 -7.5t3 -4.5q9 -21 27.5 -44.5t30.5 -36.5q14 -3 20 -12q1 9 6 17l-1 -1q2 7 4.5 16t2.5 29q0 6 -0.5 11.5t-0.5 10.5v9q2 5 3.5 9.5t3.5 6.5v-1q7 10 7 20q-1 1 -1 3q-1 2 -1 7q-5 15 0 31q0 1 1 1.5t1 1.5v21q0 7 1.5 12t3.5 11
q1 3 2 5.5t1 4.5v29q3 15 4.5 37t3 48t2 54t0.5 54q0 8 5.5 13.5t13.5 5.5q11 0 21 -4.5t17.5 -15.5t11.5 -30t4 -48q0 -3 -0.5 -8.5t-0.5 -9.5q0 -2 -2 -6q-1 -2 -1 -4l-5 -8v-5q0 -8 0.5 -17t0.5 -18q0 -10 -0.5 -19t-0.5 -17v-12q0 -9 -5 -29q-3 -11 -6 -22.5t-3 -22.5
v-35v-3q0 -1 -2 -7l1 2q-2 -7 -4 -20t-2 -18v-28q0 -12 -8 -19q0 -3 0.5 -7.5t0.5 -7.5l-12 -35l-11 -33v-6q0 -1 -5.5 -6t-12.5 -11t-15 -10.5t-12 -4.5q-26 0 -32.5 -1.5t-3.5 -4.5l-7 6q-5 3 -7 9q-2 1 -4.5 2t-5.5 5q-11 12 -23 28t-18 29l2 -2q-5 9 -9.5 13.5l-9.5 9.5
q-10 11 -20 23.5t-21 35.5q-13 24 -27.5 42t-28.5 32q-18 18 -32.5 34t-21.5 39q-4 5 -10.5 14.5t-13.5 16.5l-20 27q-1 0 -1 1v-88q0 -8 -5 -13t-11 -6h8q0 -6 0.5 -13t0.5 -12v-10q-2 -10 -3.5 -21.5t-2 -21.5t-1 -17.5t-0.5 -8.5v-68q0 -6 0.5 -14.5t0.5 -15t-1.5 -10.5
t-5.5 -1q3 -7 3 -12t-1 -10t-2.5 -11t-1.5 -15q0 -3 -0.5 -10t-1 -15.5t-0.5 -15.5v-10q0 -19 -19 -19q-3 0 -8.5 3.5t-11.5 8t-11.5 9.5t-8.5 8z" />
    <glyph glyph-name="O" unicode="O" horiz-adv-x="609" 
d="M15 384l4 5q-4 -2 -4 -4v10q0 1 4.5 7.5t11 16.5t13.5 23t12 28q2 5 6.5 8t4.5 5q0 16 17 19q-5 0 -1 7q5 7 7 13.5t17 7.5q5 5 11.5 8.5t13.5 4.5q4 9 11 16.5t15 15.5l7 5l3 5l11 17q2 4 7 6.5t9 2.5q-1 0 7 4t20 9q13 6 27 13t28 12.5t26 9.5t21 4q2 0 9.5 -1
t17.5 -3.5t20 -6t18 -8.5q10 -6 8.5 -17t-9.5 -16q8 -1 13 -8t3 -15q1 -2 5 -2h5q8 0 13.5 -5.5t5.5 -13.5q5 -2 9 -6q4 -3 8.5 -6.5t9.5 -6.5l18 -13q9 -4 15 -7t11 -8q4 3 9.5 -2t11.5 -15.5t12.5 -24.5t14.5 -28l20 -39q1 -6 1.5 -19.5t1 -30.5t0.5 -36v-35l-12 -9
q-3 -14 -9 -28.5t-12 -27.5l1 1l-6 -15q-2 -3 -12 -12.5t-18 -17.5l-3 -3q-4 -6 -7.5 -12.5t-8.5 -11.5q-8 -9 -15.5 -19.5t-9.5 -1.5q-7 -20 -23 -35.5t-31 -29.5q-13 0 -17 2q2 -2 2.5 -4t-4.5 -6l-13 -10q-2 -2 -7.5 -5.5t-16.5 -9t-28 -13.5t-42 -18q-5 -2 -11.5 -1
t-10.5 6q-2 0 -10 -2q-13 -5 -18 -5l-6 2q-6 2 -9 5q-62 2 -93.5 16t-51.5 34l13 -5l-11.5 12t-24.5 26.5t-24.5 27t-11.5 14.5l2 -2q-4 5 -6 13.5t-4 16.5q-4 10 -6.5 20.5t-2.5 12.5v6q0 8 0.5 21t0.5 20q-5 10 -6 23t-1 22q0 5 0.5 8.5t0.5 5.5l17 76zM60 247
q0 -8 2 -18.5t4.5 -20.5t5.5 -18t5 -10q6 -6 8 -12t4 -14q2 -5 4 -11t3 -8q0 3 2 1l10 -16l5 -4q9 -8 22 -16.5t18 -8.5q2 0 6.5 -1.5t6.5 -3.5q5 -5 20 -8q8 -2 13 -3.5t11 -3.5l41 4q26 6 45.5 11.5t35 13t28 19t25.5 29.5q2 3 7 5.5t8 2.5q5 0 12 4l13 12q5 6 10 11t11 8
q6 11 15.5 29t15.5 31v3q0 11 4.5 17.5t11.5 12.5q1 8 4 13t7 13q5 7 8 15t3 14q0 10 -2.5 31t-8.5 35q-10 10 -23.5 25.5t-25.5 30.5l-5 6q-13 5 -21 12t-18 18h1l-23 22q-6 6 -16 12t-20 10.5t-17 7.5t-8 3q-2 0 -5 -0.5t-4 -1.5q-2 -2 -6.5 -4t-6.5 -2h-10q1 -1 -4 -4
l-6 -4q-14 0 -20.5 4t-11.5 9q-1 0 -2 1q-1 -1 -3 -1l-28 -9l-4 -8q-2 -3 -4.5 -6.5t-8 -8t-15 -10.5t-25.5 -14h-2q-1 -4 -7 -12q-1 -12 -9.5 -22t-19.5 -18l-15 -13q-2 -17 -9 -34t-15 -31v1q-5 -8 -8.5 -16t-3.5 -7q0 -8 -1.5 -16t-3.5 -19q-4 -17 -7 -33.5t-3 -25.5z
" />
    <glyph glyph-name="P" unicode="P" horiz-adv-x="438" 
d="M8 374q-2 13 -3.5 34t-2 44.5t-0.5 48.5v46q-5 12 -7.5 30t-2.5 29q0 8 5.5 13t13.5 5h6q12 0 22 -0.5t17 -5t11 -14t4 -27.5q0 -13 -2.5 -23l-4.5 -18q-1 -2 -1.5 -6t-0.5 -14q0 -11 0.5 -19.5t1.5 -15.5l2 3q0 -1 1.5 3t4.5 9l7 14q36 50 76.5 66.5t93.5 16.5
q3 0 8 -0.5t10 -0.5h12q14 -1 26 -7t20 -11q4 -4 3 -4h13q1 -1 9.5 -9t11.5 -13l5 -7h1q13 -13 22 -23t14.5 -19t8 -19t2.5 -24q0 -2 1 -5q2 -6 3 -8v2q2 -5 2.5 -10.5t0.5 -7.5q0 1 -0.5 -5t-1.5 -10q-3 -12 -6.5 -29.5t-9 -35t-12.5 -31.5t-16 -18l-2 -2q-5 -8 -12 -16
t-11 -12q-8 -11 -25 -27.5t-40 -31.5t-50 -25.5t-54 -10.5q-32 0 -51.5 5.5t-30.5 14.5q2 -28 5.5 -61.5t9.5 -84.5q0 -17 -2.5 -26t-7.5 -12.5t-11.5 -4t-13.5 -0.5q-3 0 -7.5 2t-6.5 4q-10 12 -16 20t-9.5 16.5t-5 20t-2.5 29.5q0 51 -3 94q-1 18 -3 36t-4 33.5t-5.5 26.5
t-7.5 15v8t-1 15.5t-2 16.5t-3 12q-5 12 4 21zM98 237q4 3 10 3h97l4.5 3t11 7t14 9t12.5 8l30 21q14 11 24.5 20t19.5 26l7 8q2 2 4.5 3.5t2.5 2.5q4 7 7.5 18.5t6.5 23.5t5 22t2 15q0 6 -2 15l-4 18v2q-6 9 -16 21t-21 23.5t-22 19t-20 7.5h-19q-18 0 -30 -0.5t-21 -3
t-17.5 -7.5t-18.5 -15q-13 -10 -21.5 -19t-15.5 -21.5t-14 -29.5t-16 -42q0 -3 3 -9q2 -7 4 -12t2 -16q0 -1 -1.5 -5.5l-3 -9t-3 -8.5l-1.5 -4v-94z" />
    <glyph glyph-name="Q" unicode="Q" horiz-adv-x="537" 
d="M370 71q-9 -8 -17.5 -14t-9.5 -6h-1q-2 -2 -5 -2.5t-6 -2.5q-3 -3 -9 -3q-6 -5 -13.5 -9t-15.5 -4q-6 0 -8 -2q-6 -6 -27 -6h-11.5t-9.5 2q-10 -7 -21 -11.5t-18 -4.5q-9 0 -13.5 4.5l-9.5 9.5h-3q-6 0 -15.5 2.5t-17.5 7.5l-9 4.5t-6 2.5q-13 0 -17 10
q-26 10 -46.5 27.5t-35 37t-23 37.5t-10.5 28q-2 8 3 14l-3 11q0 10 -0.5 27.5t-0.5 21.5t0.5 11t0.5 13v6q0 7 2.5 15.5t5.5 18.5q-6 7 -6 17q0 9 5 16.5t15 9.5v4q0 1 6.5 8.5t13.5 12.5l-10 -6q2 4 3 8t3 9q5 12 8 24t9 21l5 5t7 8l4 4t3 0v8q0 2 7.5 10.5t13.5 13.5
l-11 -7q7 11 16.5 25t20 28t21 25.5t18.5 16.5q9 20 20 34t24 6h4l8 4q3 2 7 3.5t6 3.5q8 6 16 3.5t12 -10.5q2 1 4.5 1h3.5l-8 -4v-1q9 2 21 1t18 -4l-14 15q5 0 14 -3.5t18 -5.5l19 -7q17 -17 21.5 -30.5t7.5 -25.5q1 -7 2 -11.5t5 -6.5l-1 1q2 -2 3.5 -3l4.5 -3
q20 -13 36 -24t18 -24l13 -14q1 -1 3 -2t3 -2t2 -1q8 -4 14.5 -11t8.5 -24q2 -2 3 -8q2 -5 3 -9t2 -7q1 -4 2 -7q5 -2 9 -7.5t4 -10.5t1 -10t3 -10q4 -9 7.5 -19t3.5 -22q0 -34 -5 -50.5t-12 -30.5q-1 -2 -3 -5t0 1l-9 -11q1 1 -0.5 -6.5t-3.5 -16.5q-4 -16 -9.5 -32
t-18.5 -29l-13 -10l-8 -7q1 -4 9 -12q9 -11 3 -24q6 -11 14.5 -26.5t15.5 -30t12 -25t5 -11.5v-25q0 -19 -19 -19q-27 0 -40 18.5t-27 48.5l-18 38q0 3 -0.5 4l-1.5 3zM235 85q5 4 12 7.5t16 3.5h15q6 2 13 6t14 9l-1 -1q2 2 4.5 3t4.5 3l-1 -1l13 9q5 4 11 8t5 3
q-1 7 -1.5 16.5t-2.5 9.5q-8 0 -13.5 5.5t-5.5 13.5v6q0 -1 -9 6t-13 10q-5 4 -8.5 10t-6.5 12l-9 14q-5 6 -13 16t-8 16v3q0 1 2 7q2 5 7.5 9t10.5 4q11 0 19.5 3.5t11.5 5.5q13 13 27 0q3 -3 8 -9t5 -14v-8h2l2 -2q17 -4 24 -24t9 -40q2 -2 5.5 -6t5.5 -9q5 12 11 25
t10 20q9 18 16.5 35t7.5 30q0 3 -4 11.5t-8 17.5q-5 8 -8 15t-3 13q0 2 0.5 5t0.5 7l-3 10q-2 2 -2.5 6.5t-0.5 6.5v8q-1 -1 -2 -1q-5 2 -10 6l-10 8q-3 2 -5 5t-4 7l-5 8q-7 8 -14 16.5t-12 18.5l-48 37q-2 0 -4 -0.5t-3 -0.5q-8 0 -14.5 4t-12.5 9q-5 5 -11.5 8.5
t-16.5 3.5q-13 0 -18.5 -2t-12.5 -4q-3 -2 -4 -2.5t-7 -2.5l-49 -70q-7 -7 -19 -26t-23.5 -40t-20 -39t-8.5 -24q0 -3 0.5 -7t0.5 -8v-10q-3 -8 -4 -15t-2 -14.5t-1 -17v-22.5q0 -21 2 -23q8 -8 7.5 -18.5t4.5 -24.5q9 -11 17 -21t15 -19q14 -2 21 -7.5t14 -11.5
q3 -3 2 -2.5t2 -1.5q14 0 36 -1.5t43 -5.5zM382 184q0 -1 1 -3q0 -2 0.5 -3.5t0.5 -2.5q0 1 2 5z" />
    <glyph glyph-name="R" unicode="R" horiz-adv-x="487" 
d="M72 -53q-8 0 -18 3t-18 8t-13.5 12t-5.5 15v234q-8 10 -8 16q0 2 1 6q1 2 1.5 5.5t1.5 5.5q2 4 3 9.5t1 3.5v39q-6 18 -7.5 38.5t-1.5 40.5q0 9 0.5 17t0.5 16v26q-2 4 -5 8t-3 12v22l-14 69q0 2 -0.5 9t-1 15t-1 15t-0.5 9q0 8 5.5 13.5t13.5 5.5q22 0 31.5 -9.5
t20.5 -35.5v-9q0 -5 -0.5 -10.5t-0.5 -10.5l3 -13l-1 1q1 -5 2.5 -11.5t3.5 -13t4 -11.5t3 -6l5 -8l7 7q10 17 10 31q0 10 8 15q5 23 18.5 44t37.5 43q21 21 40 32t48 11q3 0 9.5 -0.5t13.5 -2t13 -3t9 -2.5l-3 4q32 -16 58 -50.5t34 -68.5q0 -9 1.5 -13.5t3.5 -9.5
q4 -8 7 -17.5t3 -24.5q0 -17 -2.5 -35.5t-6.5 -35.5v-8q0 -1 -3.5 -10t-9 -20.5t-11 -23.5t-8.5 -18l-1 -1q-2 -2 -2 -4q-8 -9 -22 -28t-30 -30q-8 -8 -16.5 -15t-16.5 -12q-6 -3 -12 -7t-14 -11q19 -4 49 -20l27 -11q15 -6 30.5 -12.5t25.5 -14.5q5 -2 18.5 -8.5
t44.5 -17.5q20 -15 25 -29t5 -29q0 -8 -5.5 -13.5t-13.5 -5.5q-17 0 -28 4.5t-19 10.5q-2 0 -5 1.5t-5 3.5q-13 6 -28.5 14t-30 16t-27 15.5t-20.5 12.5q-2 -1 -7 -1q-6 0 -8 2h-2h2q-5 3 -10 4t-8.5 2t-4 1.5t5.5 1.5q-3 0 -9.5 3.5t-12.5 6.5t-8 3.5t5 -5.5l-9 4l2 -1
q-2 0 -4.5 -0.5t-4.5 -0.5t-10.5 1.5t-13.5 12.5q-8 5 -17 6t-17 3q-21 2 -34.5 9.5t-13.5 36.5q0 8 5.5 13.5t13.5 5.5q2 0 11 0.5t12 1.5q0 1 11 7v-1q8 6 18.5 12.5t22.5 11.5q2 0 6 -0.5t6 -0.5t7.5 5t14.5 13q38 34 63 63.5t25 46.5v4q0 4 1 6q2 5 4.5 10t2.5 4
q0 2 1 9.5t1 17.5q0 15 -3.5 33.5t-12.5 38.5q-2 6 -7 20t-13.5 29t-20 26t-24.5 11l5 1q-5 -1 -16.5 -4t-14.5 -11q-16 -15 -27 -28.5t-21 -31t-20.5 -42t-25.5 -63.5l-6 -13q-2 -3 -3 -5l-2 -4t-2 -3q-3 -9 -6.5 -26t-7.5 -36.5t-6.5 -37.5t-2.5 -29v-313q0 -8 -5 -13.5
t-13 -5.5z" />
    <glyph glyph-name="S" unicode="S" horiz-adv-x="474" 
d="M3 94q0 12 2 18.5t5 11.5q2 4 2 5q2 9 10.5 12t17.5 -2q5 -3 14.5 -16.5t9.5 -21.5v-5q0 -4 -0.5 -8t-0.5 -8q5 0 11 -1q5 -1 13.5 -2t19.5 -2q23 0 38.5 3t27.5 7q11 2 19 4t15 2l-5 -1q1 0 10 1.5t17 3.5q11 2 21.5 3.5t13.5 3.5q6 0 17 7l20 12q10 13 24.5 21t24.5 11
q1 0 2 -0.5t3 -0.5q18 19 24.5 38.5t6.5 41.5l-6 7l-6 8h-10q-1 0 -5.5 2t-8.5 4h-107q-2 0 -6.5 2t-6.5 4q-4 0 -8 1t-7.5 1.5t-8.5 2.5l-21 5h-6q-4 0 -7.5 -0.5t-8.5 -0.5q-12 0 -18 5t-11 10q-1 1 -5 1q-2 0 -4.5 -0.5t-5.5 -0.5q-2 0 -7 2t-6 4l-31 31h-12q-8 0 -13 5
t-6 12q-1 -3 -3 -1q-5 3 -9.5 5t-12.5 13v12l1 -1q-2 4 -7.5 13t-13.5 25q-5 10 2 21q-2 4 -3.5 8.5t-1.5 12.5q0 20 7 31.5t13 19.5q2 2 3 2v12q2 8 8.5 16.5t14.5 12.5v4q0 12 11.5 20.5t28.5 16.5l13 7q9 10 27.5 20.5t32.5 14.5h4q2 0 5.5 -0.5t7.5 -0.5q2 7 6.5 12
t17.5 5q11 0 12.5 -2.5t3.5 -5.5q7 3 16.5 5.5t25.5 2.5q2 0 7 -0.5t10 -0.5q6 -1 10.5 -1h5.5q10 0 15 -7h17q8 0 12 -3t7 -5q-1 0 -1.5 0.5t-1.5 0.5l8 -6l-2 3q5 -2 7.5 -3.5t6.5 -1.5q21 -5 41 -16t20 -36q0 -22 -10 -36q-2 -2 -6.5 -5t-7.5 -4q-20 -3 -28 9
q-14 2 -14 18q0 8 -9.5 11.5t-32.5 5.5q-5 0 -12 0.5t-14 2.5q-13 2 -27.5 3.5t-25.5 1.5q-5 -8 -13.5 -8.5t-13.5 4.5l-14 -6l-30 -16q-20 -14 -32 -24.5t-18 -16.5l-1 -2q-3 -8 -9 -13t-13 -8q2 -2 2 -4q0 -11 -4 -19l-8 -16q-2 -4 -3 -7t-1 -6q0 -2 0.5 -4.5t0.5 -5.5v-5
q0 1 4 -3.5t9 -10.5q2 -3 6 -8.5t7.5 -10t5.5 -6.5t1 1q5 -3 9 -6.5t10 -5.5l28 -16l3 -3h9q7 0 13 -2.5t11 -5.5l-7 2q2 -2 4 -2h15q6 0 11.5 -4.5t7.5 -11.5q0 1 7 1.5t16 0.5h17h10h57q8 0 15.5 -2t14.5 -3q7 -3 14 -3q6 0 11.5 0.5t10.5 0.5l5 -19q25 0 34.5 -2.5
t9.5 -7.5l3 -4l-9 -26q9 4 12.5 4.5t3.5 -1t-1.5 -4t-1.5 -4.5q2 -9 3 -19t1 -17q0 -1 -3 -13t-7 -26.5t-7.5 -27t-4.5 -13.5q-7 -3 -10 -7.5t-5 -8.5q-10 -18 -24 -18q-1 0 -2.5 0.5t-3.5 0.5q-11 -8 -25 -18.5t-28.5 -19.5t-26 -15t-15.5 -6q-3 0 -9 3q-3 -4 -7.5 -6.5
t-9.5 -1.5q-5 -3 -15.5 -7.5t-21.5 -8.5t-22 -7.5t-17 -4.5q-8 -1 -22.5 -1h-21.5q-18 0 -32.5 1.5t-26.5 6.5q-11 1 -31.5 4.5t-31.5 9.5l-7 17l1 -3q-4 9 -6.5 14.5t-4 11t-2 11t-0.5 13.5z" />
    <glyph glyph-name="T" unicode="T" horiz-adv-x="468" 
d="M-3 548q0 25 12 38.5t39 13.5h51q6 6 8 7l15 7q7 3 12.5 0.5t9.5 -7.5q7 5 14.5 6.5t12.5 1.5h16l21 7h8l5 -1q2 -1 9.5 -3.5t6.5 -2.5q4 0 10 2q5 2 11.5 3.5t17.5 1.5h42q2 0 10.5 1t18.5 2q8 2 16.5 3t13.5 1h19l2 1q4 2 9.5 4t7.5 2h6q11 0 17 -7t8.5 -17t3 -21.5
t0.5 -19.5q0 -19 -19 -19q-5 0 -11 2.5t-11 5.5q-10 -5 -13 -5q-8 0 -11.5 2.5t-6.5 4.5q-2 0 -2 2q0 -1 -1 -1.5t1 -0.5h-4q-5 0 -15 -1t-21 -2t-20 -2t-12 -1h-64l2 -7v-509q0 -6 -6 -13t-13.5 -12.5t-15 -9t-10.5 -3.5q-8 0 -13.5 5.5t-5.5 13.5v31v49.5t-0.5 61.5t-1 68
t-0.5 69q0 24 -0.5 49t-1 46.5t-0.5 38.5v26q0 7 -1 28.5t-3 38.5h-7q-13 0 -18 13h-10h-6q-7 -7 -16 -7q-2 0 -6.5 1.5t-9.5 3.5q-10 -2 -34.5 -5.5t-46.5 -3.5q-8 0 -13.5 5.5t-5.5 13.5z" />
    <glyph glyph-name="U" unicode="U" horiz-adv-x="480" 
d="M355 67q0 4 2 6l-2 3v11q0 4 -0.5 10t-0.5 9q0 4 0.5 12t0.5 15v8q0 7 1 13t-5 4q0 -1 -1 -2q-2 -2 -6.5 -3.5t-6.5 -1.5h-4q3 -1 3.5 -4.5t-3.5 -6.5q-5 -4 -7 -10t-10 -15q-8 -16 -16.5 -22.5t-28.5 -12.5q-9 -9 -24 -17t-28 -13l-7 -2q-5 0 -7 1q-9 -3 -19 -3
q-6 0 -10 3q-5 0 -19.5 2t-22.5 4h1q-1 0 -1 1q-14 0 -18 13l-3 8q-2 0 -3 1l2 -2l-21 13l-8 14l-6 7q-3 1 -3 4q-11 5 -20.5 12.5t-11.5 25.5q-6 8 -5 13t6 9v1q-3 5 -5.5 9.5t-2.5 9.5v10q0 13 14 15q-13 11 -25 23.5t-12 23.5q0 2 3 7q-3 11 -4 25.5t-2 33.5l-3 63l1 -1
l-1 2q0 1 -0.5 1.5t-0.5 2.5q-3 -3 0 -3q-1 1 -1.5 2t-1.5 2l-2 2l-4 16q-3 10 -5 19.5t-2 22.5t2.5 19.5t6.5 12.5v1q-2 6 -4 11t-3 8.5t-1 5.5v7q0 1 -0.5 3t1.5 6q1 9 4 21.5t9 23.5t16 17.5t25 2.5q9 -2 15.5 -7.5t10.5 -10.5l3 -3q2 -2 4 -6.5t2 -6.5t-1 -8.5t-4 -13.5
v2q-3 -9 -6 -20.5t-3 -17.5q0 -2 1 -11t2 -19q2 -9 2.5 -18t0.5 -11q0 -4 -1 -15l-2 -22q-2 -11 -2.5 -19.5t-0.5 -10.5v-7l1 -6.5t2 -14.5t2.5 -15.5t1.5 -9.5q-1 -2 1 -9t5 -15q3 -9 7 -19v-10q5 -12 10 -30.5t5 -31.5q0 -7 -1 -8q9 0 13.5 -4.5t4.5 -24.5l45 -45
q2 -2 3.5 -6.5t1.5 -6.5q0 -7 16 -9q19 17 30.5 23t22.5 11l-1 -1q7 3 11 4t12 8v4q0 8 5 15t12 12l6 7l5 8q5 7 10 16.5t11 15.5q2 2 4 7.5t6 10.5q-4 7 2 16q2 4 3 6.5l3 7.5q2 6 3.5 12t6.5 13q3 4 6.5 12t6.5 17.5t4.5 18.5t1.5 14q1 3 2 7q1 3 2 6.5t2 5.5q0 1 1 1
q0 18 1.5 37.5t1.5 36.5l4 8v1q2 10 2 14q0 11 -1.5 17.5t-3.5 11.5q-4 11 -4 22q0 8 1.5 12t4.5 9v-1q1 2 2 5t1 13q0 8 -1 13t-3 9v-1q-2 5 -3.5 9t-1.5 10q0 4 -0.5 11t-0.5 14v12.5v7.5q0 8 5 13.5t13 5.5t18 -3t18.5 -9t14.5 -14.5t6 -19.5v-418q0 -2 -2 -7t-4 -6
l-2 -2q0 -4 0.5 -8.5t0.5 -9.5q0 -16 -2 -23.5t-4 -12.5q3 -7 8 -21t5 -26q0 -5 -3.5 -11.5t-8.5 -13.5q5 -6 4.5 -15t-7.5 -14q3 -11 3.5 -23.5t0.5 -22.5q0 -8 -5.5 -13.5t-13.5 -5.5q-16 0 -33.5 6.5t-17.5 22.5v59v0z" />
    <glyph glyph-name="V" unicode="V" horiz-adv-x="483" 
d="M-8 588q0 8 5.5 13.5t13.5 5.5h32q8 0 13.5 -5.5t5.5 -13.5q0 -11 8 -16l-1 1q10 -8 17 -20l-3 2q3 -5 8.5 -15t11.5 -22t12 -23t9 -17l11 -28q3 -6 5.5 -12.5t4.5 -11.5q9 -26 9 -37v-13q6 -6 7 -12q6 -2 10.5 -6t4.5 -13q2 -2 4.5 -6t2.5 -18q-1 -1 -1 -3q-1 -2 -1 -3
t-1 -3q8 -6 8 -14q8 -12 13 -23t7 -20q0 -2 0.5 -4t4.5 -10q0 -2 1 -2l2.5 -5t2.5 -6q1 -4 2 -7q0 -2 -1.5 -7.5t-3.5 -10.5l-1 -1q2 -2 5.5 -9.5t5.5 -9.5q2 -5 5.5 -18.5t8.5 -27.5l6 9l-1 -1l4 8q2 8 8 19v-1q2 5 4 10.5t2 10.5q0 2 2 6.5t4 6.5t2 10l36 104l11 36
q7 27 15.5 50t22.5 40q8 8 9 14t1 17q3 5 3.5 8t0.5 7q2 11 7.5 28t20.5 47q3 8 4.5 15t4.5 12q4 10 7.5 18t3.5 13q0 8 5 13.5t13 5.5h16q19 0 19 -19q0 -1 -0.5 -5t-0.5 -9v-14q0 -9 -4.5 -25t-9.5 -30v1q-5 -11 -6 -18l-2 -8v-32q0 -12 -3 -17t-10 -9q-1 -2 -2 -5
q-1 -2 -1.5 -5.5t-1.5 -5.5v1q-3 -11 -7 -21t-10 -16t-14 -22t-14 -32.5t-10 -30.5t-3 -17q2 -3 2.5 -8.5t-1.5 -9.5q-4 -8 -4 -13q-2 -5 -4.5 -13.5t-12.5 -27.5q0 -1 -3 -6t-5 -7q-2 -3 -3.5 -4.5t-2.5 -5.5v-6l-3 -8.5t-6.5 -19.5t-7.5 -21.5t-7 -15.5l-9 -25
q-4 -13 -7 -22.5t-8 -17.5q-2 -6 -3.5 -12.5t-3.5 -10.5q-3 -7 -5 -13.5t-2 -14.5q0 -19 -19 -19q-6 0 -20 3t-24 9l6 -1q-8 4 -16.5 20.5t-16.5 36t-13 37.5t-5 26q0 3 -2 11t-4 9t-4.5 4.5t-3.5 5.5l-5 22q-2 6 -2.5 12t-0.5 8v12q0 -1 -1.5 2.5t-4 8.5l-5.5 11t-5 11
q-2 3 -4 9q-1 3 -2 5q0 2 0.5 5t0.5 6l-3 8l-4 12t-3 7q-2 2 -3.5 6.5t-1.5 6.5v10q-1 -1 -2.5 1.5t-3.5 4.5q-6 6 -9 18q0 14 -2 20t-7 14v-1q-4 6 -9.5 17.5t-17.5 39.5q-4 3 -8 8t-6 19v-1q-12 44 -34 44q-8 0 -13.5 5.5t-5.5 13.5v59z" />
    <glyph glyph-name="W" unicode="W" horiz-adv-x="679" 
d="M253 175q0 -1 -1 -1h1l-1 -1q-2 -3 -4 -11.5l-4 -17t-4 -16t-2 -9.5q-11 -37 -19.5 -56.5t-13.5 -27.5q-3 -6 -6.5 -12t-15.5 -14q-3 -1 -13 4t-21 11.5t-20 12.5t-10 7v6q-6 4 -10 9t-4 14v18l-8 28q-2 8 -4.5 17t-1.5 7l-4 18v-1q-3 14 -6.5 30.5t-5.5 21.5q0 4 -3 7h1
q-5 7 -7.5 12.5t0.5 12.5q-2 14 -6 27.5t-6 24.5l1 -1q-8 32 -8 36q-7 18 -8 29t-4 26q-3 20 -7 43.5t-11 47.5l-1 4q0 -2 -0.5 -1t-0.5 3q-5 7 -5 18v25h-1l-1 2q-2 5 -4 7.5t-2 10.5q0 4 3 9q-5 11 -5.5 23.5t-0.5 22.5q0 8 5.5 13.5t13.5 5.5q12 0 30 -3t29 -21v-17
q0 -10 -1 -15.5t-6 -10.5q0 -5 1 -13.5t6 -26.5q3 -20 7 -28q5 -9 8.5 -21t5.5 -33v-6q0 -4 -0.5 -7.5t-0.5 -6.5q4 -2 6 -4.5t3 -9.5q3 -8 5 -19l4 -22v1l6 -26v-2q3 -3 5 -6.5t2 -9.5t1.5 -15t3.5 -17q1 -5 1.5 -7t0.5 -10v-26l-9 1q11 -7 21 -24t10 -49q0 -2 3 -6.5
l5 -7.5l7 -11q0 2 1 3q10 19 13 31t7 26l-1 -4q1 2 1 5q0 9 5 19q2 4 2 8q1 2 5.5 17t10 33t9.5 34.5t4 21.5v22q0 5 4 10.5t9 7.5q2 0 2 3v6q0 4 -0.5 8t-0.5 7q0 10 4.5 17t10.5 13v7q0 5 6 11t14.5 11.5t16.5 9t12 3.5q1 0 5 -1t9.5 -3t10.5 -4t8 -4q14 -6 20.5 -16
t11.5 -20q2 -4 -3 -4q5 -2 9 -5t6 -7q2 -8 2.5 -10.5t2.5 -4.5q2 -3 5.5 -8.5t10.5 -18t17 -33.5t26 -54q5 -5 7.5 -9.5t2.5 -12.5v-5l4 -7q8 -6 13.5 -15.5t12.5 -21.5q3 -5 6 -11t7 -11q1 18 4 37.5t9 38.5v1q-5 5 -6 12t4 12q5 7 8 15t3 10v32q0 5 2 14t5 18
q2 9 4.5 18.5t2.5 19.5v31q0 4 3.5 13t5.5 14q1 29 6.5 49t10.5 34q2 6 3 10t1 6q0 4 -0.5 8.5t-0.5 8.5v7l6 28q0 1 0.5 1.5t0.5 1.5t1 2q0 18 6.5 33t14.5 25.5t16.5 16t11.5 5.5q6 0 17 -8t16 -27q-1 -24 -5.5 -38.5t-6.5 -23.5q-2 -6 -2 -8q-2 -6 -3.5 -15t-3.5 -19
q-2 -17 -5 -34.5t-11 -28.5q0 -20 -3 -34.5t-7 -26.5v1q-2 -8 -4 -14.5t-2 -13.5q0 -5 0.5 -11.5t0.5 -11.5v-9q0 -9 -2 -24.5t-4 -27.5q-3 -14 -6 -32t-5 -29q-5 -5 -5 -6q0 -5 0.5 -10.5t0.5 -10.5v-7q0 -3 -2.5 -8.5t-5.5 -7.5v-17q0 -14 -10.5 -46.5t-31.5 -65.5
q-5 -3 -15 -4.5t-14 -1.5q-25 0 -30 7t-6 20v1v1l-9 3q-3 1 -5 2l-15 25q-19 32 -32.5 62.5t-19.5 44.5q-2 5 -3 9.5t-1 5.5v5q-19 10 -27 31q-6 9 -10 17t-7 15l-6 12l-1 4v-1l-21 38v-8q0 -10 -2.5 -12.5l-4.5 -4.5v-18q0 -8 -4 -14q-2 -3 -5.5 -11t-4.5 -19
q-1 -5 -4.5 -19.5t-8 -31t-9 -30.5t-6.5 -17l-3 -4v-6q0 -8 -2 -12.5t-4 -7.5v1v0z" />
    <glyph glyph-name="X" unicode="X" horiz-adv-x="426" 
d="M79 43q0 18 3.5 33t17.5 22v6q0 13 1.5 20t4.5 14v-1q1 2 1.5 3.5t1.5 6.5q2 5 5.5 9.5t10.5 6.5q-5 0 -5 1t1 3q3 6 5.5 10.5t5.5 9.5q2 8 7.5 23t12 31.5t13.5 31t13 22.5l4 3v2q0 1 2 4q2 4 6 8v-4q2 10 -7.5 22.5t-19.5 22.5q-11 20 -23.5 36t-23.5 30q-8 9 -14 18
t-11 18q-19 18 -24 24.5t-11 14.5l-20 23l-2 1l-23 10q-2 1 -6 5t-4 6q-2 3 -4 9.5t-3.5 13.5t-3 13t-1.5 8q0 8 5.5 13.5t13.5 5.5h47q8 0 13 -5.5t6 -12.5q7 -5 9 -18l5 -4q8 -8 14 -15.5t7 -20.5q1 2 6.5 -3t13.5 -12t17.5 -15t17.5 -18q5 -5 9 -12t7 -15l5 -9
q10 -13 24.5 -30.5t20.5 -25.5l21 37q8 14 16.5 28t15.5 25l20 38v-1l13 27l-1 -1q4 8 12 19t16 25l17 25q0 2 2 10q3 11 5.5 20t20.5 9l-7 -2q6 1 18.5 -6.5t16.5 -14.5l-1 4l10 -27l-2 -8l-2 -8t-2 -6q-4 -8 -8.5 -15t-5.5 -8q-3 -3 -8 -15q-5 -11 -13 -29.5t-28 -48.5
l-13 -6q3 -4 0.5 -11.5t-7 -15.5t-8 -13.5t-2.5 -5.5l-1 -2l-12 -11l-3 -2l-8 -18q-9 -21 -17 -39t-8 -20t4 -12.5t10.5 -24.5t14 -29.5t14.5 -26.5l-2 -1q8 -11 18 -26.5t20 -32.5l25 -51q0 -2 -0.5 -7.5t-0.5 -8.5t1 -5q8 -3 10.5 -10t4.5 -18q1 -5 1.5 -9t2.5 -6
q5 -10 0.5 -19t-16.5 -9h-4q-2 0 -4 -0.5t-3 -0.5q-21 0 -26 4.5t-8 15.5l-11 15q0 10 -1 13t-3 6q-5 6 -11 15t-14 26q0 1 -1.5 8.5l-3 15t-3.5 14l-2 6.5q-17 0 -19 16v-1q-2 4 -6.5 15.5t-9 22.5t-8 20t-4.5 9t-4.5 -2.5t-6.5 -4.5l-7 -15q-5 -9 -9 -17.5t-9 -14.5
q-6 -6 -10.5 -14t-2.5 -15l-4 -7q-2 -9 -6.5 -21.5t-10 -25.5t-10.5 -25.5t-9 -20.5v-7q0 -4 -3 -11q-2 -6 -7 -15.5t-14 -24.5q-4 -6 -10 -7t-11.5 1t-9.5 6.5t-4 10.5q-8 5 -11.5 11.5t-3.5 18.5z" />
    <glyph glyph-name="Y" unicode="Y" horiz-adv-x="440" 
d="M209 -155q6 -2 9 -2q7 6 21 11l1 1q4 2 6 0q4 14 12.5 24.5t14.5 15.5q1 4 3 7.5t4 8.5l-1 -1q5 13 10.5 28t5.5 17v15.5t0.5 14.5t2 8t5.5 -4q-2 4 -1.5 12.5t2 18t3 18.5t1.5 14q0 17 -5 32v71l-18 -39l-11 -15l1 1l-5 -9l-19 -18q-2 -1 -5.5 -6t-6.5 -11v1
q-6 -11 -13 -18t-18 -8l-2 -4q-16 -10 -36.5 -14t-30.5 -4h-27q-11 0 -24 1q-6 1 -12.5 5.5t-11.5 8.5q-5 1 -11 5.5t-11 9.5q-6 6 -13 14l1 -1q0 4 -1 8t-1.5 7.5t0.5 8.5q-4 5 -7.5 9.5t-3.5 15.5v6q-3 3 -5 8t-2 8v28q0 2 -2 6q-6 9 -6 18q0 6 6 12q-2 9 -4 19t-2 13v164
q-6 6 -6 10l-8 39v40q0 8 1 18t3 20q2 11 4 24q1 6 6.5 10.5t11.5 4.5h30q7 0 12 -5t6 -12l8 -51q0 -3 -2 -8t-4 -7l-3 -3q2 -7 9 -17v-13l-8 -21q0 -4 -0.5 -13t-0.5 -19v-33v-31t1 -24t2.5 -22t3.5 -27l2 -16l7 -34v-17l7 -36q0 -4 -1 -6q4 -2 6.5 -4t2.5 -8l15 -23
q0 -2 -0.5 -4.5t-0.5 -5.5l-4 1q2 -2 3 -2h1v-2q0 1 1 2l10 -5q-2 3 2.5 3.5t9.5 -0.5q7 -1 12.5 -1t7.5 -1q5 5 11.5 9.5t13.5 6.5q1 0 4 -0.5t5 -0.5q6 0 12 5.5t11 14t9 17.5t6 16q2 10 10 13q3 3 6 5.5t6 6.5l4 4q1 1 3.5 8.5l4.5 13.5q15 61 28 58l3 12l15 32l4 10t2 4
q7 11 7 20t2 18q1 8 2 15.5t4 13.5l-6 47q0 3 1.5 8t3.5 7l5 5q0 1 2 3l2 2v109q0 3 1 5v1q-1 3 -1 6q-1 3 -1 10q0 12 4.5 17t9.5 11q2 2 6.5 3.5t6.5 1.5h21q3 -2 7 -7t8.5 -11t8 -11.5t3.5 -7.5v-106q0 -4 -2 -14.5t-5 -18.5l-4 -147q-1 -20 -5.5 -31.5t-9.5 -18.5
q0 -2 0.5 -5.5t0.5 -7.5t-0.5 -11.5t-1.5 -14.5q6 -15 6 -40q1 -3 1 -8.5v-10.5q0 -10 -0.5 -21t-0.5 -17l-7 -37q0 -1 0.5 -1.5t0.5 -2.5q1 -2 1 -7v-8q0 -7 -0.5 -19t-1.5 -21q-1 -5 -1 -7.5v-4.5v-4q0 -2 -3 -11.5t-7 -20.5q-4 -13 -10 -29q-1 -7 -3.5 -15t-6.5 -17
q-4 -11 -9.5 -24t-5.5 -20l-18 -30q-9 -11 -14 -28l-43 -25q-2 -6 -7.5 -7t-13.5 -1q-5 0 -15 1t-19 2q-18 3 -27 3l2 2q-1 0 -3 -2h1h-1q-6 -2 -9 -2q-4 0 -8.5 1t-9.5 3q-3 2 -7 3.5t-7 2.5q-4 -3 -10 -3q-13 0 -18.5 6t-12.5 11t-6 6q-7 1 -10.5 4.5t-8.5 10.5l-15 21
q-2 0 -17 3.5t-20 13.5q0 2 4 10t9.5 17t11.5 16t11 7q2 0 7 -1.5t9 -3.5t5 -3t2 -1q3 0 14 -6.5t21 -13.5l2 -4q0 -1 1 -1q6 0 12.5 -3.5t12.5 -7.5q4 -2 9 -4t3 -3q4 -2 13 -4.5t15 -5.5l6 -3q2 1 4 0.5t5 -0.5q3 -1 7 -1q3 0 6.5 -0.5t5.5 -0.5zM107 90q1 1 2 0h-2z
M106 90v1l1 -1h-1z" />
    <glyph glyph-name="Z" unicode="Z" horiz-adv-x="491" 
d="M16 33q1 2 1 4q0 4 1 5v2q2 9 2 11v3q0 5 1 8.5t7 12.5q3 4 9 12.5t16 24t25.5 39t37.5 58.5q4 8 10.5 15.5t12.5 12.5q2 3 7 7.5t7 9.5q32 40 64 71.5t53 52.5l17 16q8 11 19 22t22 21l19 18q3 2 7 5t9 8q6 4 14 10t15 11.5t11.5 10t4.5 7.5q0 4 -20 8t-50 4
q-41 0 -82.5 3t-78.5 8q-35 4 -70.5 6.5t-67.5 2.5q-8 0 -13.5 5.5t-5.5 13.5v36q0 8 5.5 13.5t13.5 5.5q20 0 41.5 -1.5t36.5 -8.5h17q12 -1 37.5 -4t55.5 -7q25 -3 45 -5t23 -2q16 0 29.5 -1t39.5 -6q40 -8 61.5 -15.5t31.5 -17t11 -22t0 -30.5v-17q-4 -11 -11 -16t-15 -9
h1q-1 -1 -1.5 -1t-1.5 -1t-2 -1q-1 -2 -2.5 -6t-3.5 -6l-112 -112q-3 -14 -16.5 -24t-27.5 -21l2 2q-29 -25 -46.5 -42t-35 -38t-39 -52.5t-57.5 -86.5l15 3l27 5q11 0 21 2.5t20 5.5q11 3 23.5 5.5t21.5 2.5q3 0 6 -0.5t7 -0.5q7 7 23 7h16q11 9 39 15h8q3 0 7.5 -0.5
t8.5 -0.5q2 0 3.5 0.5t4.5 0.5q5 0 17.5 3.5t27.5 8t30 8t24 3.5q8 0 13.5 -5.5t5.5 -13.5v-10q0 -12 -0.5 -20.5t-8 -15t-24 -10.5t-46.5 -7q-12 0 -18.5 0.5t-11.5 1.5l-18 -10q-6 0 -12 -3q-14 -5 -35.5 -11.5t-46.5 -6.5q-10 0 -14 5q-3 -3 -7 -6.5t-9 -7.5
q-3 0 -4.5 -1t-3.5 -2q-10 -5 -18 -6t-15 13l-1 1l-8 -5q1 -1 -3 -3.5t-6 -2.5q-11 -2 -27 -5t-21 -3h-32q-5 0 -5.5 -1t-4.5 -3q-3 -2 -6.5 -3t-9.5 -1q-16 0 -18 15q-8 2 -13.5 6t-5.5 20z" />
    <glyph glyph-name="bracketleft" unicode="[" horiz-adv-x="257" 
d="M0 255l-4 265q2 5 5 21.5t3 21.5q0 32 8.5 54t19.5 33q27 27 55 34t43 7h25q5 3 13 6t19 3q16 0 23 -3t12 -7q7 -1 12 -6t5 -12v-28q0 -11 -8 -16t-17 -2q-5 -2 -10.5 -2h-10.5q-7 0 -13.5 0.5t-11.5 0.5h-5q-5 -7 -13 -7.5t-14 4.5q-5 -3 -6 -3l-8 -2q-12 0 -17 5
q-3 -3 -5.5 -7t-4.5 -8v-1l-5 -7q-7 -21 -9.5 -31.5t-2.5 -16.5v-63q0 -8 -2 -21.5t-4 -24.5q0 -3 -1 -5l7 -8q0 -14 -0.5 -16t-1.5 -7l-6 -44v-4q0 -2 3 -16t5 -25v-296q1 2 5 2.5t8 0.5q17 -2 46.5 0.5t51.5 5.5h-1q18 3 28 3q8 0 13.5 -5.5t5.5 -13.5q0 -22 -16 -42.5
t-51 -20.5q2 0 -10.5 2.5t-20.5 4.5q-17 0 -36 1t-41 6h2q-2 0 -8 2q-3 1 -5 1q-5 5 -9 7.5t-8 5.5q-11 8 -19.5 16.5t-8.5 23.5l-4 205v29z" />
    <glyph glyph-name="backslash" unicode="\" horiz-adv-x="282" 
d="M202 -2q0 2 -2 4q-11 22 -16 40t-5 28q-14 24 -20.5 44t-11.5 41q-5 17 -11 35t-17 42q-1 1 -1 4q0 2 -0.5 4.5t-0.5 4.5v-1q-2 7 -2.5 14t-0.5 6l-64 194l-10 28q-3 6 -6 18t-7 26q-3 12 -4.5 24.5t4.5 14.5h-4q-8 0 -13.5 5.5t-5.5 13.5q0 3 -1 16t-2 17v2q0 1 -0.5 1
t-0.5 1l-1 2l-1 1q-3 6 -4.5 19t-1.5 18q0 8 5.5 13.5t13.5 5.5q20 0 31.5 -6.5t18.5 -17.5t10 -24.5t5 -28.5q3 -7 4.5 -14.5t2.5 -10.5v-24q1 1 3 0q5 -5 8.5 -10.5t3.5 -14.5v-13q3 -6 3 -12q0 -9 6 -22.5t12 -27.5l16 -36v-14v-9q1 1 2 -1t2 -3q2 -2 4.5 -5.5t3.5 -6.5
q1 -2 2.5 -10t3.5 -16q1 -9 2 -14t1 -7l15 -33l7 -14q0 -3 0.5 -7t0.5 -9q1 -3 3 -8.5t4 -10.5q0 -4 2 -16t4 -22q1 -4 1.5 -6.5t0.5 -4.5l5 -8q8 -8 12 -15t5 -21q1 2 1.5 -2.5t1.5 -4.5h-1q3 -5 5.5 -9.5t1.5 -9.5l5 -13v-14q0 -2 3.5 -5.5t1.5 -13.5q2 5 5 3t7 -7.5
t7 -13.5t5 -14l8 -31l8 -29q0 -1 0.5 -7t1.5 -14q2 -11 3.5 -15.5t1.5 -21.5q0 -15 -4 -22t-11 -12q-7 -6 -15.5 -4t-12.5 10l-6 16q1 0 0.5 -4.5t-1.5 -6.5t-2 2t-1 22q-1 -7 -6 -3.5t-10 12.5t-9.5 20t-4.5 18v8q0 2 0.5 3t0.5 3z" />
    <glyph glyph-name="bracketright" unicode="]" horiz-adv-x="272" 
d="M10 5q12 0 26 -6q13 5 29.5 8t23.5 3q2 -2 9 -4.5t8 -2.5q14 0 26 5q-1 23 -1 70.5v103.5v100.5t1 68.5t2 52t4 52q0 4 4 16l-1 -1q1 3 1.5 9t1.5 10.5t1.5 5.5t0.5 -4v20q0 9 3 23.5t7.5 30t9.5 30t10 23.5q1 7 4.5 10.5l8.5 8.5q2 2 2 7q0 2 2 3h-170l-8 -6
q-10 -5 -18.5 0.5t-8.5 16.5v22q0 6 4 11.5t11 7.5l119 23q11 -5 32.5 -10t46.5 -5h16q25 0 29 -18.5t4 -53.5v-24q0 -5 -0.5 -11t-0.5 -8q0 -3 -2.5 -8.5t-5.5 -7.5q-5 -3 -7 -9t-4 -14v1q-2 -6 -2 -10q-1 -5 -4 -11.5t-6 -12.5q-5 -12 -5 -17t0.5 -10t0.5 -10q0 -7 -9 -16
v-3q0 -5 0.5 -11.5t0.5 -13.5v-9v-36t-8 -22v-388q0 -14 -7.5 -22.5t-21.5 -13.5t-33.5 -7.5t-43.5 -4.5h-2q-5 -5 -15 -7t-24 -2q-26 0 -43 15t-17 44z" />
    <glyph glyph-name="asciicircum" unicode="^" horiz-adv-x="283" 
d="M167 632q5 0 13.5 -8t14.5 -17q8 -2 10.5 -8.5t5.5 -16.5q2 -5 3.5 -9.5t4.5 -9.5l14.5 -43.5t16.5 -51t13.5 -47t6.5 -30.5q0 -8 -5.5 -14.5t-13.5 -6.5q-1 0 -1.5 0.5t-1.5 0.5q-3 0 -5 1l-1 -1q-1 0 -3.5 -0.5t-3.5 -0.5q-21 0 -28.5 10.5t-14.5 30.5q-2 4 -2 8h-1v3
q-3 16 -5 25.5t-3.5 16t-4 12.5t-6.5 16l-29 65q-2 -2 -2 -3q-1 -1 -1 -2q-3 -5 -6 -11.5t-5 -13.5q-3 -8 -8 -18t-10 -14l-2 -9q-4 -13 -8.5 -25.5t-6.5 -15.5l1 4l-1 -3q-3 -11 -8 -16.5t-9 -11.5q-3 -3 -2.5 -1t-1.5 -3q0 -6 -4.5 -13t-11 -13.5t-15.5 -11t-18 -4.5
q-14 0 -24 9q-2 2 -3.5 7t-1.5 7t0.5 5.5t0.5 6.5q1 8 1.5 16.5t3.5 13.5q2 5 9 12l11 12l6 3q1 4 1 6.5t9 15.5q2 2 7 9t5 21q0 10 8 15q5 3 6.5 9.5t2.5 11.5q0 1 1 3t1 3q0 8 4.5 14t9.5 15l11 17q1 2 1 5v4q0 8 5.5 13.5t13.5 5.5h56zM243 372q-4 0 -7 4q2 -3 7 -4z" />
    <glyph glyph-name="underscore" unicode="_" horiz-adv-x="483" 
d="M215 89q2 -1 4 -1t3.5 -0.5t3.5 -0.5q4 -2 8.5 -3.5t6.5 -1.5t3.5 0.5l4.5 1.5q5 2 11.5 3.5t18.5 1.5h43q11 0 25.5 1.5t27.5 3.5q8 1 14 1.5t11 0.5l1 2q2 2 6 3.5t8 2.5h-1q13 2 20.5 -2.5t12 -13.5t6 -21.5t1.5 -27.5q0 -19 -19 -19q-13 0 -21 7q-10 -5 -15 -5
q-10 0 -13 2.5t-5 5.5q-2 0 -2 2q0 -1 -1 -1.5t1 -0.5q-19 -1 -35 -1.5t-30 -2.5q-33 -3 -73 -3q1 0 -3 -2.5t-9 -4.5l1 1q-14 -9 -25 -9h-66h-7q-6 -8 -15 -8q-7 0 -15 6q-5 -2 -9 -3.5t-6 -2.5h2q-4 0 -14 -0.5t-21.5 -1t-21.5 -1t-13 -0.5q-8 0 -13.5 5.5t-5.5 13.5
q0 20 7.5 31t20 15.5t29 5t35.5 0.5h8l16 8l7 4q14 8 23 -6q13 8 28 8h16l1 1q3 1 6 1.5t2 -0.5q2 2 6.5 3.5t6.5 1.5h3v0z" />
    <glyph glyph-name="grave" unicode="`" horiz-adv-x="226" 
d="M204 656q-3 0 -13.5 1.5t-22.5 6t-22.5 12t-13.5 19.5q-22 19 -41.5 36.5t-39.5 38.5q-6 3 -13.5 8.5t-14.5 12t-12 13t-5 12.5q0 3 4.5 10t11 13.5t13 12t9.5 5.5q7 0 12.5 -4.5t10.5 -9.5l7 -8q1 1 4 0t6 -3l-1 1q8 -5 17 -10.5t11 -7.5q3 -3 5 -7t6 -9q3 -7 5 -7
q0 -1 0.5 -1t0.5 -1q4 -8 4 -11v10l9 -4q12 -12 26.5 -29t26.5 -33.5t20.5 -29.5t8.5 -18q0 -8 -5.5 -13.5t-13.5 -5.5zM129 790q2 0 2 1q0 -1 0.5 -1t0.5 -1q-1 0 -1.5 0.5t-1.5 0.5z" />
    <glyph glyph-name="a" unicode="a" horiz-adv-x="350" 
d="M112 -7q-18 0 -27 8q-6 -2 -13 -2q-3 0 -12.5 7t-20.5 18t-19.5 24.5t-8.5 25.5v2q-2 2 -4.5 6t-2.5 9v13h-1q-1 0 -3.5 8t-4.5 18.5t-4 20.5t-2 15q0 11 3 17q-4 5 -4 13q0 12 14 12l2 1v39q0 10 11 16h-2q0 3 0.5 9t3.5 12.5t8 11.5t14 5q3 0 3.5 6t-0.5 12t-1.5 10
t-0.5 0l16 33l11 11l3 2q2 11 10 17.5t16 11.5q0 -2 1 -4v8q8 12 18 20t22 8q1 0 9.5 3.5t19.5 7.5t23 7.5t19 3.5q10 0 14 -9h10q3 0 14 -5t22.5 -12.5t20.5 -17.5t9 -19q0 -10 -8 -15v-2q0 -7 -6 -13q6 -12 6 -22h-6q6 -1 10 -6.5t4 -11.5l1 -44q2 -1 4 -5.5t2 -6.5v-23
q7 -9 7 -19v-15q3 -4 4.5 -7t1.5 -9l-2 7q2 -8 4.5 -24.5t4.5 -30.5q2 -17 6 -24t4 -19v-15q2 -18 7.5 -26.5t5.5 -16.5q0 -21 -7 -30.5t-27 -9.5q-21 0 -33 8.5t-12 20.5q0 6 4 12l-3 15t-3.5 20.5t-2.5 18.5t-1 10q0 14 -4.5 25t-6.5 29q-2 -5 -4.5 -10.5t-4.5 -7.5l-9 -9
q-3 -4 -5.5 -7t-2.5 -2l-1 -19q-3 -9 -6 -17q-2 -7 -5.5 -14t-5.5 -9q-9 -9 -23 -22.5t-28.5 -26t-27 -21.5t-17.5 -9zM77 98q0 -5 -7 -12l17 -13h8q15 0 17.5 2t5.5 7l1 1q3 5 5.5 10.5t10.5 13.5q3 7 6.5 11.5t7.5 9.5t9 12.5t12 22.5l4 5q0 10 5 20l10 20t9 20t2 20l9 19
q1 2 1.5 9t1.5 17t2.5 21t4.5 21q0 11 6 21t6 18q-4 13 -20 13q-4 0 -13 -4.5t-14 -4.5h-16l2 -2q-4 -5 -9 -10t-9 -7l-1 -1q2 -6 2 -7q0 -10 -19 -17q-2 0 -5.5 0.5t-4.5 0.5q-10 -14 -18 -27q-7 -11 -12.5 -24t-5.5 -21l-5 -18q0 -10 -2 -10.5t-5 -2.5q0 -3 0.5 -5.5
t0.5 -4.5q-8 -14 -7.5 -18.5t-2.5 -10.5q3 -5 3 -10q0 -8 -6 -12l-4 -4h1q0 -14 8 -31.5t8 -37.5z" />
    <glyph glyph-name="b" unicode="b" horiz-adv-x="396" 
d="M195 -7q-33 0 -61.5 4.5t-43.5 17.5q-5 -6 -13 -6h-39q-10 0 -15.5 19t-8.5 47t-4 61t-1 61v22q0 46 -1 95t-2.5 93.5t-3.5 80.5t-5 56q19 28 43 28q11 0 19.5 -2t16.5 -15q1 -8 0 -15q1 -4 1.5 -8t-1.5 -7q1 -4 1 -9q-1 -5 -1 -17.5v-26.5v-26t1 -17q0 -3 2 -9
q2 -8 3 -11t2 -5q0 -2 -1.5 -7.5t-3.5 -9.5q-1 -2 -1 -3t-1 -1l7 -19v-15q-1 -2 -4 -8.5t-3 -7.5q0 -5 1.5 -14.5t3.5 -17.5q2 -10 2 -13q3 8 8 14t10 11q4 4 6.5 9t2.5 17q3 4 12 13l19 19l19 19l14 14q9 8 19 10t26 2h6q23 0 33 -4.5t18 -10.5q4 -3 19 -9q6 -5 15.5 -16.5
t19.5 -25t17 -26.5t7 -20v-134q0 -5 -3 -9.5t-6 -6.5q-2 -8 -3.5 -15.5t-2.5 -14.5q-1 -5 -5 -15.5t-6 -15.5l1 1l-15 -21q-5 -6 -9.5 -14t-7.5 -14t-3.5 -8t2.5 4q4 -4 -1 -9t-12.5 -9.5t-13.5 -8t-3 -3.5l-43 -11q-10 -4 -18 -5.5t-11 -1.5zM100 99q-2 -3 -3 -17t-1 -31
l8 6q1 -1 10 -1h14q1 0 9.5 1t21.5 1q10 1 21.5 2.5t20.5 3t14.5 1.5t2.5 -3q17 5 25 14t11 19q3 17 8 26q1 2 5.5 6.5t9.5 8.5l6 11q5 16 6 29t1 34v25q0 7 -0.5 20t-0.5 21v7q0 8 -4.5 20.5t-10.5 24.5t-12.5 20.5t-10.5 8.5h-50l-27 -41l-24 -40v-1l-2 -5
q-2 -5 -4.5 -12.5t-3.5 -12.5q0 -3 -2 -7.5t-4 -8.5q-2 -8 -3.5 -16t-3.5 -17v-14q0 -14 -8 -20q0 -2 0.5 -2.5t0.5 -1.5q0 -6 -4 -15.5t-8 -17.5v1q-2 -7 -3 -7q1 -1 1 -4v-4q0 -2 -2 -6t-4 -6z" />
    <glyph glyph-name="c" unicode="c" horiz-adv-x="328" 
d="M279 322q-5 0 -11.5 1.5t-11.5 8.5q-11 2 -17.5 8t-11.5 13q-3 2 -5 4.5t-4 3.5q-1 1 -8.5 1.5t-16.5 1.5t-17 1.5t-10 0.5h-2q-5 -5 -11 -8.5t-12 -5.5l-9 -5v-2q0 -1 -2 -5l-5 -8q-24 -24 -36 -51t-18 -75v1q-2 -4 -2 -7q-4 -6 -5 -10.5t-1 -14.5q0 -8 0.5 -12t2.5 -7
q2 -4 4 -8.5t2 -11.5q0 -8 -2 -14q8 -19 18 -29.5t26 -16t39 -6.5t58 -1h30q11 8 25.5 15t19.5 7q11 0 18 -11t10 -19q1 -32 -12 -44.5t-34 -12.5q-5 0 -11 3q-2 -2 -4 -2q-3 -3 -6.5 -5.5t-7.5 -2.5h-87q-1 0 -7 2q-4 -2 -6 -2q-18 -2 -27.5 2.5t-17.5 12.5q-9 1 -20.5 4.5
t-22 9t-17.5 14t-7 19.5q0 1 0.5 0.5t0.5 1.5l-7 9l3 -9q-10 14 -11 21t-1 12l-1 1q-3 3 -4 8t0 10q-1 -1 -1 -2v-1h-1q-5 6 -9.5 12.5t-4.5 17.5v5l6 34v1q-6 5 -6.5 12t4.5 12q-5 10 -5 28q0 23 6 32t14 15l2 1q1 0 1 1q0 2 -0.5 5.5t-0.5 6.5q0 2 0.5 5t0.5 4
q8 21 18 41.5t25 38.5t35.5 31t50.5 19q4 1 10 -2q5 7 14 7q1 0 9.5 -1t18.5 -2t18.5 -2t10.5 -1q8 -2 12 -12l1 -2h4q1 0 7 -2.5t13 -6t14.5 -8.5t12.5 -10q11 -11 12.5 -21.5t1.5 -23.5v-3q0 -8 -7 -14t-15 -6z" />
    <glyph glyph-name="d" unicode="d" horiz-adv-x="377" 
d="M10 88q0 -3 9 -3q-9 2 -13 8q-8 11 -9 18.5t-1 30.5v16t1 10.5t3 9.5t6 13q5 5 8 15t5 20q2 11 5 20.5t8 15.5q6 16 13 30t24 31q2 12 8.5 16t14.5 9q3 2 6 5.5t3 11.5q16 20 27.5 25t19.5 7q3 0 5 2q7 7 11 9t15 2h7q3 12 16.5 13.5t18.5 -9.5q8 7 18 0q6 3 7 3l5 -1
l1 1q0 24 2.5 55t6 59t8 49.5t10.5 26.5l3 8q3 4 8 5t10 0q1 0 1 -1v1q8 -2 20 -6.5t12 -16.5l2 -4q1 -2 1.5 -4.5t2.5 -4.5q2 -10 4 -14q1 -4 3 -8v-7q0 -8 0.5 -20t0.5 -18t-0.5 -18t-0.5 -20v-8q0 -21 -4 -43t-8 -42q-8 -37 -8 -53v-20q3 -13 -7 -20q-1 -13 0.5 -18.5
t3.5 -10.5v1q4 -7 4 -21v-6q0 -7 -0.5 -16.5t-0.5 -17.5t0.5 -11.5t2.5 -8.5l5 -17v-1q0 -2 1 -2q3 -9 7 -28.5t4 -48.5v-9.5t-2 -9.5q2 -6 2 -7q0 -7 -6.5 -14.5t-8.5 -9.5q-13 -5 -21.5 -2t-14.5 12.5t-10 23.5t-9 30l-6 37q-2 12 -4 21.5t-2 21.5l-12 -21
q-7 -11 -12 -19.5t-6 -10.5l-8 -18q-4 -8 -7.5 -16t-8.5 -13l-16 -17l-6 -8l-4 -5l-11 -17q-3 -4 -9 -7t-11 -4q-1 0 -1 1l-9 -9q-5 -8 -13 -13.5t-20 -5.5q-10 0 -16 3q-11 -6 -21 -6q-8 0 -13.5 5.5t-5.5 13.5q-1 0 -1 1v2v2q-3 3 -5 11q0 -10 1 -12l-13 6.5t-12.5 9
t-9.5 14t-4 21.5v19zM80 184q0 -20 -2.5 -37t-12.5 -28l3 -9l3 -6q2 -3 4.5 -8t4.5 -8l-1 1l9 -17h7q1 2 5.5 4.5t5.5 3.5q8 5 25 18.5t28 31.5q2 6 6.5 11.5t9.5 12.5q5 6 10.5 14t5.5 13q0 2 2 6.5t4 6.5q3 2 7 15q2 8 6 18t12 21q3 5 11 12q3 5 4 3v9q0 11 11 14t19 -2
q-3 9 -6.5 20.5t-3.5 19.5q0 17 -4 24t-20 7q-7 0 -18 -4.5t-19 -7.5q-8 -4 -15 -4v-2q-5 -16 -15 -21t-18 -7q-2 0 0 3q-14 -14 -28.5 -30t-14.5 -23q0 -2 -1.5 -6.5t-3.5 -6.5q-1 0 -1 1v3l-18 -18q7 0 8 -2t0 -4q-2 -7 -4 -13t-6 -11q0 -5 0.5 -9t0.5 -9z" />
    <glyph glyph-name="e" unicode="e" horiz-adv-x="374" 
d="M79 1q-12 3 -15 13q-5 1 -9 3.5t-6 7.5q0 -1 -4 -1q-8 0 -13 5t-5 13v1q-5 6 -10 13.5t-9.5 15t-7 12.5t-2.5 6l2 6q-5 9 2 18q-5 9 -7.5 17.5t-3.5 10.5v9q0 2 -0.5 5.5t-0.5 5.5q0 6 5 11q-4 8 -4 13q0 1 1.5 9t4.5 19.5t6.5 25t7.5 25.5q-7 3 -9 9.5t-2 12.5q0 8 3 15
t11 10q4 8 14 24q4 7 8 15t7 17l17 19l9 11q5 5 12 7q5 3 10.5 7t12.5 7h-1q8 4 15.5 8.5t15.5 10.5l2 2l8 6t12 3q2 0 6.5 -3t8.5 -6q13 8 24 8q5 0 13 -5t14 -10l7 -4q4 -6 10 -7q2 -1 8.5 -3t1.5 0h3q13 0 17.5 -1t5.5 -18q2 -5 7.5 -17.5t22.5 -38.5q1 -20 -1 -29
t-6 -13q0 -3 0.5 -6t0.5 -5l-5 -12q-1 -3 -2.5 -6.5t-2.5 -5.5q-5 -12 -16 -15q-2 -5 -6 -9l-11 -10l-19 -23q-6 -6 -10 -7v-1l-6 -7q-11 -11 -29.5 -20.5t-31.5 -14.5l-28 -17q-6 -4 -12 -3.5t-10 3.5q-5 -2 -8 -3t-5 -1l-9 2l-7 5q-4 -2 -5 -3t-2 -1q-3 0 -3 5v-50
q0 -1 5 -4t12 -6.5t13 -7t8 -4.5l2 -5q4 2 5 2q5 0 11 -4q5 2 8.5 3t8.5 1h11q8 4 13.5 5.5t14.5 4.5q16 5 30.5 11t19.5 11q3 2 7.5 6.5l9.5 9.5l11 11q1 1 5.5 3t6.5 2h5q-2 0 -1 2.5t3 4.5q5 8 11 14t17 6l13 -5q16 -7 19 -11t3 -22t-8 -25.5t-19 -15.5l-9 -7
q-2 -2 -2 -3q-2 -5 -6 -9.5t-18 -12.5q-12 -6 -21 -10t-18.5 -8t-21 -9t-27.5 -11l-16 -7q-2 0 -4.5 -2t-6.5 -4l1 1q1 1 -5 2t-28 1q-2 0 -10.5 -0.5t-18 -1.5t-16.5 -2t-6 -1h-2q-1 0 -2 1zM63 212h3q3 0 6 -1.5t6 -3.5q11 2 30 8t36 11l2 -1q3 2 6 3t5 3q8 16 15.5 20.5
t15.5 7.5h-1l4 2t4 3l8 7q5 5 9 9.5t12 16.5q0 11 0.5 20t1.5 20q-5 4 -7 7.5t-4 8.5l-4 5q-8 8 -15 9.5t-20 1.5q-10 0 -11 -3q-5 -3 -11.5 -7.5t-17.5 -8.5q-4 -5 -10.5 -7.5t-13.5 -3.5h-2q-2 -2 -9.5 -15t-9.5 -21v1l-13 -29q-3 -5 -5 -10t-2 -4v-15q0 -2 -1.5 -7.5
t-6.5 -10.5v-16z" />
    <glyph glyph-name="f" unicode="f" horiz-adv-x="372" 
d="M100 245q0 26 -0.5 48t-3.5 31q-5 -2 -9 -3t-10 -3l-13 -4q-2 0 -6 0.5t-6 0.5q2 -1 -5 -5.5t-11 -6.5q-10 -7 -18 -3t-10 14v-4q0 -1 1 -1q-8 0 -13.5 5t-5.5 13q0 19 6 32t29 13h10q5 2 10 3.5t11 3.5l19 7q19 5 22.5 14t2.5 25v15q0 6 5 16q0 2 0.5 2.5t0.5 1.5t1 1
q0 2 1.5 9t3 15.5t3 15.5t1.5 8q2 9 12 12v2q0 10 5 14.5t10 9.5v9q6 20 19.5 32.5t30.5 12.5q9 0 11 -1q8 7 19.5 10.5t21.5 6.5q8 1 7 0q2 2 6.5 3.5t6.5 1.5q10 0 14.5 -4t9.5 -9t14 -10.5t29 -5.5q8 0 13.5 -5t5.5 -13q0 -12 -4.5 -18.5t-11 -9.5t-13.5 -4t-11 -1t-6 1
q-7 1 -21.5 2.5t-25.5 4.5l-7 -4l-6 -6q-1 -2 -5.5 -3.5t-6.5 -1.5v-1l-2 -1l-11 -3l-35 -35q-3 -14 -10.5 -37.5t-14.5 -38.5q2 -3 3.5 -7.5t3.5 -9.5l31 6l54 7h6q4 0 8 -0.5t9 -0.5q-1 0 3 1t11 2.5t15.5 3.5t16.5 4l15 4q9 2 15.5 -4t6.5 -15v-9q0 -10 -4.5 -26
t-18.5 -18q-8 -3 -11 -4t-14 -2q-9 -1 -28.5 -2t-61.5 -6q-6 -1 -11 2t-7 8q2 -12 0 -15t-4 -4l-10 -5q-8 0 -16 4v-121l8 -23q0 -2 -0.5 -4.5t-0.5 -4.5t-1 -4t-3 -2l7 -15q8 -17 10 -35.5t2 -22.5q0 -5 0.5 -9t-1.5 -8l8 -16q1 -2 0.5 -7t-1.5 -7q1 1 1.5 -2t1.5 -6
q2 -7 3.5 -11.5t1.5 -9.5q0 -8 -5 -13.5t-13 -5.5q-2 0 -14.5 1.5t-16.5 2.5q-12 13 -20.5 35t-9.5 34l-14 74v4q-7 22 -9 49q-1 8 -2.5 17t-3.5 22z" />
    <glyph glyph-name="g" unicode="g" horiz-adv-x="392" 
d="M167 -96q0 3 2 11.5t3 11.5q4 13 17.5 13t17.5 -14q0 -1 7 -1q16 0 25.5 9.5t17.5 20.5l-1 -1l10 14v1l5 10q5 8 10 18t5 12q0 4 -3 21q-2 13 -3.5 27.5t-1.5 27.5v7q0 5 2 19.5t4 22.5q-5 -6 -10.5 -11.5t-12.5 -11.5l-9 -10q-10 -9 -18.5 -11.5t-16.5 -2.5q-3 0 -4 -2
l-5.5 -5.5t-5.5 -4.5q-11 -4 -24 -11.5t-18 -12.5q-2 -2 -6.5 -3.5t-6.5 -1.5h-10l1 -1q-4 -2 -7.5 -5t-15.5 -3q-13 0 -21 5q-6 -3 -11 -3t-11 3.5t-11 8.5q-1 0 -1 0.5t2 1.5h-6q-5 0 -16.5 9t-20.5 17q-2 2 -3.5 6t-1.5 6q-2 -2 -4 5q-5 9 -11 21.5t-6 32.5q0 6 2 8l6 7
q-2 8 -2 12q0 2 2.5 8.5t6 15t7.5 17t7 14.5q0 8 1.5 16t10.5 21q2 2 6 9.5t9 16.5v-1q7 14 13.5 25t17.5 13l1 2q2 4 8 13t21 11q21 21 40 33t39 12h6.5t6.5 -1q10 7 21.5 11t23.5 4q1 0 5 -2q6 3 10.5 2.5t11.5 -6.5q4 2 7.5 4t7.5 2q2 0 7 -2.5t6 -4.5v-1h-2
q20 -1 34 -11t22.5 -24.5t12.5 -31.5t4 -31q0 -8 -5 -13.5t-13 -5.5h-8q5 -5 5 -11v-110q0 -66 -4 -125.5t-20 -92.5q-3 -10 -16.5 -26t-30 -31t-32.5 -25.5t-24 -10.5q-28 0 -43 7.5t-15 36.5zM277 257q0 7 5.5 14.5t13.5 13.5t17.5 10t18.5 4q-15 7 -27.5 18t-12.5 19
q-5 3 -9.5 5.5t-5.5 2.5h-20q-4 0 -8 2q-6 -3 -12.5 -6t-11.5 -3q-3 0 -4.5 0.5t-5.5 0.5l-19 -10q-11 -5 -23 -12.5t-26 -20.5h-14q-5 0 -3 -8.5t0 -5.5q-6 -11 -14 -20.5t-15 -17.5t-12 -15t-4 -13q0 -4 0.5 -7t0.5 -5v-5q-5 -20 -10 -31t-9 -16q-3 -5 -3 -10q0 -4 1 -6
q0 -2 1 -3q4 -5 10.5 -11.5t10.5 -9.5l14 7q11 0 19 2t22 5q2 0 5.5 -0.5t6.5 -0.5q0 1 1 2q0 1 2 3q5 4 8 6.5t10 3.5q8 8 18 8q4 0 7 -1q2 4 4.5 6.5t2.5 4.5t1.5 6.5t3.5 6.5l47 47q2 2 4 6t4 9t4.5 9.5t5.5 8.5v7z" />
    <glyph glyph-name="h" unicode="h" horiz-adv-x="444" 
d="M327 101q-3 6 -3 9q-5 17 -6 29.5t-3 22.5v-1q-2 8 -2 14t-4 14q0 14 -4 34t-17 57l1 -1q-2 5 -9 17t-15 16q-16 23 -25 28t-22 5q-16 0 -20.5 -3.5t-6.5 -10.5q-2 -3 -3.5 -6.5t-3.5 -7.5l-4 -8l-15 -15q-4 -4 -4 0l-8 -17l-7 -14q-2 -3 -6 -7t-8 -5q2 0 -7 -30
q-5 -15 -7.5 -24.5t-4 -17t-1.5 -15.5v-20l-22 -43q0 -14 0.5 -19t4.5 -11q2 -4 1 -9.5t-3 -9.5q-8 -11 -14.5 -21.5t-11.5 -18.5q-4 -8 -14 -10q-12 -2 -19 1.5t-10.5 10t-4.5 16t-1 19.5q0 7 0.5 15.5t0.5 14.5v4q-5 45 -6 94t-2 91q0 47 -1.5 85t-6.5 62v46q0 20 -6 25
q-10 7 -8 18t12 14q-2 0 -3 -1q0 5 -2.5 15t-5.5 21v4q0 20 8.5 30.5t29.5 10.5q16 0 23.5 -3t18.5 -22q-2 -7 -2 -14.5v-15.5q0 -14 1 -20t3 -10v1q3 -8 3 -21q0 -4 -1 -9t-3 -10q-1 -1 -1 -2t-1 -1q0 -5 0.5 -53.5t3.5 -157.5q3 10 8.5 22.5t10.5 19.5q6 6 14 8q-1 0 -2 1
t-1 2q0 2 1.5 6t3.5 6q7 7 11 12l8 10q15 20 33 37.5t47 17.5q15 0 31.5 -2t32 -8.5t29 -18t23.5 -30.5q0 -1 6 -7q10 -10 10 -19q0 -2 -1 -5t-2 -8q7 -12 16 -33t17 -42.5t14 -40t6 -25.5q0 -20 1.5 -39t3.5 -37q2 -19 3.5 -37t1.5 -38q0 -8 -5 -13t-13 -5
q-31 0 -42.5 10.5t-11.5 31.5v65v0z" />
    <glyph glyph-name="i" unicode="i" horiz-adv-x="131" 
d="M18 85q0 11 5 26q3 9 3 18v2q-8 6 -8 18q-2 17 0.5 25t6.5 12l-7 23q-2 8 0.5 17t5.5 17q0 2 0.5 3.5t0.5 2.5q-3 2 -5 6.5t-2 7.5v50l-2 1q-8 8 -6 17.5t13 12.5q-2 1 -2 8v14q0 8 5 13t13 5h5q8 0 16.5 -0.5t15 -4t11 -11.5t4.5 -23q0 -7 -0.5 -10.5t-1.5 -7.5
q4 -8 0 -15q3 -8 6 -18t3 -24q0 -9 -6 -16q3 -4 5 -9.5t2 -19.5q0 -16 -1.5 -25t0.5 -23q0 -6 -2 -16l-6 -29q0 -2 -0.5 -2t-0.5 -1q5 -5 7.5 -11.5t2.5 -21.5q0 -11 -0.5 -17.5t-2.5 -11.5q4 -10 8 -21.5t4 -19.5t-5.5 -13.5t-13.5 -5.5q-10 0 -21 0.5t-20.5 4t-16 12.5
t-6.5 26v20l-1 2zM25 483q0 30 13 36t36 6q8 0 13 -5.5t5 -13.5q0 -11 -1.5 -14t-3.5 -8q-4 -6 -4 -12h-1q-1 0 -2 1q7 -9 2.5 -19t-16.5 -10q-1 0 -1.5 -0.5t-1.5 -0.5q-21 0 -29.5 8.5t-8.5 31.5z" />
    <glyph glyph-name="j" unicode="j" horiz-adv-x="172" 
d="M-112 -173q19 2 46 12t45 28q10 7 18 14.5t15 19t13 26.5t12 37q5 14 6 26.5t1 35.5q0 2 -0.5 5t-0.5 8q-1 4 -1 7.5v6.5q-2 4 -4 7t-2 5q0 5 2 10.5t4 10.5v271q0 19 8.5 30.5t31.5 11.5q14 0 22 -4.5t12 -11.5t5 -15.5t1 -17.5q0 -2 -0.5 -10t-2.5 -16t-3 -15.5
t-1 -8.5q0 -5 1 -10.5t3 -12.5q2 -8 3 -16t1 -22q0 -20 -1 -28.5t-7 -16.5v-129q0 -8 -5 -13t-12 -5q2 -2 2 -6q0 -5 0.5 -10.5t0.5 -9.5v-7l-3 -31q-2 -24 -5.5 -43t-14.5 -32q-2 -10 -6.5 -21t-9.5 -16q-11 -21 -24 -33.5t-27 -20.5q-6 -10 -12.5 -14t-13.5 -8
q-8 -3 -11 -6q-2 -2 -6.5 -4t-6.5 -2h-70q-8 0 -13.5 5.5t-5.5 13.5v7zM63 531q0 2 0.5 4.5t0.5 5.5v8q0 11 8 16t18 1q15 -7 31 -18.5t16 -19.5q0 -19 -11 -37.5t-34 -18.5q-8 0 -13.5 5.5t-5.5 13.5v5q-4 5 -7 11t-3 24z" />
    <glyph glyph-name="k" unicode="k" horiz-adv-x="436" 
d="M16 56q0 11 1.5 17.5t3.5 10.5q-1 5 -3 11t-2 7v15q0 11 -0.5 24.5t-0.5 20.5q0 5 0.5 13.5t0.5 16.5v10q0 3 2 7q-2 6 -2 8v49q0 2 2 6.5t3 6.5q-2 21 -3.5 57t-2.5 79t-1.5 88.5t-0.5 85.5q0 8 5 13.5t13 5.5q10 0 20.5 -1t19 -4.5t14 -10.5t5.5 -19q0 -6 -1.5 -9.5
t-3.5 -7.5q-3 -8 -3 -13l1 -1q2 -2 3.5 -7t1.5 -8q-2 -10 -3.5 -14.5t-3.5 -8.5v-9q2 -2 4.5 -2.5t2.5 -12.5q0 -2 -2 -8t-4 -11q2 -5 5 -11.5t3 -20.5q0 -17 -3 -24.5t-6 -11.5q0 -4 0.5 -7t1.5 -7q2 -5 3.5 -11.5t1.5 -10.5v-15h3l3 7v7q0 11 6.5 17t14.5 11v3q0 4 3 8
t7 9q3 3 6.5 7.5t5.5 7.5q2 8 7 15l10 14q5 6 11 14.5t7 13.5q2 6 7 9t11 4q-2 0 0 6q8 13 18 27.5t24 22.5q13 5 22 -4q9 -11 12 -22t3 -24q0 -8 -5 -13t-13 -5q-5 0 -32 -60q-2 -2 -2 2q-12 -20 -20.5 -34t-17 -27.5t-18.5 -29t-25 -37.5q-2 -2 -7 -5t-9 -3q-1 0 -2.5 -10
t-1.5 -12t0.5 -4.5t0.5 -5.5q0 -5 -4 -13l-3 -3h3q7 0 12.5 -2t10.5 -4l6 -2q1 0 3 1t5 4q6 5 12.5 8t17.5 3q14 0 21 -5l16 4l7 -4q3 2 7 3t12 1q14 -4 32.5 -5t37.5 -1q18 0 35.5 -1t31 -4.5t21.5 -11.5t8 -21q0 -1 -2.5 -6t-6.5 -11t-9.5 -11t-10.5 -7q-11 -2 -17.5 0
t-14.5 4q-6 2 -10 2h-45q-11 0 -21 5q-10 2 -9 2q-8 0 -11.5 -1t-10.5 -5q-19 -5 -41.5 -6t-44.5 -3q-23 -2 -40.5 -2.5t-19.5 5.5l-1 -127q0 -2 -1.5 -6.5t-3.5 -5.5l-6 -6q-2 -8 -6 -14t-15 -6q-24 0 -35 12.5t-11 44.5z" />
    <glyph glyph-name="l" unicode="l" horiz-adv-x="120" 
d="M23 196q0 10 7 14v117q-1 0 -1.5 1t-1.5 1q-5 2 -8 6.5t-4 8.5q-1 3 -1 6v10v6q0 9 0.5 16t4.5 12q-2 6 -4.5 15.5t-5.5 25.5q-16 2 -12 10.5t15 23.5q1 2 2 2.5t1 1.5l-1 1q-1 0 -1 1q-2 2 -3.5 6.5t-1.5 6.5v95q0 8 5 13t13 5h6q8 1 16 0t15 -5.5t13 -14.5t11 -28
q-1 -9 -1 -30.5v-45.5v-37q-1 -26 0 -40t7 -25q1 -9 0 -16q2 -8 2 -15q0 -22 -8 -39v-168q3 -9 5 -23t3 -30.5t1.5 -34t0.5 -32.5q0 -8 -5 -13t-13 -5q-26 0 -37 3.5t-14 11.5t-1 22t2 35q0 5 0.5 10.5t0.5 9.5v4q0 6 -1.5 20t-2.5 29.5t-2 28.5t-1 16v7v0z" />
    <glyph glyph-name="m" unicode="m" horiz-adv-x="653" 
d="M200 351q-2 0 -5 1.5t-1 3.5q-3 -3 -12 -12.5t-19 -20.5t-19 -22.5t-13 -19.5q-3 -6 -7.5 -18.5t-8.5 -25.5t-7 -25t-3 -16q0 -10 -6.5 -15t-8.5 -16v-33q0 -11 -1 -17t-3 -11v1q-2 -3 -3 -9t-1 -21v-15.5t2 -12.5q-6 -20 -16 -23t-21 -3q-3 0 -10.5 1t-14.5 4t-12.5 8.5
t-5.5 13.5v312q0 15 8 27.5t24 12.5q1 0 7.5 -2.5t14 -7t13 -12.5t5.5 -18v-57q7 15 18.5 33t25.5 33.5t29 26.5t29 11h21t17 -1t16.5 -3t19.5 -6q26 -20 48 -45t31 -59l18 -80l4 2q-5 1 -5 5.5t1 10.5l3 18q3 9 7 18.5t9 18.5t10.5 21t9.5 24q1 2 5 6t6 5q7 2 10.5 5t8.5 8
q8 8 17.5 14.5t25.5 8.5q3 1 8 -1t7 -4q5 -5 10.5 -6t10.5 -2q11 -2 21.5 -6t21.5 -24q8 -7 13.5 -19t10.5 -26q4 -11 8 -21t7 -14q5 -15 10.5 -41t10 -55t7.5 -56t3 -43q0 -8 -6.5 -13.5t-14.5 -4.5q-29 3 -38.5 18t-13.5 49q-4 42 -10.5 82.5t-18.5 64.5q0 20 -10 34
t-22 22l-1 -1q-10 -12 -21 -12h-7q-2 0 -4 0.5t-3 0.5q2 -2 0 -9t-5 -16q-3 -7 -5.5 -14t-7.5 -16q-8 -14 -10.5 -22.5t-2.5 -13.5q0 -3 0.5 -7.5t0.5 -7.5v-5q0 -7 -4 -17q-1 -2 -1 -5q0 -2 -1 -3q-5 -8 -6 -17t-3 -17t-3 -15t-4 -15v-13.5t-2 -12.5q-2 -7 -3 -15t-1 -12
q-1 -3 -1.5 -10t-1 -14.5t-0.5 -14.5v-9q0 -8 -5 -13t-13 -5q-18 0 -27.5 6.5t-15 17t-7.5 25t-3 30.5l-2 22t-3 20q0 9 -3.5 27.5t-8 39t-9 39t-6.5 27.5q-1 1 -1 2v1q-6 8 -6 11t-1 10v-1q-2 7 -7.5 20t-19.5 36l-12 17q-8 11 -13 15.5t-16 4.5z" />
    <glyph glyph-name="n" unicode="n" 
d="M0 73q0 12 12 21v253q0 8 5.5 13.5t13.5 5.5h13q2 0 6.5 -2t6.5 -4l22 -22q6 -6 6 -14l-4 -64l13 23q2 3 6.5 5.5t7.5 3.5l2 1q1 0 1.5 0.5t1.5 0.5l3 12q26 32 49.5 55t49.5 40h13q2 0 4 -0.5t4 -0.5l4 2t9.5 4.5t12.5 2.5q2 0 7 -1t10 -3l-3 1l2 -1l18 -5
q8 -4 19 -12.5t21 -19t17 -22t6 -20.5v-10.5t1 -12.5q0 -7 1 -15q14 0 16 -12.5t-6 -21.5h-1q5 -11 8 -22t3 -17q0 -12 -4 -19q9 -14 9 -26q0 -2 -0.5 -7t-1.5 -11t-2 -11.5t-2 -8.5q0 -1 1 -3t1 -4q4 -7 4 -20q0 -6 -2.5 -16.5t-7.5 -18.5q2 -2 2 -4t1 -5q0 -2 1 -4.5
t3 -6.5q6 -10 1 -18.5t-16 -8.5q-1 0 -3 -0.5t-4 -0.5h-7q-14 0 -30 7t-16 26v205l-8 21q0 34 -9.5 48t-20.5 22q-11 -2 -26 -14t-40 -39v1q-6 -7 -15 -18.5t-17 -21.5l-19 -25l3 3q-15 -20 -28.5 -42.5t-24 -43.5t-16.5 -38.5t-6 -27.5v-37q0 -14 -6.5 -22t-13.5 -12
t-11.5 -4.5t-0.5 -0.5q-6 -2 -7 -2q-3 0 -11 2q-2 0 -3 0.5t-2 0.5t-1 1q-3 2 -6.5 7t-3.5 9q0 8 -2.5 15t-5.5 12t-5 8t-2 11z" />
    <glyph glyph-name="o" unicode="o" horiz-adv-x="361" 
d="M180 317q-1 2 -1.5 3.5t-2.5 2.5q-1 -1 -1 -2t-1 -1l-80 -77q-2 0 -5 2t-3 5v-6q0 -3 0.5 -6t0.5 -6q0 -14 -2.5 -15t-4.5 -5l-1 -1q0 -2 0.5 -3t0.5 -3t-2 -6.5t-4 -6.5q-3 -4 -5.5 -13t-3.5 -15h1q3 -1 7.5 -3.5t7.5 -6.5q5 -5 6.5 -11.5t3.5 -12.5v-1q4 -5 12.5 -10
t14.5 -5q13 0 16 -12h44q3 3 6.5 5t8.5 4q2 0 4 1t2 -1q0 10 9.5 13.5t17.5 0.5l38 76q1 14 -1.5 25.5t-4.5 11.5q-4 2 -6.5 7t-2.5 9v4q0 3 1 5q0 -3 3 -5q-2 2 -3 6t-1 6t-10 9t-35 7q-2 0 -6.5 2t-6.5 3q-8 8 -9 14zM34 271h-2q0 4 3.5 11t8.5 13.5t9 12t4 7.5l5 3l4 8
q3 9 9 17.5t18 8.5q2 0 2 -0.5t5 -0.5l7 4q14 13 25.5 16.5t28.5 3.5q7 14 17 19q7 0 11.5 -1.5t9.5 -3.5q1 -1 4 -1q1 0 1 -1q7 0 10.5 -5t4 -11.5t-2.5 -12.5t-10 -7h17t27 -1t26 -3t15 -6q2 -8 1 -12q9 -10 19.5 -20.5t10.5 -15.5v-9l5 -11l-1 1q4 -7 7 -13t3 -17
q0 -5 0.5 -10.5t-1.5 -10.5v-4q0 -32 -8 -60t-23 -58l-7 -7q-8 -8 -18 -18.5t-20 -10.5h-3l-9 -7q-8 -5 -18 -10t-30 -11q-22 0 -26 2q-8 -4 -15 -7t-12 -3q-8 0 -12.5 2.5t-9.5 5.5h-1q-11 -2 -17.5 0.5t-11.5 7.5q-21 4 -42 22t-37 38v10q0 2 0.5 3.5t0.5 3.5q-10 1 -14 9
t0 16q-3 5 -1 11q-4 5 -6.5 8t-2.5 7l2 6q2 6 4 9q1 0 2 1v9q8 28 13 36t11 15l4 2q-1 -1 -1 -2h1z" />
    <glyph glyph-name="p" unicode="p" horiz-adv-x="359" 
d="M12 -101q0 9 0.5 17t3.5 13q-2 8 -3 15.5t-1 9.5v125q1 14 0.5 20t-4.5 11q-5 7 -3 15t10 12q-3 12 -5 26t-3 26.5t-1.5 22t-0.5 12.5q0 1 1.5 7t2.5 13t2 12.5t1 6.5q0 3 -0.5 9.5t-1.5 14.5t-2.5 15.5t-2.5 11.5q-7 8 -7 13q0 2 1.5 7t3.5 9q-1 1 -0.5 2t-0.5 3v-1
q-4 7 -4 14q0 4 -0.5 10l-1 12t-0.5 10v5q0 8 5.5 13.5t13.5 5.5q1 0 6.5 -1t12 -2.5t12 -3.5t8.5 -3q9 -7 9 -20q0 1 2 -2t4 -7q2 -7 4.5 -14t3.5 -13l7 5q23 28 43 40.5t46 12.5q1 0 8.5 -1.5t17 -4.5t19 -6.5t14.5 -6.5l-2 3q9 -5 19 -13.5t19 -19.5t17 -22.5t13 -21.5
q14 -4 14 -17q0 -5 3.5 -11t5.5 -9q6 -14 6 -19q0 -2 -2 -5.5t-4 -6.5q1 -8 0.5 -18t-0.5 -21q0 -33 -7 -54t-26 -51q-3 -3 -8 -8.5t-9 -8.5l-4 -5l-6 -8v1q-6 -11 -13 -21.5t-21 -13.5q-14 -16 -32 -19.5t-39 -3.5q-1 0 -8.5 0.5t-17.5 2.5t-21 6.5t-19 12.5q0 -11 1 -25.5
l2 -29t1.5 -25t0.5 -11.5q0 -5 -1.5 -9.5t-3.5 -9.5q0 -1 -1 -2v-1q0 -4 2 -12v1q2 -5 3.5 -10.5t1.5 -10.5q0 -3 -2 -11t-6 -16.5t-8.5 -15.5t-9.5 -7h-33q-17 0 -21 16.5t-4 33.5v5zM91 98q2 2 6 4t9.5 0t8.5 -4q12 -12 18.5 -18t14.5 -6t15 4t14 9q8 5 16.5 9.5t16.5 6.5
q9 6 11.5 9t6.5 10q9 13 15.5 23t10.5 20.5t6 22.5t2 27q0 10 -0.5 13.5t-2.5 7.5l-3 5q-5 19 -14 39t-20 36.5t-24 26.5t-26 9q-3 0 -10 -2t-9 -4q-2 -1 -8.5 -7t-13.5 -15t-12.5 -19.5t-5.5 -20.5q0 -16 -16 -18q4 -2 4 -7t-1 -11q-2 -12 -2.5 -21t-8.5 -17
q-5 -9 -5.5 -16.5t-0.5 -27.5t1.5 -29t6.5 -22v-17z" />
    <glyph glyph-name="q" unicode="q" horiz-adv-x="389" 
d="M332 -37q3 -5 2.5 -11t-1.5 -10t-1.5 -4.5t2.5 6.5l1 3l-2.5 -10t-4.5 -12q0 -3 2 -5q2 -1 4 -5.5t2 -6.5q0 -30 -8.5 -43t-28.5 -13q-14 0 -21 8t-10 20t-3.5 27t-0.5 29v42q0 5 2 9l4 8l-4 8q-1 2 -1 7q0 2 -1 5v5q0 11 0.5 20.5t6.5 15.5v23t-1 17q-7 -7 -16 -7h-3
q-8 -11 -30 -26q-8 -5 -15.5 -2t-10.5 10q-2 -7 -3.5 -13.5t-3.5 -12.5q-2 -7 -3 -14h-11.5t-7.5 2q-12 -7 -25 -11.5t-20 -4.5q-2 0 -8.5 4.5t-14.5 10.5l-3 -3q-8 -8 -18 -5.5t-13 13.5q-5 0 -9 5t-5 11q-21 12 -32.5 26t-17 31.5t-7 37.5t-1.5 44q0 6 1 20.5t7 22.5
q0 16 7.5 21.5t15.5 9.5q4 14 15 33.5t25 33.5q4 4 13 9t18.5 9t17 6.5t10.5 2.5h5q5 6 10.5 9.5t13.5 6.5h3.5t3.5 2l12 9q8 4 16 6.5t19 2.5q9 0 17 -5q6 5 11 8.5t10 3.5q7 0 10.5 -2t8.5 -4q0 2 -0.5 4t-0.5 4l3 -5q-1 2 -2.5 6t-1.5 6q0 14 13.5 23t29.5 9h10
q4 -3 8 -3q11 -1 20 -4t9 -21q0 -2 -1 -6.5t-6 -9.5v-113l-7 -15v-87q5 -7 6.5 -17.5t1.5 -27.5q0 -10 -1 -19.5t-3 -19.5q-1 -12 -2.5 -23.5t-1.5 -19.5v-42q0 -14 -3 -20.5t-5 -11.5q-1 -7 -5 -13t-4 -5zM237 185l9 30q4 11 7 21t3 16q6 17 7.5 35.5t2.5 36.5l-9 4
q-2 1 -5 2t-5 1h-7q-7 0 -14 -0.5t-9 -2.5t-6.5 -3.5t-6.5 -1.5q-5 -6 -11 -10.5t-14 -4.5q-2 0 -4 0.5t-4 0.5h-2q-5 -2 -9 -4t-8 -3q-4 0 -12 -8q-2 -2 -4.5 -5t-7.5 -6q-15 -15 -30 -25q-15 -13 -18 -13v-15q0 -10 -14 -20l-6 -29q2 -5 3.5 -10.5t3.5 -11.5
q2 -13 9.5 -31t33.5 -38l9 3l8 2q14 2 19 -1q10 10 20 15l9 9t11 6q5 8 11.5 15.5t13.5 12.5v1q0 22 21 22z" />
    <glyph glyph-name="r" unicode="r" horiz-adv-x="272" 
d="M14 409q20 0 35 -12.5t22 -41.5v-14q0 -7 0.5 -12.5t-1.5 -10.5l6 -13l4 -13l13 -66q7 18 15.5 38.5t13.5 28.5q10 15 16.5 26t12 21t11 19.5t11.5 23.5q4 2 13 10.5t12 12.5l38 13q7 2 14 -1t9 -10q1 -3 2.5 -10.5t1.5 -10.5q0 -24 -11.5 -29.5t-24.5 -7.5q-4 -2 -4 0
q-2 -3 -6 -11t-5 -11l-4 -9l-11 -17l-15 -10q2 0 -3.5 -18t-13.5 -40q-5 -13 -8.5 -24t-8.5 -23q-2 -16 -9 -34.5t-15 -30.5h2q-5 -20 -6 -42.5t-1 -47.5q0 -8 -5 -13t-13 -5q-5 0 -12.5 3t-13.5 6l-7 5q-18 18 -23 56t-9 84l-2 23q-11 19 -15.5 40t-6.5 39q-2 10 -2.5 20
t-2.5 15q-3 12 -6 26q-2 12 -3.5 27.5t-1.5 32.5zM224 351l-1 -1z" />
    <glyph glyph-name="s" unicode="s" horiz-adv-x="329" 
d="M220 353l-5 -1t-10.5 -2.5t-10.5 -3t-6 -1.5q-2 0 -9 -0.5t-12 -2.5q-4 -3 -11 -3q-10 -11 -32 -19q-4 -5 -7.5 -7.5t-13.5 -2.5h-3l-19 -19l-6 -2l-7 -5l-2 -1q2 1 0 -2l-4 -6q-2 -2 -2 -3l-3 -10q4 -6 4 -12q0 -1 2 -1q16 0 18 -16q0 5 8 5q5 -2 15.5 -4.5t8.5 -0.5h4
q11 0 12.5 -3t6.5 -6q6 -6 7 -6h107q2 0 6.5 -1.5t5.5 -3.5q1 -1 6 -4.5t10 -3.5q19 -16 22.5 -24.5t3.5 -24.5v-5q0 -2 -3 -10.5t-7 -19.5t-8 -21.5t-7 -14.5q-9 -13 -22 -18q-3 0 -3 2q-3 -15 -18 -15q-4 0 -7 -2t-8 -4q-4 -5 -19 -12l-9 -3q1 0 -4.5 -4.5t-9.5 -7.5
q-8 -8 -16.5 -12.5t-16.5 -4.5l8 4q-7 -1 -16 2q-7 -4 -15.5 -8t-12.5 -5q-33 0 -51.5 3t-27.5 10.5t-11 19t-2 28.5q0 10 3.5 22t9.5 21t13 12.5t14 -3.5q4 -2 7 -5.5t4 -7.5q2 -14 3.5 -22t4.5 -12t7 -5t12 -2q9 -2 26 7t33 17l6 5h-1q7 4 20.5 11.5t26.5 15.5t22.5 15.5
t9.5 11.5q0 1 -0.5 3t-0.5 4h-10q-7 0 -11 4q-5 -2 -9 -3t-10 -1q-1 0 -7 1.5t-13 3t-13.5 2.5t-7.5 1h-4q-4 0 -8 2q-6 2 -12.5 4t-11.5 2h-7q-5 0 -11 -0.5t-12 -0.5q-17 0 -23.5 4.5t-10.5 9.5l-1 1h-1v1q-4 0 -6 2v-1q-11 3 -21 5.5t-10 19.5v8q-5 2 -10 5t-9 10
q-10 3 -10 17q0 2 -0.5 5t-0.5 7v9q0 4 0.5 9.5t0.5 8.5v5q2 8 5.5 14t8.5 11q2 2 3 4t3 4l4 4l18 19h-2v1q4 8 8 12.5t14 4.5h1q-1 0 2 3q5 5 7 8.5t14 3.5h7q11 10 27 15t32 7q3 9 15 11q2 0 5 1q6 2 8 3h-2q7 2 15 4t17 2q24 0 43 -4.5t37 -12.5q4 -2 7 -7t3 -9
t-3.5 -16.5t-8 -25.5t-9 -23t-5.5 -10h-6q-8 0 -13 5t-5 13q0 11 -2.5 17.5t-11.5 6.5h-5z" />
    <glyph glyph-name="t" unicode="t" horiz-adv-x="218" 
d="M92 87q0 8 1.5 13.5t-0.5 10.5v11q-1 -2 -1.5 3.5t-1.5 7.5v-1q-5 10 -5 22q0 5 0.5 10.5t0.5 10.5l-1 6l3 -4q-5 15 -6 50q-5 5 -6.5 11t-1.5 13q0 1 1 4.5t2 5.5t2 4.5t2 4.5t1 3q0 2 -3.5 7t-7.5 10q0 -1 -1 -1t-1 -1q-5 -2 -9.5 -3.5t-9.5 -1.5q-18 0 -29.5 5.5
t-17.5 14.5t-8 20t-2 21q0 8 5 13t13 5h57q0 5 -0.5 11t-0.5 8q2 9 4 23.5t3.5 31t2 34t0.5 33.5q0 8 5 13.5t13 5.5h4t3 -1q12 9 18 6t10 -11.5t6.5 -19t5.5 -17.5l2 -4q3 -5 2 -11.5t-5 -11.5l-1 -1v-71q5 -5 7 -15q9 -3 17 -2t14.5 3.5t10 4.5l3.5 2l21 -7
q0 -19 -2 -29.5t-6.5 -16t-12 -7.5t-17.5 -3l-10 -2t-12 -3q2 -1 1.5 -6t-1.5 -10l-6 -17q7 -5 7 -12q0 -4 -0.5 -6t-0.5 -4l-3 -2h2q-1 0 2 -3q1 -5 3 -10t2 -7q0 -13 -12 -18q8 2 8 -3q0 -8 -0.5 -15t-3.5 -12l3 -28v1q2 -7 2.5 -15t0.5 -13q2 -11 1 -14t-4 -3
q0 -1 5.5 -4t5.5 -5v-10t1 -18.5t2.5 -22t3.5 -20.5q0 -2 -3 -6.5t-7 -9t-8 -7.5t-7 -3q-8 0 -16 6t-15.5 13.5t-12 14.5t-4.5 9t0.5 2.5t0.5 2.5q-5 10 -6.5 19.5t-1.5 17.5z" />
    <glyph glyph-name="u" unicode="u" horiz-adv-x="380" 
d="M277 100q-6 12 -8.5 20.5t-3.5 15.5q-3 -3 -3 -2q0 -3 0.5 -6.5t0.5 -5.5q-1 -2 -5.5 -7t-9.5 -10.5t-10.5 -10.5t-9.5 -7h1q-2 -4 -0.5 -6t-4.5 -8q-37 -50 -89 -62q-8 -6 -11 -7q-3 -2 -6 -2t-17 2t-22 5q-13 1 -18.5 9.5t-10.5 17.5q-10 2 -14 11q2 -7 1 -4.5t-3.5 9
t-5.5 14.5t-4 12l1 -1q-5 11 -8.5 19t-3.5 15v8q-8 5 -8 14v58q-6 8 -6 14v49q0 5 5 12q-1 0 -1 2q-2 3 -3 7t-1 6q0 4 -0.5 13t-1 18.5t-1 17.5t-0.5 11q0 8 5.5 13t13.5 5q7 0 16 -5t18 -12.5t15 -15.5t7 -14l2 -8l6 -24q0 -4 -1.5 -9t-4.5 -8l-2 -2q4 -5 6 -11t2 -20
q0 -19 -6 -32l1 1q-1 -1 -1 -3q3 -2 4.5 -7t0.5 -10v-21q0 -12 2 -19t5 -13l6 -15l3 -11q2 -11 13 -23q3 2 9 2q4 1 6.5 2t9.5 9l12 5q1 0 1 1q0 2 1 4l9 12l15 7q5 2 10.5 5t10.5 5v1q0 3 1 5v1q1 4 2 9.5t4 13.5q3 16 15 37q2 6 5.5 15t7.5 17q4 10 8 21v29q0 7 1 10.5
t3 8.5q2 4 3.5 10t1.5 14t5 13t13 5q11 0 25.5 -3t23.5 -15q3 -9 2 -17q2 -5 1 -10.5t-4 -9.5l4 -21q0 -2 -0.5 -8t-0.5 -9q0 -6 -2 -8q11 -13 17 -37v-12q0 -4 0.5 -9.5t0.5 -10.5t-0.5 -9.5t-0.5 -7.5q0 -1 2 -1q8 -4 11 -11t-1 -14q2 -4 2 -10v-5q5 -5 5 -13q0 -3 -7 -3
q22 -5 24 -12.5t-5 -15.5q3 -5 3 -12q0 -6 -3 -12q4 -11 5.5 -23t1.5 -23q0 -8 -5 -13t-13 -5q-9 0 -14.5 1.5t-10.5 3.5l-15 5q-6 6 -11 19.5t-9 30t-6.5 33t-3.5 28.5z" />
    <glyph glyph-name="v" unicode="v" horiz-adv-x="334" 
d="M53 100l-21 87v6q-2 5 -4 13t-4.5 16.5t-4 15.5t-1.5 10q0 1 -0.5 1.5t-0.5 2.5q0 3 0.5 4t0.5 5q-3 3 -5 9l-2 6q-3 4 -5.5 10t-3.5 8l-3 12l1 -1q-5 14 -8 29.5t-3 34.5q0 8 5.5 13t13.5 5h31q8 0 13 -5t5 -13v-35q11 -5 11 -17l2 -7q2 -5 3 -9.5t3 -6.5q6 -5 6 -12
q7 -5 7 -15t1.5 -22t3.5 -22q1 -5 1 -8v-9v-10q3 -2 7 -4.5t6 -7.5q2 -3 2 -9q0 -10 -4 -13q8 7 5 12l4 -2t2 -15v-8l6 -39q2 -9 5 -10.5t3 1.5v4q0 2 3 7v-1q2 6 5.5 15.5t8.5 16.5q4 4 7 5l4 22q3 14 8 17t11 10q3 5 6.5 8t3.5 1v10q0 13 6 24.5t11 21.5q7 10 7 12
q0 16 15 18q5 9 10 17t5 10v10q0 8 4.5 12t9.5 9q0 8 1 16t12 19q5 5 13 5t14 -5q14 -14 16.5 -23.5t2.5 -22.5q0 -2 -3 -10.5t-8 -20.5t-10.5 -24.5t-11.5 -21.5l-3 -3v-1q0 -1 -1 -1v-1q-8 -2 -7.5 -5.5t5.5 1.5q-6 -14 -18.5 -40t-24.5 -50l-24 -52q-3 -5 -9 -19.5
t-13 -30.5t-13 -30.5t-8 -20.5q-13 -12 -25 -16.5t-24 -6.5q-13 -2 -19.5 9t1.5 21q-3 -2 -3 -1q0 -1 -1 -1q-14 7 -19.5 20.5t-8.5 29.5q-2 9 -2.5 16.5t-2.5 8.5z" />
    <glyph glyph-name="w" unicode="w" horiz-adv-x="487" 
d="M17 122q1 2 2 3.5t1 3.5q-5 16 -6 33t-1 36v4q0 2 0.5 3t0.5 2v3t-1 7l-3 18v3q-1 0 -1 2v2v-2q-4 7 -4 14q0 1 0.5 3.5t0.5 4.5q1 5 1.5 9.5t0.5 6.5v5q0 6 -1 10t-2 9q-4 13 -4 25q0 2 0.5 11t1.5 19t2 18.5t1 11.5q2 17 18 17q5 0 12.5 -5.5t15 -13t14 -15.5t8.5 -13
q0 -1 -0.5 -6.5t-0.5 -7.5v-4v-9.5t2 -13.5q2 -9 3 -18.5t1 -20.5q0 -5 -2 -15v1q-2 -10 -2 -13q0 -2 2 -8t3 -8q0 -3 -1 -7.5t-2 -7.5q2 -8 3.5 -22.5t2.5 -25.5q1 -3 1 -8v-8l3 -42q0 -8 1 -12q1 4 1 11q6 13 14 27t14 25q13 22 18 34q1 4 5 7t9 5q-7 0 -7 -2q2 9 3 17.5
t12 12.5q4 9 11.5 20.5t14 22t12 17.5l5.5 7q18 0 28 -1t15.5 -3.5t8 -7t5.5 -10.5v1q2 -2 3 -5t6 -9q6 -21 11.5 -38t11.5 -35q5 -16 13 -36.5t19 -55.5q1 1 2 1q2 1 5 12.5t3 22.5q0 2 2 6.5t4 6.5q1 0 1 5.5t2 11.5q2 10 4.5 19.5t8.5 16.5q2 25 8 42t12 29l5 10
q0 4 -1 5l13 42q0 3 1 11.5t3 16.5q2 21 7.5 41t21.5 28q5 3 11.5 1.5t10.5 -6.5l12 -15q4 -6 4 -13l-11 -94q-2 -14 -17 -16q5 -2 4 -12t-3 -20q-2 -20 -6.5 -37.5t-13.5 -23.5l-4 -11q-4 -10 -4 -9q0 -1 -0.5 -4.5t-0.5 -7.5q-1 -5 -1.5 -10t-1.5 -7q0 -6 -3.5 -16.5
t-7.5 -21.5l-11 -29l-6 -19q-7 -17 -19 -34.5t-41 -22.5q-8 -2 -14 2.5t-7 12.5h-1q-8 0 -13 5t-5 13v8l-2 3q-3 5 -7 10.5t-9 22.5v6q-2 3 -2 7t-1 8q-8 8 -10.5 18.5t-2.5 21.5v4.5t-1 5.5l-7 7q-5 5 -8 11t-3 11v4t1 7l-1 -2l1 5q-2 2 -3.5 2.5t-1.5 9.5q-5 1 -7 8
q-5 -11 -8.5 -21.5t-5.5 -21.5q-1 -3 -4 -7t-5 -6q-10 -5 -18 -28l-12 -23q-8 -14 -13.5 -26.5t-7.5 -31.5q-1 -5 -4 -9t-8 -5q-3 -11 -11 -19t-17.5 -13t-18.5 -7.5t-14 -2.5q-2 0 -6.5 1.5t-5.5 3.5q-4 4 -9 13t-9.5 18.5t-7.5 17t-3 8.5v9q-4 8 -4 13v9q-2 7 -2.5 15.5
t-0.5 10.5v1z" />
    <glyph glyph-name="x" unicode="x" horiz-adv-x="302" 
d="M77 166q0 16 -5 26.5t-13 21.5q-18 18 -25 28t-12 18q-4 5 -5.5 6.5t-6.5 1.5q-8 0 -13.5 5t-5.5 13v28q0 8 5.5 13.5t13.5 5.5q7 0 19.5 -5t25 -13t22 -17t9.5 -18v-1l10 -11q7 -9 11.5 -15.5t15.5 -16.5l13 24v-1q3 7 7.5 14t7.5 12q8 5 13.5 14.5t10.5 22.5l18 33
q3 3 10 10.5t15.5 16t16.5 15.5t11 10q12 0 19 -6.5t10 -15.5t4 -19.5t1 -18.5t-5 -13t-13 -5q-1 0 -3.5 -1t-2.5 -4q0 -8 -4.5 -12.5t-10.5 -5.5q4 -2 2 -6t-5 -9q-10 -16 -21 -33.5t-19 -26.5q-5 -11 -15 -23q-5 -5 -8.5 -11.5t-3.5 -14.5q0 -3 1.5 -10.5t3.5 -9.5
q0 -3 8 -9q6 -6 10.5 -11.5t4.5 -11.5l20 -20l3 -3l4 -10v-1v1q0 -1 0.5 -1t0.5 -1l-1 1q9 -9 9 -17q0 -6 -4.5 -12t-11.5 -10t-14 -6.5t-11 -2.5q-14 0 -27 14t-27 32l-1 1q-8 9 -9.5 11.5t-8.5 10.5q0 -2 -1 -3q-2 -9 -10 -13q-4 -2 -9 -10.5t-10 -21.5l-8 -16l2 8
q0 -2 -1 -4q-2 -4 -2 -8q-2 -5 -5.5 -13.5t-2.5 -7.5q-5 -5 -13.5 -10t-18 -9t-17.5 -7t-12 -3q-8 0 -13.5 5t-5.5 13q0 20 5.5 28.5t13.5 12.5l7 15q0 1 0.5 2.5t0.5 3.5l14 32l1 1q2 6 10 15t14 17l6 8t5 7q3 4 6 7zM219 110q-2 2 0 1.5t0 -1.5zM121 117l1 4
q0 -1 -0.5 -1.5t-0.5 -1.5v-1z" />
    <glyph glyph-name="y" unicode="y" horiz-adv-x="322" 
d="M212 15q0 13 1 22t3 18q2 8 2.5 17t1.5 17l-11 -22q-5 -7 -14 -16t-18.5 -17.5t-18.5 -14.5t-15 -8t-9 -1q-4 -2 -6 -2q-12 0 -20 8q-3 -1 -6 -1.5t-8 -0.5q-8 0 -13 5t-5 13t3 9t-3 5q-2 1 -3 2.5t-3 2.5q-8 7 -19.5 18t-11.5 31v1q-6 4 -12 10t-10 20v17v1l-1 2
q-2 4 -4 8.5t-2 10.5v14q-3 2 -5.5 6t-2.5 15q0 16 5 29q2 4 3 8t1 9t-1 6q-5 3 -9.5 9t-4.5 17q0 4 0.5 13t1 20.5t1.5 23.5t2 22q1 14 6 33q5 5 11 9.5t18 4.5q14 0 23.5 -8.5t9.5 -27.5q-1 -2 -4.5 -12.5t-3.5 -13.5l1 -1q0 -1 2 -3q2 -5 3.5 -9t1.5 -8q0 -30 -2 -42
t-4 -18q-2 -8 -2 -15q0 3 7 -11q3 -17 6.5 -29t7.5 -23q5 -15 9 -29t5 -29q1 2 2.5 -2t3.5 -6q6 -7 11 -15t5 -16v-2l9 -5q4 5 9 9l10 8l8 4q1 2 5 8t9 14l11 18q16 16 21.5 31.5t5.5 20.5v61q0 21 3 38q2 8 3 15t1 12q0 4 -0.5 7.5t-0.5 5.5v5q0 2 2 6.5t4 6.5q7 7 17 10
t16 3t20.5 -5.5t20.5 -16.5q0 -20 -1 -27.5t-5 -12.5q0 -2 1 -3q1 -3 1.5 -6.5t1.5 -5.5q1 -4 2 -6q0 -2 -2.5 -5.5t-5.5 -7.5v-84l-7 -14v-76l8 -17q-2 -12 -2 -27.5v-31.5v-15v-27t1 -19.5t2.5 -16t4.5 -16.5q2 -6 -1 -12.5t-8 -9.5q-4 -2 -5.5 -5.5t-3.5 -8.5
q-3 -11 -10 -20.5t-24 -9.5q-8 0 -13.5 6t-4.5 14q1 6 0.5 23t-1.5 33q0 9 -0.5 16.5t-0.5 10.5q0 13 -3 21t-3 7z" />
    <glyph glyph-name="z" unicode="z" horiz-adv-x="372" 
d="M63 155q10 11 24 26.5t28 27.5q8 4 9 5t2 3q5 8 19 18q8 19 21.5 26.5t27.5 15.5l2 1q11 19 33.5 39.5t41.5 33.5q-3 7 -6 10q-5 0 -11 1q-5 1 -12 1t-16 2l-29 1q-1 -1 -2 -1h-5q-11 -5 -32 -11t-46 -9h-11q-8 -6 -13 -6h-74q-8 0 -13 5t-5 13q0 26 12.5 40t29.5 14h30
q2 3 7 5.5t14 2.5q2 0 6 -0.5t7 -0.5h11q1 0 2.5 0.5t2.5 0.5q4 5 9 6t10 -1q6 2 15.5 2h23.5q24 0 52 -2t52 -9t39.5 -19.5t15.5 -34.5q0 2 -2.5 -5.5t-5.5 -18t-5.5 -21t-3.5 -14.5q-9 -5 -18 -13.5t-18 -17.5q-10 -10 -20 -19.5t-18 -14.5q-13 -23 -25 -31t-23 -12
q-2 0 -3 -1l-4 -4q-5 -5 -14 -14.5t-12 -19.5q-7 -6 -16.5 -15.5t-19.5 -19t-19.5 -17.5t-15.5 -12l-7.5 -17.5t-6.5 -19.5q-1 -2 -3.5 -5.5t-4.5 -5.5q3 2 16 4t21 1q11 -3 16 -0.5t-3 -2.5q15 3 43 2.5t58.5 -2t57 -3t38.5 -2.5q7 -1 12.5 -6t5.5 -12v-17q0 -8 -5.5 -13
t-13.5 -5q-35 0 -79.5 1t-85 2.5t-71 3.5t-38.5 4l-3 1q-11 5 -12.5 7.5t-5.5 5.5q-3 3 -8 5.5t-4 3.5q-9 4 -10 13.5t6 15.5q-7 14 -7 19q14 17 22.5 27.5t16.5 26.5l-1 -1q0 1 1 2v5q0 11 6 18.5t17 7.5h3z" />
    <glyph glyph-name="braceleft" unicode="{" horiz-adv-x="319" 
d="M137 41q-2 5 -3.5 8.5t-1.5 10.5q0 2 -4 8.5t-10 12.5q-2 22 2 27l-5 8l-11 23q-7 20 -15.5 41.5t-16.5 26.5q-2 -2 -4.5 -2.5t-4.5 -1.5q-3 -1 -4 -1h-22q-14 0 -22.5 1t-13.5 5t-7 13t-2 26v8q0 3 0.5 6t0.5 5q0 5 4 10.5t9 6.5q15 6 38 22t44.5 36t37 42t15.5 39
q0 8 -4 16l-9 18v-1l-12 23q-9 3 -12 11t-5 18l1 -1l-2 5q-14 16 -16 28t-2 36v5q0 5 0.5 13.5t0.5 13.5v3q0 16 7 23t16 11l2 1q1 1 1 2q0 14 14 18q4 5 11.5 12.5l14.5 14.5t13 12t7 5l4 1v-1q3 5 13 9h-1q8 4 25 11.5t52 16.5q24 2 29.5 -9t5.5 -29q0 -16 -7.5 -22.5
t-15.5 -11.5q1 1 1 4l-2 -4q-5 -10 -17 -10h-13l-59 -28q-10 -15 -18.5 -31t-8.5 -25q0 -4 5 -20t10 -28q0 -2 -0.5 -6.5t-0.5 -6.5q0 -4 8 -18q11 -7 16.5 -25.5t5.5 -44.5q0 -21 -1.5 -37t-7.5 -30.5t-18.5 -29.5t-33.5 -34q-1 -1 -2 -1t-1.5 -0.5t-1.5 -0.5l-8 -5
q-8 -7 -16.5 -15t-13.5 -13q14 -8 29.5 -20.5t38.5 -38.5q0 -2 1.5 -6t3.5 -5l4 -13q7 -26 17.5 -61.5t15.5 -70.5q5 -5 6.5 -9t2.5 -11l31 -31h6q12 -7 17 -7q6 -2 12 -5t13 -19l2 -4q0 -21 -16.5 -27.5t-36.5 -6.5q-19 0 -31.5 4t-21 10t-14 13t-9.5 14l-12 17v3
q-8 4 -15 13t-7 27zM269 673q1 0 1 0.5t1 0.5q0 -1 -2 -1zM181 717q1 1 2 1z" />
    <glyph glyph-name="bar" unicode="|" horiz-adv-x="142" 
d="M74 -162q-4 0 -10.5 1.5t-12.5 4.5t-10 8.5t-4 14.5v481q-2 16 -3.5 34.5t-2.5 36t-1.5 32.5t-0.5 24q0 3 -1 17.5t-3 31.5q-2 16 -3 32t-1 21v19q0 14 0.5 31.5t0.5 34.5q0 25 -1.5 35t-5.5 24v18q-1 -1 -1 1q-2 5 -5 10t-3 15q0 9 3 17q-5 10 0 19t17 9q9 0 20.5 -2
t22.5 -11q12 -12 2 -26q4 5 4.5 4l1.5 -3q2 -6 5 -13.5t3 -19.5q0 -11 -10 -16l11 -18q10 -15 -4 -25q0 -3 1 -14t2 -24.5t2.5 -25t1.5 -14.5v-7q0 -3 -0.5 -7.5t-0.5 -9.5q0 -2 1 -5.5t3 -8.5l5 -13v-5.5t-2 -8.5l1 2q-2 -8 -4.5 -23.5t-2.5 -32.5q0 -2 3.5 -13.5
t4.5 -13.5q2 -16 3.5 -27t2 -21t1 -21.5t0.5 -28.5q0 -23 -1.5 -36t-2.5 -23q-2 -8 -2.5 -15t-0.5 -15q0 -2 2 -11.5t4 -13.5v-265q-2 -5 -4 -18.5t-3.5 -30.5t-2 -36.5t-0.5 -36.5q0 -19 -19 -19z" />
    <glyph glyph-name="braceright" unicode="}" horiz-adv-x="241" 
d="M84 46q0 1 -1 7.5t-2 14.5l-4 25l1 -3q-3 11 -11 25.5t-15 24.5q-5 10 -5 16v11q0 1 -1 5t-2 6q-2 5 -3.5 8.5t-1.5 11.5q0 5 0.5 8t1.5 6q-2 4 -2 13q0 31 10.5 40t22.5 12v-1q5 5 11 7q-4 0 -7 -3q3 5 8 12t25 12q-1 0 3 2t9 4l7 3q-9 4 -16.5 8.5t-11.5 6.5
q-8 4 -10.5 7t-6.5 7q-3 6 -15 6q-1 0 -3 1t-6 5q-8 5 -21 16.5t-13 22.5v4q0 1 -0.5 1.5t-0.5 1.5l1 -1q-2 3 -4 6.5t-1 3.5q-9 4 -10 12.5t4 15.5l-4 6q0 17 2.5 23t4.5 10v8q0 8 3.5 11.5t8.5 6.5q2 8 2 7q8 26 13 42.5t5 30.5t-2.5 30.5t-10.5 28.5l-6 3l1 -1
q-13 8 -26 17.5t-13 34.5q0 8 5.5 13.5t13.5 5.5q2 0 9 -1t15.5 -2t15.5 -2.5t10 -2.5q20 -21 31 -35.5t16 -29t5.5 -31t0.5 -40.5q-1 -9 -4.5 -22.5t-7.5 -25.5q-5 -15 -11 -30q2 2 0.5 -7.5t-3.5 -20.5q0 -8 -1.5 -14l-2.5 -10v-1q8 -4 11.5 -7.5t3.5 -13.5v-1
q6 -3 10.5 -8t8.5 -9q3 -1 6.5 -3t5.5 -4q0 1 -6 -2q12 5 21 -4q11 -11 33 -21q10 -5 20 -10.5t17.5 -12.5t12 -16.5t4.5 -22.5q0 -10 -2 -15.5t-5 -10.5l1 1l-2 -4t-1 -3q0 -8 -5.5 -13.5t-13.5 -5.5q-10 0 -23 2t-16 6q2 -8 -1.5 -14t-11.5 -8q-20 -5 -29 -14.5t-9 -16.5
q0 -22 8 -45q0 -1 -0.5 -1.5t-0.5 -1.5q1 0 1 -0.5t1 -0.5q5 -5 9 -10t4 -12v-6q7 -9 7 -26q-2 -2 -3 -4q-2 -2 -2.5 -4t-1.5 -3l2 -1q2 -2 4 -7t2 -8l-9 -79l-63 -63q-7 -7 -23.5 -10.5t-23.5 -3.5q-8 0 -13.5 5.5t-5.5 13.5q0 2 2.5 12t4.5 14q12 12 23.5 22t19.5 18
q14 12 21 20t7 19zM130 138q1 -2 2 -3l3 -3q-1 4 -5 6zM74 278q0 2 2 2z" />
    <glyph glyph-name="asciitilde" unicode="~" horiz-adv-x="448" 
d="M204 202q-5 3 -10 8.5t-9.5 11.5t-7.5 12t-3 9q-15 10 -15 17v2q-2 2 -2 3l1 -1q-4 6 -8 12.5t-4 13.5v4q-4 5 -9 10.5t-5 19.5q0 6 -6.5 8.5t-9.5 2.5q3 0 0 -3q-2 -5 -4.5 -10t-5.5 -8q-13 -29 -20.5 -48.5t-7.5 -21.5q0 -7 -5 -12.5t-11 -6.5v-11q0 -8 -5.5 -13.5
t-13.5 -5.5h-11q-19 0 -19 19q0 11 -3 20t-6 16q-1 2 -2 3t-1 3.5t1 9t5 18.5l11 7q4 8 8 16.5t6 11.5q3 7 9 13h2v16q0 14 5.5 18.5t13.5 9.5q3 0 3 -1q0 8 5 13.5t13 5.5h51q2 0 7 -2t7 -4q5 -5 11 -9.5t16 -9.5q5 -6 9 -11t7.5 -9.5t5.5 -7.5q9 -3 11.5 -9.5t4.5 -17.5
q1 -8 5.5 -19t19.5 -26q5 -5 7.5 -6.5t10.5 -1.5q5 0 10 1h2q1 0 1 1q2 0 6.5 3l7.5 5q1 1 3 2l4 2l4 2h10q-3 0 -2 0.5t2 2.5q2 4 6 9t9 8l2 3v-2q2 12 16 16q-5 1 0 13q6 19 16 36.5t32 17.5q12 0 18.5 -4.5t9.5 -11.5t4 -15.5t1 -15.5q0 -11 -6 -24.5t-12 -26.5
q-3 -5 -5 -11.5t-3 -5.5q-2 -6 -6.5 -10.5t-10.5 -4.5q0 -11 -7 -16.5t-15 -3.5q-11 -15 -19 -23.5t-16 -13.5t-17.5 -6.5t-22.5 -1.5q-4 0 -11.5 0.5t-14.5 0.5h-7q-9 0 -15.5 4t-11.5 9q-2 0 -2 2h-12v0z" />
    <glyph glyph-name="exclamdown" unicode="&#xa1;" horiz-adv-x="114" 
d="M109 423q0 -14 -8 -22q0 -1 -1 -2q3 -2 6 -7t3 -9v-350q0 -8 -5.5 -13.5t-13.5 -5.5q-20 0 -37.5 13t-17.5 34v140q0 2 1.5 6t3.5 6q-3 12 -4 22.5t-2 22.5t-1 26.5v35.5v19v43t1 29q-4 5 -5.5 9.5t-1.5 7.5q0 1 1 2t2 3q-1 2 -2 5.5t-1 5.5v8q-1 -3 -2 -1q-3 5 -6 11.5
t-1 14.5q2 6 7 10.5t12 4.5q11 0 23.5 -4t23.5 -12.5t18 -21.5t7 -31zM60 533q-20 0 -27.5 15.5t-7.5 31.5q0 8 5.5 13.5t13.5 5.5q2 0 8 3q12 7 25 7q8 0 13.5 -5t5.5 -13q0 -5 -3 -13.5t-8 -17.5l1 1l-8 -15z" />
    <glyph glyph-name="cent" unicode="&#xa2;" horiz-adv-x="349" 
d="M151 -69q0 9 1.5 11t3.5 6q1 3 2 3q1 15 -2 27t-6 20l1 -1q-3 7 -5 13t-2 12v23l-2 7l1 -1q-1 1 -0.5 1.5t-0.5 2.5q-4 -1 -9 -1h-7q-13 0 -20 0.5t-13 2t-12.5 5.5t-17.5 12q-10 4 -18.5 6t-17.5 21q-12 5 -12 18v5q-4 2 -8 8l-8 7q-2 4 -5.5 15.5t-3.5 15.5l2 2
q-2 3 -2.5 7.5t-0.5 9.5q0 28 10 42.5t23 27.5q4 4 7.5 8t8.5 10q8 8 13 19q6 13 14.5 22.5t28.5 14.5q8 9 17.5 12t18.5 3q0 12 -1.5 25.5t-3.5 26.5q-1 10 -2 19.5t-1 17.5t5 13.5t13 5.5q12 0 24 -1.5t21 -7.5t14.5 -18.5t5.5 -34.5q0 -5 -2 -9l-4 -8l-2 -4q3 -1 19 -1h9
l24 8q9 1 15.5 -1.5t12.5 -6.5q4 -2 6 -2q8 0 13.5 -5.5t5.5 -13.5q0 -12 -3.5 -26t-20.5 -19q-7 -2 -12 1q-1 -1 -2 -1t-1 -1q-21 0 -28.5 2.5t-10.5 4.5q-2 0 -6.5 -1.5t-9.5 -3t-8.5 -2.5t-3.5 -2q0 -14 1 -33.5t3 -42.5t3 -47.5t2 -49.5q15 1 29 8t29 16q7 5 16.5 10.5
t17.5 9.5q28 2 33.5 -9t5.5 -28q0 -11 -5.5 -22t-14 -19t-19 -13t-20.5 -5h-10q-5 -4 -12 -9t-18 -5q-4 0 -12 4q-2 -2 -6 -4q0 -5 1 -13.5t1 -13.5q2 -35 4 -69.5t2 -62.5q0 -9 -6.5 -15t-15.5 -4q-16 4 -27 10q-11 5 -19 13.5t-8 21.5zM122 262q0 -1 -1 -1
q-2 -4 -3.5 -7.5t-9.5 -11.5q-8 -5 -22 -16t-14 -22v-10q0 -10 -7 -17v-11q0 -1 -2 -5l9 -4l-1 1l8 -5q13 -1 17.5 -6t7.5 -13l50 -13l4 -1q-2 2 -7 9t-7 12q-1 4 -3 11.5t-4 10.5v102q-8 -4 -11 -4h-4v1z" />
    <glyph glyph-name="sterling" unicode="&#xa3;" horiz-adv-x="468" 
d="M2 29q0 12 9.5 22.5t24.5 18.5t34 13.5t37 8.5q16 3 20 10v-2q1 4 3 13t4.5 19.5t4 21t2.5 16.5q0 6 -1.5 14t-4.5 15.5t-8.5 12.5t-14.5 5q-2 0 -6 -0.5t-8 -0.5h-3l-3 -3h1q-8 -5 -19.5 -10t-28.5 -5q-8 0 -13.5 5.5t-5.5 13.5q0 21 6.5 34.5t19.5 26.5q2 2 6.5 3.5
t6.5 1.5q20 0 30 -2t14 -6q2 0 8 2t8 6q-1 1 -3.5 11.5t-4.5 18.5q-2 3 -4 11q-1 3 -1 6q0 5 5 17q-6 5 -5.5 13.5t8.5 14.5q1 0 2 3.5t3 5.5q-2 2 -2 6q0 1 -0.5 1.5t-0.5 2.5q-1 1 -1 3q-1 3 -0.5 8.5t2.5 7.5q3 5 6 8l6 6q6 4 6 13t8 18.5t19 18t23 13.5t20 5h14l35 8h7
q5 0 14 -3.5t20 -6.5l14 -7q8 -5 10 -12q7 -3 12 -8t5 -15q0 -23 -12.5 -27t-27.5 -4q-20 0 -25.5 5.5t-7.5 14.5q0 -4 -2 -4q-14 0 -18 -2.5t-11 -8.5l-9 -10q-9 -2 -12 -5.5t-7 -9.5l-3 -3q-3 -17 -20 -28v-16q2 -2 4.5 -3.5t2.5 -12.5q0 -2 -1.5 -7.5t-3.5 -10.5
q5 -5 5 -15q0 -1 -1 -2q-2 -2 -2 -5q9 0 17 1.5t14 3.5q4 1 6.5 1.5t8.5 0.5h21l4 2q2 1 3.5 2t3.5 2q12 5 21.5 -2.5t5.5 -20.5q-6 -20 -13 -31t-17 -17t-24 -9t-34 -5q1 -4 1 -11q0 -11 -1.5 -17.5t-3.5 -11.5q-1 -2 -2.5 -6t-1.5 -6q0 -5 0.5 -10.5t0.5 -9.5v-7l-2 -8
q2 4 1 -4t-3 -16l-2 -10t-1 -6l9 -3q10 -1 28.5 -3t24.5 -6q17 -8 30.5 -10t25.5 -2q14 -6 26.5 -7t28.5 -1h23l2 3q5 11 15 12.5t18 -8.5q7 -10 13.5 -27t6.5 -21q0 -8 -4.5 -13.5t-11 -9.5t-15 -6.5t-16.5 -5.5l-13 -4q-3 -1 -11 1q-7 -3 -12 -2l-66 14q-8 2 -11 7.5
t-3 11.5t4 11.5t10 6.5q-11 -1 -12.5 -5.5t-1.5 -9.5q0 -3 -7 -5t-9 -2q-23 11 -42 13t-39 2h-10q-2 0 -9 -4t-18 -9q-20 -11 -46.5 -22t-56.5 -11h-6.5t-9.5 2h-1q-5 0 -10.5 4t-7.5 10l-7 21z" />
    <glyph glyph-name="currency" unicode="&#xa4;" horiz-adv-x="493" 
d="M85 9q-7 -17 -21 -17q-5 0 -12.5 5t-9.5 13q-11 5 -11 18q0 25 10.5 40t22.5 26v15q-7 7 -8 16q-10 14 -12.5 34t-2.5 36v13t2 11q-2 5 -2 12v15q0 16 4.5 23.5t10.5 12.5v4q-6 7 -13.5 16t-9.5 14q-2 1 -4 6q-2 6 -7 13t-9 13h1q-8 12 -14.5 22.5t-6.5 26.5q0 19 19 19
q7 0 18.5 -1t22.5 -4.5t19 -11.5t8 -22l-4 10q0 -6 -4 -15q6 -9 14 -13t14 -4q2 0 3.5 0.5t5.5 0.5q-5 0 -1 6q7 13 16.5 25.5t25.5 12.5h11q-5 0 -4 1t10.5 7t20.5 12.5t21 11.5t13 5q24 0 41 -0.5t31.5 -3t28.5 -7.5t32 -13q8 -6 9 -12q8 -3 16.5 -8.5t12.5 -19.5l1 -6
q0 4 7 4v1q0 4 6 11.5t14 14.5t15 12t9 5q12 0 18.5 -10t11.5 -21q0 -5 -0.5 -17t-8.5 -20q-2 -8 -4 -16.5t-7 -13.5q-3 -3 -7 -6.5t-9 -5.5q-2 0 -2 1q0 -3 2 -8.5t4 -9.5l-2 1q-2 -3 -4 -14.5t-5.5 -26t-9 -30t-12.5 -27.5q-6 -10 -10 -19.5t-9 -18.5l2 2q-4 -11 -11 -19
t-13 -14l-1 -1q-1 -1 -2 -1h-1v-1q1 -6 3 -10t4 -6q6 -7 11 -15t5 -26q0 -8 -5 -13.5t-13 -5.5q-19 0 -28.5 4t-23.5 10h2l-12 6l-8 3q-5 -9 -16 -9l1 2q-14 -14 -23 -16.5t-18 -2.5q-5 -4 -12 -6l-14 -4q-2 -1 -3.5 -1.5t-0.5 2.5q-3 -5 -8 -6.5t-10 -0.5q-7 2 -13 9
q-7 -2 -13 0t-9 7l-8 5q-10 -7 -21 -4q-5 -2 -10.5 -1t-9.5 5l-6 -7q-10 -13 -20 -21v-2zM198 106q21 2 40.5 4.5t29.5 10.5q0 10 3.5 16t8.5 9t10 4t8 1h11l5 4q7 11 14.5 23.5t12.5 20.5v6l7 14v-1q2 4 5 10.5t6 13.5q4 8 7 16v9q-5 2 -8 7t-3 10q0 12 -2.5 22.5
t-11.5 15.5l-11 14l-8 13q-7 1 -12.5 3t-11.5 5l-14 5q-4 -14 -18 -14q-8 0 -14 3q-8 3 -18 6.5t-19 5.5q-8 -12 -16 -18t-14 -10l-13 -7l-2 -2l-1 -1q-5 -8 -16 -13l-1 -2q-3 -9 -7 -11v-7q-1 -4 -4 -8q-5 -8 -12 -14q0 -2 0.5 -6t0.5 -9q-4 -15 -11 -27v1q-5 -8 -8 -16
t-3 -23q0 -5 8 -27.5t23 -39.5l2 -1l1 -1l3 -1.5t3 -0.5q8 0 13 -5h2q10 0 15 -8h20z" />
    <glyph glyph-name="yen" unicode="&#xa5;" horiz-adv-x="484" 
d="M301 257q5 1 9 1.5t10 0.5q23 0 34 -10t11 -22q0 -5 -4 -13t-11.5 -15.5t-17 -13.5t-20.5 -9q10 -5 10 -17q0 -20 -15 -32.5t-31 -20.5q-4 -1 -10 -4t-6 -2v-43q0 -24 -5.5 -33t-18.5 -22l-10 -3q-10 0 -16 4.5t-11 9.5q-2 2 -4 6.5t-2 6.5v6q0 4 0.5 9t0.5 11v25
q-9 -2 -18 -3t-17 -1q-5 -6 -11 -10.5t-17 -4.5h-26q-2 0 -3 -0.5t-3 -0.5q-5 -2 -9 -3.5t-11 -1.5q-16 0 -25 9.5t-9 23.5q0 16 9.5 24t26.5 17q10 2 16.5 -0.5t10.5 -5.5l3 1.5t3 2.5l17 6h-2q8 3 19 7t21 8.5t17 7.5t7 5q-4 -2 -7 -3t-13 -1q-2 0 -5 1q-6 2 -7 3
q-2 1 -0.5 2.5t1 0.5t-4.5 -4.5t-16 -11.5q1 0 -8 -3q-8 -2 -26.5 -6l-55.5 -12q-10 0 -14.5 2t-8.5 5q-2 4 -9 4q-8 0 -13.5 5.5t-5.5 13.5q0 45 56 45h31q10 0 14 -13q8 13 16.5 24t13.5 11h9q-8 3 -13 10q-8 3 -12.5 7t-8.5 8q-7 5 -9 5q-8 0 -13.5 5.5t-5.5 13.5
q0 5 -1.5 9t-7.5 10q-3 9 -1 18q-11 8 -19.5 21t-8.5 29q0 4 2 7q-5 7 -8 13.5t-3 11.5q0 2 0.5 3.5t0.5 4.5q-2 6 -4.5 18t-2.5 14q0 23 -6.5 38.5t-16.5 28.5q0 14 6 21t14 12h14h16.5t15.5 -2t11.5 -7.5t4.5 -16.5q0 -6 -4 -12q11 -17 15 -29.5t4 -20.5q0 -7 -0.5 -12.5
t-2.5 -10.5l3 -7q4 -11 7 -20.5t4 -9.5q8 -5 10.5 -12.5t-2.5 -15.5l12 -13q6 -6 6 -14q6 -7 7 -17l11 -3q8 -4 19.5 -8.5t6.5 -1.5l2 1q13 5 26 5q2 0 4 -1l45 47l8 3l13 27l13 6l3 1q2 3 2.5 6t1.5 5q2 6 3.5 11.5t4.5 9.5q2 3 6 5.5t7 4.5q-6 0 -4.5 2t3.5 6v-1l7 15v17
q23 35 33 62.5t10 47.5q0 11 3 13t5 3v21q0 4 1 9.5t3 12.5l4 15v6q0 3 -0.5 7t-0.5 8q0 17 6.5 23.5t20.5 11.5q3 0 9.5 -6t13 -14.5t11.5 -18t6 -15.5q0 -5 -2 -21.5t-4 -21.5v-22q0 -9 -3 -16t-7 -14l-7 -18q-3 -6 -5 -13t-4 -15l-4 -18q0 -27 -11.5 -56t-29 -57.5
t-39 -54t-40.5 -45.5q-6 -11 -12.5 -18t-11.5 -12q6 0 9 1q0 -1 1 -2q0 -1 0.5 -2t0.5 -2q5 9 16 12h4z" />
    <glyph glyph-name="brokenbar" unicode="&#xa6;" horiz-adv-x="145" 
d="M36 406q0 23 -0.5 43.5t-0.5 28.5q0 43 0.5 74t1.5 54.5t2 40t2 30.5q2 19 3 37t1 44q0 19 19 19q3 0 11.5 -4t17.5 -10.5t16.5 -15t7.5 -16.5v-168q0 -2 -2 -6.5t-3 -6.5q-2 -2 -2 -1q0 -3 1.5 -10.5t5.5 -13.5q1 -19 -6 -28v-66q0 -9 -7 -14q1 -1 0.5 -1.5t0.5 -1.5h-1
q3 -7 5.5 -15.5t2.5 -22.5q0 -13 -2.5 -21.5t-5.5 -15.5q-3 -6 -3 -13q0 -8 -5.5 -13.5t-13.5 -5.5q-11 0 -24 4t-22 21v74zM40 1q0 5 2 19t4 26q-4 4 -5.5 10t0.5 11q5 15 6.5 38.5t1.5 50.5q0 12 -0.5 24t-0.5 24v40q0 2 2 6.5t4 6.5l14 14q9 9 19 6t12 -14q2 -9 6.5 -19
t8.5 -18v-190q-3 -10 -4.5 -18t-2.5 -17t-1 -21v-28v-14q0 -21 0.5 -40t1.5 -27q0 -17 -8.5 -30t-25.5 -13q-13 0 -20 6t-14 14v153z" />
    <glyph glyph-name="section" unicode="&#xa7;" horiz-adv-x="339" 
d="M235 477q-1 0 -5.5 -1t-10.5 -2.5t-11 -3t-6 -1.5h-11q-1 0 -6 -2t-7 -3q-3 -2 -9 -2q-6 -7 -14 -11t-19 -8l-8 -8t-13 -3h-4l-20 -19l-13 -6l-7 -13v2l-4 -13q4 -6 4 -12q0 -2 4 -3l14 -8h8q2 0 11 -2.5t14 -4.5h7q11 0 13 -3t7 -6l6 -6h110q2 0 7 -2t7 -4l3 -3
q25 -12 32 -20.5t7 -28.5v-12q0 -2 -3.5 -11.5t-8 -21.5t-9 -23t-6.5 -14l3 4q-8 -15 -28 -25l8 -7q3 0 8.5 -2.5t7.5 -5.5l3 -3q8 -8 11.5 -14t3.5 -20v-11q0 -1 -3 -10t-7 -20.5t-8.5 -22.5t-7.5 -15q-5 -10 -17 -17t-25 -13q-7 -3 -12.5 -6t-10.5 -8l-20 -10h-6l-10 -3
q-5 -7 -13 -13t-15 -10q-3 0 -7.5 0.5t-8.5 2.5q-7 -4 -15.5 -8t-13.5 -5h-37l-32 8q-9 7 -14 11.5t-8 10t-3.5 12.5t-0.5 20q0 12 3.5 24.5t9.5 21.5t13.5 12t14.5 -4q11 -5 12 -14l7 -34q0 -1 2 -4l18 -4q3 0 8 1t9 5l23 6l21 14l29 15q8 8 16.5 14t17.5 12l-1 -1l20 14
q1 2 2.5 4.5t2.5 4.5v2q0 1 -0.5 1.5t-0.5 1.5h-10q-5 0 -13 4q-8 -4 -18 -4q-1 0 -7 1.5t-13.5 2.5t-14 2t-7.5 1h-10q-1 0 -5.5 1.5l-9 3t-8.5 2.5t-5 1h-6q-5 0 -11.5 -0.5t-13.5 -0.5q-18 0 -24.5 5t-11.5 10v1q-1 0 -1 1q-6 1 -12.5 2t-12.5 3.5t-9.5 7.5t-3.5 14
q0 5 1 8q-5 2 -11 6t-9 10q-10 5 -10 18v9q0 4 -0.5 7.5t-0.5 5.5t0.5 8t0.5 11v3q0 2 1.5 7t3.5 6l4 5l-2 -2l24 29l-6 -6q1 2 4 6q2 3 5 6.5t6 7.5q-1 2 -1 9v10q-4 1 -9.5 3.5t-8.5 10.5q-11 5 -11 18q0 1 -0.5 4.5t-0.5 7.5v9q0 4 0.5 9.5t0.5 9.5v7q2 7 5.5 12t8.5 10
l-1 -1q2 2 4 5t4 5q2 3 4 5l18 19q-2 0 -2 2q4 8 7.5 12t13.5 5l13 13q2 0 5 1q6 2 9 2q4 0 7 -2q12 9 28.5 16t31.5 9q5 11 16 11q5 0 15 4h-1q11 5 31 5q25 0 44 -3.5t38 -13.5q4 -2 7 -7t3 -10v-3q0 -17 -2 -24.5t-4 -18.5q-1 -4 -1.5 -5.5t-0.5 -3.5v-3
q0 -11 -8.5 -16.5t-18.5 -0.5l-7 3q-4 2 -7.5 7t-3.5 10q0 22 -13 22h-5zM138 190q1 -1 2.5 -1.5t2.5 -1.5l2 -2h5l18 11l29 15q14 14 34 24h-1q5 4 10.5 7.5t8.5 6.5l4 8v7h-10q-2 0 -5.5 1t-5.5 2q-5 -1 -9.5 -2t-9.5 -1q-2 0 -8 1.5t-13.5 2.5t-14 2t-8.5 1h-9
q-1 0 -5 1.5t-8.5 3t-8.5 2.5t-5 1h-7q-5 0 -11.5 -0.5t-12.5 -0.5h-2q-5 -4 -9.5 -10t-6.5 -8l-17 -9q3 1 0.5 -2.5t-4.5 -5.5l-2.5 -2.5t-1.5 -2.5l-3 -9q3 -2 5 -10q9 -5 18 -13h8q2 0 11 -2.5t14 -4.5h7q10 0 19 -9z" />
    <glyph glyph-name="dieresis" unicode="&#xa8;" horiz-adv-x="262" 
d="M73 795q25 0 30.5 -13.5t5.5 -32.5q0 -22 -8 -35.5t-31 -13.5q-9 0 -14 2q-2 0 -2.5 0.5t-2.5 0.5q-11 0 -17 9q-5 4 -9 8.5t-4 14.5q0 23 12 41.5t40 18.5zM152 779q5 5 15.5 10t15.5 5q8 0 17 -6.5t16.5 -14.5t12.5 -14.5t5 -7.5q0 -20 -6.5 -27.5t-14.5 -12.5l-6 -5
q-2 -1 -5.5 -2.5t-6.5 -2.5h3q-3 -2 -6 -3t-8 -1q-12 0 -20 6.5t-12.5 14t-6 14.5t-1.5 9q0 9 1 18.5t5 16.5q0 1 0.5 1t0.5 1t1 1z" />
    <glyph glyph-name="uni00AD" unicode="&#xad;" horiz-adv-x="295" 
d="M-1 314q0 23 14.5 36.5t34.5 13.5q22 0 42 -6l-1 1q2 0 3 -1q2 3 6.5 5t8.5 2h49q4 4 9 4h5q4 0 10 -0.5t11 -0.5h3l1 1q5 4 12 6.5t24 2.5q2 0 5.5 -0.5t6.5 -0.5h11q8 0 13 -5.5t5 -13.5t-4 -18t-11 -18.5t-15.5 -14.5t-17.5 -6q-2 0 -10 -1t-17.5 -2t-18 -2t-11.5 -1
h-4q-6 0 -9 1q-5 -5 -11.5 -7.5t-15.5 -2.5q-14 0 -28 2t-25 4q-10 2 -19.5 3t-14.5 1t-8.5 -0.5t-7.5 -0.5h-6z" />
    <glyph glyph-name="macron" unicode="&#xaf;" horiz-adv-x="356" 
d="M90 767q1 0 4.5 -1t5.5 -2t5 -1.5t5 -1.5l6 -2q5 0 9 2q5 2 12 4t18 2h42l24 3q11 2 20.5 3t13.5 1h22q1 0 -1.5 -0.5t0.5 1.5t6.5 3.5t7.5 2.5h-1q14 2 22 -2.5t12 -14t5 -22.5t1 -26q0 -8 -5.5 -13.5t-13.5 -5.5q-11 0 -22 8l-8 -4t-6 -2q-10 0 -19 6h-1l-3 2
q-36 -5 -68 -6t-67 -1q-5 0 -5.5 -1.5t-5.5 -4.5q-14 -9 -25 -9h-67q-10 0 -15 7t-3 16q10 34 24 42.5t30 8.5h15l1 1q-1 0 5 2h-1q2 2 4.5 2t1.5 -2q2 2 6 3.5t6 1.5h3v0z" />
    <glyph glyph-name="degree" unicode="&#xb0;" horiz-adv-x="191" 
d="M144 285l-6 -9q0 1 0.5 2.5t0.5 3.5q-1 -3 -3 -7t-2 -5q-10 -8 -19 -5q-8 -11 -19 -14t-21 -3l6 1q-8 0 -20 6q-9 -4 -22 -4q-8 0 -13 5t-5 13v10q-5 5 -10 11t-7 11q-9 7 -9 17q0 9 0.5 14t2.5 10q-2 5 -2 9v9q0 10 4 22t6 20q0 5 2 3v11l8 21q8 22 15.5 32t15.5 15l8 8
q4 3 10.5 9t18.5 11q5 2 11.5 1t9.5 -5q2 -5 7 -8q3 -3 5 -4h13q10 -7 19 -15q7 -7 13 -14.5t6 -15.5q0 -5 -1 -6l8 -19q2 -3 3.5 -8t0.5 -4q1 -12 0 -18q6 -12 -5 -21q-2 -8 -7 -13v-14q0 -17 -1.5 -27.5t-9.5 -10.5h-2q-2 1 -4 6q-1 0 -1 -1v-6zM64 348l0.5 -5.5t1 -11.5
t2.5 -11t5 -5l6 1q2 12 7 16.5t12 9.5h1v1l3 6v1q-5 7 -5 15q0 15 9 21q0 7 1 10v1q-5 10 -5 23h-1q-10 -5 -19 0q-2 0 -3 -1q-1 -3 -3 -7q-1 -2 -1 -3q0 -13 -2 -21t-4 -15q-2 -6 -3.5 -11.5t-1.5 -13.5zM108 393l-1 2q0 -1 1 -2zM165 337q-2 -4 -2 -6q0 2 2 6z" />
    <glyph glyph-name="acute" unicode="&#xb4;" horiz-adv-x="257" 
d="M34 731q12 4 22.5 14t21.5 21v-1q6 7 14 14.5t16 13.5q4 2 10.5 4.5t12.5 4.5l7 16q2 9 7.5 13t13.5 3l7 6q11 8 22.5 14.5t28.5 6.5q8 0 13.5 -5.5t5.5 -13.5q0 -11 -7.5 -25.5t-18.5 -28t-23 -24.5t-20 -16q-19 -19 -34 -30l-31 -29q-10 -5 -14 -8t-9 -13
q-2 -4 -7.5 -7.5t-9.5 -3.5h-5q-3 0 -6 0.5t-7 0.5q-17 0 -20 -2q-5 -6 -13 -6t-13 6q-5 5 -6 11.5t-1 8.5q0 16 8 21.5t19 10.5h3t1 -3l5 -5zM163 834l5 -3zM157 833l-4 -2q2 2 4 2z" />
    <glyph glyph-name="mu" unicode="&#xb5;" horiz-adv-x="513" 
d="M150 238q-5 2 -8.5 7.5t-6.5 11.5l1 -1q-2 3 -3 5.5t-3 4.5q-9 5 -9 14q-1 5 -2 5.5t2 3.5l-9 8q-6 5 -10 16q-3 -17 -4.5 -29t-3 -25.5t-2 -31t-0.5 -45.5v-46.5t1 -29.5q0 -3 -1.5 -8t-3.5 -7l-3 -2q-1 -4 -1 -10q-2 -21 -4 -38t-7.5 -29.5t-15 -19t-27.5 -6.5
q-8 0 -13 5.5t-5 13.5q0 4 0.5 21t1.5 24q0 3 1 6.5t2 6.5v-1l2 6t2 2q0 11 1.5 18t3.5 13q1 5 1 21v45q0 2 1 8t2.5 13.5t3 14t2.5 9.5v35q0 2 1 7.5t3 12.5l-1 -1q2 6 3 11t1 4v81q-7 12 -7 19q0 3 2 6.5t4 7.5q0 1 -1 1l2 14q-1 7 -2.5 18t-3.5 22.5t-4.5 22t-4.5 16.5
q1 2 0 3t-1 3q0 8 2 18t8.5 18.5t19 14.5t34.5 6q8 0 13.5 -5t5.5 -13q0 -26 2 -45.5t6.5 -37.5t12 -36.5t18.5 -42.5q1 -13 14 -16q6 -8 10.5 -16t4.5 -16v-5q7 -5 18 -17t11 -15v-2q3 -11 11 -15q4 -1 10 -2t13 -2q0 8 5.5 13t13.5 5q2 0 11 5t14 8l12.5 10t7.5 5v9
q3 18 19 25q5 22 13.5 41.5t23.5 34.5q1 1 3.5 4t5.5 6q4 4 7 8l-2 3q-2 4 -4 9t-2 8t1.5 8t6.5 8v7q1 13 4.5 25.5t9.5 21.5l-2 3q-1 2 -3 6.5t-2 6.5q0 7 7.5 14.5t17.5 13.5q-11 4 -11 11q-2 2 -2 5q-2 5 -4 9t-2 10q0 8 5.5 20t21.5 12q5 0 9.5 -3t6.5 -7q1 -2 4 -6
t5 -7q6 -8 10 -15t4 -15v-121q0 -1 1 -9t3 -16t2 -15.5v-9.5q0 -7 -3 -11q3 -3 3 -8l9 -56q0 -4 -2 -8q1 -3 1 -6.5v-6.5v-2q2 -2 5 -7t3 -9v-86q0 -8 -6.5 -14t-15.5 -4q-28 6 -40 22t-12 40q0 5 0.5 9t0.5 9q-4 14 -5.5 29t-1.5 17v10q-1 -4 -5 -8t-6 -8q-5 -5 -11 -11.5
t-6 -8.5t0.5 -5t0.5 -5q0 -5 -3 -10t-7 -7l-15 -7q6 2 4 0q-2 -3 -2 -6.5t-1.5 -5.5t-5 -3.5t-12.5 -1.5q-8 -8 -17 -14t-18 -9q-1 -2 -1 -1v1q-8 -18 -12.5 -22.5t-18.5 -4.5q-2 0 -2.5 0.5t-2.5 0.5l-2 -1q-5 -2 -10.5 -4.5t-14.5 -2.5q-13 0 -22 9q-1 0 -2.5 -0.5
t-2.5 -0.5z" />
    <glyph glyph-name="mu" unicode="&#x3bc;" horiz-adv-x="513" 
d="M150 238q-5 2 -8.5 7.5t-6.5 11.5l1 -1q-2 3 -3 5.5t-3 4.5q-9 5 -9 14q-1 5 -2 5.5t2 3.5l-9 8q-6 5 -10 16q-3 -17 -4.5 -29t-3 -25.5t-2 -31t-0.5 -45.5v-46.5t1 -29.5q0 -3 -1.5 -8t-3.5 -7l-3 -2q-1 -4 -1 -10q-2 -21 -4 -38t-7.5 -29.5t-15 -19t-27.5 -6.5
q-8 0 -13 5.5t-5 13.5q0 4 0.5 21t1.5 24q0 3 1 6.5t2 6.5v-1l2 6t2 2q0 11 1.5 18t3.5 13q1 5 1 21v45q0 2 1 8t2.5 13.5t3 14t2.5 9.5v35q0 2 1 7.5t3 12.5l-1 -1q2 6 3 11t1 4v81q-7 12 -7 19q0 3 2 6.5t4 7.5q0 1 -1 1l2 14q-1 7 -2.5 18t-3.5 22.5t-4.5 22t-4.5 16.5
q1 2 0 3t-1 3q0 8 2 18t8.5 18.5t19 14.5t34.5 6q8 0 13.5 -5t5.5 -13q0 -26 2 -45.5t6.5 -37.5t12 -36.5t18.5 -42.5q1 -13 14 -16q6 -8 10.5 -16t4.5 -16v-5q7 -5 18 -17t11 -15v-2q3 -11 11 -15q4 -1 10 -2t13 -2q0 8 5.5 13t13.5 5q2 0 11 5t14 8l12.5 10t7.5 5v9
q3 18 19 25q5 22 13.5 41.5t23.5 34.5q1 1 3.5 4t5.5 6q4 4 7 8l-2 3q-2 4 -4 9t-2 8t1.5 8t6.5 8v7q1 13 4.5 25.5t9.5 21.5l-2 3q-1 2 -3 6.5t-2 6.5q0 7 7.5 14.5t17.5 13.5q-11 4 -11 11q-2 2 -2 5q-2 5 -4 9t-2 10q0 8 5.5 20t21.5 12q5 0 9.5 -3t6.5 -7q1 -2 4 -6
t5 -7q6 -8 10 -15t4 -15v-121q0 -1 1 -9t3 -16t2 -15.5v-9.5q0 -7 -3 -11q3 -3 3 -8l9 -56q0 -4 -2 -8q1 -3 1 -6.5v-6.5v-2q2 -2 5 -7t3 -9v-86q0 -8 -6.5 -14t-15.5 -4q-28 6 -40 22t-12 40q0 5 0.5 9t0.5 9q-4 14 -5.5 29t-1.5 17v10q-1 -4 -5 -8t-6 -8q-5 -5 -11 -11.5
t-6 -8.5t0.5 -5t0.5 -5q0 -5 -3 -10t-7 -7l-15 -7q6 2 4 0q-2 -3 -2 -6.5t-1.5 -5.5t-5 -3.5t-12.5 -1.5q-8 -8 -17 -14t-18 -9q-1 -2 -1 -1v1q-8 -18 -12.5 -22.5t-18.5 -4.5q-2 0 -2.5 0.5t-2.5 0.5l-2 -1q-5 -2 -10.5 -4.5t-14.5 -2.5q-13 0 -22 9q-1 0 -2.5 -0.5
t-2.5 -0.5z" />
    <glyph glyph-name="periodcentered" unicode="&#xb7;" horiz-adv-x="121" 
d="M23 328q6 5 14.5 10t13.5 5q4 0 12 -5.5t16 -12t13.5 -13t5.5 -8.5q0 -20 -14.5 -34.5t-31.5 -14.5q-8 0 -14.5 5.5t-11 13t-7.5 14t-3 9.5q0 8 2 18.5t7 15.5z" />
    <glyph glyph-name="cedilla" unicode="&#xb8;" horiz-adv-x="250" 
d="M45 74q2 2 6.5 4t6.5 2q16 0 27 -6.5t11 -20.5v-72q5 1 7 1.5t3 0.5q3 -1 7 -2q3 -1 6 -2.5l5 -2.5h2q9 2 18 5t18 3q10 0 22 -2t24 -7.5t21.5 -14t13.5 -20.5v-48q0 -12 -10 -22v-2v2q-6 -7 -12 -8.5t-8 6.5q0 -11 -1.5 -16.5t-2.5 -8.5t-1.5 -5t-0.5 -6
q-17 -20 -43.5 -36.5t-52.5 -24.5h1l-46 -15h-14q-20 4 -29 9.5t-9 23.5q0 2 1.5 9t9.5 16l48 8q8 4 15 6t17 5q5 7 20 15v-1q8 6 16 11.5t12 9.5l13 13q4 8 10.5 20.5t7.5 15.5h-24l-1 -1l-25 -15q-2 0 -9 -0.5t-15.5 -1t-15.5 -0.5h-10q-4 0 -8 2q-27 1 -34 13.5t-11 31.5
l-2 12q0 1 -1 4t-2 7q-3 9 -6 23.5t-5 37.5v9q0 2 2 7t4 7z" />
    <glyph glyph-name="questiondown" unicode="&#xbf;" horiz-adv-x="269" 
d="M152 460q-1 0 -3.5 0.5t-4.5 0.5h-4q-12 0 -17 9t1 19q11 18 29.5 29t32.5 11q8 0 13 -5.5t5 -13.5q0 -26 -15 -38t-37 -12zM208 319q5 -11 -3 -20.5t-20 -4.5l-15 6l-6 5q2 -2 -5 -13t-14 -17l-12 -11q-13 -11 -22.5 -20t-18.5 -22t-19.5 -32.5t-23.5 -50.5
q1 -26 12 -39t26 -19l1 1q6 5 16.5 11.5t33.5 9.5q12 0 20 5.5t16 13.5l9 9q14 2 24.5 -0.5t21.5 -5.5q9 -3 14 -3q8 0 13.5 -5t5.5 -13v-26q0 -8 -5.5 -13.5t-13.5 -5.5q-7 0 -15 -1.5t-13 -6.5q-25 -5 -45 -11.5t-35 -13.5q-14 -5 -25.5 -9t-20.5 -4q-2 0 -7 2t-7 4
q-6 6 -19 6q-13 1 -25.5 6t-23.5 28l-8 8q-2 4 -3.5 13t-3 19t-2.5 18t-1 11q0 2 2.5 8t5.5 11q0 10 2.5 26.5t9 34.5t17.5 36t29 30q12 15 25 25.5t27 20.5l-1 -1q14 10 26 20t20 23q1 10 -1 13t-4 5q-5 4 -8 9t-3 14q0 2 1.5 7t5 10t8.5 9t11 4q18 0 28 -1.5t15.5 -5t7 -9
t2.5 -13.5q0 -3 1 -4l-4 2q8 -8 14 -20t6 -19q0 -5 -4 -11q-2 -3 -3 -4v-3q0 -17 -4.5 -20.5t-12.5 -5.5q0 1 0.5 1t0.5 1q-1 0 -4 3z" />
    <glyph glyph-name="Agrave" unicode="&#xc0;" 
d="M299 656q-4 0 -14 1.5t-21.5 6t-22 12t-14.5 18.5q-8 7 -17 16l-20 20v-1q-12 11 -21 20t-21 20q-5 1 -12.5 6.5t-15.5 12t-13.5 14.5t-5.5 14q0 3 4.5 10t10.5 13.5t12.5 12t10.5 5.5q7 0 12.5 -4.5t10.5 -9.5l7 -8q1 1 10 -3l-1 1q8 -4 15 -8.5t10 -6.5q5 -4 9 -10
t8 -11l3 -7l4 -6q0 4 -1 5l10 -4q13 -13 25 -26.5t22 -28.5q17 -19 26 -36t9 -19q0 -8 -5.5 -13.5t-13.5 -5.5zM223 790q2 0 2 1q0 -1 0.5 -1t0.5 -1q-1 0 -1.5 0.5t-1.5 0.5zM28 98q-5 0 -8 -2.5t-4 -4.5v10q0 6 2 8q1 2 2.5 4t2.5 2v60q0 8 5 13t13 6q-1 1 -1.5 4t-0.5 5
h-1h-2q-1 1 -1.5 2.5t-1.5 3.5l-2 4q0 8 0.5 12t2.5 8q1 2 3.5 11.5t7.5 36.5v1q0 3 0.5 8.5t4 23t11 50.5t21.5 90q1 3 3.5 11t4.5 13q1 17 4 29.5t8 21.5q4 8 7 18.5t3 29.5v22t-2 20q8 12 21 21t18 9q9 0 18 -9q4 1 12 2l16 2t15 2t9 1q15 0 24.5 -1.5t16.5 -4.5
t12.5 -8.5l12.5 -12.5h-1l6 -7q9 -8 11 -16.5t6 -18.5l-1 1q2 -5 4 -8.5t-10 -11.5q9 4 17 -1t8 -16q0 -2 -1.5 -8t-3.5 -10q1 -2 3 -6.5t2 -6.5q0 -3 2 -9.5t4 -14.5q3 -12 6 -23t3 -19v-4q0 -4 -0.5 -6.5t-0.5 -5.5q1 -4 3.5 -12t4.5 -17l4 -18t3 -15l-1 2q1 -7 2 -15
q1 -7 1.5 -14.5t1.5 -14.5q1 -14 2 -25.5t2 -14.5v-4q2 -10 4.5 -18.5t2.5 -18.5v-46q0 1 0.5 -2t2.5 -6v1q1 -2 1.5 -5t1.5 -5l2 -6q0 -23 1.5 -41.5t3.5 -36.5q2 -17 2.5 -32t0.5 -33q0 -8 -5 -13.5t-13 -5.5q-2 0 -11.5 1t-15.5 2q-5 3 -11.5 12.5t-12 21t-9.5 22.5
t-4 17q0 2 1 11t3 19q1 5 1.5 9t0.5 3q0 5 4 10.5t9 7.5q-12 -5 -13 -5l-2 -1q-4 11 -4 22v24q-2 0 -2 3q-2 5 -4 9t-2 10q0 8 1.5 11t4.5 8q1 2 2 5.5t1 15.5t-4 24q-11 -8 -28.5 -14.5t-36.5 -12.5q-29 -10 -55 -20.5t-35 -21.5q-4 -6 -10.5 -7.5t-11.5 1.5
q-3 -5 -5.5 -11.5t-6.5 -18.5l1 1q-9 -50 -15 -89.5t-6 -56.5q-13 -38 -15 -67t-2 -57q0 -8 -5.5 -13.5t-13.5 -5.5q-3 0 -10.5 6t-15.5 13.5t-14 14.5t-6 10v153zM229 314q12 4 26 8t33 6q-3 16 -7 39t-9 53q0 8 -1 16q-2 16 -6 26l-13 53q-4 11 -6.5 17.5t-2.5 14.5
q-3 9 -8.5 23t-10.5 19q-8 -5 -18 -13t-15 -16q-5 -7 -15 -9q8 -1 10 -3t1 -6t-4 -8.5t-5 -10.5v1q-3 -14 -6 -22t-7 -22q4 -5 1.5 -11t-7.5 -14l1 3q-2 -4 -2.5 -8t-0.5 -5v-20q0 -10 -3 -15.5t-6 -8.5q0 -3 0.5 -9.5t0.5 -10.5q-5 -8 -6 -14t-1 -11q-1 -7 -1.5 -13.5
t-5.5 -16.5q0 -12 -1.5 -22.5t-3.5 -20.5q7 3 12.5 5t11.5 4q4 2 8 3t6 3t6.5 3.5t6.5 1.5q15 0 26 3t23 8h-1z" />
    <glyph glyph-name="Aacute" unicode="&#xc1;" 
d="M129 731q11 4 22 14t22 21v-1q7 8 15 16t19 16l18 5h1l8 16q1 7 5.5 10.5t10.5 4.5q8 1 15 -4t7 -13q0 14 -6 16t-11 2q-2 0 -4 -1l8 6q11 8 24.5 15.5t31.5 3.5q4 -1 8.5 -5t6.5 -9q1 -4 1.5 -9.5t-4 -15.5t-16.5 -25.5t-34 -38.5l-15 -7q-4 -2 -8 -6.5t-9 -8.5
q-3 -3 -8.5 -7.5t-10 -8t-7.5 -6t-2 -2.5q-8 -8 -14.5 -13t-11.5 -8q-5 -5 -9 -8.5t-8 -11.5q-2 -4 -7.5 -7.5t-9.5 -3.5h-5q-3 0 -6.5 0.5t-6.5 0.5q-17 0 -20 -2q-6 -6 -13.5 -6t-12.5 6q-5 5 -6 11.5t-1 8.5q0 18 8.5 22t17.5 9q2 2 4 2.5t2 -4.5q0 -1 1 -2l3 -3zM28 98
q-5 0 -8 -2.5t-4 -4.5v10q0 6 2 8q1 2 2.5 4t2.5 2v60q0 8 5 13t13 6q-1 1 -1.5 4t-0.5 5h-1h-2q-1 1 -1.5 2.5t-1.5 3.5l-2 4q0 8 0.5 12t2.5 8q1 2 3.5 11.5t7.5 36.5v1q0 3 0.5 8.5t4 23t11 50.5t21.5 90q1 3 3.5 11t4.5 13q1 17 4 29.5t8 21.5q4 8 7 18.5t3 29.5v22
t-2 20q8 12 21 21t18 9q9 0 18 -9q4 1 12 2l16 2t15 2t9 1q15 0 24.5 -1.5t16.5 -4.5t12.5 -8.5l12.5 -12.5h-1l6 -7q9 -8 11 -16.5t6 -18.5l-1 1q2 -5 4 -8.5t-10 -11.5q9 4 17 -1t8 -16q0 -2 -1.5 -8t-3.5 -10q1 -2 3 -6.5t2 -6.5q0 -3 2 -9.5t4 -14.5q3 -12 6 -23t3 -19
v-4q0 -4 -0.5 -6.5t-0.5 -5.5q1 -4 3.5 -12t4.5 -17l4 -18t3 -15l-1 2q1 -7 2 -15q1 -7 1.5 -14.5t1.5 -14.5q1 -14 2 -25.5t2 -14.5v-4q2 -10 4.5 -18.5t2.5 -18.5v-46q0 1 0.5 -2t2.5 -6v1q1 -2 1.5 -5t1.5 -5l2 -6q0 -23 1.5 -41.5t3.5 -36.5q2 -17 2.5 -32t0.5 -33
q0 -8 -5 -13.5t-13 -5.5q-2 0 -11.5 1t-15.5 2q-5 3 -11.5 12.5t-12 21t-9.5 22.5t-4 17q0 2 1 11t3 19q1 5 1.5 9t0.5 3q0 5 4 10.5t9 7.5q-12 -5 -13 -5l-2 -1q-4 11 -4 22v24q-2 0 -2 3q-2 5 -4 9t-2 10q0 8 1.5 11t4.5 8q1 2 2 5.5t1 15.5t-4 24q-11 -8 -28.5 -14.5
t-36.5 -12.5q-29 -10 -55 -20.5t-35 -21.5q-4 -6 -10.5 -7.5t-11.5 1.5q-3 -5 -5.5 -11.5t-6.5 -18.5l1 1q-9 -50 -15 -89.5t-6 -56.5q-13 -38 -15 -67t-2 -57q0 -8 -5.5 -13.5t-13.5 -5.5q-3 0 -10.5 6t-15.5 13.5t-14 14.5t-6 10v153zM229 314q12 4 26 8t33 6q-3 16 -7 39
t-9 53q0 8 -1 16q-2 16 -6 26l-13 53q-4 11 -6.5 17.5t-2.5 14.5q-3 9 -8.5 23t-10.5 19q-8 -5 -18 -13t-15 -16q-5 -7 -15 -9q8 -1 10 -3t1 -6t-4 -8.5t-5 -10.5v1q-3 -14 -6 -22t-7 -22q4 -5 1.5 -11t-7.5 -14l1 3q-2 -4 -2.5 -8t-0.5 -5v-20q0 -10 -3 -15.5t-6 -8.5
q0 -3 0.5 -9.5t0.5 -10.5q-5 -8 -6 -14t-1 -11q-1 -7 -1.5 -13.5t-5.5 -16.5q0 -12 -1.5 -22.5t-3.5 -20.5q7 3 12.5 5t11.5 4q4 2 8 3t6 3t6.5 3.5t6.5 1.5q15 0 26 3t23 8h-1z" />
    <glyph glyph-name="Acircumflex" unicode="&#xc2;" 
d="M119 753h-3l1 1h3q5 12 12 22t18 13h1q7 12 13 18q6 7 14 23l13 7q7 5 14.5 9t16.5 4q1 0 1 -0.5t2 -0.5h7q21 -7 33 -14t18.5 -14t8.5 -15t4 -17l3 -13q4 -5 8.5 -13t8.5 -13q5 -9 10 -17t7 -10t3.5 -5t0.5 -3q8 -11 12 -19.5t4 -23.5q0 -8 -5 -13t-13 -5q-3 0 -9 0.5
t-13 1t-13.5 1.5t-8.5 1q-11 12 -16 23t-8 20v-1q-4 10 -11 17q-8 14 -15.5 27t-15.5 24q-4 -7 -9.5 -12.5t-10.5 -11.5l-14 -16q-2 -2 -7 -4t-7 -2h-4q2 -2 -4 -11t-13 -18v1q-8 -11 -14 -19t-10 -12q-11 -11 -25.5 -13t-28.5 -2q-8 0 -13 5.5t-5 13.5q0 14 5 23t14 20
q5 7 11 14.5t12 18.5zM28 98q-5 0 -8 -2.5t-4 -4.5v10q0 6 2 8q1 2 2.5 4t2.5 2v60q0 8 5 13t13 6q-1 1 -1.5 4t-0.5 5h-1h-2q-1 1 -1.5 2.5t-1.5 3.5l-2 4q0 8 0.5 12t2.5 8q1 2 3.5 11.5t7.5 36.5v1q0 3 0.5 8.5t4 23t11 50.5t21.5 90q1 3 3.5 11t4.5 13q1 17 4 29.5
t8 21.5q4 8 7 18.5t3 29.5v22t-2 20q8 12 21 21t18 9q9 0 18 -9q4 1 12 2l16 2t15 2t9 1q15 0 24.5 -1.5t16.5 -4.5t12.5 -8.5l12.5 -12.5h-1l6 -7q9 -8 11 -16.5t6 -18.5l-1 1q2 -5 4 -8.5t-10 -11.5q9 4 17 -1t8 -16q0 -2 -1.5 -8t-3.5 -10q1 -2 3 -6.5t2 -6.5
q0 -3 2 -9.5t4 -14.5q3 -12 6 -23t3 -19v-4q0 -4 -0.5 -6.5t-0.5 -5.5q1 -4 3.5 -12t4.5 -17l4 -18t3 -15l-1 2q1 -7 2 -15q1 -7 1.5 -14.5t1.5 -14.5q1 -14 2 -25.5t2 -14.5v-4q2 -10 4.5 -18.5t2.5 -18.5v-46q0 1 0.5 -2t2.5 -6v1q1 -2 1.5 -5t1.5 -5l2 -6
q0 -23 1.5 -41.5t3.5 -36.5q2 -17 2.5 -32t0.5 -33q0 -8 -5 -13.5t-13 -5.5q-2 0 -11.5 1t-15.5 2q-5 3 -11.5 12.5t-12 21t-9.5 22.5t-4 17q0 2 1 11t3 19q1 5 1.5 9t0.5 3q0 5 4 10.5t9 7.5q-12 -5 -13 -5l-2 -1q-4 11 -4 22v24q-2 0 -2 3q-2 5 -4 9t-2 10q0 8 1.5 11
t4.5 8q1 2 2 5.5t1 15.5t-4 24q-11 -8 -28.5 -14.5t-36.5 -12.5q-29 -10 -55 -20.5t-35 -21.5q-4 -6 -10.5 -7.5t-11.5 1.5q-3 -5 -5.5 -11.5t-6.5 -18.5l1 1q-9 -50 -15 -89.5t-6 -56.5q-13 -38 -15 -67t-2 -57q0 -8 -5.5 -13.5t-13.5 -5.5q-3 0 -10.5 6t-15.5 13.5
t-14 14.5t-6 10v153zM229 314q12 4 26 8t33 6q-3 16 -7 39t-9 53q0 8 -1 16q-2 16 -6 26l-13 53q-4 11 -6.5 17.5t-2.5 14.5q-3 9 -8.5 23t-10.5 19q-8 -5 -18 -13t-15 -16q-5 -7 -15 -9q8 -1 10 -3t1 -6t-4 -8.5t-5 -10.5v1q-3 -14 -6 -22t-7 -22q4 -5 1.5 -11t-7.5 -14
l1 3q-2 -4 -2.5 -8t-0.5 -5v-20q0 -10 -3 -15.5t-6 -8.5q0 -3 0.5 -9.5t0.5 -10.5q-5 -8 -6 -14t-1 -11q-1 -7 -1.5 -13.5t-5.5 -16.5q0 -12 -1.5 -22.5t-3.5 -20.5q7 3 12.5 5t11.5 4q4 2 8 3t6 3t6.5 3.5t6.5 1.5q15 0 26 3t23 8h-1z" />
    <glyph glyph-name="Atilde" unicode="&#xc3;" 
d="M28 98q-5 0 -8 -2.5t-4 -4.5v10q0 6 2 8q1 2 2.5 4t2.5 2v60q0 8 5 13t13 6q-1 1 -1.5 4t-0.5 5h-1h-2q-1 1 -1.5 2.5t-1.5 3.5l-2 4q0 8 0.5 12t2.5 8q1 2 3.5 11.5t7.5 36.5v1q0 3 0.5 8.5t4 23t11 50.5t21.5 90q1 3 3.5 11t4.5 13q1 17 4 29.5t8 21.5q4 8 7 18.5
t3 29.5v22t-2 20q8 12 21 21t18 9q9 0 18 -9q4 1 12 2l16 2t15 2t9 1q15 0 24.5 -1.5t16.5 -4.5t12.5 -8.5l12.5 -12.5h-1l6 -7q9 -8 11 -16.5t6 -18.5l-1 1q2 -5 4 -8.5t-10 -11.5q9 4 17 -1t8 -16q0 -2 -1.5 -8t-3.5 -10q1 -2 3 -6.5t2 -6.5q0 -3 2 -9.5t4 -14.5
q3 -12 6 -23t3 -19v-4q0 -4 -0.5 -6.5t-0.5 -5.5q1 -4 3.5 -12t4.5 -17l4 -18t3 -15l-1 2q1 -7 2 -15q1 -7 1.5 -14.5t1.5 -14.5q1 -14 2 -25.5t2 -14.5v-4q2 -10 4.5 -18.5t2.5 -18.5v-46q0 1 0.5 -2t2.5 -6v1q1 -2 1.5 -5t1.5 -5l2 -6q0 -23 1.5 -41.5t3.5 -36.5
q2 -17 2.5 -32t0.5 -33q0 -8 -5 -13.5t-13 -5.5q-2 0 -11.5 1t-15.5 2q-5 3 -11.5 12.5t-12 21t-9.5 22.5t-4 17q0 2 1 11t3 19q1 5 1.5 9t0.5 3q0 5 4 10.5t9 7.5q-12 -5 -13 -5l-2 -1q-4 11 -4 22v24q-2 0 -2 3q-2 5 -4 9t-2 10q0 8 1.5 11t4.5 8q1 2 2 5.5t1 15.5t-4 24
q-11 -8 -28.5 -14.5t-36.5 -12.5q-29 -10 -55 -20.5t-35 -21.5q-4 -6 -10.5 -7.5t-11.5 1.5q-3 -5 -5.5 -11.5t-6.5 -18.5l1 1q-9 -50 -15 -89.5t-6 -56.5q-13 -38 -15 -67t-2 -57q0 -8 -5.5 -13.5t-13.5 -5.5q-3 0 -10.5 6t-15.5 13.5t-14 14.5t-6 10v153zM229 314
q12 4 26 8t33 6q-3 16 -7 39t-9 53q0 8 -1 16q-2 16 -6 26l-13 53q-4 11 -6.5 17.5t-2.5 14.5q-3 9 -8.5 23t-10.5 19q-8 -5 -18 -13t-15 -16q-5 -7 -15 -9q8 -1 10 -3t1 -6t-4 -8.5t-5 -10.5v1q-3 -14 -6 -22t-7 -22q4 -5 1.5 -11t-7.5 -14l1 3q-2 -4 -2.5 -8t-0.5 -5v-20
q0 -10 -3 -15.5t-6 -8.5q0 -3 0.5 -9.5t0.5 -10.5q-5 -8 -6 -14t-1 -11q-1 -7 -1.5 -13.5t-5.5 -16.5q0 -12 -1.5 -22.5t-3.5 -20.5q7 3 12.5 5t11.5 4q4 2 8 3t6 3t6.5 3.5t6.5 1.5q15 0 26 3t23 8h-1zM199 707q-1 0 -1 0.5t-1 0.5q-10 5 -4 19q-12 4 -11 10t-1 8
q-4 4 -4 8q-1 2 -2 3t-1 3q-3 1 -4 4h-6l-2 -1l2 2q-4 -3 -7.5 -6.5t-3.5 -4.5q-8 -16 -12.5 -28t-4.5 -15q0 -12 -11 -17v-3q0 -11 -8 -16t-18 -1l-22 10l-11 17q0 -6 -1 -3l-2 6q-2 4 -3.5 10t-1.5 8q0 3 5 13.5t9 16.5q0 6 3.5 11t10.5 7q4 9 11 18l1 1l1 1q0 3 4 11.5
t4 12.5q2 0 6 4q2 2 4 5l21 9q2 1 3.5 0t2.5 -7q1 6 7 11t14 3l23 -3l-3 -7h2q12 -2 18.5 -9t11.5 -15q3 1 7 0q9 -5 13 -15q0 -1 2 -3q2 -4 7 -10t12 -13q2 -2 3.5 -5.5t3.5 -5.5l1 -1q1 -2 4 -2l8 1v-3.5t1 -3.5t3 1.5t4 13.5q-3 -2 -2 -0.5t2 3.5q4 6 11 10h-1q2 3 6 7
t9 6q-10 0 -9.5 0.5l1.5 1.5v-1q5 13 11.5 27.5t26.5 14.5q14 0 19.5 -8t6.5 -19q14 -4 14 -18q0 -10 -5.5 -18.5t-10.5 -17.5q-5 -7 -8.5 -12t-3.5 -7q0 -8 -5 -13.5t-13 -5.5q-6 -6 -14 -4q-8 -11 -17 -20t-13 -9q-2 0 -6 1.5t-6 3.5q3 -4 0.5 -5.5t-5.5 -2.5
q-10 -5 -19 -5q-6 0 -9 2.5t-5 4.5l-3 3t-3 -3l5 -2q-3 0 -5 2q-27 14 -18 21q-5 4 -9 6.5t-9 5.5z" />
    <glyph glyph-name="Adieresis" unicode="&#xc4;" 
d="M146 795q15 0 22.5 -3.5t10.5 -10t3.5 -15t0.5 -17.5q0 -21 -6.5 -35t-33.5 -14h-6t-8 2q-2 0 -2.5 0.5t-1.5 0.5q-13 0 -17 9q-5 4 -9.5 8.5t-4.5 14.5q0 23 12.5 41.5t39.5 18.5zM218 741q0 8 1 18t5 17q0 1 2 3q6 5 16 10t14 5q8 0 17 -6.5t16.5 -14t12.5 -14.5l5 -7
q0 -20 -5.5 -28t-13.5 -13q-1 -1 -1.5 -1t-1.5 -1t-2 -1q-5 -5 -13 -7h2q-3 -2 -6.5 -3t-8.5 -1q-11 0 -18.5 6t-12 13.5t-6.5 15t-2 9.5zM166 736l-6 -1l4 -2zM166 736l-6 -1l4 -2zM28 98q-5 0 -8 -2.5t-4 -4.5v10q0 6 2 8q1 2 2.5 4t2.5 2v60q0 8 5 13t13 6q-1 1 -1.5 4
t-0.5 5h-1h-2q-1 1 -1.5 2.5t-1.5 3.5l-2 4q0 8 0.5 12t2.5 8q1 2 3.5 11.5t7.5 36.5v1q0 3 0.5 8.5t4 23t11 50.5t21.5 90q1 3 3.5 11t4.5 13q1 17 4 29.5t8 21.5q4 8 7 18.5t3 29.5v22t-2 20q8 12 21 21t18 9q9 0 18 -9q4 1 12 2l16 2t15 2t9 1q15 0 24.5 -1.5t16.5 -4.5
t12.5 -8.5l12.5 -12.5h-1l6 -7q9 -8 11 -16.5t6 -18.5l-1 1q2 -5 4 -8.5t-10 -11.5q9 4 17 -1t8 -16q0 -2 -1.5 -8t-3.5 -10q1 -2 3 -6.5t2 -6.5q0 -3 2 -9.5t4 -14.5q3 -12 6 -23t3 -19v-4q0 -4 -0.5 -6.5t-0.5 -5.5q1 -4 3.5 -12t4.5 -17l4 -18t3 -15l-1 2q1 -7 2 -15
q1 -7 1.5 -14.5t1.5 -14.5q1 -14 2 -25.5t2 -14.5v-4q2 -10 4.5 -18.5t2.5 -18.5v-46q0 1 0.5 -2t2.5 -6v1q1 -2 1.5 -5t1.5 -5l2 -6q0 -23 1.5 -41.5t3.5 -36.5q2 -17 2.5 -32t0.5 -33q0 -8 -5 -13.5t-13 -5.5q-2 0 -11.5 1t-15.5 2q-5 3 -11.5 12.5t-12 21t-9.5 22.5
t-4 17q0 2 1 11t3 19q1 5 1.5 9t0.5 3q0 5 4 10.5t9 7.5q-12 -5 -13 -5l-2 -1q-4 11 -4 22v24q-2 0 -2 3q-2 5 -4 9t-2 10q0 8 1.5 11t4.5 8q1 2 2 5.5t1 15.5t-4 24q-11 -8 -28.5 -14.5t-36.5 -12.5q-29 -10 -55 -20.5t-35 -21.5q-4 -6 -10.5 -7.5t-11.5 1.5
q-3 -5 -5.5 -11.5t-6.5 -18.5l1 1q-9 -50 -15 -89.5t-6 -56.5q-13 -38 -15 -67t-2 -57q0 -8 -5.5 -13.5t-13.5 -5.5q-3 0 -10.5 6t-15.5 13.5t-14 14.5t-6 10v153zM229 314q12 4 26 8t33 6q-3 16 -7 39t-9 53q0 8 -1 16q-2 16 -6 26l-13 53q-4 11 -6.5 17.5t-2.5 14.5
q-3 9 -8.5 23t-10.5 19q-8 -5 -18 -13t-15 -16q-5 -7 -15 -9q8 -1 10 -3t1 -6t-4 -8.5t-5 -10.5v1q-3 -14 -6 -22t-7 -22q4 -5 1.5 -11t-7.5 -14l1 3q-2 -4 -2.5 -8t-0.5 -5v-20q0 -10 -3 -15.5t-6 -8.5q0 -3 0.5 -9.5t0.5 -10.5q-5 -8 -6 -14t-1 -11q-1 -7 -1.5 -13.5
t-5.5 -16.5q0 -12 -1.5 -22.5t-3.5 -20.5q7 3 12.5 5t11.5 4q4 2 8 3t6 3t6.5 3.5t6.5 1.5q15 0 26 3t23 8h-1z" />
    <glyph glyph-name="Aring" unicode="&#xc5;" 
d="M28 98q-5 0 -8 -2.5t-4 -4.5v10q0 6 2 8q1 2 2.5 4t2.5 2v60q0 8 5 13t13 6q-1 1 -1.5 4t-0.5 5h-1h-2q-1 1 -1.5 2.5t-1.5 3.5l-2 4q0 8 0.5 12t2.5 8q1 2 3.5 11.5t7.5 36.5v1q0 3 0.5 8.5t4 23t11 50.5t21.5 90q1 3 3.5 11t4.5 13q1 17 4 29.5t8 21.5q4 8 7 18.5
t3 29.5v22t-2 20q8 12 21 21t18 9q9 0 18 -9q4 1 12 2l16 2t15 2t9 1q15 0 24.5 -1.5t16.5 -4.5t12.5 -8.5l12.5 -12.5h-1l6 -7q9 -8 11 -16.5t6 -18.5l-1 1q2 -5 4 -8.5t-10 -11.5q9 4 17 -1t8 -16q0 -2 -1.5 -8t-3.5 -10q1 -2 3 -6.5t2 -6.5q0 -3 2 -9.5t4 -14.5
q3 -12 6 -23t3 -19v-4q0 -4 -0.5 -6.5t-0.5 -5.5q1 -4 3.5 -12t4.5 -17l4 -18t3 -15l-1 2q1 -7 2 -15q1 -7 1.5 -14.5t1.5 -14.5q1 -14 2 -25.5t2 -14.5v-4q2 -10 4.5 -18.5t2.5 -18.5v-46q0 1 0.5 -2t2.5 -6v1q1 -2 1.5 -5t1.5 -5l2 -6q0 -23 1.5 -41.5t3.5 -36.5
q2 -17 2.5 -32t0.5 -33q0 -8 -5 -13.5t-13 -5.5q-2 0 -11.5 1t-15.5 2q-5 3 -11.5 12.5t-12 21t-9.5 22.5t-4 17q0 2 1 11t3 19q1 5 1.5 9t0.5 3q0 5 4 10.5t9 7.5q-12 -5 -13 -5l-2 -1q-4 11 -4 22v24q-2 0 -2 3q-2 5 -4 9t-2 10q0 8 1.5 11t4.5 8q1 2 2 5.5t1 15.5t-4 24
q-11 -8 -28.5 -14.5t-36.5 -12.5q-29 -10 -55 -20.5t-35 -21.5q-4 -6 -10.5 -7.5t-11.5 1.5q-3 -5 -5.5 -11.5t-6.5 -18.5l1 1q-9 -50 -15 -89.5t-6 -56.5q-13 -38 -15 -67t-2 -57q0 -8 -5.5 -13.5t-13.5 -5.5q-3 0 -10.5 6t-15.5 13.5t-14 14.5t-6 10v153zM229 314
q12 4 26 8t33 6q-3 16 -7 39t-9 53q0 8 -1 16q-2 16 -6 26l-13 53q-4 11 -6.5 17.5t-2.5 14.5q-3 9 -8.5 23t-10.5 19q-8 -5 -18 -13t-15 -16q-5 -7 -15 -9q8 -1 10 -3t1 -6t-4 -8.5t-5 -10.5v1q-3 -14 -6 -22t-7 -22q4 -5 1.5 -11t-7.5 -14l1 3q-2 -4 -2.5 -8t-0.5 -5v-20
q0 -10 -3 -15.5t-6 -8.5q0 -3 0.5 -9.5t0.5 -10.5q-5 -8 -6 -14t-1 -11q-1 -7 -1.5 -13.5t-5.5 -16.5q0 -12 -1.5 -22.5t-3.5 -20.5q7 3 12.5 5t11.5 4q4 2 8 3t6 3t6.5 3.5t6.5 1.5q15 0 26 3t23 8h-1zM109 713q0 3 1 5q-7 5 -10.5 11.5t-3.5 12.5l-2 -3q0 8 3 13
q-3 7 -3 19v10q0 3 1 5q3 8 5.5 17t4.5 17t3 14t1 7q0 2 0.5 7t6.5 10.5t20.5 10t43.5 4.5h3q21 0 38 -3.5t17 -25.5q0 -8 -11 -19q9 5 29 5q14 0 20 -5.5t11 -13.5l4 -6q8 -5 13 -15q15 -11 17.5 -18.5t-13.5 -11.5q1 -3 1 -7q0 -11 -3.5 -20t-9.5 -19q-2 -5 -4.5 -9
t-5.5 -9q-2 -2 -5.5 -4.5t-6.5 -3.5h3q0 -10 -6 -15t-13 -5q-10 -8 -26.5 -10t-38.5 -2h-13q-5 0 -8.5 0.5t-5.5 0.5q-17 0 -19 16v-5q-11 7 -24.5 18.5t-13.5 26.5zM212 798q0 16 9 22l-9 -2q-6 -5 -11 -3.5t-13 3.5q-6 2 -8 2l-1 -2l-12 -11q2 -4 4 -10.5t2 -16.5
q0 -21 -5 -28q1 -2 0.5 -2.5t0.5 -2.5v1q5 -14 8 -21.5t13 -13.5q5 2 16 8t22 14l1 2q4 4 6 9l4 7l-1 2q-8 8 -17 20t-9 23z" />
    <glyph glyph-name="AE" unicode="&#xc6;" horiz-adv-x="567" 
d="M426 338q0 -11 -5.5 -22t-13 -21t-15.5 -16t-13 -6h-21q1 0 -1 -1t-5 -2l1 1q-8 -3 -16 -5t-21 -2q-6 0 -9 1q-8 -4 -14.5 -5.5t-10.5 -1.5h-7q-5 -7 -12 -7l-7 -2v-86q0 -3 -2 -7q2 -4 2 -7.5v-6.5v-13q4 -18 7.5 -23.5t14.5 -5.5q1 0 4 3q2 2 6.5 3.5t6.5 1.5t2.5 0.5
t2.5 0.5q16 3 33 6t25 7h16l8 4t9 4q1 -1 3 -1h6l60 31h12q1 0 7.5 2t8.5 4l15 7q10 5 17.5 -1t7.5 -17v-24q-2 -4 -6.5 -13.5t-7.5 -12.5q-2 -1 -6.5 -3t-6.5 -2h-3l-37 -18q-4 -3 -15 -10t-13 -8h-10q-10 -4 -26.5 -7.5t-32.5 -7.5l-36 -8h1l-30 -7h-10q-6 0 -8 1
q-3 -1 -7 -1h-7q-10 0 -15 7h-23q-9 0 -16.5 5.5t-12.5 13.5t-8 16t-3 14q0 4 0.5 8.5t0.5 7.5v4q-1 0 -2 4l-4 10t-2 10v7q0 3 2 6q-5 9 1 18q-4 9 -4.5 20t-0.5 22q-1 5 -1.5 9t-0.5 7l-15 -6h1q-2 -2 -9 -5.5t-7 -5.5q-5 -5 -11.5 -7t-11.5 1q-3 -5 -5.5 -11t-4.5 -17
l-16 -86v-15l-6 -22v-25l-9 -31q-5 -20 -6 -39.5t-2 -39.5v-13q0 -8 -5.5 -13.5t-13.5 -5.5q-3 0 -10.5 6t-15.5 13.5t-14 14.5t-6 10v153q0 8 7 15v7q0 6 2 8q1 2 2.5 4t2.5 2v60q0 8 5.5 13t12.5 6q-1 1 -1.5 4t-0.5 5h-1h-2q-1 1 -1.5 2.5t-1.5 3.5t-1 4v13q0 8 5 13.5
t13 5.5q-10 2 -8 10q1 6 1.5 13t2.5 14v11l8 25l-1 -1l7 30l11 54q1 7 3.5 17.5t4 20t2.5 15.5t1 5q1 4 3.5 9.5t4.5 9.5q2 8 5 23.5t6 20.5l-2 -2l13 27q1 5 1 12.5v17.5v22t-2 20q8 12 20.5 21t17.5 9q3 0 5.5 -1t4.5 -2l4 -2l4 -4q1 0 2.5 0.5t3.5 0.5l7 1q5 14 19 14
q10 0 22 -11.5t20 -25.5h78l16 7q1 0 4 -0.5t6 -0.5q4 3 9 5.5t14 2.5h21l34 7q14 7 17 7h6l20 6h2l1 1l3 2q2 1 6 1.5t8 2.5q4 1 10 3q14 -5 24 -21.5t10 -31.5q0 -8 -5.5 -13.5t-13.5 -5.5q-4 0 -17.5 -0.5t-20.5 -1.5v-1q-5 -5 -14 -10t-19 -5q-4 0 -8.5 0.5t-8.5 0.5
l-12 -5l-10 -4l-10 -4l-10 -4q-2 -2 -6.5 -4t-6.5 -2h-8q-4 0 -10 4q-1 -1 -2 -1t-1 -1l-30 -9h-6l2 -1q-5 -2 -11.5 -4t-8.5 -2q-3 0 -16 2t-23 4v-3q0 -9 -2.5 -13t-5.5 -8q3 -3 5.5 -9t2.5 -18v-25q6 -5 6 -14t-6 -14q1 -5 1 -9.5v-9.5v-15t-2 -12q4 -8 5 -15t3 -17v-11
q0 -9 -10 -20l3 -8q14 5 32.5 8.5t23.5 3.5t11 -4l26 18h20h1q2 0 4 1l-1 -1q6 3 14.5 6t19.5 3zM159 295q7 5 13 5h2l8 12q-1 3 -1 10q0 4 -0.5 7t1.5 7q-2 5 -1.5 10t0.5 12v4q0 12 0.5 20.5t3.5 14.5v53q-6 9 -1 19q-2 4 -2 6v55l-2 -9q-2 -4 -2.5 -7t-1.5 -5
q-1 -3 -2 -4v-12l-9 -23v-3q0 -7 -3 -16v1q-2 -4 -2 -6l-1 -2v-19q0 -10 -3 -15.5t-6 -8.5q0 -3 0.5 -7.5t0.5 -8.5l-7 -21v-16l-7 -20v-17l-6 -28q3 2 5.5 2.5t3.5 1.5l17 6l-2 -3q1 1 1.5 2t2.5 2l6 3z" />
    <glyph glyph-name="Ccedilla" unicode="&#xc7;" horiz-adv-x="402" 
d="M-3 269q0 12 2.5 32t5.5 36q0 12 3 27v-1q2 10 3 19.5t1 15.5q0 4 1 12t3.5 17.5t5.5 19t7 16.5q2 8 7 11t11 5v4q0 17 16 19q-3 21 3 33t13.5 18t14 8.5t6.5 4.5t3 7t7.5 10.5t9 10.5t7.5 7q5 0 7 -0.5t4 -0.5h2q1 5 2.5 9.5t5 7.5t10 5t17.5 2h4.5t5.5 -1
q4 7 10.5 11.5t23.5 4.5t23 -5t8 -12q3 0 4 0.5l3 1.5l8 4q9 5 17 0.5t10 -14.5v-4q0 -2 0.5 -3t0.5 -3v-5q10 -4 14 -11t6 -16q8 -5 11.5 -10t5.5 -10h1q8 -2 14 -8t6 -16v-7q2 -4 4.5 -9.5t2.5 -17.5q0 -26 -11 -33.5t-26 -7.5q-16 0 -20.5 7.5t-10.5 20.5q-4 7 -7.5 14.5
t-11.5 18.5q-5 5 -11 12.5t-6 15.5v4q0 2 0.5 3t0.5 3q0 -1 -8.5 1t-14.5 4q-4 0 -8 -0.5t-9 -0.5h-5.5t-6.5 1q-23 -24 -48 -33l-6 -11q-3 -8 -4.5 -10.5t-3 -2t-3.5 1.5t-5 0q-3 -2 -6 -5.5t-3 -17.5q0 -2 -2 -6.5t-4 -6.5l-5 -6q-7 -10 -16.5 -24t-9.5 -25
q-8 -22 -12.5 -39t-6.5 -31.5t-3 -28t-1 -28.5q0 -17 2 -37t12 -38q3 -10 5.5 -18t3.5 -13q2 -7 1.5 -7.5t1.5 -5.5q8 -4 9 -11t3 -16q0 -1 -1 -1l1 -1q12 -8 19.5 -20t11.5 -19q20 -12 41.5 -22t33.5 -10h14q17 0 28 0.5t21.5 3t22.5 8.5t31 17l11 8q8 7 15.5 12t19.5 5
q8 0 13 -5.5t5 -13.5q0 -14 -3 -28t-9.5 -25.5t-16.5 -18.5t-23 -7h-11q-5 -2 -9 -5q-4 -2 -8 -4.5t-6 -3.5q-2 0 -4.5 -0.5t-4.5 -0.5l-1 -2q-2 -2 -6.5 -4t-6.5 -2h-114q-2 1 -7 4.5t-7 5.5q-8 3 -21 8t-15 7l-13 13l-11 5l-24 13l-9 20l-8.5 17t-13.5 18l-9 17l-9 17
q0 8 -2.5 20.5t-6.5 28.5l1 -1q-6 21 -10 42t-4 35zM205 59q2 2 6.5 4t6.5 2q16 0 27 -6.5t11 -20.5v-72q5 1 7 1.5t3 0.5q3 -1 7 -2q3 -1 6 -2.5l5 -2.5h2q9 2 18 5t18 3q10 0 22 -2t24 -7.5t21.5 -14t13.5 -20.5v-48q0 -12 -10 -22v-2v2q-6 -7 -12 -8.5t-8 6.5
q0 -11 -1.5 -16.5t-2.5 -8.5t-1.5 -5t-0.5 -6q-17 -20 -43.5 -36.5t-52.5 -24.5h1l-46 -15h-14q-20 4 -29 9.5t-9 23.5q0 2 1.5 9t9.5 16l48 8q8 4 15 6t17 5q5 7 20 15v-1q8 6 16 11.5t12 9.5l13 13q4 8 10.5 20.5t7.5 15.5h-24l-1 -1l-25 -15q-2 0 -9 -0.5t-15.5 -1
t-15.5 -0.5h-10q-4 0 -8 2q-27 1 -34 13.5t-11 31.5l-2 12q0 1 -1 4t-2 7q-3 9 -6 23.5t-5 37.5v9q0 2 2 7t4 7z" />
    <glyph glyph-name="Egrave" unicode="&#xc8;" horiz-adv-x="384" 
d="M231 659q-11 6 -24 16.5t-20 19.5l2 -3q-10 10 -20.5 19.5t-21.5 19.5t-21 18.5t-21 19.5q-5 3 -13 8.5t-15.5 12.5t-12.5 14t-5 12q0 2 4.5 9t10.5 14t12.5 12.5t10.5 5.5q7 0 12 -4t10 -9l7 -6q-1 1 3 -1.5t9 -4.5l-1 1q8 -5 17 -10.5t10 -7.5q3 -3 6 -7.5t6 -8.5
l9 -14q0 3 -2 5h4q13 -10 28 -31t27.5 -42.5t20.5 -37.5t7 -17q-2 -2 -6.5 -4t-6.5 -2q-3 0 -12 0.5t-14 2.5zM260 297q0 -11 -6 -22.5t-13.5 -21t-16 -15.5t-12.5 -6h-20q-2 0 -4 -0.5t-5 -1.5h1q-7 -3 -15 -5t-20 -2q-5 0 -7 1q-6 -5 -13.5 -6t-14.5 -1h-6q-5 -6 -11 -8
l-8 -2v-86q0 -2 -2 -6q2 -8 2 -14v-12q2 -8 4 -20t2 -13q2 2 8 2.5t8 0.5h2l2 3q2 2 6.5 3.5t6.5 2.5t5 1q6 0 10 1h-1q5 1 10.5 1t10.5 1q5 0 11 1l5 1q-1 0 1 2q3 2 7 4t10 2h9t5 1q2 2 7 4t8 2h9q6 0 9 -4q11 10 25 19.5t28 15.5q8 -2 11.5 -0.5t7.5 3.5q5 3 10 5t12 4
q10 3 16.5 -2.5t6.5 -15.5q0 -14 -2.5 -27.5t-17.5 -28.5q-11 -1 -22.5 -6.5t-22.5 -11.5h1q-8 -5 -16.5 -10t-19.5 -7q-2 0 -20 -4t-40.5 -9.5t-43 -10.5t-26.5 -7q-7 -2 -14.5 0.5t-16 5t-18 4t-21.5 -1.5q-10 0 -17.5 6t-12.5 14t-7.5 16t-2.5 13q0 4 0.5 7.5t0.5 7.5v7
q0 1 -1 3.5t-2 6.5t-2 9l-1 6q0 7 1 10q-4 9 0 16q-4 17 -4 43q-1 8 -1.5 15.5t-2.5 14.5q1 -1 3 -1q-1 0 -1.5 0.5t-1.5 0.5q0 5 -2 7q0 -3 2 -7q-6 5 -14.5 14t-8.5 31q0 8 5.5 13.5t13.5 5.5q2 0 4 3t4 5l3 5q0 2 -0.5 4.5t-0.5 4.5q0 10 2 15q-2 5 -2.5 10.5t-0.5 13.5
q0 19 5 31l-1 13v45q-5 8 -1 19q0 1 -0.5 2.5t-0.5 2.5v57l-2 2q-11 8 -20 17t-9 20q0 14 8 22v2q0 2 -0.5 4t-0.5 4q0 16 7 21t17 9v5q0 8 5 13.5t13 5.5q9 0 21.5 -11.5t20.5 -26.5h79q-3 0 1 2l16 6q1 0 3.5 -0.5t4.5 -0.5q3 3 8.5 5.5t14.5 2.5h21q6 0 18 3l13 3l-6 -4
q4 2 16.5 7t26 9.5t24.5 8t13 3.5q16 -5 26 -20.5t10 -32.5q0 -8 -5.5 -13.5t-13.5 -5.5q-5 0 -18 -1t-20 -2q3 0 1 -1q-6 -4 -15 -9t-19 -5q-4 0 -8.5 0.5t-7.5 0.5h-3q-11 -4 -25 -9.5t-16 -7.5q-8 -8 -14.5 -6.5t-16.5 6.5l1 -1q-1 0 -3 1l-17 -8h1q-9 -5 -19 -9t-18 -4
q-3 0 -17 2t-23 4v-2q0 -9 -2.5 -14t-4.5 -7q2 -4 4.5 -10t2.5 -17v-25q6 -6 6.5 -14.5t-6.5 -14.5q1 -4 1 -8v-9q0 -17 -3 -29q5 -8 8 -17.5t1 -20.5q-1 -3 -3 -10.5t-6 -15.5q1 -2 1.5 -3.5t0.5 -3.5q0 -9 -8 -15q4 3 8.5 7.5t3.5 4.5q1 0 3 1q4 2 7 4q8 3 12 5t11 4
q4 1 10.5 1.5t8.5 0.5q4 0 8 -2q17 13 40 19t48 6z" />
    <glyph glyph-name="Eacute" unicode="&#xc9;" horiz-adv-x="384" 
d="M219 833q7 0 13.5 -4t7.5 -12q-1 13 -6.5 15t-9.5 2q-2 0 -4 -1l8 6q11 8 23 15t29 7q8 0 13.5 -5.5t5.5 -13.5q0 -11 -3 -18t-7 -15q1 1 0.5 -0.5t-1.5 -3.5l-71 -71l-18 -13h1q-15 -11 -24.5 -18t-15.5 -12.5t-10 -10.5t-7 -12q-2 -4 -7.5 -7.5t-9.5 -3.5h-6
q-3 0 -6 0.5t-7 0.5q-17 0 -20 -2q-5 -6 -13 -6t-13 6q-5 5 -6 11.5t-1 8.5q0 18 8.5 22t18.5 9q5 5 5 -2l5 -5l7 31q3 2 13.5 7.5t15.5 9.5l17 18q8 8 17 16.5t11 10.5q1 1 9 3.5t14 4.5l7 17q3 13 17 15zM260 297q0 -11 -6 -22.5t-13.5 -21t-16 -15.5t-12.5 -6h-20
q-2 0 -4 -0.5t-5 -1.5h1q-7 -3 -15 -5t-20 -2q-5 0 -7 1q-6 -5 -13.5 -6t-14.5 -1h-6q-5 -6 -11 -8l-8 -2v-86q0 -2 -2 -6q2 -8 2 -14v-12q2 -8 4 -20t2 -13q2 2 8 2.5t8 0.5h2l2 3q2 2 6.5 3.5t6.5 2.5t5 1q6 0 10 1h-1q5 1 10.5 1t10.5 1q5 0 11 1l5 1q-1 0 1 2q3 2 7 4
t10 2h9t5 1q2 2 7 4t8 2h9q6 0 9 -4q11 10 25 19.5t28 15.5q8 -2 11.5 -0.5t7.5 3.5q5 3 10 5t12 4q10 3 16.5 -2.5t6.5 -15.5q0 -14 -2.5 -27.5t-17.5 -28.5q-11 -1 -22.5 -6.5t-22.5 -11.5h1q-8 -5 -16.5 -10t-19.5 -7q-2 0 -20 -4t-40.5 -9.5t-43 -10.5t-26.5 -7
q-7 -2 -14.5 0.5t-16 5t-18 4t-21.5 -1.5q-10 0 -17.5 6t-12.5 14t-7.5 16t-2.5 13q0 4 0.5 7.5t0.5 7.5v7q0 1 -1 3.5t-2 6.5t-2 9l-1 6q0 7 1 10q-4 9 0 16q-4 17 -4 43q-1 8 -1.5 15.5t-2.5 14.5q1 -1 3 -1q-1 0 -1.5 0.5t-1.5 0.5q0 5 -2 7q0 -3 2 -7q-6 5 -14.5 14
t-8.5 31q0 8 5.5 13.5t13.5 5.5q2 0 4 3t4 5l3 5q0 2 -0.5 4.5t-0.5 4.5q0 10 2 15q-2 5 -2.5 10.5t-0.5 13.5q0 19 5 31l-1 13v45q-5 8 -1 19q0 1 -0.5 2.5t-0.5 2.5v57l-2 2q-11 8 -20 17t-9 20q0 14 8 22v2q0 2 -0.5 4t-0.5 4q0 16 7 21t17 9v5q0 8 5 13.5t13 5.5
q9 0 21.5 -11.5t20.5 -26.5h79q-3 0 1 2l16 6q1 0 3.5 -0.5t4.5 -0.5q3 3 8.5 5.5t14.5 2.5h21q6 0 18 3l13 3l-6 -4q4 2 16.5 7t26 9.5t24.5 8t13 3.5q16 -5 26 -20.5t10 -32.5q0 -8 -5.5 -13.5t-13.5 -5.5q-5 0 -18 -1t-20 -2q3 0 1 -1q-6 -4 -15 -9t-19 -5q-4 0 -8.5 0.5
t-7.5 0.5h-3q-11 -4 -25 -9.5t-16 -7.5q-8 -8 -14.5 -6.5t-16.5 6.5l1 -1q-1 0 -3 1l-17 -8h1q-9 -5 -19 -9t-18 -4q-3 0 -17 2t-23 4v-2q0 -9 -2.5 -14t-4.5 -7q2 -4 4.5 -10t2.5 -17v-25q6 -6 6.5 -14.5t-6.5 -14.5q1 -4 1 -8v-9q0 -17 -3 -29q5 -8 8 -17.5t1 -20.5
q-1 -3 -3 -10.5t-6 -15.5q1 -2 1.5 -3.5t0.5 -3.5q0 -9 -8 -15q4 3 8.5 7.5t3.5 4.5q1 0 3 1q4 2 7 4q8 3 12 5t11 4q4 1 10.5 1.5t8.5 0.5q4 0 8 -2q17 13 40 19t48 6z" />
    <glyph glyph-name="Ecircumflex" unicode="&#xca;" horiz-adv-x="384" 
d="M87 753h-3l1 1h3q5 12 12 22t18 13q1 0 1.5 0.5t2.5 0.5q2 3 4 5.5t4 5.5q3 2 6 10q0 1 1 1h1l5 9q1 2 4 6.5t5 5.5q7 2 9 4q5 5 12 9t17 4q1 0 3.5 -0.5t6.5 -0.5q22 -7 34.5 -13.5t18.5 -13.5t7.5 -15t3.5 -18l2 -6l11 -23q6 -11 12 -21t11 -12l11 -22q5 -7 8 -13.5
t3 -19.5q0 -8 -5.5 -13t-13.5 -5q-20 0 -31.5 2.5t-17.5 7t-8.5 11.5t-4.5 15q-1 5 -3.5 11t-9.5 13q-5 7 -10 16t-9 16l-15 23l-7 -8q-6 -7 -13 -16t-15 -17q-2 -2 -6.5 -4t-6.5 -2h-3q3 -1 2 -3.5t-3 -4.5q-9 -13 -19 -22q-9 -16 -18 -24.5t-18 -13t-19 -5.5t-20 -1
q-19 0 -19 19q0 15 6 25.5t15 21.5q11 11 20 29zM260 297q0 -11 -6 -22.5t-13.5 -21t-16 -15.5t-12.5 -6h-20q-2 0 -4 -0.5t-5 -1.5h1q-7 -3 -15 -5t-20 -2q-5 0 -7 1q-6 -5 -13.5 -6t-14.5 -1h-6q-5 -6 -11 -8l-8 -2v-86q0 -2 -2 -6q2 -8 2 -14v-12q2 -8 4 -20t2 -13
q2 2 8 2.5t8 0.5h2l2 3q2 2 6.5 3.5t6.5 2.5t5 1q6 0 10 1h-1q5 1 10.5 1t10.5 1q5 0 11 1l5 1q-1 0 1 2q3 2 7 4t10 2h9t5 1q2 2 7 4t8 2h9q6 0 9 -4q11 10 25 19.5t28 15.5q8 -2 11.5 -0.5t7.5 3.5q5 3 10 5t12 4q10 3 16.5 -2.5t6.5 -15.5q0 -14 -2.5 -27.5t-17.5 -28.5
q-11 -1 -22.5 -6.5t-22.5 -11.5h1q-8 -5 -16.5 -10t-19.5 -7q-2 0 -20 -4t-40.5 -9.5t-43 -10.5t-26.5 -7q-7 -2 -14.5 0.5t-16 5t-18 4t-21.5 -1.5q-10 0 -17.5 6t-12.5 14t-7.5 16t-2.5 13q0 4 0.5 7.5t0.5 7.5v7q0 1 -1 3.5t-2 6.5t-2 9l-1 6q0 7 1 10q-4 9 0 16
q-4 17 -4 43q-1 8 -1.5 15.5t-2.5 14.5q1 -1 3 -1q-1 0 -1.5 0.5t-1.5 0.5q0 5 -2 7q0 -3 2 -7q-6 5 -14.5 14t-8.5 31q0 8 5.5 13.5t13.5 5.5q2 0 4 3t4 5l3 5q0 2 -0.5 4.5t-0.5 4.5q0 10 2 15q-2 5 -2.5 10.5t-0.5 13.5q0 19 5 31l-1 13v45q-5 8 -1 19q0 1 -0.5 2.5
t-0.5 2.5v57l-2 2q-11 8 -20 17t-9 20q0 14 8 22v2q0 2 -0.5 4t-0.5 4q0 16 7 21t17 9v5q0 8 5 13.5t13 5.5q9 0 21.5 -11.5t20.5 -26.5h79q-3 0 1 2l16 6q1 0 3.5 -0.5t4.5 -0.5q3 3 8.5 5.5t14.5 2.5h21q6 0 18 3l13 3l-6 -4q4 2 16.5 7t26 9.5t24.5 8t13 3.5
q16 -5 26 -20.5t10 -32.5q0 -8 -5.5 -13.5t-13.5 -5.5q-5 0 -18 -1t-20 -2q3 0 1 -1q-6 -4 -15 -9t-19 -5q-4 0 -8.5 0.5t-7.5 0.5h-3q-11 -4 -25 -9.5t-16 -7.5q-8 -8 -14.5 -6.5t-16.5 6.5l1 -1q-1 0 -3 1l-17 -8h1q-9 -5 -19 -9t-18 -4q-3 0 -17 2t-23 4v-2
q0 -9 -2.5 -14t-4.5 -7q2 -4 4.5 -10t2.5 -17v-25q6 -6 6.5 -14.5t-6.5 -14.5q1 -4 1 -8v-9q0 -17 -3 -29q5 -8 8 -17.5t1 -20.5q-1 -3 -3 -10.5t-6 -15.5q1 -2 1.5 -3.5t0.5 -3.5q0 -9 -8 -15q4 3 8.5 7.5t3.5 4.5q1 0 3 1q4 2 7 4q8 3 12 5t11 4q4 1 10.5 1.5t8.5 0.5
q4 0 8 -2q17 13 40 19t48 6z" />
    <glyph glyph-name="Edieresis" unicode="&#xcb;" horiz-adv-x="384" 
d="M115 795q22 0 30.5 -15t7 -32.5t-12 -32.5t-27.5 -15q-8 0 -15 3h-4q-11 0 -17 9q-5 4 -9 8.5t-4 14.5q0 23 11 41.5t40 18.5zM186 741q0 9 2 19t5 16q1 3 5.5 6.5t9.5 6t10 4t7 1.5q7 0 15.5 -6t16.5 -13.5t13.5 -14.5t5.5 -8q0 -21 -5.5 -28t-13.5 -12l-8 -6
q-2 -1 -5.5 -2.5t-6.5 -2.5h3q-8 -4 -13 -4q-12 0 -19.5 6t-12.5 13.5t-7 15t-2 9.5zM260 297q0 -11 -6 -22.5t-13.5 -21t-16 -15.5t-12.5 -6h-20q-2 0 -4 -0.5t-5 -1.5h1q-7 -3 -15 -5t-20 -2q-5 0 -7 1q-6 -5 -13.5 -6t-14.5 -1h-6q-5 -6 -11 -8l-8 -2v-86q0 -2 -2 -6
q2 -8 2 -14v-12q2 -8 4 -20t2 -13q2 2 8 2.5t8 0.5h2l2 3q2 2 6.5 3.5t6.5 2.5t5 1q6 0 10 1h-1q5 1 10.5 1t10.5 1q5 0 11 1l5 1q-1 0 1 2q3 2 7 4t10 2h9t5 1q2 2 7 4t8 2h9q6 0 9 -4q11 10 25 19.5t28 15.5q8 -2 11.5 -0.5t7.5 3.5q5 3 10 5t12 4q10 3 16.5 -2.5
t6.5 -15.5q0 -14 -2.5 -27.5t-17.5 -28.5q-11 -1 -22.5 -6.5t-22.5 -11.5h1q-8 -5 -16.5 -10t-19.5 -7q-2 0 -20 -4t-40.5 -9.5t-43 -10.5t-26.5 -7q-7 -2 -14.5 0.5t-16 5t-18 4t-21.5 -1.5q-10 0 -17.5 6t-12.5 14t-7.5 16t-2.5 13q0 4 0.5 7.5t0.5 7.5v7q0 1 -1 3.5
t-2 6.5t-2 9l-1 6q0 7 1 10q-4 9 0 16q-4 17 -4 43q-1 8 -1.5 15.5t-2.5 14.5q1 -1 3 -1q-1 0 -1.5 0.5t-1.5 0.5q0 5 -2 7q0 -3 2 -7q-6 5 -14.5 14t-8.5 31q0 8 5.5 13.5t13.5 5.5q2 0 4 3t4 5l3 5q0 2 -0.5 4.5t-0.5 4.5q0 10 2 15q-2 5 -2.5 10.5t-0.5 13.5q0 19 5 31
l-1 13v45q-5 8 -1 19q0 1 -0.5 2.5t-0.5 2.5v57l-2 2q-11 8 -20 17t-9 20q0 14 8 22v2q0 2 -0.5 4t-0.5 4q0 16 7 21t17 9v5q0 8 5 13.5t13 5.5q9 0 21.5 -11.5t20.5 -26.5h79q-3 0 1 2l16 6q1 0 3.5 -0.5t4.5 -0.5q3 3 8.5 5.5t14.5 2.5h21q6 0 18 3l13 3l-6 -4q4 2 16.5 7
t26 9.5t24.5 8t13 3.5q16 -5 26 -20.5t10 -32.5q0 -8 -5.5 -13.5t-13.5 -5.5q-5 0 -18 -1t-20 -2q3 0 1 -1q-6 -4 -15 -9t-19 -5q-4 0 -8.5 0.5t-7.5 0.5h-3q-11 -4 -25 -9.5t-16 -7.5q-8 -8 -14.5 -6.5t-16.5 6.5l1 -1q-1 0 -3 1l-17 -8h1q-9 -5 -19 -9t-18 -4q-3 0 -17 2
t-23 4v-2q0 -9 -2.5 -14t-4.5 -7q2 -4 4.5 -10t2.5 -17v-25q6 -6 6.5 -14.5t-6.5 -14.5q1 -4 1 -8v-9q0 -17 -3 -29q5 -8 8 -17.5t1 -20.5q-1 -3 -3 -10.5t-6 -15.5q1 -2 1.5 -3.5t0.5 -3.5q0 -9 -8 -15q4 3 8.5 7.5t3.5 4.5q1 0 3 1q4 2 7 4q8 3 12 5t11 4q4 1 10.5 1.5
t8.5 0.5q4 0 8 -2q17 13 40 19t48 6z" />
    <glyph glyph-name="Igrave" unicode="&#xcc;" horiz-adv-x="367" 
d="M224 658q-10 4 -24.5 15t-21.5 22l1 -3q-10 10 -20.5 19t-21.5 18q-11 11 -22.5 21t-22.5 21q-5 3 -12.5 8t-14.5 11t-11.5 13t-4.5 13q0 2 4.5 9t10.5 14t12.5 12.5t9.5 5.5q8 0 17 -8.5t14 -13.5q1 1 11 -3l-1 1q8 -5 16.5 -10.5t10.5 -7.5q3 -3 6 -7.5t6 -8.5l9 -14
q0 3 -2 5h4q13 -10 28 -31t27.5 -42.5t20.5 -37.5t7 -17q-2 -2 -6.5 -4t-6.5 -2q-3 0 -12 0.5t-14 2.5zM-3 556q0 8 2 17t7 16.5t15 12.5t27 5h50l5 6l18 8q15 5 22 -7q8 5 16 6.5t11 1.5h15q5 2 11.5 4t11.5 3h7q2 0 4.5 -1t6.5 -2q2 -2 4.5 -2t4.5 -1l10 2h-1q4 2 8.5 3
t7.5 1q5 0 10 0.5t10 0.5h16q35 0 49.5 -7.5t14.5 -16.5q0 -6 -15.5 -14t-35.5 -14.5t-39.5 -11t-28.5 -4.5h-4q1 0 -3 -2t-9 -4l1 1q-17 -10 -25 -10h-5l2 -26l8 -307q2 -2 3.5 -4.5t3.5 -3.5l7 -34v-14l-8 -20q5 -8 10 -18t6 -15v-12l-7 -18h11l25 4q10 2 19.5 3t14.5 1
h19l2 2q7 5 16 5h7q10 0 15.5 -7t8.5 -17t4 -21t1 -20q0 -8 -5.5 -13t-13.5 -5q-11 0 -21 8q-10 -7 -14 -7q-8 0 -12 2.5t-7 5.5h-5q-4 0 -14 -1.5t-21.5 -2.5t-20.5 -2t-12 -1h-23q-17 -10 -31 -10q-12 0 -16 9l-9 -4l-9 -3q1 0 -1 -1q-9 -3 -27.5 -7t-41.5 -4h-33
q-10 0 -15 7t-3 16l9 28l11 11q3 2 10.5 5t17.5 6t21.5 5t21.5 2l21 6h9l8 -2q1 -1 2 -1t2 -0.5t3 -0.5v156q-1 8 -2.5 17.5t-2.5 19.5v283h-6h-6q-7 -7 -15 -7l-14 4q-10 -4 -14 -4q-3 0 -13 -0.5t-21.5 -1t-21.5 -1t-13 -0.5q-19 0 -19 19z" />
    <glyph glyph-name="Iacute" unicode="&#xcd;" horiz-adv-x="367" 
d="M220 833q7 -1 13 -5t7 -11q-1 13 -6 15t-10 2q-1 0 -0.5 0.5t5.5 4.5q11 8 22.5 15t28.5 7q8 0 13.5 -5.5t5.5 -13.5q0 -11 -2.5 -18t-7.5 -15q1 1 0.5 -0.5t-1.5 -3.5l-71 -71l-18 -13h1q-15 -11 -24.5 -18t-15.5 -12.5t-10 -10.5t-7 -12q-2 -4 -7 -7.5t-10 -3.5h-6
q-2 0 -5.5 0.5t-7.5 0.5q-17 0 -20 -2q-5 -6 -12.5 -6t-13.5 6q-5 5 -6 11.5t-1 8.5q0 18 9 22t18 9q2 2 3.5 2.5t1.5 -4.5l5 -5l7 31q3 2 13.5 7.5t15.5 9.5l17 18q8 8 17 16.5t11 10.5q1 1 9 3.5t14 4.5l7 17q2 8 7 11t10 4h1zM-3 556q0 8 2 17t7 16.5t15 12.5t27 5h50
l5 6l18 8q15 5 22 -7q8 5 16 6.5t11 1.5h15q5 2 11.5 4t11.5 3h7q2 0 4.5 -1t6.5 -2q2 -2 4.5 -2t4.5 -1l10 2h-1q4 2 8.5 3t7.5 1q5 0 10 0.5t10 0.5h16q35 0 49.5 -7.5t14.5 -16.5q0 -6 -15.5 -14t-35.5 -14.5t-39.5 -11t-28.5 -4.5h-4q1 0 -3 -2t-9 -4l1 1
q-17 -10 -25 -10h-5l2 -26l8 -307q2 -2 3.5 -4.5t3.5 -3.5l7 -34v-14l-8 -20q5 -8 10 -18t6 -15v-12l-7 -18h11l25 4q10 2 19.5 3t14.5 1h19l2 2q7 5 16 5h7q10 0 15.5 -7t8.5 -17t4 -21t1 -20q0 -8 -5.5 -13t-13.5 -5q-11 0 -21 8q-10 -7 -14 -7q-8 0 -12 2.5t-7 5.5h-5
q-4 0 -14 -1.5t-21.5 -2.5t-20.5 -2t-12 -1h-23q-17 -10 -31 -10q-12 0 -16 9l-9 -4l-9 -3q1 0 -1 -1q-9 -3 -27.5 -7t-41.5 -4h-33q-10 0 -15 7t-3 16l9 28l11 11q3 2 10.5 5t17.5 6t21.5 5t21.5 2l21 6h9l8 -2q1 -1 2 -1t2 -0.5t3 -0.5v156q-1 8 -2.5 17.5t-2.5 19.5v283
h-6h-6q-7 -7 -15 -7l-14 4q-10 -4 -14 -4q-3 0 -13 -0.5t-21.5 -1t-21.5 -1t-13 -0.5q-19 0 -19 19z" />
    <glyph glyph-name="Icircumflex" unicode="&#xce;" horiz-adv-x="367" 
d="M87 753h-2v1h3q5 12 12 22t18 13q1 0 1.5 0.5t2.5 0.5q2 3 4.5 5.5t4.5 5.5q2 1 5 10q0 1 1 1h1l5 9q1 2 4 6.5t5 5.5q7 2 9 4q5 5 12 9t17 4q1 0 4 -0.5t6 -0.5q22 -7 34.5 -13.5t18.5 -13.5t8 -15t3 -18l2 -6l12 -23q5 -11 11.5 -21t10.5 -12l6 -12t6 -10q4 -7 7 -13.5
t3 -19.5q0 -8 -5.5 -13t-13.5 -5q-20 0 -31.5 2.5t-17.5 7t-8.5 11.5t-4.5 15q-1 5 -3.5 11t-8.5 13q-5 7 -10.5 16t-9.5 16l-15 23l-7 -8q-5 -7 -12.5 -16t-15.5 -17q-2 -2 -6.5 -4t-6.5 -2h-3q3 -1 2 -3.5t-3 -4.5q-9 -13 -19 -22q-9 -16 -17.5 -24.5t-18 -13t-19.5 -5.5
t-20 -1q-19 0 -19 19q0 15 6 25.5t16 21.5q5 5 9.5 12.5t9.5 16.5zM-3 556q0 8 2 17t7 16.5t15 12.5t27 5h50l5 6l18 8q15 5 22 -7q8 5 16 6.5t11 1.5h15q5 2 11.5 4t11.5 3h7q2 0 4.5 -1t6.5 -2q2 -2 4.5 -2t4.5 -1l10 2h-1q4 2 8.5 3t7.5 1q5 0 10 0.5t10 0.5h16
q35 0 49.5 -7.5t14.5 -16.5q0 -6 -15.5 -14t-35.5 -14.5t-39.5 -11t-28.5 -4.5h-4q1 0 -3 -2t-9 -4l1 1q-17 -10 -25 -10h-5l2 -26l8 -307q2 -2 3.5 -4.5t3.5 -3.5l7 -34v-14l-8 -20q5 -8 10 -18t6 -15v-12l-7 -18h11l25 4q10 2 19.5 3t14.5 1h19l2 2q7 5 16 5h7
q10 0 15.5 -7t8.5 -17t4 -21t1 -20q0 -8 -5.5 -13t-13.5 -5q-11 0 -21 8q-10 -7 -14 -7q-8 0 -12 2.5t-7 5.5h-5q-4 0 -14 -1.5t-21.5 -2.5t-20.5 -2t-12 -1h-23q-17 -10 -31 -10q-12 0 -16 9l-9 -4l-9 -3q1 0 -1 -1q-9 -3 -27.5 -7t-41.5 -4h-33q-10 0 -15 7t-3 16l9 28
l11 11q3 2 10.5 5t17.5 6t21.5 5t21.5 2l21 6h9l8 -2q1 -1 2 -1t2 -0.5t3 -0.5v156q-1 8 -2.5 17.5t-2.5 19.5v283h-6h-6q-7 -7 -15 -7l-14 4q-10 -4 -14 -4q-3 0 -13 -0.5t-21.5 -1t-21.5 -1t-13 -0.5q-19 0 -19 19z" />
    <glyph glyph-name="Idieresis" unicode="&#xcf;" horiz-adv-x="367" 
d="M106 795q14 0 21.5 -3.5t10.5 -10t3.5 -15t0.5 -17.5q0 -23 -8 -36t-31 -13q-6 0 -15 3h-3q-13 0 -17 9q-5 4 -9.5 8.5t-4.5 14.5q0 23 11.5 41.5t40.5 18.5zM178 741q0 9 1 18.5t4 16.5t15.5 12.5t17.5 5.5q7 0 15.5 -6t16 -13.5t13 -14.5t5.5 -8q0 -21 -6.5 -28
t-12.5 -12l-4 -4q-5 -5 -13 -7h1q-3 -2 -6 -3t-8 -1q-11 0 -18.5 6t-12 13.5t-6.5 15t-2 9.5zM-3 556q0 8 2 17t7 16.5t15 12.5t27 5h50l5 6l18 8q15 5 22 -7q8 5 16 6.5t11 1.5h15q5 2 11.5 4t11.5 3h7q2 0 4.5 -1t6.5 -2q2 -2 4.5 -2t4.5 -1l10 2h-1q4 2 8.5 3t7.5 1
q5 0 10 0.5t10 0.5h16q35 0 49.5 -7.5t14.5 -16.5q0 -6 -15.5 -14t-35.5 -14.5t-39.5 -11t-28.5 -4.5h-4q1 0 -3 -2t-9 -4l1 1q-17 -10 -25 -10h-5l2 -26l8 -307q2 -2 3.5 -4.5t3.5 -3.5l7 -34v-14l-8 -20q5 -8 10 -18t6 -15v-12l-7 -18h11l25 4q10 2 19.5 3t14.5 1h19l2 2
q7 5 16 5h7q10 0 15.5 -7t8.5 -17t4 -21t1 -20q0 -8 -5.5 -13t-13.5 -5q-11 0 -21 8q-10 -7 -14 -7q-8 0 -12 2.5t-7 5.5h-5q-4 0 -14 -1.5t-21.5 -2.5t-20.5 -2t-12 -1h-23q-17 -10 -31 -10q-12 0 -16 9l-9 -4l-9 -3q1 0 -1 -1q-9 -3 -27.5 -7t-41.5 -4h-33q-10 0 -15 7
t-3 16l9 28l11 11q3 2 10.5 5t17.5 6t21.5 5t21.5 2l21 6h9l8 -2q1 -1 2 -1t2 -0.5t3 -0.5v156q-1 8 -2.5 17.5t-2.5 19.5v283h-6h-6q-7 -7 -15 -7l-14 4q-10 -4 -14 -4q-3 0 -13 -0.5t-21.5 -1t-21.5 -1t-13 -0.5q-19 0 -19 19z" />
    <glyph glyph-name="Eth" unicode="&#xd0;" horiz-adv-x="555" 
d="M260 359q7 0 21 3l16 4q3 0 14.5 -3t24 -8t22 -11.5t9.5 -12.5q-14 -23 -26.5 -31.5t-23.5 -8.5q-5 0 -9.5 0.5t-9.5 0.5h-16q-1 0 -3 -1q-4 -2 -6 -2q-7 -2 -13 -3.5t-8 -1.5h-75v-1q0 -23 2 -34.5t4 -18.5q1 -5 2 -8t1 -14q-1 -2 -4.5 -10.5t-3.5 -10.5t0.5 -8.5
t7.5 -19.5q0 -23 -1.5 -30.5t-6.5 -12.5q2 -8 3 -15.5t2 -15.5q2 -9 2.5 -19t0.5 -14q0 -26 -2 -40t-6 -31q-2 -6 -7 -10.5t-12 -4.5q-21 0 -32 6t-16.5 16t-6.5 22t-1 23q0 9 0.5 19.5t0.5 18.5v9q0 13 -1 37t-2.5 49.5t-2.5 46.5t-2 27q0 3 -3 14q-3 13 -3 25v5
q-10 0 -27.5 0.5t-33 1t-25.5 1t-4 1.5q-2 1 -2 6t-1 9.5t-3 6t-7 -4.5l-1 26q0 8 5.5 13t13.5 5h37.5t36.5 1q-1 10 -5 23v96v24.5t-1 17t-2 14t-4 15.5q0 11 -1 25.5t-7 31.5q0 1 -0.5 4.5t-0.5 6.5q0 8 5.5 13.5t13.5 5.5h23q10 0 15 -5t7 -13.5t2.5 -19t1.5 -21.5
q2 -23 5 -42l2 6q2 18 9 27.5t13 15t9.5 8.5t-2.5 9q1 3 5 7q16 18 27.5 30t24.5 20t29 11.5t40 3.5q5 0 17 -3.5t24.5 -7.5t22.5 -7.5t12 -4.5q-1 0 7.5 -5t22 -16.5t30 -30.5t33.5 -46q0 -1 -0.5 -5t-0.5 -6q1 2 4.5 -1t6.5 -5q3 -6 8 -14.5l10 -17t9.5 -15.5t6.5 -10
q0 -4 -2 -7t-4 -8q5 -8 9 -16.5t4 -11.5v-29q6 -6 6.5 -15t-5.5 -16l6 -18q1 -4 2 -12.5t2 -18.5t2 -19.5t1 -14.5v-4q0 -5 -3 -16.5t-7 -22.5q-2 -5 -3 -9.5t-1 -6.5v-16q0 -3 -2.5 -12t-8.5 -17q-3 -6 -12 -8q6 0 4 -2q-2 -8 -4.5 -16.5t-10.5 -18.5l-2 -3
q-6 -8 -14 -19.5t-16.5 -23t-17 -20t-14.5 -11.5l-20 -9q-3 -2 -2 1q-9 -9 -20 -16.5t-22.5 -12.5t-21 -8t-15.5 -3q-11 0 -17 3t-8 6h-16l-15 4h1q-11 2 -22 4.5t-20 12.5q-6 5 -6 12.5t6 13.5l8 8q4 4 11 5t12 -3q-2 1 3.5 1h11.5q20 0 28.5 2.5t20.5 8.5q10 4 24 10.5
t40 14.5q7 7 18.5 21t23 33t21 43t14.5 51q0 11 -1.5 34.5t-5.5 47.5v28q0 2 -2 6q-3 4 -4.5 9.5t-1.5 10.5v20v6t-2 5q-1 2 -3 6.5t-2 6.5q0 5 -1.5 10t-3.5 12q-6 14 -9 32q0 1 0.5 1t0.5 -1q-5 5 -7.5 9.5t-2.5 11.5q-11 12 -23.5 25t-25.5 23.5t-24.5 18t-18.5 9.5
q-18 8 -26.5 10.5t-16.5 3.5q-11 -9 -26 -24.5t-22 -23.5l-3 -7v1q-4 -9 -9.5 -21t-10.5 -23t-8.5 -19t-3.5 -10v-6q0 -1 1 -1q4 -5 6 -9t2 -11q0 -2 -0.5 -3t-0.5 -3q-1 -2 -1 -3q-3 -11 -15 -13q5 -1 4 -2.5t-2 -3.5q-2 -5 -1.5 -5.5t-2.5 -0.5l8 -11q4 -8 2.5 -15.5
t-8.5 -10.5q1 -4 3 -9.5t4 -11.5q15 1 29 3t29 4q4 1 9 -1t7 -4l2 -2v0z" />
    <glyph glyph-name="Ntilde" unicode="&#xd1;" horiz-adv-x="524" 
d="M221 707q-1 0 -1 0.5t-1 0.5q-10 5 -4 19q-12 4 -11 10t-1 8q-4 4 -4 8q-1 2 -2 3t-1 3q-3 1 -4 4h-6l-2 -1l2 2q-4 -3 -7.5 -6.5t-3.5 -4.5q-8 -16 -12.5 -28t-4.5 -15q0 -12 -11 -17v-3q0 -11 -8 -16t-18 -1l-22 10l-11 17q0 -6 -1 -3l-2 6q-2 4 -3.5 10t-1.5 8
q0 3 5 13.5t9 16.5q0 6 3.5 11t10.5 7q4 9 11 18l1 1l1 1q0 3 4 11.5t4 12.5q2 0 6 4q2 2 4 5l21 9q2 1 3.5 0t2.5 -7q1 6 7 11t14 3l23 -3l-3 -7h2q12 -2 18.5 -9t11.5 -15q3 1 7 0q9 -5 13 -15q0 -1 2 -3q2 -4 7 -10t12 -13q2 -2 3.5 -5.5t3.5 -5.5l1 -1q1 -2 4 -2l8 1
v-3.5t1 -3.5t3 1.5t4 13.5q-3 -2 -2 -0.5t2 3.5q4 6 11 10h-1q2 3 6 7t9 6q-10 0 -9.5 0.5l1.5 1.5v-1q5 13 11.5 27.5t26.5 14.5q14 0 19.5 -8t6.5 -19q14 -4 14 -18q0 -10 -5.5 -18.5t-10.5 -17.5q-5 -7 -8.5 -12t-3.5 -7q0 -8 -5 -13.5t-13 -5.5q-6 -6 -14 -4
q-8 -11 -17 -20t-13 -9q-2 0 -6 1.5t-6 3.5q3 -4 0.5 -5.5t-5.5 -2.5q-10 -5 -19 -5q-6 0 -9 2.5t-5 4.5l-3 3t-3 -3l5 -2q-3 0 -5 2q-27 14 -18 21q-5 4 -9 6.5t-9 5.5zM-3 46q0 2 -0.5 7.5t-0.5 10.5v12q0 14 1 23t3 19q2 8 3 15.5t1 15.5v46q0 3 1.5 13.5t2.5 22.5
t2 22.5t1 13.5l1 -4q-1 3 -1 7v11l2 12l-2 18v167q-1 2 -2 4.5t-1 4.5q-2 5 -3 11t-1 11q0 2 1.5 6.5t3.5 6.5q3 3 6.5 7.5t6.5 9.5q8 11 16 18.5t28 7.5q18 0 27 -3.5t14 -18.5q7 -2 11.5 -3t4.5 -18v-2q5 -7 8.5 -11t6.5 -9l16 -22q1 0 7 -7t6 -16q0 -2 -0.5 -4t-0.5 -4
q1 2 4.5 -1.5t7.5 -6.5l8 -8q6 -14 11 -20.5t10 -11.5q7 -8 12 -14.5t10 -17.5q8 -2 13 -7.5t5 -13.5l1 -8q-1 0 -1.5 -0.5t-1.5 -0.5q5 -1 10 -4.5t7 -8.5q2 -6 6 -10t9 -8l11 -11t10 -14l7 -15l-1 1q2 -4 4 -7.5t3 -4.5q9 -21 27.5 -44.5t30.5 -36.5q14 -3 20 -12
q1 9 6 17l-1 -1q2 7 4.5 16t2.5 29q0 6 -0.5 11.5t-0.5 10.5v9q2 5 3.5 9.5t3.5 6.5v-1q7 10 7 20q-1 1 -1 3q-1 2 -1 7q-5 15 0 31q0 1 1 1.5t1 1.5v21q0 7 1.5 12t3.5 11q1 3 2 5.5t1 4.5v29q3 15 4.5 37t3 48t2 54t0.5 54q0 8 5.5 13.5t13.5 5.5q11 0 21 -4.5t17.5 -15.5
t11.5 -30t4 -48q0 -3 -0.5 -8.5t-0.5 -9.5q0 -2 -2 -6q-1 -2 -1 -4l-5 -8v-5q0 -8 0.5 -17t0.5 -18q0 -10 -0.5 -19t-0.5 -17v-12q0 -9 -5 -29q-3 -11 -6 -22.5t-3 -22.5v-35v-3q0 -1 -2 -7l1 2q-2 -7 -4 -20t-2 -18v-28q0 -12 -8 -19q0 -3 0.5 -7.5t0.5 -7.5l-12 -35
l-11 -33v-6q0 -1 -5.5 -6t-12.5 -11t-15 -10.5t-12 -4.5q-26 0 -32.5 -1.5t-3.5 -4.5l-7 6q-5 3 -7 9q-2 1 -4.5 2t-5.5 5q-11 12 -23 28t-18 29l2 -2q-5 9 -9.5 13.5l-9.5 9.5q-10 11 -20 23.5t-21 35.5q-13 24 -27.5 42t-28.5 32q-18 18 -32.5 34t-21.5 39
q-4 5 -10.5 14.5t-13.5 16.5l-20 27q-1 0 -1 1v-88q0 -8 -5 -13t-11 -6h8q0 -6 0.5 -13t0.5 -12v-10q-2 -10 -3.5 -21.5t-2 -21.5t-1 -17.5t-0.5 -8.5v-68q0 -6 0.5 -14.5t0.5 -15t-1.5 -10.5t-5.5 -1q3 -7 3 -12t-1 -10t-2.5 -11t-1.5 -15q0 -3 -0.5 -10t-1 -15.5
t-0.5 -15.5v-10q0 -19 -19 -19q-3 0 -8.5 3.5t-11.5 8t-11.5 9.5t-8.5 8z" />
    <glyph glyph-name="Ograve" unicode="&#xd2;" horiz-adv-x="609" 
d="M364 657q-11 3 -26 13.5t-23 21.5q-3 3 -8.5 8t-12.5 10.5t-12.5 10t-8.5 6.5q-2 2 -7.5 8t-12 12.5t-12 12.5t-8.5 9q-5 2 -12.5 7t-15.5 11.5t-13.5 14t-5.5 14.5q0 3 4.5 10t10.5 13.5t12.5 12t9.5 5.5q8 0 13 -4.5t11 -9.5l4 -5l37 -20q8 -8 10 -11.5t4 -7.5l10 -14
q0 3 -2 5h4q8 -6 23 -25.5t29.5 -40.5t24.5 -38t8 -20q-2 -4 -7 -7t-9 -3h-8t-11 1zM15 384l4 5q-4 -2 -4 -4v10q0 1 4.5 7.5t11 16.5t13.5 23t12 28q2 5 6.5 8t4.5 5q0 16 17 19q-5 0 -1 7q5 7 7 13.5t17 7.5q5 5 11.5 8.5t13.5 4.5q4 9 11 16.5t15 15.5l7 5l3 5l11 17
q2 4 7 6.5t9 2.5q-1 0 7 4t20 9q13 6 27 13t28 12.5t26 9.5t21 4q2 0 9.5 -1t17.5 -3.5t20 -6t18 -8.5q10 -6 8.5 -17t-9.5 -16q8 -1 13 -8t3 -15q1 -2 5 -2h5q8 0 13.5 -5.5t5.5 -13.5q5 -2 9 -6q4 -3 8.5 -6.5t9.5 -6.5l18 -13q9 -4 15 -7t11 -8q4 3 9.5 -2t11.5 -15.5
t12.5 -24.5t14.5 -28l20 -39q1 -6 1.5 -19.5t1 -30.5t0.5 -36v-35l-12 -9q-3 -14 -9 -28.5t-12 -27.5l1 1l-6 -15q-2 -3 -12 -12.5t-18 -17.5l-3 -3q-4 -6 -7.5 -12.5t-8.5 -11.5q-8 -9 -15.5 -19.5t-9.5 -1.5q-7 -20 -23 -35.5t-31 -29.5q-13 0 -17 2q2 -2 2.5 -4t-4.5 -6
l-13 -10q-2 -2 -7.5 -5.5t-16.5 -9t-28 -13.5t-42 -18q-5 -2 -11.5 -1t-10.5 6q-2 0 -10 -2q-13 -5 -18 -5l-6 2q-6 2 -9 5q-62 2 -93.5 16t-51.5 34l13 -5l-11.5 12t-24.5 26.5t-24.5 27t-11.5 14.5l2 -2q-4 5 -6 13.5t-4 16.5q-4 10 -6.5 20.5t-2.5 12.5v6q0 8 0.5 21
t0.5 20q-5 10 -6 23t-1 22q0 5 0.5 8.5t0.5 5.5l17 76zM60 247q0 -8 2 -18.5t4.5 -20.5t5.5 -18t5 -10q6 -6 8 -12t4 -14q2 -5 4 -11t3 -8q0 3 2 1l10 -16l5 -4q9 -8 22 -16.5t18 -8.5q2 0 6.5 -1.5t6.5 -3.5q5 -5 20 -8q8 -2 13 -3.5t11 -3.5l41 4q26 6 45.5 11.5t35 13
t28 19t25.5 29.5q2 3 7 5.5t8 2.5q5 0 12 4l13 12q5 6 10 11t11 8q6 11 15.5 29t15.5 31v3q0 11 4.5 17.5t11.5 12.5q1 8 4 13t7 13q5 7 8 15t3 14q0 10 -2.5 31t-8.5 35q-10 10 -23.5 25.5t-25.5 30.5l-5 6q-13 5 -21 12t-18 18h1l-23 22q-6 6 -16 12t-20 10.5t-17 7.5
t-8 3q-2 0 -5 -0.5t-4 -1.5q-2 -2 -6.5 -4t-6.5 -2h-10q1 -1 -4 -4l-6 -4q-14 0 -20.5 4t-11.5 9q-1 0 -2 1q-1 -1 -3 -1l-28 -9l-4 -8q-2 -3 -4.5 -6.5t-8 -8t-15 -10.5t-25.5 -14h-2q-1 -4 -7 -12q-1 -12 -9.5 -22t-19.5 -18l-15 -13q-2 -17 -9 -34t-15 -31v1
q-5 -8 -8.5 -16t-3.5 -7q0 -8 -1.5 -16t-3.5 -19q-4 -17 -7 -33.5t-3 -25.5z" />
    <glyph glyph-name="Oacute" unicode="&#xd3;" horiz-adv-x="609" 
d="M203 731q4 2 14.5 7.5t15.5 9.5l17 18q8 8 17 16.5t11 10.5q1 1 9 3.5t13 4.5l8 17q3 13 17 15q7 0 13.5 -4t7.5 -12q-1 13 -6.5 15t-9.5 2q-2 0 -4 -1l8 6q11 8 23 15t29 7q8 0 13.5 -5.5t5.5 -13.5q0 -11 -3 -18t-7 -15q1 1 0.5 -0.5t-1.5 -3.5l-71 -71l-18 -13h1
q-15 -11 -24.5 -18t-15.5 -12.5t-10 -10.5t-7 -12q-2 -4 -7.5 -7.5t-9.5 -3.5h-6q-3 0 -6 0.5t-7 0.5q-17 0 -20 -2q-5 -6 -13 -6t-13 6q-5 5 -6 11.5t-1 8.5q0 18 8.5 22t17.5 9q2 2 4 2.5t2 -4.5l5 -5zM15 384l4 5q-4 -2 -4 -4v10q0 1 4.5 7.5t11 16.5t13.5 23t12 28
q2 5 6.5 8t4.5 5q0 16 17 19q-5 0 -1 7q5 7 7 13.5t17 7.5q5 5 11.5 8.5t13.5 4.5q4 9 11 16.5t15 15.5l7 5l3 5l11 17q2 4 7 6.5t9 2.5q-1 0 7 4t20 9q13 6 27 13t28 12.5t26 9.5t21 4q2 0 9.5 -1t17.5 -3.5t20 -6t18 -8.5q10 -6 8.5 -17t-9.5 -16q8 -1 13 -8t3 -15
q1 -2 5 -2h5q8 0 13.5 -5.5t5.5 -13.5q5 -2 9 -6q4 -3 8.5 -6.5t9.5 -6.5l18 -13q9 -4 15 -7t11 -8q4 3 9.5 -2t11.5 -15.5t12.5 -24.5t14.5 -28l20 -39q1 -6 1.5 -19.5t1 -30.5t0.5 -36v-35l-12 -9q-3 -14 -9 -28.5t-12 -27.5l1 1l-6 -15q-2 -3 -12 -12.5t-18 -17.5l-3 -3
q-4 -6 -7.5 -12.5t-8.5 -11.5q-8 -9 -15.5 -19.5t-9.5 -1.5q-7 -20 -23 -35.5t-31 -29.5q-13 0 -17 2q2 -2 2.5 -4t-4.5 -6l-13 -10q-2 -2 -7.5 -5.5t-16.5 -9t-28 -13.5t-42 -18q-5 -2 -11.5 -1t-10.5 6q-2 0 -10 -2q-13 -5 -18 -5l-6 2q-6 2 -9 5q-62 2 -93.5 16t-51.5 34
l13 -5l-11.5 12t-24.5 26.5t-24.5 27t-11.5 14.5l2 -2q-4 5 -6 13.5t-4 16.5q-4 10 -6.5 20.5t-2.5 12.5v6q0 8 0.5 21t0.5 20q-5 10 -6 23t-1 22q0 5 0.5 8.5t0.5 5.5l17 76zM60 247q0 -8 2 -18.5t4.5 -20.5t5.5 -18t5 -10q6 -6 8 -12t4 -14q2 -5 4 -11t3 -8q0 3 2 1
l10 -16l5 -4q9 -8 22 -16.5t18 -8.5q2 0 6.5 -1.5t6.5 -3.5q5 -5 20 -8q8 -2 13 -3.5t11 -3.5l41 4q26 6 45.5 11.5t35 13t28 19t25.5 29.5q2 3 7 5.5t8 2.5q5 0 12 4l13 12q5 6 10 11t11 8q6 11 15.5 29t15.5 31v3q0 11 4.5 17.5t11.5 12.5q1 8 4 13t7 13q5 7 8 15t3 14
q0 10 -2.5 31t-8.5 35q-10 10 -23.5 25.5t-25.5 30.5l-5 6q-13 5 -21 12t-18 18h1l-23 22q-6 6 -16 12t-20 10.5t-17 7.5t-8 3q-2 0 -5 -0.5t-4 -1.5q-2 -2 -6.5 -4t-6.5 -2h-10q1 -1 -4 -4l-6 -4q-14 0 -20.5 4t-11.5 9q-1 0 -2 1q-1 -1 -3 -1l-28 -9l-4 -8
q-2 -3 -4.5 -6.5t-8 -8t-15 -10.5t-25.5 -14h-2q-1 -4 -7 -12q-1 -12 -9.5 -22t-19.5 -18l-15 -13q-2 -17 -9 -34t-15 -31v1q-5 -8 -8.5 -16t-3.5 -7q0 -8 -1.5 -16t-3.5 -19q-4 -17 -7 -33.5t-3 -25.5z" />
    <glyph glyph-name="Ocircumflex" unicode="&#xd4;" horiz-adv-x="609" 
d="M202 753h-2l1 1h2q5 12 12.5 22t18.5 13h1q4 9 13 18q2 4 5 7.5t5 8.5q2 3 5 6.5t5 4.5q3 0 6 1.5t5 3.5q5 4 11 7.5t15 3.5q4 0 14 -4t20.5 -9t20 -9.5t12.5 -6.5l4 -14q2 -6 2.5 -11.5t1.5 -10.5q0 -2 0.5 -4.5t0.5 -4.5q5 -5 9.5 -11.5t8.5 -14.5l16 -27l6 -6
q6 -10 11 -21t5 -24q0 -8 -5.5 -13t-13.5 -5q-20 0 -31.5 3.5t-18.5 9.5t-10.5 14t-6.5 16l-4 10t-7 11l-17 26q-5 6 -8 11.5t-7 11.5q-5 -7 -10 -12.5t-10 -10.5l-14 -16q-2 -2 -6.5 -4t-6.5 -2h-4q2 -1 -2 -8q-3 -6 -7.5 -11.5t-9.5 -10.5q-9 -17 -18 -25.5t-18 -13
t-19 -5t-21 -0.5q-8 0 -13.5 5.5t-5.5 13.5q0 14 5.5 23t14.5 20q5 7 11 14.5t12 18.5zM15 384l4 5q-4 -2 -4 -4v10q0 1 4.5 7.5t11 16.5t13.5 23t12 28q2 5 6.5 8t4.5 5q0 16 17 19q-5 0 -1 7q5 7 7 13.5t17 7.5q5 5 11.5 8.5t13.5 4.5q4 9 11 16.5t15 15.5l7 5l3 5l11 17
q2 4 7 6.5t9 2.5q-1 0 7 4t20 9q13 6 27 13t28 12.5t26 9.5t21 4q2 0 9.5 -1t17.5 -3.5t20 -6t18 -8.5q10 -6 8.5 -17t-9.5 -16q8 -1 13 -8t3 -15q1 -2 5 -2h5q8 0 13.5 -5.5t5.5 -13.5q5 -2 9 -6q4 -3 8.5 -6.5t9.5 -6.5l18 -13q9 -4 15 -7t11 -8q4 3 9.5 -2t11.5 -15.5
t12.5 -24.5t14.5 -28l20 -39q1 -6 1.5 -19.5t1 -30.5t0.5 -36v-35l-12 -9q-3 -14 -9 -28.5t-12 -27.5l1 1l-6 -15q-2 -3 -12 -12.5t-18 -17.5l-3 -3q-4 -6 -7.5 -12.5t-8.5 -11.5q-8 -9 -15.5 -19.5t-9.5 -1.5q-7 -20 -23 -35.5t-31 -29.5q-13 0 -17 2q2 -2 2.5 -4t-4.5 -6
l-13 -10q-2 -2 -7.5 -5.5t-16.5 -9t-28 -13.5t-42 -18q-5 -2 -11.5 -1t-10.5 6q-2 0 -10 -2q-13 -5 -18 -5l-6 2q-6 2 -9 5q-62 2 -93.5 16t-51.5 34l13 -5l-11.5 12t-24.5 26.5t-24.5 27t-11.5 14.5l2 -2q-4 5 -6 13.5t-4 16.5q-4 10 -6.5 20.5t-2.5 12.5v6q0 8 0.5 21
t0.5 20q-5 10 -6 23t-1 22q0 5 0.5 8.5t0.5 5.5l17 76zM60 247q0 -8 2 -18.5t4.5 -20.5t5.5 -18t5 -10q6 -6 8 -12t4 -14q2 -5 4 -11t3 -8q0 3 2 1l10 -16l5 -4q9 -8 22 -16.5t18 -8.5q2 0 6.5 -1.5t6.5 -3.5q5 -5 20 -8q8 -2 13 -3.5t11 -3.5l41 4q26 6 45.5 11.5t35 13
t28 19t25.5 29.5q2 3 7 5.5t8 2.5q5 0 12 4l13 12q5 6 10 11t11 8q6 11 15.5 29t15.5 31v3q0 11 4.5 17.5t11.5 12.5q1 8 4 13t7 13q5 7 8 15t3 14q0 10 -2.5 31t-8.5 35q-10 10 -23.5 25.5t-25.5 30.5l-5 6q-13 5 -21 12t-18 18h1l-23 22q-6 6 -16 12t-20 10.5t-17 7.5
t-8 3q-2 0 -5 -0.5t-4 -1.5q-2 -2 -6.5 -4t-6.5 -2h-10q1 -1 -4 -4l-6 -4q-14 0 -20.5 4t-11.5 9q-1 0 -2 1q-1 -1 -3 -1l-28 -9l-4 -8q-2 -3 -4.5 -6.5t-8 -8t-15 -10.5t-25.5 -14h-2q-1 -4 -7 -12q-1 -12 -9.5 -22t-19.5 -18l-15 -13q-2 -17 -9 -34t-15 -31v1
q-5 -8 -8.5 -16t-3.5 -7q0 -8 -1.5 -16t-3.5 -19q-4 -17 -7 -33.5t-3 -25.5z" />
    <glyph glyph-name="Otilde" unicode="&#xd5;" horiz-adv-x="609" 
d="M267 707q-1 0 -1 0.5t-1 0.5q-10 5 -4 19q-12 4 -11 10t-1 8q-4 4 -4 8q-1 2 -2 3t-1 3q-3 1 -4 4h-6l-2 -1l2 2q-4 -3 -7.5 -6.5t-3.5 -4.5q-8 -16 -12.5 -28t-4.5 -15q0 -12 -11 -17v-3q0 -11 -8 -16t-18 -1l-22 10l-11 17q0 -6 -1 -3l-2 6q-2 4 -3.5 10t-1.5 8
q0 3 5 13.5t9 16.5q0 6 3.5 11t10.5 7q4 9 11 18l1 1l1 1q0 3 4 11.5t4 12.5q2 0 6 4q2 2 4 5l21 9q2 1 3.5 0t2.5 -7q1 6 7 11t14 3l23 -3l-3 -7h2q12 -2 18.5 -9t11.5 -15q3 1 7 0q9 -5 13 -15q0 -1 2 -3q2 -4 7 -10t12 -13q2 -2 3.5 -5.5t3.5 -5.5l1 -1q1 -2 4 -2l8 1
v-3.5t1 -3.5t3 1.5t4 13.5q-3 -2 -2 -0.5t2 3.5q4 6 11 10h-1q2 3 6 7t9 6q-10 0 -9.5 0.5l1.5 1.5v-1q5 13 11.5 27.5t26.5 14.5q14 0 19.5 -8t6.5 -19q14 -4 14 -18q0 -10 -5.5 -18.5t-10.5 -17.5q-5 -7 -8.5 -12t-3.5 -7q0 -8 -5 -13.5t-13 -5.5q-6 -6 -14 -4
q-8 -11 -17 -20t-13 -9q-2 0 -6 1.5t-6 3.5q3 -4 0.5 -5.5t-5.5 -2.5q-10 -5 -19 -5q-6 0 -9 2.5t-5 4.5l-3 3t-3 -3l5 -2q-3 0 -5 2q-27 14 -18 21q-5 4 -9 6.5t-9 5.5zM15 384l4 5q-4 -2 -4 -4v10q0 1 4.5 7.5t11 16.5t13.5 23t12 28q2 5 6.5 8t4.5 5q0 16 17 19
q-5 0 -1 7q5 7 7 13.5t17 7.5q5 5 11.5 8.5t13.5 4.5q4 9 11 16.5t15 15.5l7 5l3 5l11 17q2 4 7 6.5t9 2.5q-1 0 7 4t20 9q13 6 27 13t28 12.5t26 9.5t21 4q2 0 9.5 -1t17.5 -3.5t20 -6t18 -8.5q10 -6 8.5 -17t-9.5 -16q8 -1 13 -8t3 -15q1 -2 5 -2h5q8 0 13.5 -5.5
t5.5 -13.5q5 -2 9 -6q4 -3 8.5 -6.5t9.5 -6.5l18 -13q9 -4 15 -7t11 -8q4 3 9.5 -2t11.5 -15.5t12.5 -24.5t14.5 -28l20 -39q1 -6 1.5 -19.5t1 -30.5t0.5 -36v-35l-12 -9q-3 -14 -9 -28.5t-12 -27.5l1 1l-6 -15q-2 -3 -12 -12.5t-18 -17.5l-3 -3q-4 -6 -7.5 -12.5
t-8.5 -11.5q-8 -9 -15.5 -19.5t-9.5 -1.5q-7 -20 -23 -35.5t-31 -29.5q-13 0 -17 2q2 -2 2.5 -4t-4.5 -6l-13 -10q-2 -2 -7.5 -5.5t-16.5 -9t-28 -13.5t-42 -18q-5 -2 -11.5 -1t-10.5 6q-2 0 -10 -2q-13 -5 -18 -5l-6 2q-6 2 -9 5q-62 2 -93.5 16t-51.5 34l13 -5l-11.5 12
t-24.5 26.5t-24.5 27t-11.5 14.5l2 -2q-4 5 -6 13.5t-4 16.5q-4 10 -6.5 20.5t-2.5 12.5v6q0 8 0.5 21t0.5 20q-5 10 -6 23t-1 22q0 5 0.5 8.5t0.5 5.5l17 76zM60 247q0 -8 2 -18.5t4.5 -20.5t5.5 -18t5 -10q6 -6 8 -12t4 -14q2 -5 4 -11t3 -8q0 3 2 1l10 -16l5 -4
q9 -8 22 -16.5t18 -8.5q2 0 6.5 -1.5t6.5 -3.5q5 -5 20 -8q8 -2 13 -3.5t11 -3.5l41 4q26 6 45.5 11.5t35 13t28 19t25.5 29.5q2 3 7 5.5t8 2.5q5 0 12 4l13 12q5 6 10 11t11 8q6 11 15.5 29t15.5 31v3q0 11 4.5 17.5t11.5 12.5q1 8 4 13t7 13q5 7 8 15t3 14q0 10 -2.5 31
t-8.5 35q-10 10 -23.5 25.5t-25.5 30.5l-5 6q-13 5 -21 12t-18 18h1l-23 22q-6 6 -16 12t-20 10.5t-17 7.5t-8 3q-2 0 -5 -0.5t-4 -1.5q-2 -2 -6.5 -4t-6.5 -2h-10q1 -1 -4 -4l-6 -4q-14 0 -20.5 4t-11.5 9q-1 0 -2 1q-1 -1 -3 -1l-28 -9l-4 -8q-2 -3 -4.5 -6.5t-8 -8
t-15 -10.5t-25.5 -14h-2q-1 -4 -7 -12q-1 -12 -9.5 -22t-19.5 -18l-15 -13q-2 -17 -9 -34t-15 -31v1q-5 -8 -8.5 -16t-3.5 -7q0 -8 -1.5 -16t-3.5 -19q-4 -17 -7 -33.5t-3 -25.5z" />
    <glyph glyph-name="Odieresis" unicode="&#xd6;" horiz-adv-x="609" 
d="M232 795q14 0 21 -3.5t10 -10t3.5 -15t0.5 -17.5q0 -23 -8 -36t-30 -13q-8 0 -15 3h-4q-11 0 -17 9q-5 4 -9 8.5t-4 14.5q0 23 11.5 41.5t40.5 18.5zM302 743q0 8 2 18t5 15q3 7 15 12.5t17 5.5q7 0 15.5 -6t16.5 -13.5t13.5 -14.5t5.5 -8q0 -21 -5.5 -28t-13.5 -12
l-8 -6q-1 -1 -5 -2.5t-7 -2.5h3q-8 -4 -13 -4q-11 0 -19 6t-13 13.5t-7 15.5t-2 11zM251 736l-6 -1l4 -2zM251 736l-6 -1l4 -2zM15 384l4 5q-4 -2 -4 -4v10q0 1 4.5 7.5t11 16.5t13.5 23t12 28q2 5 6.5 8t4.5 5q0 16 17 19q-5 0 -1 7q5 7 7 13.5t17 7.5q5 5 11.5 8.5
t13.5 4.5q4 9 11 16.5t15 15.5l7 5l3 5l11 17q2 4 7 6.5t9 2.5q-1 0 7 4t20 9q13 6 27 13t28 12.5t26 9.5t21 4q2 0 9.5 -1t17.5 -3.5t20 -6t18 -8.5q10 -6 8.5 -17t-9.5 -16q8 -1 13 -8t3 -15q1 -2 5 -2h5q8 0 13.5 -5.5t5.5 -13.5q5 -2 9 -6q4 -3 8.5 -6.5t9.5 -6.5
l18 -13q9 -4 15 -7t11 -8q4 3 9.5 -2t11.5 -15.5t12.5 -24.5t14.5 -28l20 -39q1 -6 1.5 -19.5t1 -30.5t0.5 -36v-35l-12 -9q-3 -14 -9 -28.5t-12 -27.5l1 1l-6 -15q-2 -3 -12 -12.5t-18 -17.5l-3 -3q-4 -6 -7.5 -12.5t-8.5 -11.5q-8 -9 -15.5 -19.5t-9.5 -1.5
q-7 -20 -23 -35.5t-31 -29.5q-13 0 -17 2q2 -2 2.5 -4t-4.5 -6l-13 -10q-2 -2 -7.5 -5.5t-16.5 -9t-28 -13.5t-42 -18q-5 -2 -11.5 -1t-10.5 6q-2 0 -10 -2q-13 -5 -18 -5l-6 2q-6 2 -9 5q-62 2 -93.5 16t-51.5 34l13 -5l-11.5 12t-24.5 26.5t-24.5 27t-11.5 14.5l2 -2
q-4 5 -6 13.5t-4 16.5q-4 10 -6.5 20.5t-2.5 12.5v6q0 8 0.5 21t0.5 20q-5 10 -6 23t-1 22q0 5 0.5 8.5t0.5 5.5l17 76zM60 247q0 -8 2 -18.5t4.5 -20.5t5.5 -18t5 -10q6 -6 8 -12t4 -14q2 -5 4 -11t3 -8q0 3 2 1l10 -16l5 -4q9 -8 22 -16.5t18 -8.5q2 0 6.5 -1.5t6.5 -3.5
q5 -5 20 -8q8 -2 13 -3.5t11 -3.5l41 4q26 6 45.5 11.5t35 13t28 19t25.5 29.5q2 3 7 5.5t8 2.5q5 0 12 4l13 12q5 6 10 11t11 8q6 11 15.5 29t15.5 31v3q0 11 4.5 17.5t11.5 12.5q1 8 4 13t7 13q5 7 8 15t3 14q0 10 -2.5 31t-8.5 35q-10 10 -23.5 25.5t-25.5 30.5l-5 6
q-13 5 -21 12t-18 18h1l-23 22q-6 6 -16 12t-20 10.5t-17 7.5t-8 3q-2 0 -5 -0.5t-4 -1.5q-2 -2 -6.5 -4t-6.5 -2h-10q1 -1 -4 -4l-6 -4q-14 0 -20.5 4t-11.5 9q-1 0 -2 1q-1 -1 -3 -1l-28 -9l-4 -8q-2 -3 -4.5 -6.5t-8 -8t-15 -10.5t-25.5 -14h-2q-1 -4 -7 -12
q-1 -12 -9.5 -22t-19.5 -18l-15 -13q-2 -17 -9 -34t-15 -31v1q-5 -8 -8.5 -16t-3.5 -7q0 -8 -1.5 -16t-3.5 -19q-4 -17 -7 -33.5t-3 -25.5z" />
    <glyph glyph-name="multiply" unicode="&#xd7;" horiz-adv-x="334" 
d="M149 228l-4 -8l-28 -28l-8 -15q-5 -9 -8 -17.5t-12 -16.5l-12 -8l-1 -1l-7 -5q-2 -2 -2 -5q-5 -10 -13 -17t-22 -7q-19 0 -19 19q0 4 1.5 17t2.5 18q-1 14 5.5 20t13.5 11q1 0 2 1l7 21v-1q3 14 7.5 24t15.5 12q1 6 5 10.5t9 9.5v5q0 2 1.5 7t3.5 7q3 2 5 5q4 6 5 10
q-1 -3 -4 -2t-5 4l-7 8q-2 1 -3.5 5t-2.5 6v-1l-12 22q-5 9 -11 16t-13 13l-13 14q-17 1 -28 6.5t-11 22.5q0 11 8 24.5t18 13.5h44q17 0 19 -17h1v-2q1 0 3 -1q5 -4 11 -6t7 -15q5 -7 14.5 -19t23.5 -35q14 2 20 11t11 20l-1 -3l5 10q13 12 16.5 20.5t6 14.5t9 11.5
t26.5 11.5q14 0 17.5 -2t10.5 -8h-1q7 -4 9.5 -11t-1.5 -15l-30 -60q-8 -8 -20.5 -24.5t-21.5 -29.5v1l-7 -9l5 -7q20 -10 26 -17.5t9 -18.5q-1 1 0 -1l2 -4q8 -8 19 -20t17 -26q9 -2 17.5 -8t15.5 -16.5t11.5 -27t4.5 -40.5q0 -8 -5 -13t-13 -5q-2 0 -8 0.5t-8 1.5
q-12 4 -14 15v-2l-45 43q-2 2 -3.5 6.5t-1.5 6.5t-7.5 6.5t-15.5 6.5q-5 7 -9 11.5t-6 6.5q-3 3 -7 8.5t-6 8.5zM75 316q0 -3 2 -4z" />
    <glyph glyph-name="Oslash" unicode="&#xd8;" horiz-adv-x="609" 
d="M139 -61q0 1 0.5 3t0.5 4v7l8 35v8l4 22q-2 0 -2.5 0.5t-2.5 0.5q-8 2 -15.5 3.5t-10.5 2.5l-21 15q-14 6 -27 19l13 -5l-11.5 12t-24.5 26.5t-24.5 27t-11.5 14.5l2 -2q-4 5 -6 13.5t-4 16.5q-4 10 -6.5 20.5t-2.5 12.5v6q0 8 0.5 21t0.5 20q-5 10 -6 23t-1 22
q0 5 0.5 8.5t0.5 5.5l17 76q0 3 6 9v9q0 1 3.5 8.5t9 18t12 22t13.5 20.5l9 14l6 10t5 7v1l22 28q2 2 6 3.5t6 2.5q5 5 11.5 8.5t13.5 4.5q4 9 10.5 16.5t14.5 15.5v-1l8 6l5 10v-1q5 8 10.5 15t19.5 12l23 8q8 5 19.5 12.5t21.5 9.5l47 17h27l22 -7q1 1 1.5 3.5t0.5 4.5
l15 14q4 1 17 3.5t17 2.5q8 0 13 -5.5t5 -13.5q0 -4 -0.5 -15.5t-2.5 -17.5q0 -1 -1 -3q-2 -4 -3 -5t-1 -2t-1 -1q-1 -4 -2 -17t-1 -16q0 -4 -1 -5q5 -3 8.5 -6t6.5 -5q5 -5 11.5 -10t19.5 -12l15 -14q21 -7 31.5 -18t17.5 -22q2 -4 8 -9l38 -76q1 -6 1.5 -20t1 -31
t0.5 -35.5v-34.5l-12 -9q-3 -14 -9 -28.5t-12 -27.5l1 1l-6 -15q-2 -3 -12 -12.5t-18 -17.5l-3 -3l-6 -11l-7 -11l-22 -20q0 -2 -6 -9.5t-15 -18t-19.5 -21.5t-19.5 -19h-9l-29 -23l1 1q-3 -2 -8 -6t-17 -8l-20 -8l-44 -20q-13 -7 -23 5q-1 0 -9 -2q-13 -5 -18 -5l-4 2
q-2 1 -3.5 1.5t-3.5 1.5v-17q0 -5 -3 -10.5t-7 -10.5l-30 -57q-5 -8 -14 -9.5t-16 6.5q-5 5 -9 10t-4 20zM75 323q-5 -8 -9 -25.5t-6 -37.5v-23q4 -16 9.5 -35.5t10.5 -24.5l15 -39v1q2 -5 7 -11.5t9 -10.5l29 -14q8 -8 16 -11.5t22 -8.5q4 8 7 15t6 12q0 -1 1 -2v15l7 15v3
q0 2 1.5 7t3.5 6l2 1v15q1 4 4 8q3 6 9 12l3 3l7 11q0 3 0.5 5l1.5 6q2 11 2.5 21t3.5 21q1 2 2 5.5t2 5.5q1 3 2 5v17q6 10 11 20q4 8 7.5 15.5t4.5 9.5l-1 -2l3 21v1q1 12 5 24q1 8 4 9.5t6 6.5q1 2 2.5 2.5t1.5 -2.5v20q1 3 2 7q2 6 4 10v-1l25 54q2 5 2.5 12.5t0.5 10.5
q0 7 4 12q-1 4 -1 14q0 7 2 10.5t4 6.5h-2q-1 0 -1 1q-2 0 -4.5 -0.5t-3.5 -1.5q-2 -2 -6.5 -4t-6.5 -2h-7l-2 -1q-2 -2 -7 -4t-7 -2l-2 -1q-11 0 -16.5 4t-10.5 9q-1 0 -2 1l-4 -5l-29 -7q-6 -12 -16.5 -21t-24.5 -17l-15 -7h-1q-2 -5 -5.5 -9.5t-8.5 -7.5q-5 -11 -11 -22
t-13 -18l-11 -6l-2 -5v-7l-31 -64l-3 -6t-2 -5v-20zM394 514q-2 -5 -3 -8.5t-1 -4.5l-8 -14v1q-17 -56 -36.5 -112.5t-36.5 -111.5q-1 -1 -2 -7.5t-3 -13.5q-1 -3 -1 -6q0 -1 -1 -2q-2 -5 -6 -18.5t-8 -21.5l-8 -30l-15 -56l-18 -34h15q21 6 38 11.5t31.5 13.5t27.5 19.5
t26 29.5q2 3 7 5t8 2h4l10 6q5 4 12.5 12t8.5 10q3 5 13 9l29 58v3q0 12 4.5 18t10.5 11l2 3l1 2q3 8 7 18.5t8 17.5l4 4q0 3 0.5 6t0.5 5q0 10 -2.5 31t-8.5 35l-9 8q-4 8 -12 16.5t-17 18.5v1q-5 6 -9.5 10.5l-9.5 9.5q-6 4 -13 8.5t-9 6.5z" />
    <glyph glyph-name="Ugrave" unicode="&#xd9;" horiz-adv-x="480" 
d="M259 657q-10 3 -25.5 13.5t-23.5 21.5q-3 3 -8.5 8t-12.5 10.5t-12.5 10t-8.5 6.5q-2 2 -7 8t-11.5 12.5l-12.5 12.5l-9 9q-4 2 -12 7t-15.5 11.5t-13.5 14t-6 14.5q0 3 4.5 10t10.5 13.5t12.5 12t9.5 5.5q8 0 13 -4.5t11 -9.5l5 -5l36 -20q8 -8 10 -11.5t5 -7.5l9 -14
q0 3 -2 5h4q8 -6 23 -25.5t29.5 -40.5t24.5 -38t9 -20q-2 -4 -7.5 -7t-8.5 -3h-8.5t-11.5 1zM355 67q0 4 2 6l-2 3v11q0 4 -0.5 10t-0.5 9q0 4 0.5 12t0.5 15v8q0 7 1 13t-5 4q0 -1 -1 -2q-2 -2 -6.5 -3.5t-6.5 -1.5h-4q3 -1 3.5 -4.5t-3.5 -6.5q-5 -4 -7 -10t-10 -15
q-8 -16 -16.5 -22.5t-28.5 -12.5q-9 -9 -24 -17t-28 -13l-7 -2q-5 0 -7 1q-9 -3 -19 -3q-6 0 -10 3q-5 0 -19.5 2t-22.5 4h1q-1 0 -1 1q-14 0 -18 13l-3 8q-2 0 -3 1l2 -2l-21 13l-8 14l-6 7q-3 1 -3 4q-11 5 -20.5 12.5t-11.5 25.5q-6 8 -5 13t6 9v1q-3 5 -5.5 9.5
t-2.5 9.5v10q0 13 14 15q-13 11 -25 23.5t-12 23.5q0 2 3 7q-3 11 -4 25.5t-2 33.5l-3 63l1 -1l-1 2q0 1 -0.5 1.5t-0.5 2.5q-3 -3 0 -3q-1 1 -1.5 2t-1.5 2l-2 2l-4 16q-3 10 -5 19.5t-2 22.5t2.5 19.5t6.5 12.5v1q-2 6 -4 11t-3 8.5t-1 5.5v7q0 1 -0.5 3t1.5 6q1 9 4 21.5
t9 23.5t16 17.5t25 2.5q9 -2 15.5 -7.5t10.5 -10.5l3 -3q2 -2 4 -6.5t2 -6.5t-1 -8.5t-4 -13.5v2q-3 -9 -6 -20.5t-3 -17.5q0 -2 1 -11t2 -19q2 -9 2.5 -18t0.5 -11q0 -4 -1 -15l-2 -22q-2 -11 -2.5 -19.5t-0.5 -10.5v-7l1 -6.5t2 -14.5t2.5 -15.5t1.5 -9.5q-1 -2 1 -9
t5 -15q3 -9 7 -19v-10q5 -12 10 -30.5t5 -31.5q0 -7 -1 -8q9 0 13.5 -4.5t4.5 -24.5l45 -45q2 -2 3.5 -6.5t1.5 -6.5q0 -7 16 -9q19 17 30.5 23t22.5 11l-1 -1q7 3 11 4t12 8v4q0 8 5 15t12 12l6 7l5 8q5 7 10 16.5t11 15.5q2 2 4 7.5t6 10.5q-4 7 2 16q2 4 3 6.5l3 7.5
q2 6 3.5 12t6.5 13q3 4 6.5 12t6.5 17.5t4.5 18.5t1.5 14q1 3 2 7q1 3 2 6.5t2 5.5q0 1 1 1q0 18 1.5 37.5t1.5 36.5l4 8v1q2 10 2 14q0 11 -1.5 17.5t-3.5 11.5q-4 11 -4 22q0 8 1.5 12t4.5 9v-1q1 2 2 5t1 13q0 8 -1 13t-3 9v-1q-2 5 -3.5 9t-1.5 10q0 4 -0.5 11t-0.5 14
v12.5v7.5q0 8 5 13.5t13 5.5t18 -3t18.5 -9t14.5 -14.5t6 -19.5v-418q0 -2 -2 -7t-4 -6l-2 -2q0 -4 0.5 -8.5t0.5 -9.5q0 -16 -2 -23.5t-4 -12.5q3 -7 8 -21t5 -26q0 -5 -3.5 -11.5t-8.5 -13.5q5 -6 4.5 -15t-7.5 -14q3 -11 3.5 -23.5t0.5 -22.5q0 -8 -5.5 -13.5t-13.5 -5.5
q-16 0 -33.5 6.5t-17.5 22.5v59z" />
    <glyph glyph-name="Uacute" unicode="&#xda;" horiz-adv-x="480" 
d="M150 731q13 5 24.5 15.5t23.5 22.5l27 25q5 4 8.5 6t10.5 3l-1 -1q3 1 6 3.5t5 12.5q1 8 6 11t11 4l-2 -2l3 2q7 0 13.5 -4.5t6.5 -12.5q0 14 -5 16t-10 2h-4l9 6q11 8 22.5 14.5t28.5 6.5q8 0 13.5 -5.5t5.5 -13.5q0 -1 -0.5 -3t-0.5 -4v-5q0 -2 -2 -7t-4 -6q-1 0 -1 -1
v-3q-4 -8 -13 -20.5t-33 -36.5l-9 -5l-6 -3q-19 -19 -34 -30l-32 -30q-10 -2 -14 -6.5t-8 -13.5q-2 -4 -7.5 -7.5t-9.5 -3.5h-5q-3 0 -6 0.5t-7 0.5q-17 0 -20 -2q-9 -9 -22 -4q-9 4 -10.5 13t-1.5 11q0 18 8.5 22t18.5 9q5 5 5 -2l5 -5zM273 834l-1 -1h-1q1 0 1 0.5t1 0.5z
M355 67q0 4 2 6l-2 3v11q0 4 -0.5 10t-0.5 9q0 4 0.5 12t0.5 15v8q0 7 1 13t-5 4q0 -1 -1 -2q-2 -2 -6.5 -3.5t-6.5 -1.5h-4q3 -1 3.5 -4.5t-3.5 -6.5q-5 -4 -7 -10t-10 -15q-8 -16 -16.5 -22.5t-28.5 -12.5q-9 -9 -24 -17t-28 -13l-7 -2q-5 0 -7 1q-9 -3 -19 -3q-6 0 -10 3
q-5 0 -19.5 2t-22.5 4h1q-1 0 -1 1q-14 0 -18 13l-3 8q-2 0 -3 1l2 -2l-21 13l-8 14l-6 7q-3 1 -3 4q-11 5 -20.5 12.5t-11.5 25.5q-6 8 -5 13t6 9v1q-3 5 -5.5 9.5t-2.5 9.5v10q0 13 14 15q-13 11 -25 23.5t-12 23.5q0 2 3 7q-3 11 -4 25.5t-2 33.5l-3 63l1 -1l-1 2
q0 1 -0.5 1.5t-0.5 2.5q-3 -3 0 -3q-1 1 -1.5 2t-1.5 2l-2 2l-4 16q-3 10 -5 19.5t-2 22.5t2.5 19.5t6.5 12.5v1q-2 6 -4 11t-3 8.5t-1 5.5v7q0 1 -0.5 3t1.5 6q1 9 4 21.5t9 23.5t16 17.5t25 2.5q9 -2 15.5 -7.5t10.5 -10.5l3 -3q2 -2 4 -6.5t2 -6.5t-1 -8.5t-4 -13.5v2
q-3 -9 -6 -20.5t-3 -17.5q0 -2 1 -11t2 -19q2 -9 2.5 -18t0.5 -11q0 -4 -1 -15l-2 -22q-2 -11 -2.5 -19.5t-0.5 -10.5v-7l1 -6.5t2 -14.5t2.5 -15.5t1.5 -9.5q-1 -2 1 -9t5 -15q3 -9 7 -19v-10q5 -12 10 -30.5t5 -31.5q0 -7 -1 -8q9 0 13.5 -4.5t4.5 -24.5l45 -45
q2 -2 3.5 -6.5t1.5 -6.5q0 -7 16 -9q19 17 30.5 23t22.5 11l-1 -1q7 3 11 4t12 8v4q0 8 5 15t12 12l6 7l5 8q5 7 10 16.5t11 15.5q2 2 4 7.5t6 10.5q-4 7 2 16q2 4 3 6.5l3 7.5q2 6 3.5 12t6.5 13q3 4 6.5 12t6.5 17.5t4.5 18.5t1.5 14q1 3 2 7q1 3 2 6.5t2 5.5q0 1 1 1
q0 18 1.5 37.5t1.5 36.5l4 8v1q2 10 2 14q0 11 -1.5 17.5t-3.5 11.5q-4 11 -4 22q0 8 1.5 12t4.5 9v-1q1 2 2 5t1 13q0 8 -1 13t-3 9v-1q-2 5 -3.5 9t-1.5 10q0 4 -0.5 11t-0.5 14v12.5v7.5q0 8 5 13.5t13 5.5t18 -3t18.5 -9t14.5 -14.5t6 -19.5v-418q0 -2 -2 -7t-4 -6
l-2 -2q0 -4 0.5 -8.5t0.5 -9.5q0 -16 -2 -23.5t-4 -12.5q3 -7 8 -21t5 -26q0 -5 -3.5 -11.5t-8.5 -13.5q5 -6 4.5 -15t-7.5 -14q3 -11 3.5 -23.5t0.5 -22.5q0 -8 -5.5 -13.5t-13.5 -5.5q-16 0 -33.5 6.5t-17.5 22.5v59z" />
    <glyph glyph-name="Ucircumflex" unicode="&#xdb;" horiz-adv-x="480" 
d="M109 753h-3l1 1h3q5 12 12 22t18 13h2q3 6 6 10.5t7 9.5q3 4 5.5 7t4.5 7q1 3 4 6.5t6 4.5q3 0 5.5 1.5t4.5 3.5q5 4 11 7.5t16 3.5q1 0 3.5 -0.5t6.5 -0.5q21 -7 33.5 -14t18.5 -14t8 -15t4 -17l3 -13q4 -5 8.5 -13t8.5 -13l16 -27l6 -6q6 -10 11 -21t5 -24
q0 -8 -5.5 -13t-13.5 -5q-13 0 -29 4.5t-29 13.5l-5 19q-2 6 -4.5 12.5t-9.5 9.5q-8 15 -16 29.5t-17 25.5q-4 -7 -9.5 -12.5t-10.5 -11.5l-14 -16q-2 -2 -7 -4t-7 -2h-3q3 -2 -1 -8q-3 -5 -8 -12t-10 -11q-9 -17 -18 -26t-18.5 -12.5t-19 -4t-20.5 -0.5q-19 0 -19 19
q0 14 5 23t14 20q5 7 11.5 14.5t11.5 18.5zM355 67q0 4 2 6l-2 3v11q0 4 -0.5 10t-0.5 9q0 4 0.5 12t0.5 15v8q0 7 1 13t-5 4q0 -1 -1 -2q-2 -2 -6.5 -3.5t-6.5 -1.5h-4q3 -1 3.5 -4.5t-3.5 -6.5q-5 -4 -7 -10t-10 -15q-8 -16 -16.5 -22.5t-28.5 -12.5q-9 -9 -24 -17
t-28 -13l-7 -2q-5 0 -7 1q-9 -3 -19 -3q-6 0 -10 3q-5 0 -19.5 2t-22.5 4h1q-1 0 -1 1q-14 0 -18 13l-3 8q-2 0 -3 1l2 -2l-21 13l-8 14l-6 7q-3 1 -3 4q-11 5 -20.5 12.5t-11.5 25.5q-6 8 -5 13t6 9v1q-3 5 -5.5 9.5t-2.5 9.5v10q0 13 14 15q-13 11 -25 23.5t-12 23.5
q0 2 3 7q-3 11 -4 25.5t-2 33.5l-3 63l1 -1l-1 2q0 1 -0.5 1.5t-0.5 2.5q-3 -3 0 -3q-1 1 -1.5 2t-1.5 2l-2 2l-4 16q-3 10 -5 19.5t-2 22.5t2.5 19.5t6.5 12.5v1q-2 6 -4 11t-3 8.5t-1 5.5v7q0 1 -0.5 3t1.5 6q1 9 4 21.5t9 23.5t16 17.5t25 2.5q9 -2 15.5 -7.5t10.5 -10.5
l3 -3q2 -2 4 -6.5t2 -6.5t-1 -8.5t-4 -13.5v2q-3 -9 -6 -20.5t-3 -17.5q0 -2 1 -11t2 -19q2 -9 2.5 -18t0.5 -11q0 -4 -1 -15l-2 -22q-2 -11 -2.5 -19.5t-0.5 -10.5v-7l1 -6.5t2 -14.5t2.5 -15.5t1.5 -9.5q-1 -2 1 -9t5 -15q3 -9 7 -19v-10q5 -12 10 -30.5t5 -31.5
q0 -7 -1 -8q9 0 13.5 -4.5t4.5 -24.5l45 -45q2 -2 3.5 -6.5t1.5 -6.5q0 -7 16 -9q19 17 30.5 23t22.5 11l-1 -1q7 3 11 4t12 8v4q0 8 5 15t12 12l6 7l5 8q5 7 10 16.5t11 15.5q2 2 4 7.5t6 10.5q-4 7 2 16q2 4 3 6.5l3 7.5q2 6 3.5 12t6.5 13q3 4 6.5 12t6.5 17.5t4.5 18.5
t1.5 14q1 3 2 7q1 3 2 6.5t2 5.5q0 1 1 1q0 18 1.5 37.5t1.5 36.5l4 8v1q2 10 2 14q0 11 -1.5 17.5t-3.5 11.5q-4 11 -4 22q0 8 1.5 12t4.5 9v-1q1 2 2 5t1 13q0 8 -1 13t-3 9v-1q-2 5 -3.5 9t-1.5 10q0 4 -0.5 11t-0.5 14v12.5v7.5q0 8 5 13.5t13 5.5t18 -3t18.5 -9
t14.5 -14.5t6 -19.5v-418q0 -2 -2 -7t-4 -6l-2 -2q0 -4 0.5 -8.5t0.5 -9.5q0 -16 -2 -23.5t-4 -12.5q3 -7 8 -21t5 -26q0 -5 -3.5 -11.5t-8.5 -13.5q5 -6 4.5 -15t-7.5 -14q3 -11 3.5 -23.5t0.5 -22.5q0 -8 -5.5 -13.5t-13.5 -5.5q-16 0 -33.5 6.5t-17.5 22.5v59z" />
    <glyph glyph-name="Udieresis" unicode="&#xdc;" horiz-adv-x="480" 
d="M157 795q15 0 22.5 -3.5t10.5 -10t3.5 -15t0.5 -17.5q0 -21 -6.5 -35t-33.5 -14h-6t-8 2q-2 0 -2.5 0.5t-2.5 0.5q-11 0 -17 9l-8.5 8.5t-4.5 14.5q0 23 12.5 41.5t39.5 18.5zM229 741q0 8 1 18t5 17q0 1 2 3q6 5 16 10t14 5q8 0 17 -6.5t16.5 -14t12.5 -14.5l5 -7
q0 -21 -6 -29t-14 -13q-2 -2 -4.5 -3.5t-1.5 -0.5l-12 -5h2q-6 -4 -14 -4q-12 0 -19.5 6.5t-12 14t-6 14.5t-1.5 9zM355 67q0 4 2 6l-2 3v11q0 4 -0.5 10t-0.5 9q0 4 0.5 12t0.5 15v8q0 7 1 13t-5 4q0 -1 -1 -2q-2 -2 -6.5 -3.5t-6.5 -1.5h-4q3 -1 3.5 -4.5t-3.5 -6.5
q-5 -4 -7 -10t-10 -15q-8 -16 -16.5 -22.5t-28.5 -12.5q-9 -9 -24 -17t-28 -13l-7 -2q-5 0 -7 1q-9 -3 -19 -3q-6 0 -10 3q-5 0 -19.5 2t-22.5 4h1q-1 0 -1 1q-14 0 -18 13l-3 8q-2 0 -3 1l2 -2l-21 13l-8 14l-6 7q-3 1 -3 4q-11 5 -20.5 12.5t-11.5 25.5q-6 8 -5 13t6 9v1
q-3 5 -5.5 9.5t-2.5 9.5v10q0 13 14 15q-13 11 -25 23.5t-12 23.5q0 2 3 7q-3 11 -4 25.5t-2 33.5l-3 63l1 -1l-1 2q0 1 -0.5 1.5t-0.5 2.5q-3 -3 0 -3q-1 1 -1.5 2t-1.5 2l-2 2l-4 16q-3 10 -5 19.5t-2 22.5t2.5 19.5t6.5 12.5v1q-2 6 -4 11t-3 8.5t-1 5.5v7q0 1 -0.5 3
t1.5 6q1 9 4 21.5t9 23.5t16 17.5t25 2.5q9 -2 15.5 -7.5t10.5 -10.5l3 -3q2 -2 4 -6.5t2 -6.5t-1 -8.5t-4 -13.5v2q-3 -9 -6 -20.5t-3 -17.5q0 -2 1 -11t2 -19q2 -9 2.5 -18t0.5 -11q0 -4 -1 -15l-2 -22q-2 -11 -2.5 -19.5t-0.5 -10.5v-7l1 -6.5t2 -14.5t2.5 -15.5
t1.5 -9.5q-1 -2 1 -9t5 -15q3 -9 7 -19v-10q5 -12 10 -30.5t5 -31.5q0 -7 -1 -8q9 0 13.5 -4.5t4.5 -24.5l45 -45q2 -2 3.5 -6.5t1.5 -6.5q0 -7 16 -9q19 17 30.5 23t22.5 11l-1 -1q7 3 11 4t12 8v4q0 8 5 15t12 12l6 7l5 8q5 7 10 16.5t11 15.5q2 2 4 7.5t6 10.5q-4 7 2 16
q2 4 3 6.5l3 7.5q2 6 3.5 12t6.5 13q3 4 6.5 12t6.5 17.5t4.5 18.5t1.5 14q1 3 2 7q1 3 2 6.5t2 5.5q0 1 1 1q0 18 1.5 37.5t1.5 36.5l4 8v1q2 10 2 14q0 11 -1.5 17.5t-3.5 11.5q-4 11 -4 22q0 8 1.5 12t4.5 9v-1q1 2 2 5t1 13q0 8 -1 13t-3 9v-1q-2 5 -3.5 9t-1.5 10
q0 4 -0.5 11t-0.5 14v12.5v7.5q0 8 5 13.5t13 5.5t18 -3t18.5 -9t14.5 -14.5t6 -19.5v-418q0 -2 -2 -7t-4 -6l-2 -2q0 -4 0.5 -8.5t0.5 -9.5q0 -16 -2 -23.5t-4 -12.5q3 -7 8 -21t5 -26q0 -5 -3.5 -11.5t-8.5 -13.5q5 -6 4.5 -15t-7.5 -14q3 -11 3.5 -23.5t0.5 -22.5
q0 -8 -5.5 -13.5t-13.5 -5.5q-16 0 -33.5 6.5t-17.5 22.5v59z" />
    <glyph glyph-name="Yacute" unicode="&#xdd;" horiz-adv-x="440" 
d="M251 833q7 0 13.5 -4.5t6.5 -12.5q0 14 -5.5 16t-10.5 2q-2 0 -4 -1l8 6q11 8 24.5 15.5t31.5 3.5q4 -1 8.5 -5t6.5 -9q1 -4 1.5 -9.5t-4 -15.5t-16.5 -25.5t-34 -38.5l-15 -7q-4 -2 -8 -6.5t-9 -8.5q-3 -3 -8.5 -7.5t-10 -8t-7.5 -6t-2 -2.5q-8 -8 -14.5 -13t-11.5 -8
q-5 -5 -9 -8.5t-8 -11.5q-2 -4 -7.5 -7.5t-9.5 -3.5h-5q-3 0 -6.5 0.5t-6.5 0.5q-17 0 -20 -2q-6 -6 -13.5 -6t-12.5 6q-5 5 -6 11.5t-1 8.5q0 18 8.5 22t17.5 9q2 2 4 2.5t2 -4.5q0 -1 1 -2l3 -3l7 31q11 4 22 14t22 21v-1q7 8 15 16t19 16l18 5h1l8 16q1 7 5.5 10.5
t10.5 4.5h1zM209 -155q6 -2 9 -2q7 6 21 11l1 1q4 2 6 0q4 14 12.5 24.5t14.5 15.5q1 4 3 7.5t4 8.5l-1 -1q5 13 10.5 28t5.5 17v15.5t0.5 14.5t2 8t5.5 -4q-2 4 -1.5 12.5t2 18t3 18.5t1.5 14q0 17 -5 32v71l-18 -39l-11 -15l1 1l-5 -9l-19 -18q-2 -1 -5.5 -6t-6.5 -11v1
q-6 -11 -13 -18t-18 -8l-2 -4q-16 -10 -36.5 -14t-30.5 -4h-27q-11 0 -24 1q-6 1 -12.5 5.5t-11.5 8.5q-5 1 -11 5.5t-11 9.5q-6 6 -13 14l1 -1q0 4 -1 8t-1.5 7.5t0.5 8.5q-4 5 -7.5 9.5t-3.5 15.5v6q-3 3 -5 8t-2 8v28q0 2 -2 6q-6 9 -6 18q0 6 6 12q-2 9 -4 19t-2 13v164
q-6 6 -6 10l-8 39v40q0 8 1 18t3 20q2 11 4 24q1 6 6.5 10.5t11.5 4.5h30q7 0 12 -5t6 -12l8 -51q0 -3 -2 -8t-4 -7l-3 -3q2 -7 9 -17v-13l-8 -21q0 -4 -0.5 -13t-0.5 -19v-33v-31t1 -24t2.5 -22t3.5 -27l2 -16l7 -34v-17l7 -36q0 -4 -1 -6q4 -2 6.5 -4t2.5 -8l15 -23
q0 -2 -0.5 -4.5t-0.5 -5.5l-4 1q2 -2 3 -2h1v-2q0 1 1 2l10 -5q-2 3 2.5 3.5t9.5 -0.5q7 -1 12.5 -1t7.5 -1q5 5 11.5 9.5t13.5 6.5q1 0 4 -0.5t5 -0.5q6 0 12 5.5t11 14t9 17.5t6 16q2 10 10 13q3 3 6 5.5t6 6.5l4 4q1 1 3.5 8.5l4.5 13.5q15 61 28 58l3 12l15 32l4 10t2 4
q7 11 7 20t2 18q1 8 2 15.5t4 13.5l-6 47q0 3 1.5 8t3.5 7l5 5q0 1 2 3l2 2v109q0 3 1 5v1q-1 3 -1 6q-1 3 -1 10q0 12 4.5 17t9.5 11q2 2 6.5 3.5t6.5 1.5h21q3 -2 7 -7t8.5 -11t8 -11.5t3.5 -7.5v-106q0 -4 -2 -14.5t-5 -18.5l-4 -147q-1 -20 -5.5 -31.5t-9.5 -18.5
q0 -2 0.5 -5.5t0.5 -7.5t-0.5 -11.5t-1.5 -14.5q6 -15 6 -40q1 -3 1 -8.5v-10.5q0 -10 -0.5 -21t-0.5 -17l-7 -37q0 -1 0.5 -1.5t0.5 -2.5q1 -2 1 -7v-8q0 -7 -0.5 -19t-1.5 -21q-1 -5 -1 -7.5v-4.5v-4q0 -2 -3 -11.5t-7 -20.5q-4 -13 -10 -29q-1 -7 -3.5 -15t-6.5 -17
q-4 -11 -9.5 -24t-5.5 -20l-18 -30q-9 -11 -14 -28l-43 -25q-2 -6 -7.5 -7t-13.5 -1q-5 0 -15 1t-19 2q-18 3 -27 3l2 2q-1 0 -3 -2h1h-1q-6 -2 -9 -2q-4 0 -8.5 1t-9.5 3q-3 2 -7 3.5t-7 2.5q-4 -3 -10 -3q-13 0 -18.5 6t-12.5 11t-6 6q-7 1 -10.5 4.5t-8.5 10.5l-15 21
q-2 0 -17 3.5t-20 13.5q0 2 4 10t9.5 17t11.5 16t11 7q2 0 7 -1.5t9 -3.5t5 -3t2 -1q3 0 14 -6.5t21 -13.5l2 -4q0 -1 1 -1q6 0 12.5 -3.5t12.5 -7.5q4 -2 9 -4t3 -3q4 -2 13 -4.5t15 -5.5l6 -3q2 1 4 0.5t5 -0.5q3 -1 7 -1q3 0 6.5 -0.5t5.5 -0.5zM107 90q1 1 2 0h-2z
M106 90v1l1 -1h-1z" />
    <glyph glyph-name="Thorn" unicode="&#xde;" horiz-adv-x="396" 
d="M-5 254q0 7 1 10q0 3 1 5l15 16q3 0 6 1q6 2 8 2t3 -0.5t3 -0.5l-7 149l-7 11v19q1 4 2 7q2 6 3 7q2 4 3 8.5t-1 0.5q0 28 -1 55.5t-1 55.5q0 6 3 14v5l1 -2q0 4 -2 6q-8 8 -5.5 18.5t13.5 12.5q1 0 1 0.5t1 0.5q7 3 18 8.5t22 5.5t19.5 -5.5t8.5 -22.5q0 -8 -5 -21
q2 -4 2 -7v-5q1 -1 1 -5q0 -2 0.5 -2t0.5 -2q0 -4 -2 -8v-10q0 -8 0.5 -16t0.5 -16q0 -10 -0.5 -18.5t-0.5 -15.5v-1l45 8l11 -2q-1 0 0 1q0 1 4 3t8 3.5t8 1.5h58q5 0 10 -3t7 -7q0 1 5 0t10 -3l11 -3q5 -2 14 -6t15 -7l30 -22l22 -11l11 -22q3 -6 6.5 -17t3.5 -13v-24
l-10 -29l-16 -31l-7 -7l-15 -29l-9 -11l-13 -5q-1 0 2.5 0t2.5 -1l-15 -9l-36 -26l-24 -11l-3 -4q-2 -3 -7 -6t-9 -3t-10.5 -3t-11.5 -6l-9 -5l-78 -19q-2 -8 -3.5 -16.5t-1.5 -11.5v-139q0 -10 -6 -16t-14 -9t-17.5 -3.5t-16.5 -0.5q-8 0 -13.5 5t-5.5 13v183h-2
q-11 0 -15.5 6t-6.5 13l-4 5l-9 27q-1 1 -1 3v9zM106 254q6 2 7 2l31 10q5 0 16 4.5t25 12.5q14 7 29.5 13.5t29.5 11.5h-1l11 6l30 29q18 16 27 29t9 34q0 5 -6 14t-16 16q-26 17 -56 22t-53 5h-5l-24 -16h-37q-2 0 -7.5 -1.5t-10.5 -4.5l-5 -22l6 -60v-105z" />
    <glyph glyph-name="germandbls" unicode="&#xdf;" horiz-adv-x="356" 
d="M9 -110q-2 2 -4 6.5t-2 6.5v5q-2 11 -4.5 31t-2.5 42q0 9 0.5 16t3.5 15v19q0 8 -0.5 15t1.5 12q0 19 -3 37q-2 11 -3 22.5t-1 28.5q0 28 2.5 65t6 74.5t7 72t5.5 58.5q2 17 3.5 27.5t1.5 7.5q17 28 29 51q11 20 19.5 35.5t9.5 16.5q2 11 11 27t27 19l1 1q8 8 18.5 14.5
t29.5 7.5q-1 0 2.5 1t5.5 3q7 4 15 4q10 0 19.5 -3.5t18.5 -7.5l13 -6q17 -9 28 -17t18.5 -18.5t12.5 -24t8 -31.5l-1 2q7 -21 10.5 -36.5t5 -28t1 -24t-0.5 -23.5v-22q0 -9 -4 -15q-2 -3 -4 -4q0 -5 0.5 -11.5t0.5 -11.5v-8q0 -1 -0.5 -3.5t-0.5 -3.5q-5 -7 -9.5 -16
t-7.5 -17t-4.5 -12.5t-1.5 -2.5q-1 -8 -3 -17.5t-4 -13.5q-5 -17 -11.5 -29t-13.5 -21l-4 -9q13 -8 29.5 -24t16.5 -37q0 -36 -6.5 -58.5t-16.5 -36t-22 -20.5t-22 -12l-2 -1l-8 -3q-5 -2 -9.5 -4t-10.5 -4h1q-20 -7 -41 -14t-23 -9q-13 -10 -30 -10q-11 0 -23.5 7.5
t-20.5 15.5v-54l-9 -43q-1 -3 -5 -7t-7 -6q-5 -2 -16.5 1t-17.5 12zM73 350q-1 -1 -1.5 -3t-1 -12t-1.5 -30.5t-1.5 -56t-1 -90t-0.5 -132.5q5 3 12.5 3.5t15.5 1.5q5 0 9 0.5t9 2.5l82 24q15 10 23.5 16t12 11.5t4.5 12t1 17.5v13q0 6 -8 12t-10 6t-9 -8t-13 -15
q-3 -5 -9.5 -6t-12.5 2q-3 1 -8.5 6t-11 12t-9.5 14.5t-5 13.5l-5 -5q0 11 5 15.5t12 8.5q2 0 7 3q19 11 27 22t16 27q25 46 36.5 73.5t11.5 49.5q0 5 -0.5 11.5t-0.5 12.5v23q0 1 1 6t2.5 11.5t3 11.5t1.5 6q-3 16 -7 31q-3 13 -6.5 27t-5.5 25l-11 17l-10.5 15t-7.5 7
t-8.5 2.5t-13.5 0.5q-26 0 -39 -14t-32 -48h1q-5 -8 -9.5 -15t-8.5 -15q-5 -8 -7.5 -18t-4.5 -21q-2 -6 -2.5 -12t-4.5 -14q2 -3 5.5 -7.5t3.5 -14.5t-2.5 -15t-7.5 -10q-1 -3 -2 -6.5t-3 -5.5z" />
    <glyph glyph-name="agrave" unicode="&#xe0;" horiz-adv-x="350" 
d="M134 567q-5 2 -12 7t-14.5 11t-12.5 13t-5 14q0 3 4.5 9.5t10.5 13.5t12 12t9 5t9 -2q2 -1 4 -1q13 -13 21 -19t14 -10q10 -8 18 -14.5t16 -17.5l4 -7q0 5 -1 6q3 -1 6 -3t5 -4l35 -41q20 -23 33 -40.5t9 -28.5q-4 -13 -17 -13q-4 0 -12.5 0.5t-13.5 2.5q-10 5 -21 13.5
t-18 17.5q-16 11 -27 22l-22 22q-17 18 -32 32q-2 0 -3 1zM210 588l1 -1zM112 -7q-18 0 -27 8q-6 -2 -13 -2q-3 0 -12.5 7t-20.5 18t-19.5 24.5t-8.5 25.5v2q-2 2 -4.5 6t-2.5 9v13h-1q-1 0 -3.5 8t-4.5 18.5t-4 20.5t-2 15q0 11 3 17q-4 5 -4 13q0 12 14 12l2 1v39
q0 10 11 16h-2q0 3 0.5 9t3.5 12.5t8 11.5t14 5q3 0 3.5 6t-0.5 12t-1.5 10t-0.5 0l16 33l11 11l3 2q2 11 10 17.5t16 11.5q0 -2 1 -4v8q8 12 18 20t22 8q1 0 9.5 3.5t19.5 7.5t23 7.5t19 3.5q10 0 14 -9h10q3 0 14 -5t22.5 -12.5t20.5 -17.5t9 -19q0 -10 -8 -15v-2
q0 -7 -6 -13q6 -12 6 -22h-6q6 -1 10 -6.5t4 -11.5l1 -44q2 -1 4 -5.5t2 -6.5v-23q7 -9 7 -19v-15q3 -4 4.5 -7t1.5 -9l-2 7q2 -8 4.5 -24.5t4.5 -30.5q2 -17 6 -24t4 -19v-15q2 -18 7.5 -26.5t5.5 -16.5q0 -21 -7 -30.5t-27 -9.5q-21 0 -33 8.5t-12 20.5q0 6 4 12l-3 15
t-3.5 20.5t-2.5 18.5t-1 10q0 14 -4.5 25t-6.5 29q-2 -5 -4.5 -10.5t-4.5 -7.5l-9 -9q-3 -4 -5.5 -7t-2.5 -2l-1 -19q-3 -9 -6 -17q-2 -7 -5.5 -14t-5.5 -9q-9 -9 -23 -22.5t-28.5 -26t-27 -21.5t-17.5 -9zM77 98q0 -5 -7 -12l17 -13h8q15 0 17.5 2t5.5 7l1 1q3 5 5.5 10.5
t10.5 13.5q3 7 6.5 11.5t7.5 9.5t9 12.5t12 22.5l4 5q0 10 5 20l10 20t9 20t2 20l9 19q1 2 1.5 9t1.5 17t2.5 21t4.5 21q0 11 6 21t6 18q-4 13 -20 13q-4 0 -13 -4.5t-14 -4.5h-16l2 -2q-4 -5 -9 -10t-9 -7l-1 -1q2 -6 2 -7q0 -10 -19 -17q-2 0 -5.5 0.5t-4.5 0.5
q-10 -14 -18 -27q-7 -11 -12.5 -24t-5.5 -21l-5 -18q0 -10 -2 -10.5t-5 -2.5q0 -3 0.5 -5.5t0.5 -4.5q-8 -14 -7.5 -18.5t-2.5 -10.5q3 -5 3 -10q0 -8 -6 -12l-4 -4h1q0 -14 8 -31.5t8 -37.5z" />
    </font>
</defs>
</svg>
